<svg width="24" height="24" viewBox="0 0 24 24" fill="none" xmlns="http://www.w3.org/2000/svg">
<path fill-rule="evenodd" clip-rule="evenodd" d="M12 3.5C8.58274 3.5 5.8125 6.27024 5.8125 9.6875C5.8125 11.5195 6.6077 13.1647 7.87416 14.2987L7.87867 14.3028C8.39323 14.7635 8.78453 15.1139 9.06439 15.3705C9.32658 15.6108 9.53872 15.8112 9.65122 15.95L9.66545 15.9676C9.86816 16.2177 10.0507 16.4429 10.1714 16.7129C10.2921 16.9829 10.3381 17.2692 10.3892 17.587L10.3928 17.6094C10.4178 17.765 10.4289 17.953 10.4337 18.1875H13.5663C13.5711 17.953 13.5822 17.765 13.6073 17.6094L13.6108 17.587C13.6619 17.2692 13.7079 16.983 13.8286 16.7129C13.9493 16.4429 14.1318 16.2177 14.3345 15.9676L14.3488 15.95C14.4613 15.8112 14.6734 15.6108 14.9356 15.3705C15.2155 15.1138 15.6069 14.7634 16.1216 14.3025L16.1258 14.2987C17.3923 13.1647 18.1875 11.5195 18.1875 9.6875C18.1875 6.27024 15.4173 3.5 12 3.5ZM13.5545 19.6875H10.4455C10.4484 19.7591 10.4523 19.8235 10.4577 19.8826C10.4762 20.087 10.5069 20.1534 10.5229 20.1812C10.5789 20.2782 10.6593 20.3586 10.7563 20.4146C10.7841 20.4306 10.8505 20.4613 11.0549 20.4798C11.2695 20.4993 11.5539 20.5 12 20.5C12.4461 20.5 12.7305 20.4993 12.9451 20.4798C13.1495 20.4613 13.2159 20.4306 13.2438 20.4146C13.3407 20.3586 13.4211 20.2782 13.4771 20.1812C13.4931 20.1534 13.5238 20.087 13.5423 19.8826C13.5477 19.8235 13.5516 19.7591 13.5545 19.6875ZM4.3125 9.6875C4.3125 5.44181 7.75431 2 12 2C16.2457 2 19.6875 5.44181 19.6875 9.6875C19.6875 11.9637 18.6973 14.0097 17.1265 15.4162C16.6066 15.8817 16.2218 16.2262 15.9493 16.4761C15.813 16.6011 15.7092 16.6983 15.6328 16.7728C15.5947 16.8098 15.5659 16.8389 15.5446 16.8612C15.5222 16.8846 15.514 16.8946 15.5142 16.8944C15.2723 17.1929 15.2255 17.2636 15.1981 17.3249C15.1707 17.3863 15.1492 17.4683 15.0882 17.8476C15.0652 17.9909 15.0625 18.2401 15.0625 18.9375V18.9692C15.0625 19.3743 15.0625 19.7275 15.0362 20.018C15.0083 20.3264 14.946 20.6371 14.7761 20.9312C14.5885 21.2562 14.3187 21.526 13.9938 21.7136C13.6996 21.8835 13.3889 21.9458 13.0805 21.9737C12.79 22 12.4369 22 12.0317 22H11.9683C11.5631 22 11.21 22 10.9195 21.9737C10.6111 21.9458 10.3004 21.8835 10.0062 21.7136C9.68131 21.526 9.41148 21.2562 9.22387 20.9312C9.05404 20.6371 8.99175 20.3264 8.9638 20.018C8.93747 19.7275 8.93748 19.3744 8.9375 18.9692L8.9375 18.9375C8.9375 18.2401 8.93485 17.9909 8.91179 17.8476C8.85076 17.4683 8.82933 17.3863 8.80191 17.3249C8.77449 17.2636 8.72771 17.1929 8.4858 16.8944C8.48515 16.8936 8.47661 16.8834 8.45539 16.8612C8.43414 16.8389 8.4053 16.8098 8.36724 16.7728C8.29085 16.6983 8.18702 16.6011 8.05073 16.4761C7.77815 16.2262 7.39341 15.8817 6.87354 15.4162C5.30274 14.0097 4.3125 11.9637 4.3125 9.6875Z" fill="#138BE1"/>
</svg>
