<svg width="25" height="24" viewBox="0 0 25 24" fill="none" xmlns="http://www.w3.org/2000/svg">
<path fill-rule="evenodd" clip-rule="evenodd" d="M11.3065 2.93189C11.3129 2.93189 11.3193 2.93189 11.3258 2.93189L13.6862 2.93189C13.7772 2.93187 13.8561 2.93185 13.9315 2.93642C14.8846 2.99433 15.7175 3.5976 16.0725 4.4835C16.1006 4.55355 16.1255 4.62852 16.1542 4.71517L16.1815 4.79712C16.1974 4.84507 16.2009 4.85555 16.2037 4.86311C16.2967 5.12117 16.4933 5.52772 16.7299 5.8566C16.8479 6.02061 16.9552 6.13611 17.04 6.20384C17.0656 6.22422 17.0841 6.2364 17.0959 6.24332C18.442 6.3311 19.5381 6.57354 20.3627 7.40071C21.0229 8.06295 21.307 8.89671 21.4399 9.88842C21.568 10.8443 21.568 12.0599 21.568 13.5697V13.6892C21.568 15.1989 21.568 16.4146 21.4399 17.3704C21.307 18.3621 21.0229 19.1959 20.3627 19.8581C19.7022 20.5207 18.87 20.8062 17.8802 20.9397C16.9268 21.0683 15.7145 21.0683 14.2099 21.0683H10.7897C9.28514 21.0683 8.07284 21.0683 7.11947 20.9397C6.12964 20.8062 5.29745 20.5207 4.63693 19.8581C3.97675 19.1959 3.69263 18.3621 3.55971 17.3704C3.4316 16.4146 3.43162 15.1989 3.43164 13.6892V13.5696C3.43162 12.0599 3.4316 10.8443 3.55971 9.88842C3.69263 8.89671 3.97675 8.06295 4.63693 7.40071C5.45984 6.57522 6.55316 6.33209 7.89561 6.24385C7.90731 6.23703 7.92617 6.22474 7.95244 6.20378C8.03733 6.13603 8.14465 6.02051 8.26269 5.85649C8.49941 5.5276 8.69602 5.12108 8.78904 4.86313C8.7918 4.85549 8.79525 4.84531 8.81125 4.79714L8.83242 4.73344C8.83447 4.72728 8.83649 4.72119 8.8385 4.71515C8.86726 4.62852 8.89215 4.55355 8.92023 4.4835C9.27526 3.5976 10.1081 2.99433 11.0613 2.93642C11.1366 2.93185 11.2156 2.93187 11.3065 2.93189ZM7.97946 7.87829C8.01605 7.87736 8.05202 7.87503 8.08738 7.87139C8.09181 7.87112 8.09626 7.87086 8.10071 7.87059C8.83257 7.82728 9.72272 7.82696 10.8498 7.82696H14.1498C15.2753 7.82696 16.1644 7.82728 16.8957 7.8704C16.934 7.87461 16.9731 7.8773 17.0129 7.87831C18.2538 7.96186 18.8222 8.17316 19.2038 8.55599C19.3087 8.66121 19.401 8.78096 19.4815 8.9255C17.3291 10.3258 16.279 10.9753 15.1918 11.3142C13.4372 11.861 11.5586 11.861 9.804 11.3142C8.71727 10.9755 7.66766 10.3263 5.51716 8.92733C5.59783 8.78196 5.69049 8.66165 5.79582 8.55599C6.1767 8.17391 6.74364 7.96218 7.97946 7.87829ZM5.12793 10.6261C5.06912 11.3894 5.06801 12.3545 5.06801 13.6294C5.06801 15.213 5.06973 16.3186 5.18157 17.1531C5.29029 17.9642 5.48944 18.3955 5.79582 18.7029C6.10184 19.0098 6.53074 19.2091 7.33818 19.318C8.16942 19.4301 9.27099 19.4319 10.8498 19.4319H14.1498C15.7287 19.4319 16.8302 19.4301 17.6615 19.318C18.4689 19.2091 18.8978 19.0098 19.2038 18.7029C19.5102 18.3955 19.7094 17.9642 19.8181 17.1531C19.9299 16.3186 19.9316 15.213 19.9316 13.6294C19.9316 12.3532 19.9305 11.3874 19.8715 10.6238C18.0599 11.7973 16.9021 12.4951 15.6787 12.8764C13.6071 13.5221 11.3888 13.5221 9.3171 12.8764C8.09454 12.4954 6.93746 11.7982 5.12793 10.6261ZM15.0157 6.19147C14.7459 6.1906 14.4647 6.1906 14.172 6.1906H10.8276C10.5324 6.1906 10.2489 6.1906 9.97692 6.19149C10.1286 5.91075 10.2492 5.63791 10.3284 5.41822C10.3391 5.38851 10.3495 5.35713 10.3616 5.32087L10.3853 5.24945C10.4235 5.13442 10.4319 5.11021 10.4392 5.09222C10.5596 4.79157 10.8411 4.58918 11.1605 4.56978C11.1795 4.56862 11.2048 4.56825 11.3258 4.56825H13.6669C13.7879 4.56825 13.8132 4.56862 13.8322 4.56978C14.1516 4.58918 14.4331 4.79157 14.5536 5.09222C14.5608 5.11021 14.5692 5.13441 14.6074 5.24945L14.6286 5.31315L14.6312 5.32093M14.6643 5.41823C14.7435 5.63788 14.864 5.91072 15.0157 6.19147L14.6643 5.41823Z" fill="#138BE1"/>
</svg>
