<svg width="24" height="24" viewBox="0 0 24 24" fill="none" xmlns="http://www.w3.org/2000/svg">
<path fill-rule="evenodd" clip-rule="evenodd" d="M2 5.83333C2 3.71624 3.71624 2 5.83333 2H14.6979C16.815 2 18.5312 3.71624 18.5312 5.83333V7.02753C20.4773 7.21114 22 8.84962 22 10.8438V18.1667C22 20.2838 20.2838 22 18.1667 22H9.6875C7.57041 22 5.85417 20.2838 5.85417 18.1667V17.7604H5.83333C3.71624 17.7604 2 16.0442 2 13.9271V5.83333ZM7.35417 18.1667C7.35417 19.4553 8.39884 20.5 9.6875 20.5H18.1667C19.4553 20.5 20.5 19.4553 20.5 18.1667V10.8438C20.5 9.55509 19.4553 8.51042 18.1667 8.51042H9.6875C8.39884 8.51042 7.35417 9.55509 7.35417 10.8438V18.1667ZM17.0312 7.01042H9.6875C7.57041 7.01042 5.85417 8.72666 5.85417 10.8438V16.2604H5.83333C4.54467 16.2604 3.5 15.2157 3.5 13.9271V5.83333C3.5 4.54467 4.54467 3.5 5.83333 3.5H14.6979C15.9866 3.5 17.0312 4.54467 17.0312 5.83333V7.01042ZM8.70643 11.6962C8.70643 10.8043 9.42943 10.0813 10.3213 10.0813H11.1862C12.078 10.0813 12.801 10.8043 12.801 11.6962V12.5611C12.801 13.4529 12.078 14.1759 11.1862 14.1759H10.3213C9.42943 14.1759 8.70643 13.4529 8.70643 12.5611V11.6962ZM10.3213 11.5813C10.2579 11.5813 10.2064 11.6327 10.2064 11.6962V12.5611C10.2064 12.6245 10.2579 12.6759 10.3213 12.6759H11.1862C11.2496 12.6759 11.301 12.6245 11.301 12.5611V11.6962C11.301 11.6327 11.2496 11.5813 11.1862 11.5813H10.3213ZM13.8956 12.1286C13.8956 11.7144 14.2314 11.3786 14.6456 11.3786H18.1051C18.5193 11.3786 18.8551 11.7144 18.8551 12.1286C18.8551 12.5428 18.5193 12.8786 18.1051 12.8786H14.6456C14.2314 12.8786 13.8956 12.5428 13.8956 12.1286ZM8.70643 16.453C8.70643 15.5611 9.42943 14.8381 10.3213 14.8381H11.1862C12.078 14.8381 12.801 15.5611 12.801 16.453V17.3178C12.801 18.2097 12.078 18.9327 11.1862 18.9327H10.3213C9.42943 18.9327 8.70643 18.2097 8.70643 17.3178V16.453ZM10.3213 16.3381C10.2579 16.3381 10.2064 16.3895 10.2064 16.453V17.3178C10.2064 17.3813 10.2579 17.4327 10.3213 17.4327H11.1862C11.2496 17.4327 11.301 17.3813 11.301 17.3178V16.453C11.301 16.3895 11.2496 16.3381 11.1862 16.3381H10.3213ZM13.8956 16.8854C13.8956 16.4712 14.2314 16.1354 14.6456 16.1354H18.1051C18.5193 16.1354 18.8551 16.4712 18.8551 16.8854C18.8551 17.2996 18.5193 17.6354 18.1051 17.6354H14.6456C14.2314 17.6354 13.8956 17.2996 13.8956 16.8854Z" fill="#138BE1"/>
</svg>
