<svg width="24" height="24" viewBox="0 0 24 24" fill="none" xmlns="http://www.w3.org/2000/svg">
<path fill-rule="evenodd" clip-rule="evenodd" d="M11.3747 3.25H13.1253C13.8601 3.24997 14.4859 3.24994 14.9854 3.3171C15.5179 3.38869 16.0178 3.54873 16.4221 3.95295C16.8263 4.35716 16.9863 4.85708 17.0579 5.38957C17.1251 5.88912 17.125 6.51487 17.125 7.24971L17.125 8.20025C17.5448 8.20134 17.9105 8.20724 18.2189 8.23861C18.6199 8.27941 19.0065 8.36937 19.3584 8.60448C19.6204 8.77958 19.8454 9.00458 20.0205 9.26663C20.2556 9.61849 20.3456 10.0051 20.3864 10.4061C20.425 10.786 20.425 11.2527 20.425 11.8004V19.75H20.5C20.9142 19.75 21.25 20.0858 21.25 20.5C21.25 20.9142 20.9142 21.25 20.5 21.25H4C3.58579 21.25 3.25 20.9142 3.25 20.5C3.25 20.0858 3.58579 19.75 4 19.75H4.075L4.075 11.8004C4.07498 11.2527 4.07496 10.786 4.11361 10.4061C4.1544 10.0051 4.24437 9.61849 4.47947 9.26663C4.65457 9.00458 4.87958 8.77958 5.14163 8.60448C5.49349 8.36937 5.88007 8.27941 6.28106 8.23861C6.58951 8.20724 6.95521 8.20134 7.375 8.20025V7.3C7.375 7.28318 7.375 7.26641 7.375 7.2497C7.37496 6.51486 7.37493 5.88912 7.4421 5.38957C7.51369 4.85708 7.67373 4.35716 8.07794 3.95295C8.48216 3.54873 8.98208 3.38869 9.51457 3.3171C10.0141 3.24994 10.6399 3.24997 11.3747 3.25ZM7.375 9.70035C6.9634 9.70157 6.66799 9.70699 6.43287 9.73091C6.15048 9.75964 6.0393 9.80871 5.97499 9.85168C5.87672 9.91734 5.79234 10.0017 5.72668 10.1C5.68371 10.1643 5.63464 10.2755 5.60591 10.5579C5.57591 10.8528 5.575 11.2426 5.575 11.8375V19.75H7.375V9.70035ZM8.875 19.75H11.5V18.025C11.5 17.6108 11.8358 17.275 12.25 17.275C12.6642 17.275 13 17.6108 13 18.025V19.75H15.625V7.3C15.625 6.50098 15.6234 5.97717 15.5713 5.58944C15.5221 5.22329 15.4405 5.09267 15.3614 5.01361C15.2823 4.93455 15.1517 4.85295 14.7856 4.80372C14.3978 4.7516 13.874 4.75 13.075 4.75H11.425C10.626 4.75 10.1022 4.7516 9.71444 4.80372C9.34829 4.85295 9.21766 4.93455 9.1386 5.01361C9.05954 5.09267 8.97795 5.22329 8.92872 5.58944C8.87659 5.97717 8.875 6.50098 8.875 7.3V19.75ZM17.125 19.75H18.925V11.8375C18.925 11.2426 18.9241 10.8528 18.8941 10.5579C18.8654 10.2755 18.8163 10.1643 18.7733 10.1C18.7077 10.0017 18.6233 9.91734 18.525 9.85168C18.4607 9.80871 18.3495 9.75964 18.0671 9.73091C17.832 9.70699 17.5366 9.70157 17.125 9.70035V19.75ZM9.85 6.475C9.85 6.06079 10.1858 5.725 10.6 5.725H13.9C14.3142 5.725 14.65 6.06079 14.65 6.475C14.65 6.88922 14.3142 7.225 13.9 7.225H10.6C10.1858 7.225 9.85 6.88922 9.85 6.475ZM9.85 8.95C9.85 8.53579 10.1858 8.2 10.6 8.2H13.9C14.3142 8.2 14.65 8.53579 14.65 8.95C14.65 9.36422 14.3142 9.7 13.9 9.7H10.6C10.1858 9.7 9.85 9.36422 9.85 8.95ZM9.85 11.425C9.85 11.0108 10.1858 10.675 10.6 10.675H13.9C14.3142 10.675 14.65 11.0108 14.65 11.425C14.65 11.8392 14.3142 12.175 13.9 12.175H10.6C10.1858 12.175 9.85 11.8392 9.85 11.425ZM9.85 13.9C9.85 13.4858 10.1858 13.15 10.6 13.15H13.9C14.3142 13.15 14.65 13.4858 14.65 13.9C14.65 14.3142 14.3142 14.65 13.9 14.65H10.6C10.1858 14.65 9.85 14.3142 9.85 13.9Z" fill="#138BE1"/>
</svg>
