<svg width="209" height="180" viewBox="0 0 209 180" fill="none" xmlns="http://www.w3.org/2000/svg">
<path d="M143.983 72.7917L123.318 96.8776C122.87 97.3931 122.23 97.6165 121.558 97.492L117.717 96.7695C116.319 96.4946 115.733 94.8149 116.655 93.7301L137.32 69.6442C137.768 69.1287 138.408 68.9053 139.08 69.0298L142.921 69.7523C144.319 70.0272 144.905 71.7069 143.983 72.7917Z" fill="#F0F0F0"/>
<path d="M163.057 91.5708L153.265 102.976C153.001 103.248 152.655 103.414 152.266 103.326L146.597 102.254C145.777 102.091 145.442 101.131 145.996 100.534L155.789 89.1285C156.053 88.8568 156.413 88.7311 156.788 88.7794L162.457 89.8511C163.223 89.9877 163.558 90.9475 163.057 91.5708Z" fill="#F0F0F0"/>
<path d="M134.868 60.0464L121.861 58.2615C118.395 57.5872 113.716 59.221 111.463 61.8922L63.602 116.158C61.349 118.83 62.2846 121.509 65.7505 122.183L131.76 134.671C135.226 135.345 139.905 133.711 142.158 131.04L188.798 76.6173C191.051 73.9461 191.135 70.4617 187.669 69.7875L151.095 63.0852L134.868 60.0464Z" fill="white"/>
<path d="M183.246 98.2514L192.748 87.1713C193.868 85.8828 194.197 84.5116 193.82 83.4318L190.159 72.8198C190.536 73.8996 190.194 75.2307 189.087 76.5593L142.513 130.914C140.246 133.546 135.567 135.179 132.115 134.545L67.4351 122.266C65.7021 121.929 63.0595 121.685 62.6824 120.606L66.0496 130.378C66.4267 131.458 69.4679 133.357 71.2409 133.68L135.83 145.183C139.282 145.817 143.921 144.198 146.228 141.553L174.602 108.448" fill="#F0F0F0"/>
<path d="M154.452 81.0699L138.137 100.137C137.873 100.409 137.513 100.535 137.137 100.486L131.414 99.3886C130.649 99.2521 130.314 98.2923 130.814 97.6689L147.129 78.6016C147.393 78.3299 147.753 78.2042 148.129 78.2525L153.851 79.3502C154.671 79.5128 155.006 80.4726 154.452 81.0699Z" fill="#F0F0F0"/>
<path d="M119.575 80.7735L108.03 94.227C107.714 94.6066 107.194 94.7881 106.671 94.7017L101.862 93.7785C100.8 93.5659 100.353 92.2861 101.052 91.459L112.597 78.0056C112.913 77.626 113.433 77.4444 113.956 77.5308L118.765 78.454C119.813 78.6267 120.314 79.9325 119.575 80.7735Z" fill="#F0F0F0"/>
<path d="M144.787 61.6072L187.168 69.6472C189.143 70.0345 190.524 71.0331 191.013 72.4328L191.026 72.4728L194.015 81.0312C194.657 82.8709 194.606 84.908 193.787 86.6746C193.604 87.0523 193.382 87.4439 193.118 87.7156L183.55 98.8635" stroke="#232323" stroke-miterlimit="10" stroke-linecap="round" stroke-linejoin="round"/>
<path d="M63.1764 116.753C61.4954 119.135 62.1834 121.363 65.1117 121.911C66.9386 122.26 127.723 133.79 131.861 134.589C135.085 135.213 139.71 133.553 141.779 131.126L183.661 82.2226C186.112 79.3477 189.525 75.374 189.881 74.9805C191.738 72.7169 190.96 70.7451 188.122 69.9414" stroke="#232323" stroke-miterlimit="10"/>
<path d="M174.852 109.034L146.412 142.207C143.921 145.095 139.002 146.813 135.254 146.103L70.4662 133.772C70.0765 133.683 69.6728 133.555 69.2411 133.347C67.4066 132.462 66.0843 130.86 65.4141 128.94L62.4677 120.502C62.4677 120.502 62.4677 120.502 62.4537 120.462C61.965 119.062 62.424 117.421 63.7025 115.943L110.659 61.1399C113.136 58.211 118.095 56.4795 121.896 57.216L135.115 59.7347" stroke="#232323" stroke-miterlimit="10" stroke-linecap="round" stroke-linejoin="round"/>
<path d="M146.3 101.414L156.474 89.561L162.721 90.7451L152.546 102.598L146.3 101.414Z" stroke="#232323" stroke-miterlimit="10" stroke-linecap="round" stroke-linejoin="round"/>
<path d="M116.068 95.6403L138.327 69.6964L144.573 70.8805L122.314 96.8244L116.068 95.6403Z" stroke="#138BE1" stroke-miterlimit="10" stroke-linecap="round" stroke-linejoin="round"/>
<path d="M154.161 80.2299L137.45 99.7048L131.204 98.5207L147.915 79.0458L154.161 80.2299Z" stroke="#232323" stroke-miterlimit="10" stroke-linecap="round" stroke-linejoin="round"/>
<path d="M119.678 79.3925L107.17 93.9447L100.924 92.7605L113.417 78.1683L119.678 79.3925Z" stroke="#232323" stroke-miterlimit="10" stroke-linecap="round" stroke-linejoin="round"/>
<path d="M87.7432 103.063L148.218 114.477L84.959 102.285" stroke="#232323" stroke-miterlimit="10" stroke-linecap="round" stroke-linejoin="round"/>
<path d="M140.718 123.197L77.459 111.005" stroke="#232323" stroke-miterlimit="10" stroke-linecap="round" stroke-linejoin="round"/>
<path d="M92.3489 111.609L5.99651 75.0413C5.99651 75.0413 3.21711 65.1537 6.80516 60.2665C10.3932 55.3794 12.4107 52.1623 17.7538 52.9439C23.0968 53.7256 102.008 88.8987 102.008 88.8987L117.078 108.673L92.3489 111.609Z" fill="white"/>
<path d="M23.2409 82.3932L92.3544 111.61L99.6801 107.661L31.2344 78.301" stroke="#232323" stroke-miterlimit="10" stroke-linecap="round" stroke-linejoin="round"/>
<path d="M32.0859 59.1582L56.6972 69.6339" stroke="#232323" stroke-miterlimit="10" stroke-linecap="round" stroke-linejoin="round"/>
<path d="M72.3464 76.2847L101.972 88.9132L104.243 96.9593L35.375 68.0608" stroke="#232323" stroke-miterlimit="10" stroke-linecap="round" stroke-linejoin="round"/>
<path d="M117.076 108.673L92.3466 111.61L99.6723 107.661L104.262 96.9052L102.005 88.899L117.076 108.673Z" fill="white"/>
<path d="M102.005 88.899L112.053 102.127L117.076 108.673L108.931 109.633L92.3466 111.61L99.6723 107.661L104.262 96.9052L102.005 88.899Z" stroke="#232323" stroke-miterlimit="10" stroke-linecap="round" stroke-linejoin="round"/>
<path d="M107.991 109.78L108.869 108.441C109.996 106.657 110.839 104.702 111.333 102.645L111.611 101.516" stroke="#232323" stroke-miterlimit="10" stroke-linecap="round" stroke-linejoin="round"/>
<path d="M17.7521 52.9437L32.1471 59.0897C33.8318 59.8027 35.0499 61.6208 35.3837 64.3758C36.0793 69.9658 33.0072 77.2303 28.4867 80.6034C26.2065 82.297 24.0151 82.7032 22.3304 81.9902L7.93538 75.8442C9.63406 76.5972 11.8254 76.191 14.0917 74.4574C18.5982 71.0443 21.6703 63.7798 20.9887 58.2298C20.6689 55.5147 19.4368 53.6567 17.7521 52.9437Z" stroke="#232323" stroke-miterlimit="10" stroke-linecap="round" stroke-linejoin="round"/>
<path d="M11.5577 54.3446C16.0642 50.9315 20.269 52.6939 21.0046 58.2699C21.7001 63.86 18.628 71.1244 14.1075 74.4976C9.60098 77.9107 5.38218 76.1083 4.70062 70.5583C4.00509 64.9683 7.09112 57.7438 11.5577 54.3446Z" fill="#F0F0F0" stroke="#232323" stroke-miterlimit="10" stroke-linecap="round" stroke-linejoin="round"/>
</svg>
