<svg width="166" height="156" viewBox="0 0 166 156" fill="none" xmlns="http://www.w3.org/2000/svg">
<path d="M117.798 114.192L113.069 122.562L112.285 124.003C105.54 136.08 81.2848 135.701 56.347 123.653C56.347 123.653 50.7114 120.766 49.5443 120.132C22.2383 104.75 6.24809 81.6454 13.6962 68.4386L19.2091 58.6272" fill="white"/>
<path d="M117.798 114.192L113.069 122.562L112.285 124.003C105.54 136.08 81.2848 135.701 56.347 123.653C56.347 123.653 50.7114 120.766 49.5443 120.132C22.2383 104.75 6.24809 81.6454 13.6962 68.4386L19.2091 58.6272" stroke="#1C1D22" stroke-miterlimit="10"/>
<path d="M117.819 114.229C125.233 101.067 109.173 77.9654 81.9483 62.6291C54.7232 47.2928 26.6428 45.5296 19.2289 58.6909C11.8149 71.8522 27.8749 94.954 55.0999 110.29C82.325 125.627 110.405 127.39 117.819 114.229Z" fill="white" stroke="#1C1D22" stroke-miterlimit="9.9999"/>
<path d="M25.9239 102.392L31.4621 92.8612" stroke="#1C1D22" stroke-miterlimit="10" stroke-linecap="round" stroke-linejoin="round"/>
<path d="M36.68 111.71L42.2495 102.285" stroke="#1C1D22" stroke-miterlimit="10" stroke-linecap="round" stroke-linejoin="round"/>
<path d="M90.2511 132.302L95.6028 123.114" stroke="#1C1D22" stroke-miterlimit="10" stroke-linecap="round" stroke-linejoin="round"/>
<path d="M101.346 104.94C106.282 96.178 95.5898 80.7984 77.4648 70.5883C59.3399 60.3782 40.6457 59.204 35.7101 67.9657C30.7745 76.7273 41.4666 92.107 59.5915 102.317C77.7165 112.527 96.4108 113.701 101.346 104.94Z" fill="white" stroke="#1C1D22" stroke-miterlimit="9.9999"/>
<path d="M151.102 87.3707L151.102 87.3707L151.099 87.3775C150.903 87.7377 150.746 88.0194 150.578 88.2019L150.538 88.2455L150.51 88.2972L146.409 95.6745L146.407 95.6786L145.624 97.1177C142.35 102.979 134.742 105.877 124.648 105.726C114.581 105.574 102.193 102.382 89.6196 96.2543L89.6176 96.2582C88.3609 95.6613 84.674 93.7423 83.5264 93.1184C74.1675 87.852 66.2039 81.6616 60.0262 75.2958C54.1307 69.2144 49.9 62.9869 47.7369 57.2293C45.5736 51.4713 45.4954 46.2381 47.8042 42.0693C47.8045 42.0688 47.8048 42.0684 47.805 42.0679L53.2045 32.4652L53.2045 32.4652L53.2079 32.459L53.318 32.2565C56.8768 25.9516 65.4912 23.1059 76.7916 23.8166C88.0548 24.525 101.805 28.7657 115.338 36.3902L115.34 36.3909C128.96 44.0185 139.748 53.585 146.197 62.8607C152.669 72.1678 154.679 81.0286 151.102 87.3707Z" fill="white" stroke="#1C1D22"/>
<path d="M151.504 87.5112L150.944 88.541L146.844 95.9183L146.06 97.36C139.24 109.574 114.642 109.008 89.3979 96.7047C88.4681 96.288 86.6831 95.3174 86.6831 95.3174C85.3101 94.5708 83.8997 93.8928 83.2818 93.5568C73.8823 88.2679 65.8786 82.048 59.6646 75.6447C47.8112 63.4175 42.5554 50.5081 47.365 41.8265L52.766 32.221L52.878 32.0151" fill="white"/>
<path d="M151.504 87.5112L150.944 88.541L146.844 95.9183L146.06 97.36C139.24 109.574 114.642 109.008 89.3979 96.7047C88.4681 96.288 86.6831 95.3174 86.6831 95.3174C85.3101 94.5708 83.8997 93.8928 83.2818 93.5568C73.8823 88.2679 65.8786 82.048 59.6646 75.6447C47.8112 63.4175 42.5554 50.5081 47.365 41.8265L52.766 32.221L52.878 32.0151" stroke="#1C1D22" stroke-miterlimit="10"/>
<path d="M151.53 87.6161C151.344 87.9593 151.157 88.3026 150.939 88.5399C147.179 94.1454 139.293 96.7066 129.339 96.3642C123.227 96.1539 116.346 94.9031 109.083 92.5551C102.513 90.4058 95.6551 87.4774 88.8644 83.607C85.1945 81.5225 81.7051 79.2694 78.4278 76.9536C57.8146 62.1871 46.7075 43.5163 52.9043 32.1199L53.0163 31.9139C60.4271 18.7758 88.5509 20.5476 115.72 35.8543C142.92 51.2671 158.978 74.4093 151.53 87.6161Z" fill="white" stroke="#1C1D22" stroke-miterlimit="9.9999"/>
<path d="M59.6251 75.7101L65.1633 66.1794" stroke="#1C1D22" stroke-miterlimit="10" stroke-linecap="round" stroke-linejoin="round"/>
<path d="M70.428 84.9677L75.9976 75.5429" stroke="#1C1D22" stroke-miterlimit="10" stroke-linecap="round" stroke-linejoin="round"/>
<path d="M123.946 105.624L129.335 96.3678" stroke="#1C1D22" stroke-miterlimit="10" stroke-linecap="round" stroke-linejoin="round"/>
<path d="M135.087 78.2636C140.022 69.502 129.33 54.1224 111.205 43.9123C93.0802 33.7022 74.3859 32.528 69.4504 41.2897C64.5148 50.0513 75.2069 65.431 93.3318 75.641C111.457 85.8511 130.151 87.0253 135.087 78.2636Z" fill="white" stroke="#1C1D22" stroke-miterlimit="9.9999"/>
</svg>
