<svg width="161" height="213" viewBox="0 0 161 213" fill="none" xmlns="http://www.w3.org/2000/svg">
<path d="M108.736 144.171L123.589 128.115L138.883 143.423L132.364 159.845L121.715 167.067L108.736 144.171Z" fill="#F0F0F0" stroke="#232323" stroke-linecap="round" stroke-linejoin="round"/>
<path d="M110.628 175.185L98.0122 183.719L78.139 177.428L75.9349 155.939L97.7832 154.585L110.628 175.185Z" fill="#F0F0F0" stroke="#232323" stroke-linecap="round" stroke-linejoin="round"/>
<path d="M81.7223 169.117C81.7223 169.117 54.9956 160.102 26.1142 111.848C-2.72322 63.5843 13.8108 25.1497 13.8108 25.1497L14.6064 24.5856C14.6064 24.5856 41.4189 23.3383 70.1344 45.4217C72.1425 46.9862 74.1718 48.6386 76.1783 50.3897C77.7265 51.7857 79.2852 53.2257 80.8105 54.7203C84.6019 58.4621 88.1609 62.3995 91.4982 66.5766C126.567 110.546 126.322 133.277 126.322 133.277C126.322 133.277 128.73 152.715 97.9206 166.936L81.7223 169.117Z" fill="white"/>
<path d="M45.6691 31.2998L41.7346 36.8103C35.5997 45.365 26.5856 51.4477 16.3821 53.9532L9.34854 55.6947" stroke="#232323" stroke-linecap="round" stroke-linejoin="round"/>
<path d="M48.237 75.185C44.0541 72.3284 40.0881 71.1421 36.8338 71.5536C35.709 73.4541 35.0546 75.5671 34.9376 77.7835C34.1156 88.2707 41.5777 102.396 51.6252 109.287C55.8081 112.144 59.7741 113.33 63.039 112.962C64.1639 111.062 64.8182 108.949 64.9353 106.732C65.4366 100.513 62.9054 93.1144 58.9171 86.626C57.3554 84.2087 55.5175 81.9977 53.4914 79.9717" fill="#F0F0F0"/>
<path d="M34.9289 77.738C35.0458 75.5216 35.6999 73.4085 36.8246 71.5081C32.2411 72.0067 29.0493 75.569 28.5712 81.6904C27.7501 92.1778 35.2127 106.304 45.26 113.196C52.8607 118.442 59.783 117.985 63.0203 112.876C59.7557 113.243 55.8005 112.1 51.6071 109.199C41.581 102.395 34.1625 88.2588 34.9289 77.738Z" fill="#F0F0F0" stroke="#138BE1" stroke-linecap="round" stroke-linejoin="round"/>
<path d="M48.2437 75.1842C44.0609 72.3273 40.0951 71.1407 36.8412 71.5519C35.7166 73.4524 35.0624 75.5654 34.9456 77.7818C34.1245 88.2692 41.587 102.395 51.6342 109.287C55.8169 112.144 59.7827 113.331 63.0473 112.963C64.1719 111.063 64.826 108.95 64.9429 106.733C65.4437 100.514 62.9122 93.1151 58.9237 86.6263C57.362 84.2089 55.5241 81.9977 53.498 79.9715" stroke="#138BE1" stroke-linecap="round" stroke-linejoin="round"/>
<path d="M76.1009 50.4549C77.649 51.8509 79.2078 53.2909 80.7331 54.7855C84.5244 58.5273 88.0834 62.4647 91.4208 66.6418C126.489 110.611 126.244 133.342 126.244 133.342C126.244 133.342 130.063 149.554 102.947 164.794C102.947 164.794 97.131 168.104 89.0167 169.035C80.913 170.01 76.3835 167.843 76.3835 167.843C76.3835 167.843 54.9956 160.102 26.1142 111.848C-2.72322 63.5843 13.8108 25.1497 13.8108 25.1497L14.6064 24.5856C14.6064 24.5856 41.4189 23.3383 70.1344 45.4217" stroke="#232323" stroke-linecap="round" stroke-linejoin="round"/>
<path d="M97.9062 107.256L113.898 135.106C113.898 135.106 126.012 135.306 130.483 145.727C132.391 150.155 141.912 162.2 141.912 162.2L150.612 155.587C150.612 155.587 144.535 134.845 138.154 125.583C130.361 114.332 102.128 106.797 97.9062 107.256Z" fill="#F0F0F0" stroke="#232323" stroke-linecap="round" stroke-linejoin="round"/>
<path d="M97.9056 107.255L101.89 100.987C101.89 100.987 120.747 105.382 134.401 118.525C148.01 131.679 152.797 150.358 152.797 150.358L150.666 155.62C150.666 155.62 141.253 133.214 129.296 122.083C117.285 110.918 97.9056 107.255 97.9056 107.255Z" fill="#F0F0F0" stroke="#232323" stroke-linecap="round" stroke-linejoin="round"/>
<path d="M66.0038 180.631C73.0928 189.351 91.3618 200.963 91.3618 200.963L100.127 194.428C100.127 194.428 91.202 181.961 87.4712 178.856C78.7439 171.648 81.8949 159.995 81.8949 159.995L59.5919 136.879C57.9879 140.85 57.3485 170.054 66.0038 180.631Z" fill="#F0F0F0" stroke="#232323" stroke-linecap="round" stroke-linejoin="round"/>
<path d="M65.0631 171.127C72.4439 185.689 91.3633 200.962 91.3633 200.962L85.7235 201.53C85.7235 201.53 69.1089 191.754 60.2637 174.984C51.4291 158.259 52.4914 138.915 52.4914 138.915L59.6374 136.868C59.5934 136.878 57.6824 156.566 65.0631 171.127Z" fill="#F0F0F0" stroke="#232323" stroke-linecap="round" stroke-linejoin="round"/>
</svg>
