<svg width="192" height="161" viewBox="0 0 192 161" fill="none" xmlns="http://www.w3.org/2000/svg">
<g clip-path="url(#clip0_3437_35639)">
<path d="M15.4711 91.578C15.4711 91.578 33.6705 87.0682 42.2906 78.5598C50.9107 70.0515 67.4236 56.3984 71.2186 54.0312C75.0203 51.5227 92.5139 44.0054 94.6669 43.4004C96.8199 42.7955 103.803 44.8289 103.803 44.8289L133.707 73.8726C133.707 73.8726 156.991 72.5797 160.435 77.559C163.885 82.397 161.166 85.9485 159.982 87.0247C158.797 88.1008 154.464 89.8759 154.464 89.8759C154.464 89.8759 155.728 93.0516 154.187 95.6683C152.646 98.2849 146.926 102.401 146.926 102.401C146.926 102.401 146.938 108.066 146.016 109.579C145.088 111.234 141.548 114.18 141.548 114.18C141.548 114.18 140.779 121.365 137.025 122.884C133.271 124.404 126.126 125.761 126.126 125.761L65.8659 127.408L60.241 129.546L15.4711 91.578Z" fill="white"/>
<path d="M123.879 30.6404C124.499 23.59 127.313 18.0606 132.245 15.6062C142.694 10.3006 160.688 21.9236 170.015 40.0702C179.341 58.2169 177.931 75.8496 167.482 81.1552C163.996 82.9708 159.893 82.916 155.574 81.4349" stroke="#1C1D22" stroke-miterlimit="10" stroke-linecap="round" stroke-linejoin="round"/>
<path d="M64.1689 59.3601C67.4123 56.6833 70.0567 54.6859 71.2275 53.8923C75.0292 51.3838 92.5229 43.8666 94.6759 43.2616C96.8288 42.6566 103.812 44.69 103.812 44.69" stroke="#138BE1" stroke-miterlimit="10" stroke-linecap="round" stroke-linejoin="round"/>
<path d="M15.4717 91.5774C15.4717 91.5774 33.671 87.0676 42.2912 78.5592C45.5616 75.3173 50.1508 71.1473 54.7266 67.2598" stroke="#138BE1" stroke-miterlimit="10" stroke-linecap="round" stroke-linejoin="round"/>
<path d="M169.08 68.4838C168.366 71.5649 164.907 75.789 161.711 77.4769C161.711 77.4769 153.295 75.7997 141.523 73.2538C139.053 74.5516 136.745 75.4324 135.185 75.4993C129.93 75.8142 124.797 76.5597 117.505 75.0779C110.353 73.6028 103.706 76.3999 99.7358 79.4667C96.6405 82.009 94.0224 86.415 92.9388 88.3456C92.6359 88.7559 92.7502 89.3278 92.8644 89.8996C94.6725 96.4999 93.9782 102.131 90.7679 107.075C86.4808 113.808 81.0453 111.99 79.5319 111.068C78.0184 110.146 76.3237 107.091 75.975 102.543C75.6263 97.9955 73.737 93.0906 72.5135 89.0672C71.2833 85.1851 69.4677 81.6997 74.3132 75.1347C76.1235 72.8142 79.3134 68.294 79.469 65.0446C79.6245 61.7952 80.5405 57.4493 83.3735 54.4697C86.2066 51.49 93.0428 47.7107 105.148 40.3604C114.332 34.8527 121.713 31.5243 125.319 30.1393C127.406 27.9735 130.501 25.4312 131.086 25.0344C132.264 24.0995 134.309 22.7814 135.877 22.5732C144.872 21.0213 157.45 30.4027 164.578 44.196C169.535 53.0709 170.676 61.7633 169.08 68.4838Z" fill="#F0F0F0"/>
<path d="M53.4241 132.904C53.4241 132.904 66.8207 125.19 73.7095 126.228C80.5916 127.407 123.01 125.756 128.392 125.73C133.639 125.556 138.753 122.261 140.005 119.772C141.109 117.418 141.486 115.453 141.547 114.182" stroke="#138BE1" stroke-miterlimit="10" stroke-linecap="round" stroke-linejoin="round"/>
<path d="M120.556 114.88C123.382 115.015 126.214 115.009 129.194 114.868C132.033 114.721 134.872 114.574 137.584 114.137C139.01 113.922 140.302 113.559 141.459 113.048C142.616 112.537 143.646 111.737 144.406 110.64C145.786 108.441 146.063 105.622 145.626 102.91C145.505 102.48 145.808 102.07 146.232 102.09C146.662 101.969 147.073 102.272 147.052 102.696C147.623 105.555 147.461 108.946 145.779 111.555C144.863 112.928 143.544 113.856 142.232 114.643C140.786 115.281 139.353 115.638 137.926 115.853C135.074 116.282 132.093 116.423 129.268 116.288C126.442 116.152 123.475 116.011 120.663 115.593C120.522 115.586 120.388 115.438 120.401 115.155C120.267 115.007 120.415 114.873 120.556 114.88Z" fill="#138BE1"/>
<path d="M123.822 102.855C127.643 102.896 131.606 102.944 135.434 102.844C137.419 102.797 139.262 102.744 141.253 102.556C143.104 102.361 145.088 102.315 146.824 101.548C150.282 100.298 153.109 97.4594 153.984 93.9613C154.489 92.2862 154.153 90.4293 153.232 88.9692C152.31 87.5091 150.952 86.3112 149.277 85.8063C148.86 85.6447 148.597 85.2074 148.752 84.9316C148.914 84.5145 149.351 84.2522 149.627 84.407C151.726 84.9323 153.495 86.433 154.685 88.1892C155.869 90.0866 156.184 92.3674 155.518 94.4595C154.474 98.516 151.197 101.899 147.308 103.271C145.29 104.024 143.298 104.212 141.314 104.258C139.329 104.305 137.344 104.351 135.366 104.257C131.411 104.067 127.596 103.885 123.654 103.413C123.512 103.406 123.378 103.258 123.385 103.117C123.533 102.982 123.539 102.841 123.822 102.855Z" fill="#138BE1"/>
<path d="M127.393 90.4198C127.393 90.4198 137.699 91.0547 145.638 90.8682C156.698 90.548 160.91 88.3423 161.591 82.994C162.413 77.6525 159.568 74.9675 151.387 74.2928C148.71 74.023 145.319 73.8607 141.922 73.8397" fill="white"/>
<path d="M127.405 90.1387C130.096 90.1259 132.639 90.2476 135.33 90.2348C137.88 90.2153 140.571 90.2025 143.121 90.1829C145.671 90.1633 148.369 90.0092 150.925 89.8484C153.488 89.5463 156.059 89.1029 158.104 87.7847C159.127 87.1257 159.874 86.3118 160.352 85.2019C160.83 84.0919 161.032 82.8272 161.086 81.697C161.147 80.4255 160.777 79.2749 160.111 78.3935C159.445 77.512 158.483 76.8995 157.232 76.4149C154.864 75.5935 152.328 75.3305 149.792 75.0675C147.249 74.9458 144.564 74.8173 142.021 74.6956C141.598 74.6754 141.329 74.3793 141.349 73.9554C141.369 73.5316 141.665 73.2626 142.089 73.2829C144.78 73.27 147.323 73.3918 150.007 73.5202C152.685 73.79 155.369 73.9185 158.013 74.8946C159.264 75.3793 160.643 76.1533 161.571 77.4721C162.506 78.6497 162.856 80.224 162.788 81.6368C162.72 83.0496 162.511 84.4556 161.879 85.8414C161.246 87.2271 160.203 88.31 159.032 89.1036C156.556 90.5427 153.838 91.1206 151.275 91.4227C148.57 91.7181 146.02 91.7377 143.322 91.8918C140.631 91.9046 138.088 91.7829 135.404 91.6544C132.72 91.5259 130.184 91.2629 127.506 90.9932C127.365 90.9864 127.23 90.8384 127.237 90.6971C127.116 90.2665 127.264 90.132 127.405 90.1387Z" fill="#138BE1"/>
<path d="M131.084 16.2571L145.019 9.1359C147.051 8.10034 149.897 7.81174 152.164 7.77865C154.714 7.75908 157.808 8.19039 160.445 9.30782C169.19 12.9832 178.829 21.6574 184.787 33.2708C186.468 36.6081 187.725 39.9251 188.707 43.0873" stroke="#1C1D22" stroke-miterlimit="10" stroke-linecap="round" stroke-linejoin="round"/>
<path d="M3.84908 88.8994C7.50275 86.5255 11.8763 83.9027 16.8083 81.4484C27.2643 76.0015 45.2511 87.7657 54.5712 106.054C62.728 122.02 62.6635 138.16 55.3825 145.316C51.816 148.827 45.1482 152.048 43.8429 152.694C43.8429 152.694 46.4969 138.661 41.9188 124.848C36.2313 107.583 19.7904 101.982 19.7904 101.982" fill="white"/>
<path d="M3.84908 88.8994C7.50275 86.5255 11.8763 83.9027 16.8083 81.4484C27.2643 76.0015 45.2512 87.7657 54.5712 106.054C62.728 122.02 62.6635 138.16 55.3825 145.316C51.816 148.827 45.1482 152.048 43.8429 152.694C43.8429 152.694 46.4969 138.661 41.9188 124.848C36.2313 107.583 19.7904 101.982 19.7904 101.982" stroke="#138BE1" stroke-miterlimit="10" stroke-linecap="round" stroke-linejoin="round"/>
<mask id="path-14-inside-1_3437_35639" fill="white">
<path d="M154.132 64.229C154.132 64.229 150.8 71.716 139.322 74.8483C134.303 76.1657 124.925 76.8497 117.774 75.3746C110.623 73.8995 103.975 76.6966 100.005 79.7635C96.9096 82.3058 94.1502 86.705 93.2147 88.501C92.9118 88.9113 93.026 89.4832 93.1403 90.0551C94.9484 96.6553 94.2541 102.286 91.0438 107.23C86.7567 113.964 81.3212 112.146 79.8145 111.082C78.301 110.16 76.6064 107.106 76.2509 102.699C75.9022 98.151 74.0196 93.1048 72.7894 89.2227C71.5592 85.3405 69.7436 81.8552 74.5891 75.2902C76.3993 72.9696 79.5893 68.4494 79.7449 65.2C79.9004 61.9506 80.8164 57.6048 83.6494 54.6251C86.4825 51.6455 93.3186 47.8662 105.423 40.5158C107.61 39.2045 122.386 32.2651 125.629 29.5883C127.251 28.2499 130.212 25.5596 131.847 23.9386C133.031 22.8625 134.915 21.9614 136.631 21.6187C145.76 20.2149 158.473 29.7443 165.588 43.8202C170.255 52.8228 171.383 61.7978 169.78 68.6596C168.716 73.1399 166.307 76.1398 161.859 77.343"/>
</mask>
<path d="M155.046 64.6356C155.271 64.131 155.044 63.5399 154.539 63.3154C154.034 63.0908 153.443 63.3178 153.219 63.8224L155.046 64.6356ZM139.322 74.8483L139.576 75.8156L139.586 75.8131L139.322 74.8483ZM100.005 79.7635L99.3936 78.9721C99.3857 78.9782 99.3779 78.9844 99.3702 78.9907L100.005 79.7635ZM93.2147 88.501L94.0192 89.0949C94.05 89.0531 94.0776 89.009 94.1015 88.963L93.2147 88.501ZM93.1403 90.0551L92.1596 90.251C92.1642 90.2739 92.1696 90.2967 92.1758 90.3193L93.1403 90.0551ZM91.0438 107.23L90.2051 106.686L90.2003 106.693L91.0438 107.23ZM79.8145 111.082L80.3911 110.265C80.3727 110.252 80.354 110.24 80.3348 110.228L79.8145 111.082ZM76.2509 102.699L75.2538 102.775L75.2541 102.779L76.2509 102.699ZM74.5891 75.2902L73.8006 74.6751C73.7951 74.6821 73.7897 74.6892 73.7845 74.6964L74.5891 75.2902ZM105.423 40.5158L104.909 39.6582L104.904 39.6611L105.423 40.5158ZM131.847 23.9386L131.174 23.1985C131.164 23.2083 131.153 23.2182 131.143 23.2284L131.847 23.9386ZM136.631 21.6187L136.479 20.6304C136.464 20.6326 136.449 20.6352 136.435 20.6381L136.631 21.6187ZM165.588 43.8202L164.695 44.2713L164.7 44.2804L165.588 43.8202ZM169.78 68.6596L170.753 68.8906L170.754 68.887L169.78 68.6596ZM161.598 76.3777C161.065 76.5219 160.75 77.071 160.894 77.6042C161.038 78.1373 161.587 78.4525 162.12 78.3083L161.598 76.3777ZM154.132 64.229C153.219 63.8224 153.219 63.8219 153.219 63.8215C153.219 63.8214 153.219 63.821 153.22 63.8208C153.22 63.8203 153.22 63.82 153.22 63.8198C153.22 63.8193 153.22 63.8193 153.22 63.8198C153.22 63.8207 153.218 63.8234 153.216 63.8277C153.212 63.8365 153.205 63.8522 153.194 63.8743C153.172 63.9187 153.137 63.9891 153.086 64.0827C152.985 64.27 152.825 64.55 152.596 64.8999C152.137 65.5999 151.405 66.5787 150.325 67.6563C148.171 69.8067 144.618 72.3667 139.059 73.8836L139.586 75.8131C145.505 74.1977 149.357 71.4481 151.738 69.0719C152.926 67.8861 153.744 66.7974 154.269 65.9957C154.532 65.5947 154.721 65.2653 154.847 65.0309C154.91 64.9137 154.958 64.8202 154.99 64.7534C155.007 64.7199 155.019 64.6932 155.029 64.6734C155.033 64.6635 155.037 64.6554 155.04 64.6491C155.041 64.646 155.043 64.6432 155.044 64.641C155.044 64.6399 155.045 64.6388 155.045 64.6379C155.045 64.6375 155.045 64.6369 155.046 64.6367C155.046 64.6361 155.046 64.6356 154.132 64.229ZM139.068 73.8811C134.181 75.1639 124.96 75.8358 117.976 74.3952L117.572 76.354C124.89 77.8636 134.425 77.1676 139.576 75.8156L139.068 73.8811ZM117.976 74.3952C110.46 72.8449 103.521 75.7834 99.3936 78.9721L100.616 80.5548C104.429 77.6099 110.785 74.9542 117.572 76.354L117.976 74.3952ZM99.3702 78.9907C96.1222 81.6584 93.2879 86.1959 92.3278 88.039L94.1015 88.963C95.0126 87.2141 97.697 82.9531 100.64 80.5362L99.3702 78.9907ZM92.4101 87.9072C92.0799 88.3545 92.014 88.8477 92.0212 89.2362C92.0282 89.6083 92.1067 89.986 92.1596 90.251L94.1209 89.8592C94.0596 89.5523 94.0239 89.3582 94.0209 89.1987C94.0182 89.0557 94.0465 89.0579 94.0192 89.0949L92.4101 87.9072ZM92.1758 90.3193C93.9216 96.6918 93.2351 102.019 90.2051 106.686L91.8825 107.775C95.2731 102.553 95.9753 96.6189 94.1047 89.7909L92.1758 90.3193ZM90.2003 106.693C88.1954 109.842 86.0134 110.874 84.2653 111.087C82.4553 111.308 80.9649 110.67 80.3911 110.265L79.2379 111.899C80.1708 112.558 82.1515 113.36 84.5077 113.073C86.9258 112.777 89.6051 111.352 91.8874 107.767L90.2003 106.693ZM80.3348 110.228C79.8181 109.914 79.1238 109.121 78.507 107.78C77.9032 106.466 77.4169 104.717 77.2477 102.619L75.2541 102.779C75.4404 105.088 75.9791 107.069 76.6899 108.615C77.3877 110.133 78.2974 111.329 79.2942 111.936L80.3348 110.228ZM77.248 102.622C76.8877 97.9247 74.9461 92.7181 73.7427 88.9206L71.8361 89.5248C73.0932 93.4915 74.9166 98.3773 75.2538 102.775L77.248 102.622ZM73.7427 88.9206C73.0951 86.8769 72.4127 85.24 72.4108 83.2616C72.4091 81.3532 73.0611 79.0443 75.3936 75.884L73.7845 74.6964C71.2715 78.1011 70.4086 80.8174 70.4108 83.2634C70.413 85.6394 71.2535 87.6863 71.8361 89.5248L73.7427 88.9206ZM75.3775 75.9053C76.2973 74.7262 77.5793 72.9739 78.6558 71.0894C79.7135 69.2379 80.654 67.1217 80.7437 65.2478L78.746 65.1522C78.6802 66.5277 77.948 68.2964 76.9192 70.0974C75.9092 71.8655 74.6911 73.5336 73.8006 74.6751L75.3775 75.9053ZM80.7437 65.2478C80.8947 62.0923 81.785 58.0373 84.3741 55.3142L82.9247 53.9361C79.8477 57.1723 78.906 61.8089 78.746 65.1522L80.7437 65.2478ZM84.3741 55.3142C85.691 53.9292 88.0023 52.3004 91.5897 50.0574C95.1604 47.8248 99.8701 45.0579 105.942 41.3706L104.904 39.6611C98.872 43.3241 94.1111 46.1221 90.5294 48.3616C86.9642 50.5907 84.4409 52.3414 82.9247 53.9361L84.3741 55.3142ZM105.938 41.3734C106.993 40.7407 111.156 38.7166 115.585 36.4547C117.775 35.3362 120.007 34.1702 121.899 33.1137C123.767 32.0704 125.375 31.0945 126.266 30.3596L124.993 28.8171C124.261 29.4205 122.807 30.3159 120.924 31.3676C119.064 32.406 116.858 33.5587 114.675 34.6736C110.358 36.8784 106.041 38.9796 104.909 39.6582L105.938 41.3734ZM126.266 30.3596C127.913 29.0001 130.896 26.2892 132.551 24.6488L131.143 23.2284C129.527 24.83 126.589 27.4997 124.993 28.8171L126.266 30.3596ZM132.519 24.6787C133.552 23.7401 135.264 22.9114 136.827 22.5994L136.435 20.6381C134.566 21.0115 132.51 21.9848 131.174 23.1985L132.519 24.6787ZM136.783 22.6071C140.963 21.9643 146.15 23.8198 151.259 27.7101C156.339 31.5785 161.201 37.3587 164.695 44.2713L166.48 43.3691C162.86 36.2057 157.808 30.1833 152.471 26.1189C147.162 22.0766 141.428 19.8693 136.479 20.6304L136.783 22.6071ZM164.7 44.2804C169.279 53.1131 170.345 61.8444 168.806 68.4321L170.754 68.887C172.42 61.7511 171.23 52.5326 166.476 43.3599L164.7 44.2804ZM168.807 68.4285C168.302 70.5547 167.494 72.2618 166.339 73.5678C165.191 74.8662 163.654 75.8215 161.598 76.3777L162.12 78.3083C164.512 77.6614 166.403 76.5151 167.837 74.8926C169.265 73.2778 170.194 71.2447 170.753 68.8906L168.807 68.4285Z" fill="#1C1D22" mask="url(#path-14-inside-1_3437_35639)"/>
<circle cx="75.0684" cy="128.879" r="6.36543" transform="rotate(2.74014 75.0684 128.879)" fill="#F0F0F0" stroke="#1C1D22"/>
<path d="M96.0057 128.664C95.8044 132.869 92.4117 136.078 88.4785 135.89C84.5452 135.701 81.4746 132.183 81.6758 127.978C81.877 123.774 85.2697 120.565 89.203 120.753C93.1362 120.941 96.2069 124.46 96.0057 128.664Z" fill="#F0F0F0" stroke="#1C1D22"/>
<path d="M110.572 128.556C110.371 132.76 106.978 135.969 103.045 135.781C99.1117 135.593 96.041 132.074 96.2422 127.87C96.4434 123.666 99.8361 120.456 103.769 120.645C107.703 120.833 110.773 124.351 110.572 128.556Z" fill="#F0F0F0" stroke="#1C1D22"/>
<path d="M123.512 128.363C123.356 131.624 120.41 134.183 116.869 134.014C113.329 133.844 110.64 131.015 110.796 127.754C110.952 124.494 113.899 121.935 117.439 122.104C120.98 122.273 123.668 125.102 123.512 128.363Z" fill="#F0F0F0" stroke="#1C1D22"/>
</g>
<defs>
<clipPath id="clip0_3437_35639">
<rect width="184.155" height="151.624" fill="white" transform="translate(7.25) rotate(2.74014)"/>
</clipPath>
</defs>
</svg>
