<svg width="24" height="24" viewBox="0 0 24 24" fill="none" xmlns="http://www.w3.org/2000/svg">
<path d="M9.03078 3.17651C7.59676 3.38564 7.03908 3.52506 6.62082 3.79394C6.14281 4.11261 5.79427 4.60058 5.64489 5.19809C5.53534 5.63626 5.49551 5.6761 5.03742 5.82547C3.35443 6.40307 3.10547 6.79145 3.10547 8.83294C3.10547 10.8446 3.13534 10.8744 5.7146 12.3085C6.70049 12.8562 6.81003 12.9458 7.23825 13.5931C8.05485 14.818 9.26978 15.6446 10.6142 15.9035L11.2714 16.0329V16.6902V17.3574L10.4847 17.3873C9.87725 17.4172 9.62829 17.4769 9.4092 17.6363C8.98099 17.9549 8.71211 18.423 8.63244 18.9707L8.56273 19.4686H7.67642C6.91958 19.4686 6.76024 19.4985 6.59095 19.6678C6.32207 19.9367 6.32207 20.4944 6.59095 20.7632C6.78016 20.9524 6.91958 20.9624 12.0681 20.9624C17.2167 20.9624 17.3561 20.9524 17.5453 20.7632C17.6648 20.6437 17.7445 20.4346 17.7445 20.2155C17.7445 19.618 17.4955 19.4686 16.4598 19.4686H15.5735L15.5038 18.9707C15.4241 18.423 15.1553 17.9549 14.727 17.6363C14.508 17.4769 14.259 17.4172 13.6515 17.3873L12.8648 17.3574V16.6703V15.9831H13.1934C13.6714 15.9732 14.7569 15.5649 15.3943 15.1367C16.0217 14.7184 16.7287 13.9616 17.0573 13.3441C17.2465 12.9956 17.4457 12.8462 18.4316 12.2985C20.9909 10.9043 21.0308 10.8446 21.0308 8.83294C21.0308 6.79145 20.7818 6.40307 19.0889 5.82547C18.6507 5.6761 18.5909 5.6263 18.5212 5.28771C18.1627 3.58481 16.9677 3.14664 12.4665 3.08689C10.7138 3.05701 9.64821 3.08689 9.03078 3.17651ZM15.0557 4.78979C16.4698 4.979 16.8582 5.1483 16.9777 5.6263C17.0872 6.04456 16.908 8.6039 16.6889 9.71925C16.3104 11.711 15.4241 13.2844 14.3088 13.9417C13.2731 14.5392 11.5602 14.6487 10.3553 14.1906C8.94115 13.6628 7.91543 12.0794 7.44738 9.70929C7.25817 8.75327 7.059 6.12423 7.14862 5.66614C7.23825 5.19809 7.48721 5.05867 8.54281 4.86946C10.4847 4.52091 12.825 4.50099 15.0557 4.78979ZM5.74447 9.0122C5.82414 9.63958 5.92373 10.267 5.96356 10.3964C6.02331 10.6354 6.02331 10.6354 5.38597 10.2968C4.74862 9.9483 4.74862 9.93834 4.659 9.39062C4.6092 9.09186 4.6092 8.58398 4.63908 8.27527C4.70879 7.71759 4.72871 7.69767 5.12705 7.51842L5.5453 7.32921L5.57518 7.59809C5.58514 7.74747 5.6648 8.38481 5.74447 9.0122ZM19.3179 7.6678C19.4872 7.81717 19.5868 9.15162 19.4673 9.59975C19.3976 9.88854 19.2681 10.008 18.7503 10.2968L18.1129 10.6354L18.1826 10.3466C18.2822 9.9483 18.5412 8.03626 18.5412 7.64788C18.5412 7.32921 18.5412 7.32921 18.8698 7.43875C19.0391 7.4985 19.2482 7.59809 19.3179 7.6678ZM13.9403 19.2396L13.9702 19.4686H12.0781C10.2955 19.4686 10.176 19.4587 10.176 19.2894C10.176 19.1898 10.2059 19.0703 10.2457 19.0305C10.2856 19.0006 11.1221 18.9807 12.108 18.9906C13.8905 19.0205 13.9104 19.0205 13.9403 19.2396Z" fill="#138BE1"/>
</svg>
