<svg width="16" height="16" viewBox="0 0 16 16" fill="none" xmlns="http://www.w3.org/2000/svg">
<path fill-rule="evenodd" clip-rule="evenodd" d="M8 2C8.27614 2 8.5 2.22386 8.5 2.5V9.15658L10.0754 7.43345C10.2618 7.22965 10.578 7.21549 10.7818 7.40182C10.9856 7.58815 10.9998 7.90442 10.8135 8.10822L8.36901 10.7818C8.27429 10.8854 8.14038 10.9444 8 10.9444C7.85962 10.9444 7.72571 10.8854 7.63099 10.7818L5.18654 8.10822C5.00021 7.90442 5.01437 7.58815 5.21817 7.40182C5.42197 7.21549 5.73824 7.22965 5.92457 7.43345L7.5 9.15658V2.5C7.5 2.22386 7.72386 2 8 2ZM2.5 9.33333C2.77614 9.33333 3 9.55719 3 9.83333C3 10.7117 3.00106 11.3202 3.06266 11.7784C3.12233 12.2222 3.23042 12.4494 3.39053 12.6095C3.55063 12.7696 3.77783 12.8777 4.22163 12.9373C4.67981 12.9989 5.28829 13 6.16667 13H9.83333C10.7117 13 11.3202 12.9989 11.7784 12.9373C12.2222 12.8777 12.4494 12.7696 12.6095 12.6095C12.7696 12.4494 12.8777 12.2222 12.9373 11.7784C12.9989 11.3202 13 10.7117 13 9.83333C13 9.55719 13.2239 9.33333 13.5 9.33333C13.7761 9.33333 14 9.55719 14 9.83333V9.86955C14 10.703 14 11.379 13.9284 11.9116C13.8538 12.4663 13.6935 12.9397 13.3166 13.3166C12.9397 13.6935 12.4663 13.8538 11.9116 13.9284C11.379 14 10.703 14 9.86955 14H6.13045C5.297 14 4.62099 14 4.08838 13.9284C3.53369 13.8538 3.06029 13.6935 2.68342 13.3166C2.30655 12.9397 2.14616 12.4663 2.07158 11.9116C1.99997 11.379 1.99999 10.703 2 9.86955L2 9.83333C2 9.55719 2.22386 9.33333 2.5 9.33333Z" fill="#1C1D22"/>
</svg>
