<svg width="24" height="24" viewBox="0 0 24 24" fill="none" xmlns="http://www.w3.org/2000/svg">
<path fill-rule="evenodd" clip-rule="evenodd" d="M12.1726 4.575C12.1726 3.70515 12.8777 3 13.7476 3H16.0425C16.9124 3 17.6175 3.70515 17.6175 4.575V8.87768C18.1614 9.16398 18.6147 9.40741 18.9405 9.58517C19.1148 9.68027 19.2543 9.75749 19.3523 9.81287C19.4007 9.84023 19.4424 9.86415 19.4742 9.88305C19.4892 9.89198 19.5079 9.90321 19.5258 9.91479C19.5339 9.91999 19.55 9.93046 19.5685 9.94388C19.5773 9.95026 19.5947 9.96315 19.6153 9.98063L19.6163 9.98148C19.6265 9.99002 19.6898 10.043 19.7476 10.1264C19.9909 10.4775 20.0892 10.857 20.1337 11.2564C20.175 11.6278 20.175 12.0782 20.175 12.598V19.5H20.25C20.6642 19.5 21 19.8358 21 20.25C21 20.6642 20.6642 21 20.25 21H3.75C3.33579 21 3 20.6642 3 20.25C3 19.8358 3.33579 19.5 3.75 19.5H3.825L3.825 8.45161C3.82496 7.42135 3.82493 6.56449 3.92179 5.9073C4.0229 5.22119 4.25244 4.57796 4.85797 4.15833C5.12047 3.97642 5.42259 3.93209 5.65246 3.92408C5.89701 3.91555 6.16248 3.9455 6.42928 3.99459C6.9644 4.09306 7.60988 4.28882 8.3056 4.53868C9.4543 4.95122 10.8124 5.53791 12.1726 6.16902V4.575ZM13.6726 6.88115C14.5305 7.29696 15.3631 7.71406 16.1175 8.09968V4.575C16.1175 4.53358 16.084 4.5 16.0425 4.5H13.7476C13.7062 4.5 13.6726 4.53358 13.6726 4.575V6.88115ZM5.325 19.5H18.675V12.6369C18.675 12.067 18.6739 11.701 18.6429 11.4225C18.6258 11.2691 18.6018 11.1683 18.5747 11.0965C18.4877 11.0477 18.3692 10.9822 18.2221 10.9019C17.8807 10.7157 17.3921 10.4535 16.8015 10.1433C15.6199 9.52288 14.0354 8.71338 12.4094 7.93818C10.7792 7.16096 9.12502 6.42676 7.7986 5.9504C7.13231 5.71111 6.57522 5.54663 6.15782 5.46983C5.94835 5.43128 5.80008 5.41984 5.70473 5.42316C5.69038 5.42366 5.67851 5.42445 5.66891 5.42532C5.57465 5.50949 5.47184 5.67759 5.40576 6.126C5.32695 6.66073 5.325 7.40574 5.325 8.5119V10.2173H9.65129C10.0655 10.2173 10.4013 10.5531 10.4013 10.9673C10.4013 11.3815 10.0655 11.7173 9.65129 11.7173H5.325V12.8012H9.65129C10.0655 12.8012 10.4013 13.137 10.4013 13.5512C10.4013 13.9654 10.0655 14.3012 9.65129 14.3012H5.325V15.2389H9.65129C10.0655 15.2389 10.4013 15.5747 10.4013 15.9889C10.4013 16.4031 10.0655 16.7389 9.65129 16.7389H5.325V19.5ZM5.63577 5.43004C5.63575 5.43002 5.6364 5.42984 5.63777 5.42954L5.63577 5.43004Z" fill="#138BE1"/>
</svg>
