<svg width="303" height="273" viewBox="0 0 303 273" fill="none" xmlns="http://www.w3.org/2000/svg">
<path d="M188.198 123.812C188.26 123.873 188.382 123.935 188.505 123.935C188.628 123.996 188.689 124.058 188.812 124.058C188.935 124.119 188.996 124.119 189.119 124.18C189.241 124.242 189.303 124.242 189.425 124.303C189.548 124.365 189.609 124.365 189.732 124.365C189.916 124.426 190.1 124.426 190.284 124.488C190.836 124.549 191.389 124.549 192.002 124.488C192.125 124.488 192.309 124.426 192.431 124.426C192.554 124.426 192.677 124.365 192.738 124.365C192.8 124.365 192.922 124.303 192.984 124.303C193.168 124.242 193.352 124.18 193.597 124.119C193.72 124.058 193.842 124.058 194.027 123.996C194.272 123.935 194.517 123.812 194.763 123.689C195.192 123.505 195.56 123.32 195.99 123.074C202.002 119.633 206.787 111.216 206.787 104.334C206.787 104.149 206.787 103.965 206.787 103.781C206.787 103.658 206.787 103.535 206.787 103.412C206.787 103.228 206.787 103.105 206.726 102.92C206.726 102.675 206.664 102.49 206.664 102.245C206.664 102.183 206.664 102.183 206.664 102.122C206.603 101.876 206.603 101.692 206.542 101.507C206.542 101.384 206.48 101.261 206.48 101.2C206.419 101.077 206.419 100.954 206.358 100.831C206.296 100.647 206.235 100.524 206.174 100.34C206.112 100.217 206.112 100.155 206.051 100.033C205.989 99.8482 205.867 99.7253 205.805 99.541C205.683 99.2337 205.499 98.988 205.315 98.7422C205.253 98.6193 205.131 98.4964 205.008 98.3735C204.64 97.9434 204.149 97.5747 203.658 97.2675L185.867 86.8833C187.83 87.9893 188.996 90.4471 189.057 93.8266C189.057 97.3289 187.83 101.139 185.867 104.579" fill="#F6F5F5"/>
<path d="M188.198 123.812C188.26 123.873 188.382 123.935 188.505 123.935C188.628 123.996 188.689 124.058 188.812 124.058C188.935 124.119 188.996 124.119 189.119 124.18C189.241 124.242 189.303 124.242 189.425 124.303C189.548 124.365 189.609 124.365 189.732 124.365C189.916 124.426 190.1 124.426 190.284 124.488C190.836 124.549 191.389 124.549 192.002 124.488C192.125 124.488 192.309 124.426 192.431 124.426C192.554 124.426 192.677 124.365 192.738 124.365C192.8 124.365 192.922 124.303 192.984 124.303C193.168 124.242 193.352 124.18 193.597 124.119C193.72 124.058 193.842 124.058 194.027 123.996C194.272 123.935 194.517 123.812 194.763 123.689C195.192 123.505 195.56 123.32 195.99 123.074C202.002 119.633 206.787 111.216 206.787 104.334C206.787 104.149 206.787 103.965 206.787 103.781C206.787 103.658 206.787 103.535 206.787 103.412C206.787 103.228 206.787 103.105 206.726 102.92C206.726 102.675 206.664 102.49 206.664 102.245C206.664 102.183 206.664 102.183 206.664 102.122C206.603 101.876 206.603 101.692 206.542 101.507C206.542 101.384 206.48 101.261 206.48 101.2C206.419 101.077 206.419 100.954 206.358 100.831C206.296 100.647 206.235 100.524 206.174 100.34C206.112 100.217 206.112 100.155 206.051 100.033C205.989 99.8482 205.867 99.7253 205.805 99.541C205.683 99.2337 205.499 98.988 205.315 98.7422C205.253 98.6193 205.131 98.4964 205.008 98.3735C204.64 97.9434 204.149 97.5747 203.658 97.2675L185.867 86.8833C187.83 87.9893 188.996 90.4471 189.057 93.8266C189.057 97.3289 187.83 101.139 185.867 104.579" stroke="#041C2D" stroke-miterlimit="10" stroke-linecap="round" stroke-linejoin="round"/>
<path d="M203.475 97.3904L185.684 87.0062L220.345 66.9751L238.198 77.3593L203.475 97.3904Z" fill="#F6F5F5" stroke="#041C2D" stroke-miterlimit="10" stroke-linecap="round" stroke-linejoin="round"/>
<path d="M152.188 106.3L170.408 95.793L185.684 104.702L188.26 106.177L181.573 110.048L174.58 114.042L172.985 114.964L152.249 127.007" fill="#F6F5F5"/>
<path d="M152.188 106.3L170.408 95.793L185.684 104.702L188.26 106.177L181.573 110.048L174.58 114.042L172.985 114.964L152.249 127.007" stroke="#041C2D" stroke-miterlimit="10" stroke-linecap="round" stroke-linejoin="round"/>
<path d="M152.128 69.3714C154.03 65.6233 156.974 62.2438 160.226 60.339C161.943 59.3559 163.539 58.8643 164.95 58.8643C165.072 58.8643 165.195 58.8643 165.318 58.8643C165.44 58.8643 165.502 58.8643 165.624 58.8643C165.686 58.8643 165.747 58.8643 165.87 58.9258C165.931 58.9258 166.054 58.9258 166.115 58.9872C166.238 58.9872 166.361 59.0487 166.422 59.0487C166.545 59.0487 166.606 59.1101 166.729 59.1101C166.851 59.1716 166.974 59.1716 167.097 59.233C167.219 59.2944 167.342 59.3559 167.404 59.3559C167.465 59.3559 167.526 59.4173 167.526 59.4173C167.588 59.4173 167.649 59.4788 167.649 59.4788C167.588 59.4173 167.526 59.4173 167.526 59.4173L152.066 50.5078" fill="#F6F5F5"/>
<path d="M152.128 69.3714C154.03 65.6233 156.974 62.2438 160.226 60.339C161.943 59.3559 163.539 58.8643 164.95 58.8643C165.072 58.8643 165.195 58.8643 165.318 58.8643C165.44 58.8643 165.502 58.8643 165.624 58.8643C165.686 58.8643 165.747 58.8643 165.87 58.9258C165.931 58.9258 166.054 58.9258 166.115 58.9872C166.238 58.9872 166.361 59.0487 166.422 59.0487C166.545 59.0487 166.606 59.1101 166.729 59.1101C166.851 59.1716 166.974 59.1716 167.097 59.233C167.219 59.2944 167.342 59.3559 167.404 59.3559C167.465 59.3559 167.526 59.4173 167.526 59.4173M167.526 59.4173C167.588 59.4173 167.649 59.4788 167.649 59.4788C167.588 59.4173 167.526 59.4173 167.526 59.4173ZM167.526 59.4173L152.066 50.5078" stroke="#041C2D" stroke-miterlimit="10" stroke-linecap="round" stroke-linejoin="round"/>
<path d="M152.003 27.4663L152.126 69.4332C154.028 65.6851 156.973 62.3056 160.224 60.4008C166.236 56.8984 171.083 59.9093 170.837 67.0983C170.592 73.2428 166.482 80.6162 161.267 84.1186C160.96 84.3643 160.592 84.5487 160.285 84.733C157.034 86.6378 154.151 86.5764 152.187 85.0402L152.31 127.007L116.789 147.53C118.63 144.458 119.857 141.078 120.102 137.883C120.164 136.838 120.164 136.593 120.164 136.408C120.164 135.732 120.102 135.364 120.102 135.056C119.98 134.073 119.734 133.213 119.427 132.414C118.262 129.834 116.115 128.605 113.354 128.912C112.372 129.035 111.391 129.342 110.471 129.772C110.348 129.834 110.225 129.895 110.164 129.895C109.734 130.141 109.55 130.202 109.305 130.325C109.121 130.448 108.937 130.571 108.753 130.694C108.385 130.94 108.262 131.001 108.139 131.063C107.158 131.738 106.237 132.537 105.379 133.397C102.495 136.408 100.348 140.156 99.2437 143.905C98.8757 145.195 98.6303 146.301 98.5689 147.407C98.5076 147.776 98.5076 148.144 98.5076 148.513C98.5076 149.066 98.5076 149.312 98.5076 149.496C98.8143 153.183 100.103 155.21 101.943 156.132L66.4223 176.655L66.2383 88.6041C66.2383 82.2752 70.7167 74.5331 76.2381 71.338L152.003 27.4663Z" fill="white" stroke="#041C2D" stroke-miterlimit="10" stroke-linecap="round" stroke-linejoin="round"/>
<path d="M109.244 130.263C109.428 130.141 109.612 130.018 109.796 129.956C111.146 129.28 112.189 128.973 113.17 128.85C116.054 128.543 118.201 129.772 119.305 132.291C119.796 133.397 120.041 134.626 120.103 136.039C120.103 136.715 120.103 136.838 120.103 137.022C119.796 141.078 118.569 144.519 116.728 147.529L152.249 127.007L152.372 167.622C150.409 166.7 147.832 166.885 145.01 168.544C138.998 171.985 134.151 180.403 134.213 187.284C134.213 187.53 134.213 187.714 134.213 187.96C134.519 193.982 138.875 196.563 144.274 193.92C144.458 193.798 144.703 193.736 144.887 193.613C145.378 193.367 145.624 193.183 145.869 192.999C148.384 191.34 150.715 188.759 152.433 185.871L152.556 226.486L76.6065 270.358C71.0852 273.553 66.6067 270.972 66.5454 264.644L66.3613 176.593L101.882 156.07C100.042 155.149 98.8147 153.121 98.5079 150.233C98.4466 149.25 98.4466 149.004 98.4466 148.82C98.4466 148.082 98.5079 147.714 98.5079 147.345C98.6306 146.239 98.8147 145.133 99.1828 143.966C100.348 140.033 102.496 136.285 105.195 133.459C106.238 132.414 107.158 131.615 108.078 130.939C108.201 130.878 108.262 130.816 108.385 130.694C108.814 130.509 109.06 130.386 109.244 130.263Z" fill="white" stroke="#041C2D" stroke-miterlimit="10" stroke-linecap="round" stroke-linejoin="round"/>
<path d="M238.262 111.4L238.201 77.2979L203.539 97.3289C205.502 98.4349 206.729 100.893 206.791 104.334C206.791 111.215 201.944 119.633 195.993 123.074C195.564 123.32 195.196 123.504 194.766 123.689C189.858 125.901 185.871 123.689 185.196 118.466C184.705 114.656 185.994 110.109 188.263 106.177L152.252 126.945L152.375 167.561C150.411 166.639 147.835 166.823 145.013 168.482C139.001 171.923 134.154 180.341 134.215 187.223C134.215 187.469 134.215 187.653 134.215 187.899C134.522 193.92 138.878 196.501 144.277 193.859C144.461 193.736 144.706 193.675 145.074 193.429C145.319 193.244 145.626 193.122 145.872 192.937C148.387 191.278 150.718 188.698 152.436 185.81L152.559 226.425L228.508 182.553C234.029 179.358 238.508 171.616 238.508 165.226L238.446 137.76" fill="white"/>
<path d="M238.262 111.4L238.201 77.2979L203.539 97.3289C205.502 98.4349 206.729 100.893 206.791 104.334C206.791 111.215 201.944 119.633 195.993 123.074C195.564 123.32 195.196 123.504 194.766 123.689C189.858 125.901 185.871 123.689 185.196 118.466C184.705 114.656 185.994 110.109 188.263 106.177L152.252 126.945L152.375 167.561C150.411 166.639 147.835 166.823 145.013 168.482C139.001 171.923 134.154 180.341 134.215 187.223C134.215 187.469 134.215 187.653 134.215 187.899C134.522 193.92 138.878 196.501 144.277 193.859C144.461 193.736 144.706 193.675 145.074 193.429C145.319 193.244 145.626 193.122 145.872 192.937C148.387 191.278 150.718 188.698 152.436 185.81L152.559 226.425L228.508 182.553C234.029 179.358 238.508 171.616 238.508 165.226L238.446 137.76" stroke="#041C2D" stroke-miterlimit="10" stroke-linecap="round" stroke-linejoin="round"/>
<path d="M48.5719 207.93L48.4492 166.209L66.3016 176.593L66.4857 264.644C66.4857 267.778 67.5899 269.99 69.4304 271.096L51.578 260.711C49.7989 259.667 48.6946 257.455 48.6333 254.26L48.5719 230.665" fill="#F6F5F5"/>
<path d="M48.5719 207.93L48.4492 166.209L66.3016 176.593L66.4857 264.644C66.4857 267.778 67.5899 269.99 69.4304 271.096L51.578 260.711C49.7989 259.667 48.6946 257.455 48.6333 254.26L48.5719 230.665" stroke="#041C2D" stroke-miterlimit="10" stroke-linecap="round" stroke-linejoin="round"/>
<path d="M107.957 32.1974L134.214 17.0205L152.066 27.4047L76.0553 71.2764C70.534 74.4716 66.0555 82.2136 66.0555 88.5425L66.2396 176.593L48.3872 166.209L48.2031 78.1583C48.2031 71.8294 52.6816 64.0259 58.2029 60.8308L90.7176 42.0286" fill="#F6F5F5"/>
<path d="M107.957 32.1974L134.214 17.0205L152.066 27.4047L76.0553 71.2764C70.534 74.4716 66.0555 82.2136 66.0555 88.5425L66.2396 176.593L48.3872 166.209L48.2031 78.1583C48.2031 71.8294 52.6816 64.0259 58.2029 60.8308L90.7176 42.0286" stroke="#041C2D" stroke-miterlimit="10" stroke-linecap="round" stroke-linejoin="round"/>
<path d="M216.113 166.27C216.052 153.489 206.665 148.144 195.561 154.595C185.009 160.679 176.482 175.487 176.543 187.591V191.217C176.543 191.708 176.789 192.138 177.218 192.384C177.402 192.507 177.648 192.568 177.893 192.568C178.138 192.568 178.384 192.507 178.568 192.384L215.438 171.063C215.868 170.817 216.113 170.387 216.113 169.895V166.27Z" fill="#F6F5F5" stroke="#041C2D" stroke-miterlimit="10"/>
<path d="M195.562 130.939C190.961 133.581 187.342 139.849 187.403 145.133C187.403 150.909 191.882 153.551 196.973 150.602C201.575 147.959 205.133 141.754 205.133 136.469C205.071 130.509 200.532 128.051 195.562 130.939Z" fill="#F6F5F5" stroke="#041C2D" stroke-miterlimit="10"/>
<path d="M107.343 202.461C96.7906 208.544 88.2632 223.353 88.3245 235.457V239.083C88.3245 239.574 88.5699 240.004 88.9994 240.25C89.1834 240.373 89.4288 240.434 89.6742 240.434C89.9196 240.434 90.165 240.373 90.349 240.25L127.219 218.929C127.649 218.683 127.894 218.253 127.894 217.761V214.136C127.833 201.294 118.385 196.071 107.343 202.461Z" fill="#F6F5F5" stroke="#041C2D" stroke-miterlimit="10"/>
<path d="M107.344 178.805C102.743 181.447 99.123 187.714 99.1844 192.999C99.1844 198.774 103.663 201.417 108.755 198.467C113.356 195.825 116.914 189.619 116.914 184.335C116.853 178.498 112.436 175.855 107.344 178.805Z" fill="#F6F5F5" stroke="#041C2D" stroke-miterlimit="10"/>
<path d="M107.405 92.106C97.1593 98.0662 88.8159 112.444 88.8773 124.242V127.744C88.8773 128.236 89.1227 128.666 89.5521 128.912C89.7362 129.034 89.9816 129.096 90.227 129.096C90.4723 129.096 90.6564 129.034 90.9018 128.912L126.791 108.143C127.22 107.897 127.465 107.467 127.465 106.976V103.473C127.343 91 118.079 85.9001 107.405 92.106Z" stroke="#138BE1" stroke-miterlimit="10"/>
<path d="M107.342 69.0643C102.864 71.645 99.3672 77.728 99.3672 82.8894C99.3672 88.5423 103.723 91.0616 108.692 88.2351C113.171 85.6544 116.667 79.5714 116.606 74.4714C116.606 68.8185 112.312 66.1764 107.342 69.0643Z" stroke="#138BE1" stroke-miterlimit="10"/>
<path d="M186.972 231.832C182.248 235.826 181.573 242.954 185.561 247.746C189.549 252.539 196.665 253.153 201.45 249.159C206.236 245.166 245.621 205.534 241.634 200.802C237.646 196.01 191.757 227.838 186.972 231.832Z" fill="white" stroke="#041C2D" stroke-miterlimit="10" stroke-linecap="round" stroke-linejoin="round"/>
<path d="M201.204 221.755C201.143 222.431 201.143 223.23 201.266 224.09C202.125 229.067 206.726 234.597 211.511 236.379C212.37 236.686 213.167 236.871 213.903 236.871C215.928 234.72 218.075 232.447 220.284 230.112C219.977 230.05 219.609 229.927 219.302 229.804C214.517 228.023 209.916 222.554 209.057 217.515C208.996 217.208 208.934 216.901 208.934 216.594C206.296 218.376 203.658 220.096 201.204 221.755Z" stroke="#041C2D" stroke-miterlimit="10" stroke-linecap="round" stroke-linejoin="round"/>
<path d="M252.922 214.197C250.284 211.494 248.321 207.438 247.4 202.216C244.578 186.056 252.431 164.488 264.946 154.043C268.995 150.663 272.983 148.881 276.664 148.513C276.664 148.513 264.087 140.955 256.173 148.758C248.259 156.562 236.91 171.063 236.542 185.933C236.112 200.802 236.419 209.097 243.842 211.678C251.265 214.259 252.922 214.197 252.922 214.197Z" fill="#F6F5F5"/>
<path d="M272.43 145.625L271.817 145.44C270.529 144.949 269.118 144.703 267.707 144.703C267.522 144.703 267.277 144.703 267.093 144.703C266.909 144.703 266.786 144.703 266.602 144.703C266.418 144.703 266.295 144.703 266.111 144.765C265.927 144.765 265.805 144.765 265.621 144.826C265.13 144.887 264.639 144.949 264.087 145.072C263.964 145.072 263.78 145.133 263.658 145.195C263.351 145.256 263.105 145.379 262.799 145.44C262.676 145.502 262.492 145.502 262.369 145.563C262.062 145.686 261.756 145.748 261.449 145.871C261.142 145.993 260.897 146.116 260.59 146.239C260.467 146.301 260.283 146.362 260.161 146.424C260.038 146.485 259.854 146.546 259.731 146.669C259.302 146.915 258.811 147.161 258.382 147.407C258.259 147.468 258.075 147.591 257.952 147.652C257.829 147.714 257.645 147.837 257.523 147.96C257.4 148.021 257.216 148.144 257.093 148.267C256.848 148.451 256.541 148.636 256.296 148.82C256.234 148.82 256.234 148.881 256.173 148.881C255.866 149.127 255.56 149.311 255.253 149.557C254.946 149.803 254.639 150.049 254.333 150.295C254.026 150.54 253.719 150.848 253.412 151.093C250.713 153.551 248.198 156.439 246.051 159.757C245.866 160.064 245.682 160.31 245.498 160.617C245.314 160.925 245.13 161.17 244.946 161.478C244.578 162.031 244.271 162.645 243.903 163.26C243.781 163.444 243.658 163.69 243.535 163.874C243.228 164.427 242.922 164.98 242.676 165.533C242.554 165.779 242.431 165.963 242.37 166.209C242.124 166.7 241.879 167.253 241.633 167.806C241.265 168.605 240.897 169.404 240.59 170.203C240.345 170.756 240.161 171.309 239.977 171.862C239.67 172.661 239.364 173.521 239.118 174.32C238.934 174.873 238.75 175.426 238.627 175.979C238.198 177.392 237.83 178.805 237.523 180.218C237.339 181.017 237.216 181.816 237.032 182.615C237.032 182.676 236.971 182.799 236.971 182.86C236.91 183.106 236.91 183.352 236.848 183.598C236.787 184.151 236.664 184.704 236.603 185.318C236.541 185.625 236.542 185.871 236.48 186.178C236.419 186.731 236.357 187.284 236.296 187.838C236.112 189.804 236.112 191.77 236.173 193.736C236.173 194.228 236.235 194.658 236.235 195.149C236.296 195.887 236.357 196.686 236.48 197.423C236.542 197.792 236.603 198.222 236.664 198.59C236.726 198.836 236.726 199.082 236.787 199.328C236.848 199.573 236.91 199.819 236.971 200.065C237.032 200.311 237.094 200.557 237.155 200.802C237.216 201.048 237.278 201.294 237.339 201.478C237.462 201.97 237.584 202.4 237.768 202.83C237.891 203.26 238.075 203.69 238.198 204.12C238.259 204.305 238.382 204.551 238.443 204.735C238.505 204.919 238.627 205.104 238.689 205.349C238.873 205.718 239.057 206.148 239.241 206.455C239.425 206.824 239.609 207.193 239.854 207.5C239.977 207.684 240.1 207.869 240.222 208.053C240.284 208.114 240.284 208.176 240.345 208.237C240.468 208.422 240.591 208.606 240.775 208.79C240.897 208.975 241.081 209.22 241.265 209.405C241.449 209.589 241.572 209.773 241.756 210.019C241.879 210.203 242.063 210.326 242.186 210.511C242.37 210.695 242.492 210.818 242.676 210.941C242.983 211.187 243.228 211.432 243.535 211.678C243.597 211.74 243.658 211.801 243.781 211.862C244.087 212.108 244.455 212.354 244.824 212.538C245.13 212.723 245.498 212.907 245.805 213.091C245.989 213.214 246.173 213.276 246.357 213.337C246.541 213.399 246.725 213.521 246.909 213.583H246.971" stroke="#138BE1" stroke-miterlimit="10" stroke-linecap="round" stroke-linejoin="round"/>
<path d="M252.922 214.197C250.284 211.494 248.321 207.438 247.4 202.216C244.578 186.056 252.431 164.488 264.946 154.043C268.995 150.663 272.983 148.881 276.664 148.513" stroke="#138BE1" stroke-miterlimit="10" stroke-linecap="round" stroke-linejoin="round"/>
<path d="M287.523 211.309C298.136 195.948 303.841 174.627 300.897 157.606C298.933 146.546 293.719 139.419 286.848 136.899L276.296 133.09C283.228 135.609 288.443 142.675 290.345 153.797C294.21 175.794 283.474 205.042 266.48 219.174C258.014 226.24 249.548 228.207 242.738 225.81L253.29 229.62C260.1 232.078 268.566 230.111 277.032 222.984C278.014 222.185 278.995 221.325 279.915 220.403" fill="#F6F5F5"/>
<path d="M287.523 211.309C298.136 195.948 303.841 174.627 300.897 157.606C298.933 146.546 293.719 139.419 286.848 136.899L276.296 133.09C283.228 135.609 288.443 142.675 290.345 153.797C294.21 175.794 283.474 205.042 266.48 219.174C258.014 226.24 249.548 228.207 242.738 225.81L253.29 229.62C260.1 232.078 268.566 230.111 277.032 222.984C278.014 222.185 278.995 221.325 279.915 220.403" stroke="#138BE1" stroke-miterlimit="10" stroke-linecap="round" stroke-linejoin="round"/>
<path d="M266.481 219.174C249.426 233.368 232.494 227.101 228.69 205.165C224.825 183.168 235.561 153.858 252.616 139.665C269.609 125.471 286.542 131.8 290.407 153.797C294.149 175.733 283.474 204.981 266.481 219.174ZM236.849 198.344C239.671 214.505 252.064 219.113 264.64 208.667C277.155 198.222 285.008 176.654 282.186 160.556C279.364 144.396 266.91 139.787 254.395 150.233C241.819 160.679 234.027 182.184 236.849 198.344Z" fill="white" stroke="#138BE1" stroke-miterlimit="10" stroke-linecap="round" stroke-linejoin="round"/>
<path d="M9.00017 69.7403C8.69342 67.3439 9.30691 65.009 9.92039 62.6741C12.1289 54.1947 14.3988 45.5924 18.6319 37.9732C20.4723 34.6552 22.7422 31.5829 24.9508 28.4493C27.4047 25.0083 29.8586 21.5674 32.6193 18.3108C34.0303 16.5904 35.5027 14.9314 37.2205 13.5181C43.3553 8.41819 51.576 6.94351 59.4899 6.08328C52.0668 2.02791 48.754 -1.10578 40.84 1.84358C38.1407 2.88814 29.7359 6.82062 27.2207 8.2953C25.3189 9.46276 23.4171 10.6917 21.822 12.2278C18.8159 15.1157 16.9755 18.9253 14.6442 22.3662C12.497 25.4999 9.92039 28.3264 8.07994 31.6444C6.42353 34.7166 5.44196 38.1576 4.52173 41.537C1.51566 52.5971 -0.938282 64.5789 3.17206 75.2703C4.15364 77.851 14.8896 85.4702 13.4173 80.4931C12.3743 76.8064 9.49095 73.7956 9.00017 69.7403Z" fill="#F6F5F5"/>
<path d="M63.3564 8.29532L54.9516 3.37972C48.8781 -0.184089 40.7801 0.55325 32.2527 5.46885C23.7253 10.3844 15.75 18.8639 9.92188 29.3709" stroke="#041C2D" stroke-miterlimit="10" stroke-linecap="round" stroke-linejoin="round"/>
<path d="M58.0794 68.3885C58.018 68.0812 58.1407 67.774 58.3248 67.4668C68.1405 54.0103 72.4349 39.4479 72.4963 28.5107C72.4349 18.9253 69.2448 11.7977 63.478 8.41818H63.4167C52.374 1.96646 38.8773 12.4121 38.3865 12.535C37.2822 13.2109 37.3436 13.3338 35.6872 14.5012C35.6258 14.5627 35.6258 14.5627 35.5645 14.6241C22.2519 25.0083 11.5772 43.0117 9.3687 62.3669C8.69387 71.6451 10.2276 81.9064 18.2029 86.5762C27.0984 91.7376 38.5092 86.3304 46.4845 80.0016C46.8526 79.6943 47.3434 79.6329 47.7115 79.8172L59.6744 84.8557C60.0425 85.0401 60.4106 84.9172 60.656 84.7328C60.9014 84.487 61.0241 84.1798 60.9627 83.8111L58.0794 68.3885Z" fill="white" stroke="#041C2D" stroke-miterlimit="10" stroke-linecap="round" stroke-linejoin="round"/>
<path d="M3.04909 47.5586C1.76077 52.4127 1.08594 57.0826 1.08594 61.5066C1.08594 71.1535 4.39875 78.404 10.4723 82.0292L19.1224 87.0063" stroke="#041C2D" stroke-miterlimit="10" stroke-linecap="round" stroke-linejoin="round"/>
<path d="M57.5267 49.2792L51.0238 26.606C51.0238 26.6674 52.3735 35.5155 51.5759 40.554C50.9624 44.5479 49.2447 49.0334 48.7539 50.2008L50.1649 54.9321L57.5267 49.2792Z" fill="white" stroke="#041C2D" stroke-linecap="round" stroke-linejoin="round"/>
<path d="M24.1543 59.6635L26.9763 69.0031C26.9763 69.0031 33.8474 64.0875 37.0375 57.2671L38.5098 62.1213C41.2705 60.155 43.7245 57.8201 45.8716 55.178C49.1845 50.8768 51.4544 43.0119 51.6997 39.3252C52.0065 35.7614 51.5157 28.3265 50.7795 25.9302L43.6018 30.2313C43.6018 30.2313 45.2582 35.1469 43.4177 41.8444C42.6202 44.6709 41.2092 47.3745 39.4301 49.7094C39.4301 49.7094 41.7613 41.5372 39.4914 32.812L31.7615 37.236C31.7615 37.236 32.9885 45.7155 31.148 50.4467C29.9211 53.8262 28.4487 56.5912 24.1543 59.6635Z" fill="white" stroke="#138BE1" stroke-linecap="round" stroke-linejoin="round"/>
</svg>
