<svg width="189" height="221" viewBox="0 0 189 221" fill="none" xmlns="http://www.w3.org/2000/svg">
<path d="M23.9531 63.3374L24.5364 159.5L37.0442 159.424L51.1451 16.4024L38.1052 13.1742L11.5601 59.9588L23.9531 63.3374Z" fill="#F6F5F5"/>
<path d="M37.0542 163.269L36.4299 60.3434L24.0475 63.3681L50.6991 16.4053L76.5146 50.2093L64.729 53.2895L65.4218 167.506" fill="white"/>
<path d="M63.8173 33.5837L76.5134 50.2095L64.7279 53.2897L65.4207 167.506" fill="white"/>
<path d="M63.8173 33.5837L76.5134 50.2095L64.7279 53.2897L65.4207 167.506" stroke="#232323" stroke-linecap="round" stroke-linejoin="round"/>
<path d="M37.0536 163.269L36.4293 60.343L24.0469 63.3676L50.6985 16.4049L61.1006 30.0246" fill="white"/>
<path d="M37.0536 163.269L36.4293 60.343L24.0469 63.3676L50.6985 16.4049L61.1006 30.0246" stroke="#232323" stroke-linecap="round" stroke-linejoin="round"/>
<path d="M21.2625 42.9432L38.1035 13.1738" stroke="#232323" stroke-linecap="round" stroke-linejoin="round"/>
<path d="M11.6383 59.9581L18.4238 47.9639" stroke="#232323" stroke-linecap="round" stroke-linejoin="round"/>
<path d="M23.9512 63.3374L24.5345 159.5" stroke="#232323" stroke-linecap="round" stroke-linejoin="round"/>
<path d="M50.7115 16.4044L38.1043 13.1735" stroke="#232323" stroke-linecap="round" stroke-linejoin="round"/>
<path d="M24.1103 63.2775L11.7203 59.9862" stroke="#232323" stroke-linecap="round" stroke-linejoin="round"/>
<path d="M118.737 92.9284L113.321 104.518C105.178 102.9 97.7921 100.304 91.5427 96.2773C87.6037 93.7186 84.6495 89.8052 83.7026 85.2145C83.1724 82.6181 83.3239 80.3227 83.7784 78.4413C84.801 74.1516 87.3765 71.7434 87.3765 71.7434C87.7552 73.0228 88.2097 74.1892 88.74 75.3557C93.3228 85.1016 104.231 90.332 118.737 92.9284ZM144.34 25.6105C142.787 28.3198 140.212 30.1636 136.727 31.3677C131.084 33.2868 123.206 33.4373 113.889 32.4966C113.662 32.459 113.434 32.4213 113.207 32.3837C110.556 31.8945 107.791 32.7976 106.276 35.0177C104.837 37.1626 103.776 40.4739 103.89 44.8012C104.004 50.0692 101.504 54.9986 99.4586 56.7295C98.5117 57.5197 97.1103 57.3316 96.3528 56.3532C93.9288 53.1924 91.3912 50.7465 88.5506 49.6929C83.286 47.6986 81.6574 52.0259 81.6195 51.9507C76.3928 40.9254 76.3928 30.2389 80.2939 19.7028C86.7326 5.36627 99.4586 -0.880099 118.775 1.49051C127.751 2.58175 143.545 11.0106 144.681 23.7291C144.833 24.3312 144.681 25.0461 144.34 25.6105ZM130.402 99.0995L118.737 92.9284V92.8907C118.813 92.5145 120.593 88.4129 122.373 83.333C122.562 83.3707 122.752 83.4083 122.903 83.4083C126.539 83.9351 130.251 83.7846 132.826 81.9784C133.167 87.7356 132.372 93.4175 130.402 99.0995Z" fill="#F6F5F5"/>
<path d="M158.848 118.779C157.939 92.7778 154.303 70.9155 144.607 61.0192C143.168 59.5517 141.274 58.6486 139.229 58.5733C138.623 58.5357 138.017 58.5357 137.373 58.5357C137.222 62.7125 136.578 66.8516 136.426 71.0661C136.351 73.4367 136.389 75.8449 135.669 78.1026C135.101 79.8712 134.116 81.1506 132.866 82.016C133.169 87.7356 132.374 93.4552 130.404 99.0995L118.777 92.9284L113.361 104.48C105.218 102.862 97.832 100.266 91.5826 96.2397C87.6436 93.6809 84.6894 89.7675 83.7425 85.1768C83.2122 82.5805 83.3637 80.2851 83.8182 78.4037C75.5615 83.8222 67.6835 89.9181 60.7903 96.2397C50.8671 104.556 50.4883 131.31 51.0186 169.917C56.2453 202.089 162.333 175.11 159.114 141.846C159.151 138.61 159.189 135.411 159.151 132.25M145.176 25.6105C143.623 28.3198 141.047 30.1636 137.563 31.3677C131.957 33.2868 124.041 33.4373 114.724 32.4966C114.497 32.459 114.27 32.4213 114.042 32.3837C111.391 31.8945 108.626 32.7976 107.111 35.0177C105.672 37.1626 104.612 40.4739 104.725 44.8012C104.839 50.0692 102.339 54.9986 100.294 56.7295C99.347 57.5197 97.9456 57.3316 97.1881 56.3532C94.7641 53.1924 92.2265 50.7465 89.3858 49.6929C84.1212 47.6986 82.4926 52.0259 82.4547 51.9507C77.228 40.9254 77.228 30.2389 81.1291 19.7028C87.5679 5.36627 100.294 -0.880099 119.61 1.49051C128.586 2.58175 144.38 11.0106 145.516 23.7291C145.63 24.3312 145.479 25.0461 145.176 25.6105ZM130.442 99.0995L118.777 92.9284V92.8907C118.853 92.5144 120.633 88.4129 122.413 83.333C122.602 83.3707 122.792 83.4083 122.943 83.4083C126.579 83.9351 130.291 83.7846 132.866 81.9784C133.207 87.7356 132.412 93.4175 130.442 99.0995ZM122.413 83.3707C120.633 88.4505 118.853 92.5144 118.777 92.9284C104.271 90.3696 93.4006 85.1392 88.742 75.2805C88.2117 74.1516 87.7572 72.9475 87.3785 71.6681L88.136 68.0558C88.1739 68.0934 88.1739 68.0934 88.1739 68.131C89.3859 69.5609 91.2796 71.0284 93.59 72.4207C100.294 76.4846 110.217 80.097 115.444 81.715C117.413 82.2794 119.875 82.9567 122.413 83.3707ZM136.464 71.0661C136.389 73.4367 136.426 75.8449 135.707 78.1026C135.139 79.8712 134.154 81.1506 132.904 82.016C130.329 83.8598 126.579 83.9727 122.981 83.4459C122.792 83.4083 122.602 83.4083 122.451 83.3707C119.913 82.9567 117.451 82.2794 115.52 81.715C110.255 80.097 100.332 76.5222 93.6657 72.4207C91.3932 71.0284 89.4616 69.5985 88.2496 68.131C88.2496 68.0934 88.2117 68.0934 88.2117 68.0558C85.409 64.6692 81.6594 54.2084 82.5305 51.8754C83.4016 49.5424 86.1665 48.3007 89.4616 49.6177C92.3022 50.6713 94.8398 53.1171 97.2638 56.278C98.0213 57.2563 99.3848 57.4821 100.37 56.6543C102.415 54.961 104.952 49.994 104.801 44.7259C104.687 40.3986 105.748 37.0873 107.187 34.9425C108.664 32.7224 111.467 31.8193 114.118 32.3085C114.345 32.3461 114.573 32.3837 114.8 32.4213C124.117 33.3997 132.033 33.2115 137.638 31.2925C139.456 41.5651 136.578 66.8893 136.464 71.0661ZM118.777 92.9284L113.361 104.518C105.218 102.9 97.832 100.304 91.5826 96.2773C87.6436 93.7186 84.6894 89.8052 83.7425 85.2145C83.2122 82.6181 83.3637 80.3227 83.8182 78.4413C84.8409 74.1516 87.4164 71.7434 87.4164 71.7434C87.7951 73.0228 88.2496 74.1892 88.7798 75.3557C93.3627 85.1016 104.271 90.332 118.777 92.9284Z" fill="white"/>
<path d="M118.777 92.9284L130.404 99.0995C132.374 93.4552 133.169 87.7356 132.866 82.016C134.116 81.1506 135.101 79.8712 135.669 78.1026C136.389 75.8449 136.351 73.4367 136.426 71.0661C136.578 66.8516 137.222 62.7125 137.373 58.5357C138.017 58.5357 138.623 58.5357 139.229 58.5733C141.274 58.6486 143.168 59.5517 144.607 61.0192C154.303 70.9155 157.939 92.7779 158.848 118.779L159.151 132.25C159.189 135.411 159.151 138.61 159.114 141.846C162.333 175.11 56.2453 202.089 51.0186 169.917C50.4883 131.31 50.8671 104.556 60.7903 96.2397C67.6835 89.9181 75.5615 83.8222 83.8182 78.4037C83.3637 80.2851 83.2122 82.5805 83.7425 85.1768C84.6894 89.7675 87.6436 93.6809 91.5826 96.2397C97.832 100.266 105.218 102.862 113.361 104.48L118.777 92.9284ZM118.777 92.9284L130.442 99.0995C132.412 93.4175 133.207 87.7356 132.866 81.9784C130.291 83.7846 126.579 83.9351 122.943 83.4083C122.792 83.4083 122.602 83.3707 122.413 83.333C120.633 88.4129 118.853 92.5144 118.777 92.8907V92.9284ZM118.777 92.9284C118.853 92.5144 120.633 88.4505 122.413 83.3707C119.875 82.9567 117.413 82.2794 115.444 81.715C110.217 80.097 100.294 76.4846 93.59 72.4207C91.2796 71.0284 89.3859 69.5609 88.1739 68.131C88.1739 68.0934 88.1739 68.0934 88.136 68.0558L87.3785 71.6681C87.7572 72.9475 88.2117 74.1516 88.742 75.2805C93.4006 85.1392 104.271 90.3696 118.777 92.9284ZM118.777 92.9284L113.361 104.518C105.218 102.9 97.832 100.304 91.5826 96.2773C87.6436 93.7186 84.6894 89.8052 83.7425 85.2145C83.2122 82.6181 83.3637 80.3227 83.8182 78.4413C84.8409 74.1516 87.4164 71.7434 87.4164 71.7434C87.7951 73.0228 88.2496 74.1892 88.7798 75.3557C93.3627 85.1016 104.271 90.332 118.777 92.9284ZM145.176 25.6105C143.623 28.3198 141.047 30.1636 137.563 31.3677C131.957 33.2868 124.041 33.4373 114.724 32.4966C114.497 32.459 114.27 32.4213 114.042 32.3837C111.391 31.8945 108.626 32.7976 107.111 35.0177C105.672 37.1626 104.612 40.4739 104.725 44.8012C104.839 50.0692 102.339 54.9986 100.294 56.7295C99.3469 57.5197 97.9456 57.3316 97.1881 56.3532C94.7641 53.1924 92.2265 50.7465 89.3858 49.6929C84.1212 47.6986 82.4926 52.0259 82.4547 51.9507C77.228 40.9254 77.228 30.2389 81.1291 19.7028C87.5679 5.36627 100.294 -0.880099 119.61 1.49051C128.586 2.58175 144.38 11.0106 145.516 23.7291C145.63 24.3312 145.479 25.0461 145.176 25.6105ZM136.464 71.0661C136.389 73.4367 136.426 75.8449 135.707 78.1026C135.139 79.8712 134.154 81.1506 132.904 82.016C130.329 83.8598 126.579 83.9727 122.981 83.4459C122.792 83.4083 122.602 83.4083 122.451 83.3707C119.913 82.9567 117.451 82.2794 115.52 81.715C110.255 80.097 100.332 76.5222 93.6657 72.4207C91.3932 71.0284 89.4616 69.5985 88.2496 68.131C88.2496 68.0934 88.2117 68.0934 88.2117 68.0558C85.409 64.6692 81.6594 54.2084 82.5305 51.8754C83.4016 49.5424 86.1665 48.3007 89.4616 49.6177C92.3022 50.6713 94.8398 53.1172 97.2638 56.278C98.0213 57.2563 99.3848 57.4821 100.37 56.6543C102.415 54.961 104.952 49.994 104.801 44.7259C104.687 40.3986 105.748 37.0873 107.187 34.9425C108.664 32.7224 111.467 31.8193 114.118 32.3085C114.345 32.3461 114.573 32.3837 114.8 32.4213C124.117 33.3997 132.033 33.2115 137.638 31.2925C139.456 41.5651 136.578 66.8893 136.464 71.0661Z" stroke="#18102E" stroke-miterlimit="10" stroke-linecap="round" stroke-linejoin="round"/>
<path d="M118.626 92.8159L113.361 104.481C113.361 104.481 114.876 105.685 116.619 106.4C118.361 107.115 121.05 107.867 121.05 107.867C121.05 107.867 121.921 108.357 122.451 109.636C122.982 110.878 124.648 121.903 124.837 126.381C125.027 130.859 126.352 160.51 126.352 160.51L131.125 167.17L135.329 158.403C135.329 158.403 134.761 143.84 133.473 134.546C131.693 121.677 126.428 105.873 126.428 105.873C126.428 105.873 128.625 103.578 129.42 101.997C130.216 100.417 130.443 99.0999 130.443 99.0999L118.626 92.8159Z" fill="white" stroke="#138BE1" stroke-miterlimit="10"/>
<path d="M19.7123 206.289L38.8247 212.512V174.386L37.0632 174.474L37.6797 158.873L100.389 129.949L83.8312 124.953C83.8312 124.953 20.1527 153.176 19.2719 154.403C18.3912 155.63 18.127 168.338 18.127 168.338L19.7123 169.127V206.289Z" fill="#F6F5F5"/>
<path d="M19.7109 169.037V206.286L38.8233 212.509" stroke="#1C1D22" stroke-miterlimit="10" stroke-linecap="round"/>
<path d="M101.005 184.023L38.8242 212.508V162.55L101.005 133.977V184.023Z" fill="white" stroke="#1C1D22" stroke-linecap="round" stroke-linejoin="round"/>
<path d="M79.4277 126.528L82.8627 124.95C83.1269 124.862 83.4792 124.775 83.7435 124.862L100.39 130.209" stroke="#1C1D22" stroke-linecap="round" stroke-linejoin="round"/>
<path d="M36.9751 174.469L18.6554 168.421C18.3031 168.334 18.127 167.983 18.127 167.72V157.115C18.127 155.625 19.0077 154.223 20.4169 153.609L36.887 146.072" stroke="#1C1D22" stroke-miterlimit="10" stroke-linecap="round"/>
<path d="M77.9314 124.337L71.9423 122.409C71.5019 122.233 70.9735 122.321 70.5331 122.496L39.9709 136.607C38.2094 137.396 37.0645 139.237 37.0645 141.165V150.28L41.9086 151.682C41.9086 151.682 41.6443 142.217 42.9655 140.464C44.2866 138.711 76.3461 124.424 76.3461 124.424L77.9314 124.337Z" fill="#F6F5F5"/>
<path d="M101.886 143.967L71.5002 171.926L36.9746 174.468L37.1508 160.182C37.1508 159.393 37.5911 158.692 38.2957 158.341L99.0678 130.382C99.9485 129.944 101.005 130.382 101.358 131.258C101.446 131.434 101.534 131.697 101.534 131.96L101.886 143.967Z" fill="white" stroke="#1C1D22" stroke-linecap="round" stroke-linejoin="round"/>
<path d="M74.6705 178.326L68.153 181.306C67.7126 181.569 67.1842 181.394 67.008 180.956C66.92 180.781 66.9199 180.693 66.9199 180.518V167.634C66.9199 167.283 67.0961 166.932 67.4484 166.845L73.966 163.865C74.4063 163.602 74.9348 163.777 75.1109 164.215C75.199 164.391 75.199 164.478 75.199 164.654V177.538C75.199 177.888 75.0228 178.151 74.6705 178.326Z" fill="#F6F5F5" stroke="#1C1D22" stroke-linecap="round" stroke-linejoin="round"/>
<path d="M76.5203 136.521L72.4688 135.206V129.421" stroke="#1C1D22" stroke-linecap="round" stroke-linejoin="round"/>
<path d="M56.9677 128.632L39.8811 136.521C38.1196 137.309 36.9746 139.15 36.9746 141.078V150.544" stroke="#1C1D22" stroke-linecap="round" stroke-linejoin="round"/>
<path d="M77.9314 124.337L71.9423 122.409C71.5019 122.233 70.9735 122.321 70.5331 122.496L63.1348 125.914" stroke="#1C1D22" stroke-linecap="round" stroke-linejoin="round"/>
<path d="M42.083 152.381L36.9746 150.715" stroke="#1C1D22" stroke-linecap="round" stroke-linejoin="round"/>
<path d="M42.0822 152.383L44.9006 151.068V144.056C44.9006 143.18 45.4291 142.303 46.2217 141.953L74.6701 128.806C75.2866 128.543 76.0793 128.806 76.4316 129.419C76.5197 129.594 76.5197 129.77 76.5197 129.945V136.519L79.3381 135.204V126.352C79.3381 125.212 78.3693 124.248 77.1362 124.248C76.872 124.248 76.5197 124.336 76.2555 124.423L44.7245 138.973C43.051 139.761 41.9941 141.427 41.9941 143.18L42.0822 152.383Z" fill="white" stroke="#1C1D22" stroke-linecap="round" stroke-linejoin="round"/>
<path d="M178.071 168.48C178.071 168.48 170.585 173.475 162.834 172.95C155.083 172.424 146.012 167.34 145.395 163.046C144.779 158.751 144.955 168.217 145.395 169.268C148.83 175.404 155.348 179.085 162.394 178.91C173.667 178.559 179.656 175.491 180.89 171.197C182.123 166.902 182.387 166.026 182.387 166.026L178.071 168.48Z" fill="#F6F5F5"/>
<path d="M163.627 173.036C173.842 173.036 182.123 167.66 182.123 161.028C182.123 154.397 173.842 149.021 163.627 149.021C153.412 149.021 145.131 154.397 145.131 161.028C145.131 167.66 153.412 173.036 163.627 173.036Z" fill="white" stroke="#138BE1" stroke-linecap="round" stroke-linejoin="round"/>
<path d="M145.131 161.295V166.904C145.131 173.478 153.41 178.824 163.627 178.824C173.843 178.824 182.123 173.478 182.123 166.817V160.944" stroke="#138BE1" stroke-linecap="round" stroke-linejoin="round"/>
<path d="M163.627 169.618C171.459 169.618 177.808 165.772 177.808 161.029C177.808 156.285 171.459 152.439 163.627 152.439C155.796 152.439 149.447 156.285 149.447 161.029C149.447 165.772 155.796 169.618 163.627 169.618Z" stroke="#138BE1" stroke-linecap="round" stroke-linejoin="round"/>
<path d="M150.15 172.162V175.054" stroke="#138BE1" stroke-linecap="round" stroke-linejoin="round"/>
<path d="M156.67 175.052V177.944" stroke="#138BE1" stroke-linecap="round" stroke-linejoin="round"/>
<path d="M163.273 175.929V178.821" stroke="#138BE1" stroke-linecap="round" stroke-linejoin="round"/>
<path d="M169.795 175.228V178.121" stroke="#138BE1" stroke-linecap="round" stroke-linejoin="round"/>
<path d="M176.307 172.162V175.054" stroke="#138BE1" stroke-linecap="round" stroke-linejoin="round"/>
<path d="M184.149 158.838C184.149 158.838 176.663 163.834 168.912 163.308C161.162 162.782 152.09 157.699 151.473 153.404C150.857 149.109 151.033 158.575 151.473 159.627C154.908 165.762 161.426 169.443 168.472 169.268C179.745 169.005 185.735 165.762 186.968 161.555C187.584 159.452 188.025 157.26 188.201 155.069L184.149 158.838Z" fill="#F6F5F5"/>
<path d="M151.295 151.65V157.259C151.295 163.832 159.574 169.266 169.791 169.266C180.008 169.266 188.287 163.92 188.287 157.259V151.387" stroke="#138BE1" stroke-linecap="round" stroke-linejoin="round"/>
<path d="M156.316 162.521V165.414" stroke="#138BE1" stroke-linecap="round" stroke-linejoin="round"/>
<path d="M162.836 165.412V168.304" stroke="#138BE1" stroke-linecap="round" stroke-linejoin="round"/>
<path d="M169.352 166.283V169.176" stroke="#138BE1" stroke-linecap="round" stroke-linejoin="round"/>
<path d="M175.869 165.589V168.481" stroke="#138BE1" stroke-linecap="round" stroke-linejoin="round"/>
<path d="M182.387 162.521V165.414" stroke="#138BE1" stroke-linecap="round" stroke-linejoin="round"/>
<path d="M169.791 163.395C180.006 163.395 188.287 158.019 188.287 151.388C188.287 144.756 180.006 139.38 169.791 139.38C159.576 139.38 151.295 144.756 151.295 151.388C151.295 158.019 159.576 163.395 169.791 163.395Z" fill="white" stroke="#138BE1" stroke-linecap="round" stroke-linejoin="round"/>
<path d="M174.461 159.541C172.964 159.891 171.379 160.067 169.793 160.067C161.955 160.067 155.613 156.21 155.613 151.477C155.613 148.672 157.815 146.131 161.338 144.553" stroke="#138BE1" stroke-linecap="round" stroke-linejoin="round"/>
<path d="M169.795 142.8C177.634 142.8 183.975 146.656 183.975 151.389C183.975 153.405 182.83 155.333 180.804 156.823" stroke="#138BE1" stroke-linecap="round" stroke-linejoin="round"/>
</svg>
