<svg width="24" height="24" viewBox="0 0 24 24" fill="none" xmlns="http://www.w3.org/2000/svg">
<path d="M6.43126 5.55749C6.23109 5.80386 5.87693 6.2658 5.67676 6.60456C5.47658 6.94331 5.26101 7.28207 5.18402 7.37446C5.12243 7.45145 4.36792 8.57551 3.52103 9.86895C1.87343 12.4096 1.70405 12.887 2.35077 13.4567C2.9051 13.9802 3.12068 14.1496 3.7674 14.6269C4.10615 14.8733 4.41411 15.1043 4.46031 15.1659C4.5065 15.2121 4.92225 15.5354 5.38419 15.8742C5.84613 16.213 6.70843 16.8905 7.30895 17.3524C7.97107 17.8913 8.77177 18.3687 9.43388 18.615C10.3732 18.9538 10.7119 19 12.6675 19C14.777 19 14.8848 18.9846 15.7317 18.5535C16.2706 18.2763 17.2099 17.5218 18.1954 16.5671C19.0731 15.7202 20.2895 14.5962 20.9054 14.0726C21.9063 13.1949 22.0141 13.0563 21.9987 12.5482C21.9987 12.2249 21.8447 11.7783 21.6138 11.4549C21.4136 11.1624 21.0594 10.6389 20.8285 10.3001C20.6129 9.96134 19.8122 8.76029 19.0577 7.62083C18.103 6.17341 17.5487 5.4805 17.2253 5.31112C16.7788 5.09555 16.7018 5.11094 15.7933 5.55749C15.0696 5.92704 14.5922 6.05023 13.6991 6.09642C12.7291 6.15801 12.1439 6.31199 11.2201 6.77394C11.1739 6.80473 10.3578 6.45058 9.41849 5.98864C7.46293 5.01856 7.00099 4.95696 6.43126 5.55749ZM8.78716 7.54384L9.86503 8.09817L8.94115 9.05285C7.6785 10.3925 7.46293 11.2856 8.10965 12.579C8.35602 13.0871 9.37229 13.5953 10.1114 13.6107C10.8197 13.6107 11.3586 13.3643 12.0823 12.7176C12.4365 12.4096 12.9446 11.9631 13.2064 11.7475L13.6837 11.3318L14.2227 11.9785C14.5306 12.3172 15.3159 13.1949 15.9935 13.9186L17.2253 15.2275L16.3476 16.0436C15.2697 17.0444 14.777 17.2754 13.4374 17.3986C11.3894 17.5834 9.60326 17.1214 8.35602 16.0898C8.07885 15.8742 7.52452 15.4276 7.12417 15.1043C5.16862 13.5799 3.84439 12.5174 3.84439 12.4558C3.84439 12.3942 5.79994 9.40701 6.24648 8.76029C6.36967 8.59091 6.67763 8.12897 6.9394 7.71322C7.20116 7.31287 7.47833 6.98951 7.55532 6.98951C7.64771 6.98951 8.20204 7.23588 8.78716 7.54384ZM18.8267 10.3001C19.4272 11.224 19.9662 12.0093 20.0431 12.0401C20.3203 12.1633 20.1201 12.4558 19.2886 13.2257L18.411 14.011L16.5016 11.9785C15.4545 10.8544 14.4844 9.89974 14.3613 9.85355C13.9917 9.69957 13.2372 9.74576 12.883 9.93054C12.6983 10.0383 12.0823 10.5157 11.528 11.0084C10.4963 11.9169 9.95742 12.1171 9.57247 11.7321C9.17212 11.3318 9.37229 10.9776 10.9737 9.31462C12.1593 8.08277 12.8369 7.77481 14.2073 7.75941C15.0234 7.75941 15.4083 7.66702 15.9627 7.37446L16.671 7.00491L17.2099 7.80561C17.5025 8.25215 18.2262 9.36081 18.8267 10.3001Z" fill="#138BE1"/>
</svg>
