<svg width="25" height="24" viewBox="0 0 25 24" fill="none" xmlns="http://www.w3.org/2000/svg">
<path fill-rule="evenodd" clip-rule="evenodd" d="M7.54557 4.51099C6.59471 4.51099 5.82389 5.28181 5.82389 6.23266C5.82389 7.18351 6.59471 7.95433 7.54557 7.95433C8.49642 7.95433 9.26724 7.18351 9.26724 6.23266C9.26724 5.28181 8.49642 4.51099 7.54557 4.51099ZM4.32389 6.23266C4.32389 4.45338 5.76628 3.01099 7.54557 3.01099C9.32485 3.01099 10.7672 4.45338 10.7672 6.23266C10.7672 8.01194 9.32485 9.45433 7.54557 9.45433C5.76628 9.45433 4.32389 8.01194 4.32389 6.23266ZM15.7842 7.88895C14.8788 7.88895 14.1449 8.62288 14.1449 9.52823C14.1449 10.4336 14.8788 11.1675 15.7842 11.1675C16.1743 11.1675 16.5326 11.0312 16.814 10.8037L16.9794 10.6501C17.2548 10.3569 17.4234 9.96226 17.4234 9.52823C17.4234 8.62288 16.6895 7.88895 15.7842 7.88895ZM18.9233 9.56179C18.9234 9.55061 18.9234 9.53943 18.9234 9.52823C18.9234 7.79445 17.5179 6.38895 15.7842 6.38895C14.0504 6.38895 12.6449 7.79445 12.6449 9.52823C12.6449 9.84021 12.6904 10.1416 12.7751 10.426H10.8411C10.2089 10.426 9.55979 10.6337 9.12923 11.167L5.08345 15.0683L4.78033 14.7651C4.48744 14.4722 4.01256 14.4722 3.71967 14.7651C3.42678 15.058 3.42678 15.5329 3.71967 15.8258L4.54252 16.6486C4.54334 16.6495 4.54416 16.6503 4.54499 16.6511L7.83506 19.9412C7.8381 19.9443 7.84116 19.9473 7.84424 19.9504L8.66302 20.7691C8.95591 21.062 9.43078 21.062 9.72368 20.7691C10.0166 20.4762 10.0166 20.0014 9.72368 19.7085L9.46665 19.4515L10.1816 18.8259C10.2208 18.7916 10.2564 18.7532 10.2877 18.7115C10.3524 18.6252 10.5054 18.5171 10.8411 18.5171H14.1367C15.2167 18.5171 16.2478 18.1246 16.9847 17.2988L20.7486 13.6985C20.7492 13.6979 20.7499 13.6973 20.7505 13.6967C21.2118 13.2598 21.4811 12.6576 21.499 12.0224C21.517 11.3863 21.2816 10.7691 20.8445 10.3066C20.4074 9.8441 19.8045 9.57417 19.1684 9.55619C19.0863 9.55386 19.0045 9.55577 18.9233 9.56179ZM17.8026 11.9327C17.8825 11.8656 17.9589 11.7946 18.0317 11.72L18.4781 11.3054L18.4829 11.3009C18.6563 11.1371 18.8876 11.0488 19.1261 11.0556C19.3645 11.0623 19.5905 11.1635 19.7543 11.3369C19.9181 11.5102 20.0064 11.7416 19.9996 11.98C19.9929 12.2184 19.8917 12.4444 19.7184 12.6082L15.9252 16.2365C15.9091 16.2518 15.8938 16.2679 15.8792 16.2846C15.4641 16.7589 14.8578 17.0171 14.1367 17.0171H10.8411C10.2152 17.0171 9.57279 17.2207 9.14223 17.7422L8.40363 18.3884L6.14428 16.1291L10.2083 12.2102C10.2371 12.1824 10.2637 12.1524 10.2877 12.1203C10.3524 12.0341 10.5054 11.926 10.8411 11.926H13.3128C13.5509 11.926 13.7793 12.0206 13.9476 12.189C14.116 12.3573 14.2106 12.5857 14.2106 12.8238C14.2106 13.0619 14.116 13.2903 13.9476 13.4586C13.7793 13.627 13.5509 13.7216 13.3128 13.7216H11.665C11.2508 13.7216 10.915 14.0574 10.915 14.4716C10.915 14.8858 11.2508 15.2216 11.665 15.2216H13.3128C13.9241 15.2216 14.5112 14.9882 14.9552 14.5708C14.9767 14.5547 14.9976 14.5373 15.0178 14.5186L17.8026 11.9327Z" fill="#138BE1"/>
</svg>
