<svg width="254" height="244" viewBox="0 0 254 244" fill="none" xmlns="http://www.w3.org/2000/svg">
<path d="M100.816 76.0606L66.875 93.1855L76.4576 95.4265L241.975 12.7117L230.181 10.8052L110.131 71.3445" fill="white"/>
<path d="M100.816 76.0606L66.875 93.1855L76.4576 95.4265L241.975 12.7117L230.181 10.8052L110.131 71.3445" stroke="#1C1D22" stroke-miterlimit="10" stroke-linecap="round" stroke-linejoin="round"/>
<path d="M94.413 221.524L234.097 144.06L236.376 105.83" fill="white"/>
<path d="M236.376 105.83L241.904 12.7798L76.4541 95.4277L75.918 231.792L94.413 221.524" fill="white"/>
<path d="M94.413 221.524L234.097 144.06L236.376 105.83L241.904 12.7798L76.4541 95.4277L75.918 231.792L94.413 221.524Z" stroke="#1C1D22" stroke-miterlimit="10" stroke-linecap="round" stroke-linejoin="round"/>
<path d="M66.875 93.1859L67.7796 227.543L75.9215 231.925L76.4576 95.4269L66.875 93.1859Z" fill="#F6F5F5" stroke="#1C1D22" stroke-miterlimit="10" stroke-linecap="round" stroke-linejoin="round"/>
<path d="M241.203 24.353L76.4562 108.606L67.2422 106.165" stroke="#1C1D22" stroke-miterlimit="10" stroke-linecap="round" stroke-linejoin="round"/>
<path d="M86.4549 98.8557C87.4406 97.1627 87.4355 95.3238 86.4435 94.7483C85.4516 94.1728 83.8484 95.0786 82.8628 96.7716C81.8772 98.4645 81.8823 100.303 82.8742 100.879C83.8661 101.454 85.4693 100.549 86.4549 98.8557Z" fill="white" stroke="#1C1D22" stroke-miterlimit="10" stroke-linecap="round" stroke-linejoin="round"/>
<path d="M56.6071 33.1797L62.604 29.7299C66.2631 27.6329 69.5495 27.43 71.955 28.8167L77.1726 31.8268C74.801 30.4401 71.4807 30.6092 67.8216 32.74L45.3248 45.6937C41.6996 47.7906 38.4132 51.3757 36.0415 55.4681C33.6699 59.5606 32.213 64.1941 32.2469 68.3542C32.2469 72.4804 33.7038 75.3891 36.0754 76.742L30.8578 73.7318C28.52 72.379 27.0293 69.4703 27.0293 65.3441C27.0293 61.184 28.4862 56.5842 30.8239 52.458C33.1956 48.3656 36.482 44.7805 40.1072 42.7174L48.3063 37.9823" fill="#F6F5F5"/>
<path d="M56.6071 33.1797L62.604 29.7299C66.2631 27.6329 69.5495 27.43 71.955 28.8167L77.1726 31.8268C74.801 30.4401 71.4807 30.6092 67.8216 32.74L45.3248 45.6937C41.6996 47.7906 38.4132 51.3757 36.0415 55.4681C33.6699 59.5606 32.213 64.1941 32.2469 68.3542C32.2469 72.4804 33.7038 75.3891 36.0754 76.742L30.8578 73.7318C28.52 72.379 27.0293 69.4703 27.0293 65.3441C27.0293 61.184 28.4862 56.5842 30.8239 52.458C33.1956 48.3656 36.482 44.7805 40.1072 42.7174L48.3063 37.9823" stroke="#1C1D22" stroke-miterlimit="10" stroke-linecap="round"/>
<path d="M67.8202 32.7407C75.0706 28.5468 80.9658 31.929 80.9997 40.2491C81.0336 48.5693 75.1723 58.7157 67.8879 62.8758L72.123 73.834L59.7227 67.577L45.3573 75.8633C38.1068 80.0572 32.2116 76.7089 32.1777 68.3887C32.1777 64.2287 33.6346 59.5951 36.0062 55.5027C38.3779 51.4103 41.6643 47.8252 45.2895 45.7282L67.8202 32.7407Z" fill="white" stroke="#1C1D22" stroke-miterlimit="10" stroke-linecap="round" stroke-linejoin="round"/>
<path d="M70.4267 36.8326L50.0645 48.5011" stroke="#1C1D22" stroke-miterlimit="10" stroke-linecap="round"/>
<path d="M68.5703 42.5498L75.3803 38.6603" stroke="#1C1D22" stroke-miterlimit="10" stroke-linecap="round"/>
<path d="M41.1152 58.1419L62.7988 45.8308" stroke="#1C1D22" stroke-miterlimit="10" stroke-linecap="round"/>
<path d="M41.1152 62.6725L72.7597 44.5779" stroke="#1C1D22" stroke-miterlimit="10" stroke-linecap="round"/>
<path d="M41.1152 67.2047L75.3686 47.7234" stroke="#1C1D22" stroke-miterlimit="10" stroke-linecap="round"/>
<path d="M41.1152 71.7344L72.7597 53.606" stroke="#1C1D22" stroke-miterlimit="10" stroke-linecap="round"/>
<path d="M63.3694 68.8957L63.1323 69.7413C61.2688 76.6747 56.39 83.7434 50.6303 87.0579L37.6879 94.5325L33.69 111.105C33.6561 111.274 33.5206 111.376 33.3512 111.41C33.2495 111.443 33.1479 111.41 33.0462 111.376L27.8286 108.366C27.727 108.298 27.6592 108.23 27.6253 108.129L25.2876 101.331C22.6788 102.21 20.2732 102.109 18.3082 100.992L18.2743 100.959L17.4273 100.451L13.0905 97.9485C10.4817 96.4265 9.05874 93.3149 9.05874 89.1549C9.02486 80.8009 14.8523 70.4853 22.3738 66.1562L34.7403 59.0198L44.8706 53.1686C48.5636 51.0717 52.0194 50.7335 54.6621 52.2555L59.6425 55.1303L59.8119 55.2318C59.8458 55.2318 59.8458 55.2318 59.8797 55.2656C64.2164 57.7684 64.4875 63.9916 63.3694 68.8957Z" fill="white"/>
<path d="M51.9523 51.478C48.2594 50.9031 40.0941 55.1308 31.7595 60.7452C23.4248 66.3596 23.3232 63.7215 15.3951 72.4136C5.40034 83.3719 9.87259 93.958 10.7874 95.7168C11.7021 97.4755 17.4619 100.452 17.4619 100.452L17.2586 100.215C15.3951 97.9828 14.3109 95.1756 14.3109 92.2669C14.3109 92.2331 14.3109 92.2331 14.3109 92.1993C14.2771 83.9468 20.0029 73.5636 27.626 69.1668L36.1301 64.2626L50.1567 56.1792C52.2573 54.9617 54.3579 54.4205 55.9503 54.3191C56.3229 54.3191 56.6956 54.3191 57.0683 54.3867L57.5088 54.4543C57.8815 54.522 58.2541 54.5896 58.6268 54.7249L59.711 55.1308C59.6771 55.1646 55.6453 52.053 51.9523 51.478Z" fill="#F6F5F5"/>
<path d="M43.3886 66.4609C44.7777 65.683 46.1329 65.4801 47.2171 66.0889C49.3177 67.2726 49.3516 71.1959 47.251 74.8487L39.1535 88.817L31.0222 84.1835C28.9216 82.9659 28.8877 79.0764 30.9883 75.4236C32.0386 73.5973 33.4277 72.2106 34.8168 71.3989C36.2059 70.621 37.5611 70.418 38.6114 71.0268C38.7808 71.1283 38.9503 71.2636 39.0858 71.3989C39.2213 71.0945 39.3907 70.7901 39.5601 70.4857C40.6443 68.6593 41.9995 67.2388 43.3886 66.4609Z" fill="#F6F5F5" stroke="#1C1D22" stroke-miterlimit="10"/>
<path d="M17.4284 100.453L17.2251 100.216C15.3617 97.9841 14.2775 95.1769 14.2775 92.2682C14.2775 92.2344 14.2775 92.2344 14.2775 92.2006C14.2436 83.9481 19.9694 73.5648 27.5926 69.168L36.0966 64.2639L50.1232 56.1805C52.2238 54.9629 54.3244 54.4218 55.9168 54.3203C56.2895 54.3203 56.6622 54.3203 57.0349 54.388L57.4753 54.4556C57.848 54.5232 58.2207 54.5909 58.5934 54.7262L59.6776 55.132" stroke="#1C1D22" stroke-miterlimit="10"/>
<path d="M32.8061 110.158L28.6726 99.9778L25.2168 101.703L28.0289 108.805L32.8061 111.139V110.158Z" fill="#F6F5F5"/>
<path d="M33.3551 111.444L28.578 99.7075L27.6971 100.215C26.9517 100.655 26.2063 100.993 25.4609 101.297" stroke="#1C1D22" stroke-miterlimit="10"/>
<path d="M59.8836 55.266C59.8497 55.266 59.8497 55.266 59.8158 55.2322L59.6464 55.1308L54.666 52.2559C52.0233 50.7339 48.5675 51.0383 44.8745 53.1691L34.7442 59.0203L22.3777 66.1566C14.8562 70.4858 9.02877 80.8352 9.06265 89.1553C9.06265 93.3154 10.4856 96.427 13.0944 97.949L17.4312 100.452L18.2782 100.959L18.3121 100.993C20.2771 102.109 22.6827 102.21 25.2915 101.331L27.6292 108.129C27.6631 108.231 27.7309 108.298 27.8325 108.366L33.0501 111.376C33.1518 111.444 33.2534 111.444 33.3551 111.41C33.5245 111.376 33.6261 111.275 33.6939 111.106L37.6918 94.533L50.6342 87.0584C56.3939 83.7439 61.2727 76.709 63.1362 69.7417L63.3733 68.8962C64.4914 63.992 64.2203 57.7688 59.8836 55.266Z" stroke="#1C1D22" stroke-miterlimit="10"/>
<path d="M190.212 182.262C194.539 180.868 199.255 181.37 203.191 183.655L208.271 186.608C204.586 184.463 199.507 184.769 193.869 188.029C182.704 194.465 173.661 210.096 173.689 222.94C173.717 229.293 175.978 233.807 179.606 235.924L171.959 231.466C168.302 229.349 166.042 224.863 166.014 218.482C165.986 207.923 172.07 195.496 180.472 187.834C183.263 185.271 186.612 183.432 190.212 182.262Z" fill="#F6F5F5" stroke="#1C1D22" stroke-miterlimit="10"/>
<path d="M208.269 219.558C216.193 205.948 216.21 191.198 208.306 186.612C200.403 182.027 187.573 189.343 179.649 202.954C171.724 216.564 171.708 231.314 179.611 235.9C187.514 240.485 200.345 233.169 208.269 219.558Z" fill="white" stroke="#1C1D22" stroke-miterlimit="10" stroke-linecap="round" stroke-linejoin="round"/>
<path d="M193.899 209.929C199.174 206.892 203.472 209.316 203.5 215.39V217.256L184.354 228.29V226.423C184.354 220.349 188.624 212.993 193.899 209.929Z" fill="#F6F5F5" stroke="#1C1D22" stroke-miterlimit="10" stroke-linecap="round" stroke-linejoin="round"/>
<path d="M193.902 196.22C196.051 194.966 197.809 195.997 197.809 198.449C197.809 200.929 196.079 203.91 193.93 205.164C191.78 206.418 190.022 205.415 189.994 202.935C189.994 200.483 191.725 197.474 193.902 196.22Z" fill="#F6F5F5" stroke="#1C1D22" stroke-miterlimit="10" stroke-linecap="round" stroke-linejoin="round"/>
<path d="M236.016 137.256C238.416 136.476 241.04 136.755 243.217 138.036L246.036 139.68C243.998 138.482 241.151 138.649 238.025 140.46C231.829 144.027 226.805 152.72 226.805 159.852C226.805 163.391 228.061 165.871 230.099 167.069L225.856 164.589C223.847 163.419 222.591 160.939 222.563 157.373C222.535 151.522 225.94 144.612 230.601 140.349C232.164 138.928 234.034 137.897 236.016 137.256Z" fill="#F6F5F5" stroke="#1C1D22" stroke-miterlimit="10"/>
<path d="M246.03 157.977C250.43 150.42 250.442 142.232 246.057 139.688C241.673 137.144 234.551 141.208 230.152 148.764C225.752 156.321 225.74 164.51 230.125 167.054C234.51 169.598 241.631 165.534 246.03 157.977Z" fill="white" stroke="#1C1D22" stroke-miterlimit="10" stroke-linecap="round" stroke-linejoin="round"/>
<path d="M238.065 152.609C240.996 150.909 243.396 152.274 243.396 155.646V156.676L232.762 162.806V161.775C232.734 158.404 235.134 154.308 238.065 152.609Z" fill="#F6F5F5" stroke="#138BE1" stroke-miterlimit="10" stroke-linecap="round" stroke-linejoin="round"/>
<path d="M238.04 145.002C239.24 144.306 240.217 144.863 240.217 146.256C240.217 147.621 239.268 149.293 238.068 149.99C236.867 150.686 235.891 150.129 235.891 148.764C235.891 147.371 236.84 145.699 238.04 145.002Z" fill="#F6F5F5" stroke="#138BE1" stroke-miterlimit="10" stroke-linecap="round" stroke-linejoin="round"/>
<path d="M204.169 3.31891C207.797 2.1487 211.733 2.56663 215.026 4.48911L219.269 6.96885C216.199 5.18567 211.928 5.43643 207.211 8.13906C197.889 13.5164 190.325 26.5838 190.325 37.3107C190.353 42.6324 192.223 46.3938 195.265 48.1491L188.874 44.4156C185.832 42.6324 183.962 38.8988 183.934 33.5772C183.906 24.7449 189.013 14.3802 196.019 7.94402C198.364 5.8265 201.183 4.26622 204.169 3.31891Z" fill="#F6F5F5" stroke="#1C1D22" stroke-miterlimit="10"/>
<path d="M219.247 34.4573C225.87 23.0821 225.891 10.7579 219.293 6.93038C212.696 3.10285 201.979 9.22144 195.357 20.5966C188.734 31.9718 188.713 44.2961 195.31 48.1236C201.908 51.9511 212.624 45.8325 219.247 34.4573Z" fill="white" stroke="#1C1D22" stroke-miterlimit="10" stroke-linecap="round" stroke-linejoin="round"/>
<path d="M207.268 26.4466C211.678 23.9111 215.278 25.945 215.278 30.9881V32.5484L199.285 41.7707V40.2105C199.285 35.1395 202.83 28.982 207.268 26.4466Z" fill="#F6F5F5" stroke="#1C1D22" stroke-miterlimit="10" stroke-linecap="round" stroke-linejoin="round"/>
<path d="M207.242 14.9655C209.056 13.9346 210.508 14.7704 210.508 16.8322C210.508 18.894 209.084 21.4016 207.27 22.4325C205.456 23.4634 204.004 22.6554 203.977 20.5657C203.977 18.5318 205.428 15.9964 207.242 14.9655Z" fill="#F6F5F5" stroke="#1C1D22" stroke-miterlimit="10" stroke-linecap="round" stroke-linejoin="round"/>
<path d="M40.9805 131.874C43.3808 131.094 46.0044 131.372 48.1815 132.654L51.0004 134.298C48.963 133.1 46.1161 133.267 42.9901 135.078C36.7939 138.644 31.7699 147.337 31.7699 154.47C31.7699 158.009 33.0259 160.488 35.0634 161.686L30.821 159.207C28.8114 158.036 27.5554 155.557 27.5275 151.99C27.4996 146.139 30.9047 139.23 35.5658 134.967C37.1288 133.518 38.9988 132.515 40.9805 131.874Z" fill="#F6F5F5" stroke="#1C1D22" stroke-miterlimit="10"/>
<path d="M50.9933 152.573C55.393 145.016 55.4051 136.827 51.0203 134.284C46.6356 131.74 39.5144 135.803 35.1147 143.36C30.7151 150.917 30.703 159.105 35.0877 161.649C39.4725 164.193 46.5937 160.13 50.9933 152.573Z" fill="white" stroke="#1C1D22" stroke-miterlimit="10" stroke-linecap="round" stroke-linejoin="round"/>
<path d="M43.0472 147.225C45.9778 145.526 48.3781 146.891 48.3781 150.262V151.293L37.7441 157.423V156.392C37.7441 153.021 40.1166 148.925 43.0472 147.225Z" fill="#F6F5F5" stroke="#1C1D22" stroke-miterlimit="10" stroke-linecap="round" stroke-linejoin="round"/>
<path d="M43.0222 139.62C44.2223 138.924 45.1992 139.481 45.1992 140.874C45.1992 142.239 44.2502 143.911 43.0501 144.608C41.8499 145.304 40.873 144.747 40.873 143.382C40.873 141.988 41.822 140.289 43.0222 139.62Z" fill="#F6F5F5" stroke="#1C1D22" stroke-miterlimit="10" stroke-linecap="round" stroke-linejoin="round"/>
<path d="M185.319 125.747H186.156C189.561 125.775 192.436 128.339 192.185 131.376C192.129 132.184 191.85 132.992 191.347 133.716L151.938 144.248L155.678 134.19L159.138 134.385C160.367 134.468 161.595 134.301 162.739 133.911L175.522 129.592C175.801 129.509 176.052 129.397 176.304 129.258C179.123 127.753 183.142 125.719 185.319 125.747Z" fill="white" stroke="#1C1D22" stroke-miterlimit="10" stroke-linecap="round" stroke-linejoin="round"/>
<path d="M192.969 129.006H193.918C197.742 129.034 200.951 131.904 200.7 135.331C200.616 136.222 200.337 137.142 199.751 137.977L155.457 149.791L148.451 137.81L163.551 138.702C164.919 138.785 166.314 138.59 167.598 138.145L181.944 133.297C182.251 133.185 182.53 133.074 182.809 132.934C186.019 131.291 190.541 129.006 192.969 129.006Z" fill="white" stroke="#1C1D22" stroke-miterlimit="10" stroke-linecap="round" stroke-linejoin="round"/>
<path d="M126.512 171.859C126.317 172.194 126.038 172.5 125.703 172.751C122.577 175.063 113.869 173.169 104.965 168.042C95.7545 162.748 89.6421 155.839 90.591 152.049L91.9028 150.294C92.1261 150.155 92.3494 150.043 92.6285 149.932C93.9124 149.43 95.7545 149.347 97.9315 149.625C101.951 150.183 107.17 152.105 112.445 155.142C119.255 159.071 124.363 163.863 126.177 167.624C126.959 169.296 127.126 170.773 126.512 171.859Z" stroke="#138BE1" stroke-miterlimit="10" stroke-linecap="round" stroke-linejoin="round"/>
<path d="M126.481 171.863C128.539 168.305 122.231 160.824 112.393 155.154C102.555 149.483 92.9109 147.771 90.853 151.329C88.7952 154.887 95.1025 162.368 104.941 168.038C114.779 173.709 124.423 175.421 126.481 171.863Z" fill="white" stroke="#138BE1" stroke-miterlimit="10" stroke-linecap="round" stroke-linejoin="round"/>
<path d="M200.701 133.186H201.65C205.474 133.213 208.684 136.083 208.432 139.51C208.349 140.402 208.07 141.321 207.484 142.157L163.189 153.971L156.184 141.99L171.283 142.882C172.651 142.965 174.046 142.77 175.33 142.324L189.676 137.476C189.983 137.365 190.263 137.253 190.542 137.114C193.751 135.47 198.273 133.158 200.701 133.186Z" fill="white" stroke="#1C1D22" stroke-miterlimit="10" stroke-linecap="round" stroke-linejoin="round"/>
<path d="M99.5215 153.804L115.738 132.741C118.892 128.645 122.436 126.722 127.739 126.639C130.754 126.583 133.74 127.196 136.559 128.283L149.789 134.301L155.427 134.189C155.594 134.189 155.734 134.217 155.873 134.273C157.325 134.914 165.279 138.898 160.925 148.706C156.571 158.541 146.272 157.231 146.272 157.231" fill="white"/>
<path d="M99.5215 153.804L115.738 132.741C118.892 128.645 122.436 126.722 127.739 126.639C130.754 126.583 133.74 127.196 136.559 128.283L149.789 134.301L155.427 134.189C155.594 134.189 155.734 134.217 155.873 134.273C157.325 134.914 165.279 138.898 160.925 148.706C156.571 158.541 146.272 157.231 146.272 157.231" stroke="#1C1D22" stroke-miterlimit="10" stroke-linecap="round" stroke-linejoin="round"/>
<path d="M115.793 176.318L123.58 170.244C126.678 167.931 130.558 166.845 134.409 167.179L150.067 168.6C153.11 168.879 156.152 168.489 159.027 167.458L203.461 151.493C205.526 150.768 207.145 149.18 207.954 147.146C209.238 143.886 206.698 140.403 203.209 140.626C198.381 140.933 193.692 143.05 189.087 144.555L177.95 148.595C172.005 150.545 165.753 149.542 159.529 148.901L120.342 144.75" fill="white"/>
<path d="M115.793 176.318L123.58 170.244C126.678 167.931 130.558 166.845 134.409 167.179L150.067 168.6C153.11 168.879 156.152 168.489 159.027 167.458L203.461 151.493C205.526 150.768 207.145 149.18 207.954 147.146C209.238 143.886 206.698 140.403 203.209 140.626C198.381 140.933 193.692 143.05 189.087 144.555L177.95 148.595C172.005 150.545 165.753 149.542 159.529 148.901L120.342 144.75" stroke="#1C1D22" stroke-miterlimit="10" stroke-linecap="round" stroke-linejoin="round"/>
<path d="M124.163 147.954L137.56 151.046C139.151 151.409 140.77 151.52 142.389 151.353L155.339 150.043C157.74 150.071 160.112 149.375 162.094 148.009C165.945 145.418 164.885 139.511 160.391 138.369L158.912 138.007C156.484 137.394 153.999 137.032 151.488 136.892L141.412 137.338L128.182 131.32C125.363 130.233 122.377 129.62 119.362 129.676C114.087 129.76 110.515 131.71 107.361 135.778L91.1445 156.842L101.639 175.259L116.739 175.398" fill="white"/>
<path d="M124.163 147.954L137.56 151.046C139.151 151.409 140.77 151.52 142.389 151.353L155.339 150.043C157.74 150.071 160.112 149.375 162.094 148.009C165.945 145.418 164.885 139.511 160.391 138.369L158.912 138.007C156.484 137.394 153.999 137.032 151.488 136.892L141.412 137.338L128.182 131.32C125.363 130.233 122.377 129.62 119.362 129.676C114.087 129.76 110.515 131.71 107.361 135.778L91.1445 156.842L101.639 175.259L116.739 175.398" stroke="#1C1D22" stroke-miterlimit="10" stroke-linecap="round" stroke-linejoin="round"/>
<path d="M125.952 172.779L113.309 195.682L95.0831 228.67C86.4866 244.607 74.5966 242.462 61.9252 235.58C50.733 229.478 43.839 218.946 51.5424 206.743L76.7737 170.494L90.5616 152.049C89.6126 155.839 95.7251 162.721 104.936 168.042C113.811 173.169 122.547 175.064 125.673 172.751C125.785 172.751 125.869 172.751 125.952 172.779Z" fill="white" stroke="#138BE1" stroke-miterlimit="10" stroke-linecap="round" stroke-linejoin="round"/>
<path d="M114.342 193.759C110.574 196.211 104.74 195.487 98.7676 193.09C98.7676 193.09 95.5299 192.004 95.8369 190.109" stroke="#138BE1" stroke-miterlimit="10" stroke-linecap="round" stroke-linejoin="round"/>
<path d="M91.7065 176.734C93.7104 176.734 95.3349 175.113 95.3349 173.112C95.3349 171.112 93.7104 169.49 91.7065 169.49C89.7026 169.49 88.0781 171.112 88.0781 173.112C88.0781 175.113 89.7026 176.734 91.7065 176.734Z" stroke="#1C1D22" stroke-miterlimit="10" stroke-linecap="round" stroke-linejoin="round"/>
<path d="M154.227 145.502C154.227 145.502 152.804 139.289 161.261 139.066" stroke="#1C1D22" stroke-miterlimit="10" stroke-linecap="round" stroke-linejoin="round"/>
<path d="M112.498 171.691L105.716 184.201C102.869 189.467 96.31 191.501 90.9512 188.798L90.2534 188.436C89.6114 188.101 88.9695 187.739 88.3555 187.321C80.8754 182.306 75.8235 176.316 75.9073 171.523" stroke="#138BE1" stroke-miterlimit="10" stroke-linecap="round" stroke-linejoin="round"/>
<path d="M171.529 122.932L165.891 121.205C165.891 121.205 169.91 118.335 171.529 116.189V122.932Z" fill="#F6F5F5" stroke="#1C1D22" stroke-miterlimit="10" stroke-linecap="round" stroke-linejoin="round"/>
<path d="M142.168 124.131V111.092C142.168 111.092 149.564 108.946 154.114 103.597C158.663 98.2473 160.059 94.2909 161.371 85.9323L172.619 88.8856C172.619 88.8856 171.167 99.6404 166.534 105.742C161.845 111.955 156.989 113.293 154.505 114.24V127.085L142.168 124.131Z" fill="white" stroke="#1C1D22" stroke-miterlimit="10" stroke-linecap="round" stroke-linejoin="round"/>
<path d="M161.289 86.0152L172.844 83.1454L184.008 86.4331L172.593 89.0522L161.289 86.0152Z" fill="white" stroke="#1C1D22" stroke-miterlimit="10" stroke-linecap="round" stroke-linejoin="round"/>
<path d="M178.618 81.5858L190.173 84.6507C190.173 84.6507 190.396 98.4981 177.613 107.72C177.613 107.72 180.683 102.65 181.995 97.8852C181.995 97.8852 183.698 93.2601 184.089 86.3781L178.311 84.7064L178.618 81.5858Z" fill="#F6F5F5" stroke="#1C1D22" stroke-miterlimit="10" stroke-linecap="round" stroke-linejoin="round"/>
<path d="M178.617 81.5853L189.167 78.9105L200.722 81.9196L190.088 84.5944L178.617 81.5853Z" fill="white" stroke="#1C1D22" stroke-miterlimit="10" stroke-linecap="round" stroke-linejoin="round"/>
<path d="M188.891 118.252L183.029 117.249C183.029 117.249 185.792 115.521 188.891 111.704V118.252Z" fill="#F6F5F5" stroke="#1C1D22" stroke-miterlimit="10" stroke-linecap="round" stroke-linejoin="round"/>
<path d="M200.361 114.017L200.751 82.8397C200.751 82.8954 199.049 94.5975 196.118 100.699C193.802 105.519 189.95 110.535 188.861 111.788V118.28L200.361 114.017Z" fill="white" stroke="#1C1D22" stroke-miterlimit="10" stroke-linecap="round" stroke-linejoin="round"/>
<path d="M142.168 124.131V111.147L154.505 114.351V127.196L142.168 124.131Z" fill="#F6F5F5" stroke="#1C1D22" stroke-miterlimit="10" stroke-linecap="round" stroke-linejoin="round"/>
<path d="M154.5 114.212L154.556 127.251C154.556 127.251 165.134 123.629 171.693 116.274V122.961C171.693 122.961 178.085 120.955 183.555 116.998C189.333 112.847 195.194 103.764 196.896 99.2221C198.683 94.8199 200.832 85.2353 200.832 81.9755L190.198 84.6502C190.198 84.6502 190.421 91.5322 185.565 99.3057C182.411 104.46 177.554 107.72 177.554 107.72C177.554 107.72 183.555 98.3027 184.03 86.3777L172.614 88.9967C172.614 88.9967 170.856 100.002 166.781 105.268C163.99 109.113 161.059 112.011 154.5 114.212Z" fill="white" stroke="#138BE1" stroke-miterlimit="10" stroke-linecap="round" stroke-linejoin="round"/>
</svg>
