<svg width="191" height="137" viewBox="0 0 191 137" fill="none" xmlns="http://www.w3.org/2000/svg">
<path d="M73.8678 115.149L73.1525 115.315C73.2075 117.197 74.3079 118.914 76.0135 119.744L88.0078 126.001C88.0078 126.001 85.9171 123.62 86.3022 121.295C86.6873 118.969 87.0175 109.889 85.0367 110.664C83.056 111.439 78.9846 114.097 78.1043 114.263C77.1689 114.429 73.8678 115.149 73.8678 115.149Z" fill="#DAF2FF"/>
<path d="M67.7509 114.92L53.0056 106.394C49.8145 104.29 47.9988 100.192 47.9988 94.8218V61.6562C47.9988 50.4164 55.8666 36.6851 65.5501 31.0376L110.171 5.45743C114.463 2.96586 118.589 2.35681 121.945 3.68565L122 3.63028L122.881 4.07323C123.046 4.18396 123.156 4.23933 123.266 4.2947L136.525 11.2157C136.525 11.2157 130.748 9.27784 125.411 11.2157C120.075 13.1536 75.1785 40.5609 72.5926 43.6615C70.0067 46.7621 61.8087 59.6076 61.8087 65.089C61.8087 70.5705 61.9188 104.788 62.0288 106.006C62.524 110.879 67.7509 114.92 67.7509 114.92Z" fill="#DAF2FF"/>
<path d="M73.8678 115.149L73.1525 115.316C73.2075 117.198 74.3079 118.914 76.0135 119.745L88.0078 126.002" stroke="#002321" stroke-miterlimit="22.9256" stroke-linecap="round" stroke-linejoin="round"/>
<path d="M48.5546 94.1094C48.5546 99.4801 50.3152 103.577 53.5614 105.681L68.3066 114.208" stroke="#002321" stroke-miterlimit="22.9256" stroke-linecap="round" stroke-linejoin="round"/>
<path d="M137.014 10.6142L123.754 3.69314C123.644 3.63777 123.534 3.5824 123.369 3.47167L122.488 3.02872L122.433 3.08409C119.077 1.75525 114.951 2.3643 110.659 4.85587L66.0384 30.436C56.3549 36.0836 48.4871 49.8149 48.4871 61.0546V82.2053" stroke="#002321" stroke-miterlimit="22.9256" stroke-linecap="round" stroke-linejoin="round"/>
<path d="M110.284 20.0818L79.858 37.5228C70.1746 43.1703 62.3068 56.9017 62.3068 68.1414V102.082C62.3068 107.73 64.2324 111.938 67.7537 113.986C71.275 116.035 75.8416 115.592 80.6833 112.768L83.5443 111.107C84.3696 110.664 85.0849 110.553 85.5801 110.83C86.0752 111.107 86.3503 111.827 86.3503 112.768V123.177C86.3503 124.672 87.0106 125.78 88.111 126.112C88.331 126.167 88.6061 126.223 88.8262 126.223C90.2017 126.223 91.7422 125.226 92.8426 123.51L107.313 101.418C110.119 97.1544 113.585 93.6662 117.216 91.5622L125.304 87.2435C134.988 81.5959 142.855 67.8646 142.855 56.6248V22.6841C142.855 17.0365 140.93 12.8285 137.409 10.7799C133.887 8.73129 129.321 9.17423 124.479 11.998L120.132 14.4896" fill="#F7FCFD"/>
<path d="M110.284 20.0818L79.858 37.5228C70.1746 43.1703 62.3068 56.9017 62.3068 68.1414V102.082C62.3068 107.73 64.2324 111.938 67.7537 113.986C71.275 116.035 75.8416 115.592 80.6833 112.768L83.5443 111.107C84.3696 110.664 85.0849 110.553 85.5801 110.83C86.0752 111.107 86.3503 111.827 86.3503 112.768V123.177C86.3503 124.672 87.0106 125.78 88.111 126.112C88.331 126.167 88.6061 126.223 88.8262 126.223C90.2017 126.223 91.7422 125.226 92.8426 123.51L107.313 101.418C110.119 97.1544 113.585 93.6662 117.216 91.5622L125.304 87.2435C134.988 81.5959 142.855 67.8646 142.855 56.6248V22.6841C142.855 17.0365 140.93 12.8285 137.409 10.7799C133.887 8.73129 129.321 9.17423 124.479 11.998L120.132 14.4896" stroke="#002321" stroke-miterlimit="22.9256" stroke-linecap="round" stroke-linejoin="round"/>
<path d="M117.491 61.9956C118.482 61.9956 119.527 61.6634 120.682 61.0543C124.369 58.9504 127.34 53.7457 127.34 49.4824C127.34 47.2677 126.57 45.6066 125.139 44.7761C123.709 43.9456 121.893 44.1117 119.967 45.219C116.281 47.323 113.31 52.5276 113.31 56.791C113.31 59.0057 114.08 60.6668 115.511 61.4973C116.061 61.8295 116.721 61.9956 117.491 61.9956Z" stroke="#138BE1" stroke-miterlimit="22.9256" stroke-linecap="round" stroke-linejoin="round"/>
<path d="M99.6105 72.5708C100.601 72.5708 101.646 72.2386 102.802 71.6295C106.488 69.5255 109.459 64.3209 109.459 60.0576C109.459 57.8428 108.689 56.1818 107.258 55.3513C105.828 54.5208 104.012 54.6869 102.086 55.7942C98.4 57.8982 95.429 63.1028 95.429 67.3662C95.429 69.5809 96.1993 71.242 97.6298 72.0725C98.18 72.4047 98.8952 72.5708 99.6105 72.5708Z" stroke="#138BE1" stroke-miterlimit="22.9256" stroke-linecap="round" stroke-linejoin="round"/>
<path d="M81.7316 82.981C82.7219 82.981 83.7673 82.6487 84.9227 82.0397C88.609 79.9357 91.5801 74.7311 91.5801 70.4677C91.5801 68.253 90.8098 66.592 89.3793 65.7614C87.9488 64.9309 86.1331 65.097 84.2074 66.2044C80.5211 68.3084 77.5501 73.513 77.5501 77.7763C77.5501 79.9911 78.3204 81.6521 79.7509 82.4826C80.3011 82.8148 81.0163 82.981 81.7316 82.981Z" stroke="#138BE1" stroke-miterlimit="22.9256" stroke-linecap="round" stroke-linejoin="round"/>
</svg>
