<svg width="316" height="282" viewBox="0 0 316 282" fill="none" xmlns="http://www.w3.org/2000/svg">
<g clip-path="url(#clip0_3437_37447)">
<path d="M95.8395 146.79L90.668 134.194L91.1559 56.9553L95.8883 53.5311L205.514 115.851L212.539 129.816L212.368 203.044C212.368 203.044 214.661 211.311 210.075 211.238C205.489 211.164 95.8395 146.815 95.8395 146.815V146.79Z" fill="white"/>
<path d="M203.978 114.725L99.5488 53.6289C96.8167 52.0146 94.353 51.8434 92.5966 52.9196L101.305 47.8323C103.062 46.7561 105.525 46.9518 108.257 48.5416L212.614 109.712C218.078 112.842 222.371 120.498 222.371 126.832L222.2 200.769C222.2 203.9 220.883 205.686 219.127 206.737L210.687 211.727C212.443 210.651 213.589 208.963 213.589 205.832L213.76 131.895" fill="#F6F5F5"/>
<path d="M178.216 248.145L140.65 270.255C135.283 273.386 126.477 273.459 121.11 270.255L16.681 209.159C13.9489 207.545 12.6317 205.417 12.6317 203.362V193.188C12.6317 195.34 13.9489 197.37 16.681 198.984L121.11 260.081C126.575 263.285 135.283 263.285 140.65 260.081L203.732 222.978C206.464 221.363 207.781 219.309 207.781 217.279V227.454C207.781 229.508 206.366 231.563 203.732 233.152L192.828 239.585L178.216 248.145Z" fill="#F6F5F5"/>
<path d="M207.515 217.205C207.515 217.474 207.417 217.743 207.417 218.012V218.11C207.417 218.11 207.319 218.281 207.319 218.379C207.319 218.55 207.222 218.648 207.222 218.819C207.124 218.917 207.124 219.088 207.051 219.186C206.954 219.284 206.954 219.455 206.88 219.553C206.88 219.651 206.71 219.822 206.71 219.92C206.71 220.018 206.612 220.189 206.539 220.287C206.441 220.458 206.368 220.556 206.271 220.654C206.1 220.923 205.929 221.094 205.661 221.363C205.661 221.363 205.604 221.42 205.49 221.534C205.49 221.534 205.222 221.705 205.148 221.803C204.978 221.974 204.807 222.072 204.612 222.243C204.514 222.341 204.441 222.341 204.343 222.415C204.246 222.513 204.173 222.513 204.075 222.586C203.904 222.684 203.734 222.757 203.538 222.855L140.456 259.958C140.188 260.129 139.92 260.227 139.676 260.398C139.407 260.496 139.139 260.667 138.895 260.765C138.627 260.936 138.285 261.034 138.017 261.132C137.749 261.23 137.407 261.303 137.139 261.401C136.7 261.572 136.358 261.67 135.919 261.768C135.748 261.866 135.48 261.939 135.309 261.939C134.968 261.939 134.529 262.037 134.09 262.11C133.821 262.11 133.553 262.208 133.309 262.208C132.772 262.208 132.162 262.306 131.626 262.306H128.455C128.186 262.306 127.845 262.208 127.576 262.208C127.137 262.208 126.698 262.11 126.259 262.037C125.918 261.939 125.552 261.866 125.21 261.768H125.113C124.942 261.67 124.771 261.67 124.576 261.597C124.405 261.499 124.235 261.499 124.039 261.426C123.771 261.254 123.43 261.156 123.161 261.059C123.064 260.961 122.893 260.961 122.82 260.887C122.551 260.79 122.283 260.618 122.039 260.521C121.698 260.349 121.332 260.154 120.99 259.982L16.5607 198.886C16.2192 198.715 15.8533 198.446 15.585 198.25C15.3167 198.079 15.0483 197.81 14.8044 197.614C14.7068 197.516 14.6337 197.345 14.4629 197.247C14.2921 197.149 14.1946 196.978 14.1214 196.88C13.9506 196.709 13.7799 196.44 13.5847 196.171C13.4871 196.073 13.414 195.902 13.3164 195.804C13.2188 195.706 13.2188 195.535 13.1456 195.437C13.0481 195.339 13.048 195.168 12.9749 195.07V194.973C12.9749 194.973 12.8773 194.801 12.8773 194.704C12.8773 194.606 12.7798 194.532 12.7798 194.434C12.7798 194.337 12.6822 194.165 12.6822 194.068C12.5846 193.896 12.5846 193.701 12.5846 193.53V193.163C12.5846 191.108 13.9994 189.054 16.6339 187.464L23.0495 183.722L37.8321 174.99L79.716 150.361C85.0827 147.23 93.7912 147.23 99.2554 150.361L203.685 211.457C206.417 213.072 207.734 215.2 207.563 217.156L207.515 217.205Z" fill="white"/>
<path d="M70.69 215.86L61.1033 210.235C60.5667 209.868 60.5667 209.159 61.1033 208.816L73.9588 201.234C74.3003 200.965 74.837 200.965 75.1785 201.234L116.257 225.325C116.867 225.692 116.867 226.475 116.257 226.842L103.5 234.326C103.158 234.595 102.621 234.595 102.28 234.326L80.6427 221.657" stroke="#138BE1" stroke-miterlimit="10" stroke-linecap="round"/>
<path d="M22.0465 182.964L16.07 186.535C13.1671 188.222 11.484 190.644 11.484 193.236V203.411C11.484 206.004 13.1671 208.401 16.1432 210.186L120.573 271.283C126.281 274.584 135.526 274.682 141.258 271.283L178.825 249.172M205.487 211.164C209.195 213.39 209.805 216.154 207.682 218.575C207.585 218.673 207.512 218.746 207.414 218.844C206.877 219.382 206.17 219.92 205.389 220.361C202.657 221.975 143.112 257.195 140.014 259.078C134.989 262.013 126.72 262.013 121.622 259.078L15.265 196.636C14.1185 196 13.3379 195.291 12.7037 194.484C12.6061 194.386 12.6061 194.313 12.5329 194.215C11.484 192.601 11.484 190.815 12.7037 189.299M205.463 211.14C209.512 212.925 212.317 210.7 212.317 205.881C212.317 186.804 212.415 174.135 212.415 163.324C212.415 152.514 212.512 143.709 212.512 132.018C212.512 124.264 207.853 118.199 203.365 115.875L98.9354 54.7785C96.8131 53.4333 94.886 53.2621 93.4712 53.898M205.487 211.14C205.146 210.969 204.706 210.773 204.243 210.504L99.8136 149.407C99.472 149.236 99.033 148.967 98.667 148.698M98.667 148.698C90.3 145.298 83.1039 147.01 79.0545 149.407L37.2681 174.037M98.667 148.698C94.081 145.396 90.5683 138.792 90.6659 133.363L90.7635 112.671M90.7635 83.3212L90.8611 59.4256C90.8611 56.564 91.8368 54.6073 93.4956 53.898L101.863 48.9085C103.351 48.0281 105.375 48.2726 107.668 49.6178L212.073 110.714C217.172 113.649 221.319 120.889 221.221 126.857L221.05 200.794C221.05 203.387 220.27 205.245 218.757 206.15L210.049 211.238M193.339 240.588L204.243 234.155C207.243 232.467 208.829 230.046 208.829 227.453V217.279M108.205 181.399C107.668 181.056 95.1056 173.743 95.8862 174.183L83.6649 181.399C84.2016 181.741 96.7643 189.054 95.9837 188.614M108.205 181.399L95.9837 188.614M108.205 181.399L120.524 188.614L132.745 181.399L120.426 174.183C119.28 174.893 107.498 181.839 108.205 181.399ZM95.9837 188.614L83.7625 195.829L71.5413 188.614L83.7625 181.399L95.9837 188.614ZM132.916 224.665L145.137 217.45M132.916 224.665L144.698 231.538C145.064 231.709 145.503 231.709 145.844 231.538L157.456 224.665L145.137 217.45M132.916 224.665L83.7381 195.853L95.9593 188.638L145.137 217.45M205.682 131.846C205.682 128.716 203.048 124.093 200.413 122.577L103.107 65.6624C100.741 64.2438 97.7401 66.0293 97.7401 68.7931L97.5693 133.289C97.5693 136.42 100.204 141.043 102.838 142.559L200.145 199.473C202.511 200.892 205.511 199.106 205.511 196.343L205.682 131.846ZM145.064 217.45L157.285 210.235C156.578 209.795 168.994 217.108 169.604 217.45L157.383 224.665C158.163 225.105 145.674 217.719 145.064 217.45ZM108.205 181.325C108.912 181.766 97.301 174.893 95.8862 174.11L108.107 166.895L120.426 174.11C121.134 173.743 109.351 180.714 108.205 181.325ZM71.4193 174.183L83.6405 166.968L95.9593 174.183L83.7381 181.399C84.5187 181.839 71.956 174.526 71.4193 174.183ZM145.064 202.995L157.383 210.21C158.163 209.77 145.942 216.985 145.161 217.426L132.843 210.21C132.233 210.577 143.576 203.876 145.064 202.995ZM108.205 195.853L95.8862 188.638C95.1056 189.079 107.327 181.863 108.107 181.423L120.426 188.638C121.134 188.198 109.351 195.144 108.205 195.853ZM145.064 188.516C145.844 188.076 133.623 195.291 132.843 195.731L120.524 188.516L132.745 181.301L145.064 188.516ZM145.064 202.971C145.771 202.531 134.233 209.305 132.843 210.186L120.524 202.971C119.816 203.411 131.599 196.465 132.745 195.756C131.964 195.315 144.527 202.702 145.064 202.971ZM60.247 182.01C59.8079 181.741 59.8079 181.13 60.247 180.861L71.5169 174.257C70.7363 173.817 82.5916 180.763 83.8357 181.472L71.6144 188.687L60.2714 181.986L60.247 182.01ZM108.205 166.944L95.9837 174.159L83.6649 166.944L95.3739 160.071C95.7154 159.9 96.1545 159.9 96.5204 160.071L108.229 166.944H108.205ZM157.358 195.756L145.137 202.971C145.918 203.411 133.355 196.098 132.818 195.756L145.039 188.54L157.358 195.756ZM169.701 202.995L157.48 210.21L145.161 202.995C144.454 203.435 156.236 196.489 157.383 195.78L169.701 202.995ZM180.849 210.846L169.677 217.45L157.358 210.235L169.58 203.02L180.849 209.623C181.386 209.892 181.386 210.504 180.849 210.871V210.846Z" stroke="#041C2D" stroke-miterlimit="10" stroke-linecap="round"/>
<path d="M182.928 161.367L176.757 150.826M154.875 142.559L164.291 141.947M143.264 135.123L126.579 105.945M186.587 161.367C182.611 160.12 179.635 162.712 179.855 167.115C180.074 171.517 183.343 176.262 187.319 177.803C191.442 179.393 194.71 176.923 194.515 172.251C194.32 167.579 190.71 162.688 186.587 161.392V161.367ZM155.51 145.64C155.705 150.312 152.436 152.782 148.313 151.192C144.337 149.676 141.044 144.907 140.849 140.504C140.654 136.102 143.605 133.509 147.582 134.757C151.704 136.053 155.314 140.945 155.51 145.616V145.64ZM129.53 100.246C129.725 104.918 126.457 107.388 122.334 105.798C118.358 104.282 115.065 99.5123 114.87 95.1098C114.675 90.7074 117.626 88.1148 121.602 89.3622C125.725 90.6584 129.335 95.5501 129.53 100.222V100.246ZM178.806 145.64C179.001 150.312 175.732 152.782 171.609 151.192C167.633 149.676 164.34 144.907 164.145 140.504C163.95 136.102 166.901 133.509 170.878 134.757C175 136.053 178.61 140.945 178.806 145.616V145.64Z" stroke="#138BE1" stroke-miterlimit="10" stroke-linecap="round"/>
<path d="M245.524 220.678C246.012 226.524 250.696 233.274 256.014 235.794C261.332 238.288 265.259 235.598 264.771 229.752C264.283 223.907 259.6 217.156 254.282 214.637C248.964 212.118 245.037 214.833 245.524 220.678ZM202.933 249.099C203.226 248.561 203.592 248.096 204.031 247.729L204.445 247.436C205.958 246.433 208.105 246.433 210.544 247.607C215.569 249.979 220.033 256.363 220.472 261.915C220.692 264.605 219.935 266.587 218.496 267.663C217.399 268.47 215.886 268.739 214.13 268.323C213.52 268.201 212.861 267.956 212.178 267.638C207.153 265.266 202.689 258.858 202.25 253.33C202.104 251.618 202.372 250.2 202.933 249.099ZM254.55 209.746C255.721 208.914 257.331 208.67 259.161 209.134C261.844 209.795 265.357 212.094 268.089 216.031C271.211 220.189 273.577 228.187 269.43 231.098L262.624 235.867C263.625 235.158 264.332 234.008 264.649 232.516C264.722 232.198 264.771 231.856 264.795 231.489C265.625 222.488 254.331 210.7 248.013 214.319L254.55 209.746ZM193.932 264.85C195.883 263.358 200.933 269.962 198.981 271.454L194.176 272.09C193.444 272.163 192.737 271.845 192.273 271.282C191.761 270.647 191.639 269.791 191.956 269.057L193.956 264.85H193.932Z" fill="#F6F5F5"/>
<path d="M248.01 244.794L258.866 236.356C267.794 228.26 252.499 211.653 243.668 219.504L204.468 247.436L204.053 247.729C203.614 248.096 203.248 248.536 202.955 249.099C203.126 249.294 206.639 248.438 212.469 254.406C218.299 260.374 215.738 267.834 215.738 267.834C217.494 268.249 217.445 268.47 218.543 267.662L238.399 252.254M193.93 264.874L201.76 251.716C202.199 250.982 202.809 250.371 203.614 250.101C210.542 247.656 220.202 261.254 216.201 267.296C215.616 268.176 214.664 268.739 213.64 268.91L199.003 271.478L193.954 264.874H193.93Z" fill="white"/>
<path d="M238.378 252.255L218.522 267.664C217.765 268.226 216.814 268.52 215.716 268.52M198.958 271.479L213.618 268.887C214.643 268.715 215.594 268.153 216.18 267.272C220.156 261.231 210.496 247.657 203.593 250.078C202.788 250.372 202.178 250.983 201.739 251.717L193.908 264.851M198.958 271.479C200.934 269.963 195.86 263.359 193.908 264.851M198.958 271.479L194.152 272.091C193.421 272.164 192.713 271.87 192.25 271.283C191.932 270.892 191.762 270.403 191.762 269.914C191.762 269.62 191.811 269.327 191.932 269.058L193.908 264.851M202.934 249.1C203.227 248.562 203.593 248.097 204.032 247.73L204.446 247.437L243.647 219.505C252.502 211.654 267.797 228.261 258.844 236.357L247.989 244.795M202.324 250.959C202.422 250.274 202.641 249.662 202.91 249.124C203.202 248.586 203.568 248.122 204.032 247.755L204.422 247.461C205.934 246.483 208.081 246.458 210.52 247.632C215.57 250.005 220.01 256.388 220.473 261.94C220.693 264.631 219.912 266.612 218.497 267.688C217.717 268.251 216.765 268.544 215.692 268.544C215.424 268.544 215.131 268.52 214.838 268.471M245.574 218.209C245.891 216.399 246.745 215.078 247.989 214.369C248.233 214.222 248.477 214.125 248.721 214.027C248.843 213.978 248.965 213.953 249.087 213.904C249.209 213.88 249.306 213.856 249.428 213.831C249.599 213.782 249.77 213.758 249.965 213.758C250.697 213.684 251.477 213.733 252.307 213.953C252.307 213.953 252.323 213.953 252.356 213.953C252.648 214.051 252.966 214.149 253.258 214.247C253.6 214.369 253.917 214.491 254.258 214.663C254.527 214.785 254.795 214.932 255.063 215.078C255.161 215.127 255.259 215.201 255.38 215.274C255.795 215.494 256.185 215.763 256.6 216.081C257.21 216.497 257.795 216.962 258.357 217.524C259.308 218.38 260.21 219.408 260.991 220.508C261.333 220.948 261.625 221.389 261.918 221.853C262.406 222.636 262.869 223.443 263.235 224.275C263.894 225.718 264.382 227.21 264.626 228.653C264.674 229.02 264.723 229.387 264.748 229.753C264.772 230.022 264.796 230.316 264.796 230.561V230.707C264.796 231.001 264.796 231.27 264.748 231.539C264.723 231.906 264.674 232.248 264.601 232.542C264.601 232.591 264.577 232.639 264.577 232.664C264.504 232.982 264.431 233.3 264.309 233.569V233.618C264.211 233.862 264.113 234.082 263.991 234.278C263.772 234.694 263.528 235.036 263.211 235.354C263.04 235.526 262.869 235.672 262.674 235.819H262.65L262.577 235.892C261.528 236.651 260.113 236.92 258.503 236.626M254.527 209.771C255.698 208.939 257.308 208.695 259.137 209.16C261.82 209.82 265.333 212.119 268.065 216.057C271.188 220.215 273.554 228.213 269.407 231.123L262.601 235.892C263.601 235.183 264.309 234.034 264.626 232.542C264.699 232.224 264.748 231.881 264.772 231.514C265.601 222.514 254.307 210.725 247.989 214.345L254.527 209.771Z" stroke="#041C2D" stroke-linecap="round" stroke-linejoin="round"/>
<path d="M36.0762 83.0062C34.1815 86.167 30.153 87.265 26.9069 85.472C23.6747 83.7182 22.4569 79.7471 24.087 76.4598M46.7797 70.2535C47.5041 72.0661 47.4244 73.6964 46.6691 74.9581C46.6566 74.9977 46.6178 75.0378 46.5924 75.0908C46.5536 75.1309 46.5281 75.1839 46.4894 75.2241C45.8467 76.129 44.8068 76.831 43.4202 77.1978C42.9625 77.3243 42.4776 77.3989 41.9661 77.4476C41.7039 77.4786 41.4413 77.4834 41.1657 77.5016C39.6687 77.5289 38.0756 77.282 36.492 76.8117L36.4787 76.7988C32.2291 75.5101 28.0725 72.6041 26.0092 69.1607C25.8475 68.9009 25.7121 68.6407 25.5901 68.3933C25.4138 68.0419 25.2639 67.69 25.1531 67.3242C25.0577 67.1026 24.9881 66.8543 24.9453 66.6318L24.9319 66.6189C24.8753 66.3572 24.832 66.1084 24.8021 65.8725C24.7879 65.8071 24.8001 65.7412 24.7859 65.6758C24.7697 65.479 24.7664 65.2689 24.7769 65.098C24.7865 64.8745 24.8095 64.6639 24.8459 64.4662C24.8321 64.427 24.8446 64.3874 24.8567 64.3215C24.8931 64.1238 24.9553 63.8994 25.0312 63.7141C25.0812 63.5556 25.1447 63.4099 25.2214 63.2771C25.2335 63.2112 25.2589 63.1582 25.3107 63.1048C25.9613 61.8713 27.2872 60.9802 29.1203 60.6052" fill="#F6F5F5"/>
<path d="M25.3084 63.1059L22.1911 68.7322C21.3357 70.311 21.5005 72.4622 22.903 74.8011C25.7217 79.518 32.5052 83.2563 38.0462 83.1291C40.8301 83.0783 42.7579 82.0449 43.6393 80.4394L46.7566 74.8131C45.8753 76.4186 43.947 77.4257 41.1635 77.5027C35.6225 77.63 28.8391 73.8917 26.0203 69.1748C24.6179 66.8359 24.453 64.6846 25.3084 63.1059ZM30.5616 22.5785C37.9181 12.5139 51.5583 8.67931 63.0603 13.4613C64.0519 13.8767 65.0048 14.3322 65.9321 14.8408C79.1943 22.1522 83.9988 38.8258 76.6793 52.108C75.785 53.7268 74.7445 55.2301 73.5965 56.5777C69.0957 61.9271 62.8159 65.2204 56.1307 66.1041C51.8968 66.6672 48.0673 68.7336 45.1329 71.7689C43.2681 75.1656 38.2292 74.6401 34.1621 72.4154C30.0416 70.1392 26.867 66.1907 28.7444 62.7543C29.704 58.5859 29.3593 54.1655 27.5633 50.1787C25.1012 44.746 24.4531 38.5577 25.871 32.6077C26.0713 31.9735 26.2715 31.3394 26.4981 30.7047" fill="white"/>
<path d="M36.0765 83.0086C34.1817 86.1694 30.1532 87.2674 26.9072 85.4744C23.6749 83.7206 22.4571 79.7495 24.0872 76.4622M25.3109 63.1072L22.1936 68.7335C21.3381 70.3122 21.503 72.4635 22.9055 74.8023C25.7242 79.5192 32.5076 83.2575 38.0486 83.1303C40.8325 83.0796 42.7604 82.0461 43.6417 80.4407L46.759 74.8143C45.8777 76.4198 43.9494 77.427 41.1659 77.504M25.3109 63.1072C24.4554 64.6859 24.6203 66.8371 26.0228 69.176C28.8415 73.8929 35.6249 77.6312 41.1659 77.504M25.3109 63.1072C25.2592 63.1606 25.2337 63.2136 25.2216 63.2795C25.1449 63.4123 25.0815 63.558 25.0314 63.7165C24.9555 63.9018 24.8933 64.1262 24.857 64.3239C24.8449 64.3898 24.8323 64.4295 24.8461 64.4686C24.8098 64.6663 24.7868 64.8769 24.7771 65.1004C24.7666 65.2713 24.7699 65.4814 24.7861 65.6782C24.8003 65.7436 24.7882 65.8095 24.8023 65.8749C24.8323 66.1108 24.8755 66.3596 24.9322 66.6213L24.9455 66.6342C24.9884 66.8567 25.0579 67.105 25.1533 67.3266C25.2641 67.6924 25.4141 68.0443 25.5903 68.3957C25.7124 68.6431 25.8478 68.9034 26.0094 69.1631C28.0728 72.6065 32.2293 75.5126 36.4789 76.8012L36.4922 76.8141C38.0758 77.2844 39.669 77.5313 41.1659 77.504M25.3109 63.1072C25.9615 61.8737 27.2874 60.9826 29.1205 60.6076M41.1659 77.504C41.4415 77.4858 41.7041 77.481 41.9663 77.45C42.4779 77.4013 42.9627 77.3267 43.4204 77.2002C44.8071 76.8334 45.8469 76.1314 46.4896 75.2265C46.5284 75.1863 46.5538 75.1333 46.5926 75.0932C46.618 75.0402 46.6568 75.0001 46.6693 74.9605C47.4246 73.6988 47.5043 72.0685 46.7799 70.2559M26.513 30.6664C26.2998 31.3139 26.0862 31.9352 25.8859 32.5693C24.4681 38.5194 25.1162 44.7076 27.5783 50.1403C29.3742 54.1271 29.7189 58.5476 28.7593 62.7159C26.8687 66.1394 30.0436 70.1142 34.177 72.377C38.2571 74.5883 43.2831 75.1272 45.1479 71.7305C48.0693 68.7086 51.8989 66.6422 56.1457 66.0657C62.8175 65.1691 69.0973 61.8759 73.6114 56.5393C74.7595 55.1917 75.8 53.6884 76.6942 52.0696C84.0137 38.7874 79.2092 22.1138 65.9471 14.8024C65.033 14.3067 64.0669 13.8383 63.0753 13.4229C51.5603 8.65431 37.933 12.4755 30.5766 22.5401M40.4193 69.2027C40.5214 69.0169 49.7354 50.8663 55.9858 48.2172C56.1684 48.1351 56.2573 47.9364 56.2282 47.753C56.1857 47.5568 56.0261 47.4283 55.8289 47.4188C53.3194 47.3726 51.3236 46.5814 49.8551 45.0581C47.7055 42.8248 46.6861 38.9421 46.8124 33.5541C46.822 33.3307 46.6482 33.1368 46.4248 33.1277C46.2014 33.1187 46.0067 33.2667 45.9841 33.5035C45.9603 33.6616 44.028 49.591 35.2265 63.0184" stroke="#041C2D" stroke-linecap="round" stroke-linejoin="round"/>
<path d="M212.615 78.0083L219.192 74.1864C219.011 74.0651 218.709 73.9438 218.408 73.7618C212.132 70.1219 183.713 52.7719 170.077 26.8682L163.5 30.69C177.136 56.5937 205.556 73.9438 211.831 77.5836C212.132 77.7656 212.434 77.9476 212.615 78.0083Z" fill="#1C1D22" fill-opacity="0.04"/>
<path d="M163.51 30.6904C163.449 31.2971 162.605 43.248 166.466 51.2557C165.863 55.9268 166.225 60.9013 168.156 66.4218C168.699 72.9736 169.905 80.7386 173.043 86.1984C173.103 86.9264 175.396 98.9986 185.111 104.64C191.989 108.644 204.238 114.286 212.564 115.196L212.685 78.13C212.504 78.0087 212.202 77.8874 211.901 77.7054C205.565 73.9442 177.146 56.5942 163.51 30.6904Z" fill="white"/>
<path d="M211.589 60.8442C222.209 58.4176 229.691 60.1768 233.914 62.6641C253.947 74.3117 271.203 102.399 271.143 125.573C271.143 137.039 267.523 143.712 261.006 147.534L245.198 156.937C251.714 153.115 255.334 146.32 255.395 134.855C255.455 111.742 239.285 83.5327 219.252 71.8851C209.176 66.0613 202.659 64.7873 196.083 68.6092C196.022 68.6092 200.97 63.3314 211.589 60.8442Z" fill="#1C1D22" fill-opacity="0.04"/>
<path d="M246.934 155.677C260.792 147.579 260.746 121.5 246.831 97.4281C232.916 73.356 210.401 60.4065 196.542 68.5045C182.684 76.6025 182.73 102.682 196.645 126.754C210.56 150.826 233.075 163.775 246.934 155.677Z" fill="white"/>
<path d="M312.288 128.258C312.831 133.657 312.469 138.146 310.538 141.422L303.418 144.455C305.349 141.179 305.288 137.479 304.745 132.08L312.288 128.258Z" fill="#1C1D22" fill-opacity="0.04"/>
<path d="M297.867 156.83L304.685 153.493C304.625 153.918 304.866 158.043 301.608 159.984L293.281 163.928C296.539 161.986 297.807 157.254 297.867 156.83Z" fill="#1C1D22" fill-opacity="0.04"/>
<path d="M310.596 141.422C309.993 147.246 308.243 151.25 305.106 153.069L298.348 155.799C301.485 153.979 302.511 150.764 303.114 144.94L310.596 141.422Z" fill="#1C1D22" fill-opacity="0.04"/>
<path d="M312.286 128.257L304.684 131.836C308.545 128.317 308.002 117.155 308.002 116.488L315.303 111.21C315.424 111.877 316.208 124.738 312.286 128.257Z" fill="#1C1D22" fill-opacity="0.04"/>
<path d="M307.709 116.65L314.105 111.979C299.986 120.23 273.015 105.428 266.921 101.848C266.559 101.666 266.317 101.484 266.136 101.363L260.344 106.58C260.464 106.762 290.694 126.175 307.709 116.65Z" fill="#1C1D22" fill-opacity="0.04"/>
<path d="M308.009 116.477C294.252 126.486 260.161 106.952 259.98 106.831L260.282 142.138C268.548 150.873 279.409 158.76 286.348 162.764C296.123 168.405 297.511 157.607 297.571 157.001C300.769 155.181 302.82 151.055 303.424 145.171C305.355 141.895 305.837 137.163 305.234 131.825C309.156 128.306 308.07 117.144 308.009 116.477Z" fill="white"/>
<path d="M204.411 63.8178C191.378 53.8688 177.983 40.0373 170.802 26.4485C170.682 26.2665 170.501 26.0845 170.32 26.0238C170.078 25.9631 169.837 26.0238 169.656 26.1451L163.079 29.967C162.838 30.2096 162.717 30.331 162.717 30.695C162.596 32.2722 161.933 43.4952 165.613 51.3815C165.01 56.538 165.553 61.5125 167.303 66.669C167.846 73.2814 169.716 79.4692 172.793 84.8683C173.095 86.9309 173.699 100.156 187.637 106.101" stroke="#138BE1" stroke-miterlimit="10" stroke-linecap="round" stroke-linejoin="round"/>
<path d="M205.375 63.2709C211.469 59.6917 224.623 57.3865 234.76 63.2709" stroke="#138BE1" stroke-miterlimit="10" stroke-linecap="round" stroke-linejoin="round"/>
<path d="M266.323 102.093L260.289 106.643" stroke="#138BE1" stroke-miterlimit="10" stroke-linecap="round" stroke-linejoin="round"/>
<path d="M293.469 164.042L301.615 159.614C304.692 157.794 305.054 154.457 305.356 152.941C308.433 150.999 309.942 147.117 310.605 141.111C312.355 138.017 313.139 133.831 312.596 128.068C316.337 123.882 315.493 113.569 315.372 112.174C315.372 111.628 314.648 111.264 314.226 111.507C314.527 111.325 312.114 112.781 311.812 112.963C299.141 118.969 278.204 108.595 265.774 101.801L265.352 101.012C261.792 92.1549 256.603 83.4799 250.207 76.2002" stroke="#138BE1" stroke-miterlimit="10" stroke-linecap="round" stroke-linejoin="round"/>
<path d="M308.016 116.472L314.954 112.165" stroke="#138BE1" stroke-miterlimit="10" stroke-linecap="round" stroke-linejoin="round"/>
<path d="M305.301 131.711L312.3 128.253" stroke="#138BE1" stroke-miterlimit="10" stroke-linecap="round" stroke-linejoin="round"/>
<path d="M303.059 144.928L310.54 141.046" stroke="#138BE1" stroke-miterlimit="10" stroke-linecap="round" stroke-linejoin="round"/>
<path d="M297.629 156.819L305.111 153.058" stroke="#138BE1" stroke-miterlimit="10" stroke-linecap="round" stroke-linejoin="round"/>
<path d="M304.999 132.965C305.724 140.851 303.129 145.098 303.129 145.098C303.129 145.098 302.707 149.163 302.103 150.679C300.896 154.016 297.699 156.624 297.699 156.624C297.699 156.624 297.156 159.051 296.914 159.657C295.225 164.329 292.147 165.724 287.32 162.933C278.752 158.02 266.987 149.102 260.289 141.943L260.41 106.637C272.719 113.856 295.587 123.805 308.016 116.525C308.077 116.525 308.077 128.719 305.482 131.327C305.362 131.327 304.939 131.812 304.999 132.965Z" stroke="#138BE1" stroke-miterlimit="10" stroke-linecap="round" stroke-linejoin="round"/>
<path d="M279.043 145.529C283.629 151.535 290.749 155.418 297.446 156.692" stroke="#138BE1" stroke-miterlimit="10" stroke-linecap="round" stroke-linejoin="round"/>
<path d="M283.328 134.606C288.517 140.248 295.939 143.888 303.059 144.919" stroke="#138BE1" stroke-miterlimit="10" stroke-linecap="round" stroke-linejoin="round"/>
<path d="M287.129 125.575C291.956 130.792 298.412 133.037 304.748 132.066" stroke="#138BE1" stroke-miterlimit="10" stroke-linecap="round" stroke-linejoin="round"/>
<path d="M197.471 67.3377C194.153 64.7898 174.422 50.4123 163.742 30.1504" stroke="#138BE1" stroke-miterlimit="10" stroke-linecap="round" stroke-linejoin="round"/>
<path d="M196.564 68.3673C212.553 59.0856 234.637 78.0129 245.196 94.999C251.23 104.705 255.634 115.746 256.962 127.09C257.746 134.067 257.444 141.347 254.367 147.716C252.135 152.266 250.023 153.722 247.187 155.845C247.127 155.845 247.127 155.906 247.127 155.906C240.49 159.789 231.62 158.818 222.207 153.297C206.037 143.955 192.4 123.633 187.996 104.038C187.815 103.31 187.633 102.582 187.513 101.915C185.16 89.6605 186.065 74.555 196.564 68.3673Z" stroke="#138BE1" stroke-miterlimit="10" stroke-linecap="round" stroke-linejoin="round"/>
<path d="M173.098 85.3608C175.028 87.1808 177.623 89.3647 180.459 91.1846" stroke="#138BE1" stroke-miterlimit="10" stroke-linecap="round" stroke-linejoin="round"/>
<path d="M167.66 66.7842C170.134 69.2108 174.358 73.0326 178.883 75.7019C180.331 76.5512 181.659 77.1578 182.926 77.5825" stroke="#138BE1" stroke-miterlimit="10" stroke-linecap="round" stroke-linejoin="round"/>
<path d="M182.567 64.4223C181.239 64.3009 179.791 63.755 178.102 62.7843C171.887 59.2051 165.793 50.8334 165.129 49.8628" stroke="#138BE1" stroke-miterlimit="10" stroke-linecap="round" stroke-linejoin="round"/>
<path d="M196.027 68.607L205.38 63.2686" stroke="#138BE1" stroke-miterlimit="10" stroke-linecap="round" stroke-linejoin="round"/>
<path d="M245.625 156.63L263.726 145.832" stroke="#138BE1" stroke-miterlimit="10" stroke-linecap="round" stroke-linejoin="round"/>
<path d="M210.57 85.2956C210.57 85.2956 227.284 99.1271 230.059 102.039C232.835 104.951 234.826 110.168 236.154 114.597C237.481 119.025 235.912 125.759 235.912 125.759L238.265 124.849C240.317 124 241.343 121.209 241.343 117.084C241.343 112.959 240.317 109.197 238.265 105.133C236.214 101.068 233.499 97.7318 230.12 95.1839L214.191 82.9297L210.57 85.2956Z" fill="#1C1D22" fill-opacity="0.04"/>
<path d="M204.414 113.93L208.879 111.807L209.543 117.388L204.414 113.93Z" fill="#1C1D22" fill-opacity="0.04"/>
<path d="M204.598 100.831L209.304 98.5859V104.774L204.598 100.831Z" fill="#1C1D22" fill-opacity="0.04"/>
<path d="M216.242 135.898L220.345 133.957L216.484 130.741L216.242 135.898Z" fill="#1C1D22" fill-opacity="0.04"/>
<path d="M223.001 135.893L227.708 133.527V126.368L216.726 117.693L216.062 122.971L222.458 128.128L223.001 135.893Z" fill="#1C1D22" fill-opacity="0.04"/>
<path d="M230.055 115.808C229.754 115.626 229.452 115.383 229.09 115.141L219.979 108.043V100.46L216.298 98.0332L216.117 110.045L225.892 117.628C225.892 117.628 227.762 118.477 228.245 118.356C228.667 118.234 230.055 115.808 230.055 115.808Z" fill="#1C1D22" fill-opacity="0.04"/>
<path d="M233.616 107.504C231.564 103.439 228.849 100.103 225.47 97.555L209.541 85.3008V104.956L204.473 101.013V108.111L209.541 112.114V117.878L204.473 113.874V121.275L209.541 125.279V130.86L216.058 136.016V130.435L222.996 135.895V128.433L216.058 122.973V117.21L225.41 124.551C228.789 127.159 231.504 128.069 233.556 127.22C235.607 126.371 236.633 123.883 236.633 119.758C236.693 115.633 235.667 111.568 233.616 107.504Z" stroke="#138BE1" stroke-miterlimit="10" stroke-linecap="round" stroke-linejoin="round"/>
<path d="M238.255 124.849C240.306 124 241.332 121.209 241.332 117.084C241.332 112.959 240.306 109.197 238.255 105.133C236.203 101.068 233.488 97.7318 230.109 95.1839L214.18 82.9297" stroke="#138BE1" stroke-miterlimit="10" stroke-linecap="round" stroke-linejoin="round"/>
<path d="M223 135.891L227.706 133.525V126.366" stroke="#138BE1" stroke-miterlimit="10" stroke-linecap="round"/>
<path d="M230.237 115.749C229.935 115.567 229.633 115.324 229.271 115.081L220.16 107.923V100.34" stroke="#138BE1" stroke-miterlimit="10"/>
<path d="M223 128.429L227.465 126.366" stroke="#138BE1" stroke-miterlimit="10" stroke-linecap="round" stroke-linejoin="round"/>
<path d="M204.414 113.926L208.879 111.802" stroke="#138BE1" stroke-miterlimit="10" stroke-linecap="round" stroke-linejoin="round"/>
<path d="M216.238 135.896L220.341 133.955" stroke="#138BE1" stroke-miterlimit="10" stroke-linecap="round" stroke-linejoin="round"/>
<path d="M204.594 100.831L209.3 98.5859" stroke="#138BE1" stroke-miterlimit="10" stroke-linecap="round" stroke-linejoin="round"/>
<path d="M234.223 126.914L238.688 124.608" stroke="#138BE1" stroke-miterlimit="10" stroke-linecap="round" stroke-linejoin="round"/>
<path d="M209.547 85.2956L214.193 82.9297" stroke="#138BE1" stroke-miterlimit="10"/>
<path d="M228.673 118.241C227.768 118.666 226.622 118.302 225.174 117.149L216.062 110.051V97.4937L225.174 104.531C226.622 105.623 227.768 107.079 228.673 108.899C229.578 110.719 230.001 112.599 230.001 114.601C230.061 116.603 229.578 117.816 228.673 118.241Z" stroke="#138BE1" stroke-miterlimit="10"/>
</g>
<defs>
<clipPath id="clip0_3437_37447">
<rect width="316" height="282" fill="white"/>
</clipPath>
</defs>
</svg>
