<svg width="200" height="180" viewBox="0 0 200 180" fill="none" xmlns="http://www.w3.org/2000/svg">
<path d="M166.448 163.447L146.774 174.25L113.721 155.787L103.758 161.353L90.6438 154.03L87.9547 152.524L85.4508 151.13L63.1406 138.668V134.91L136.807 134.445L186.4 148.728V152.486L174.326 159.118" fill="white"/>
<path d="M85.4508 151.13L63.1406 138.668V134.91L136.807 134.445L186.4 148.728V152.486L174.326 159.118" stroke="#1C1D22" stroke-linecap="round" stroke-linejoin="round"/>
<path d="M166.445 163.446L146.771 174.249L113.718 155.786L103.755 161.352L90.6406 154.029" stroke="#1C1D22" stroke-linecap="round" stroke-linejoin="round"/>
<path d="M87.7754 40.0241L73.3691 48.072L103.76 65.0463L134.146 48.072L103.76 31.0977L93.0961 37.0515" fill="white"/>
<path d="M87.7754 40.0241L73.3691 48.072L103.76 65.0463L134.146 48.072L103.76 31.0977L93.0961 37.0515" stroke="#1C1D22" stroke-linecap="round" stroke-linejoin="round"/>
<path d="M63.1406 134.909L103.758 112.22L136.807 130.682L145.787 126.038L186.4 148.727L146.774 170.487L113.721 152.028L103.758 157.594L63.1406 134.909Z" fill="white" stroke="#1C1D22" stroke-linecap="round" stroke-linejoin="round"/>
<path d="M128.35 48.0722L103.756 34.335L79.1582 48.0722L103.756 61.8094L128.35 48.0722Z" fill="white" stroke="#1C1D22" stroke-linecap="round" stroke-linejoin="round"/>
<path d="M126.017 49.3775L103.76 36.9453L81.498 49.3775" fill="white"/>
<path d="M126.017 49.3775L103.76 36.9453L81.498 49.3775" stroke="#1C1D22" stroke-linecap="round" stroke-linejoin="round"/>
<path d="M134.146 134.91L103.76 117.935L73.3691 134.91L103.76 151.884L134.146 134.91Z" fill="white" stroke="#1C1D22" stroke-linecap="round" stroke-linejoin="round"/>
<path d="M134.144 83.9348V134.909L103.758 151.883V65.0456L134.144 48.0713V73.9848" fill="white"/>
<path d="M134.144 83.9348V134.909L103.758 151.883V65.0456L134.144 48.0713V73.9848" stroke="#1C1D22" stroke-linecap="round" stroke-linejoin="round"/>
<path d="M73.3691 96.6272V134.909L103.76 151.883V65.0456L73.3691 48.0713V74.5179" fill="white"/>
<path d="M73.3691 96.6272V134.909L103.76 151.883V65.0456L73.3691 48.0713V74.5179" stroke="#1C1D22" stroke-linecap="round" stroke-linejoin="round"/>
<path d="M124.701 60.0474L129.705 57.2539V65.9586L124.701 68.7521V60.0474Z" fill="white" stroke="#138BE1" stroke-linecap="round" stroke-linejoin="round"/>
<path d="M117.059 64.2867L122.062 61.4932V70.1978L117.059 72.9913V64.2867Z" fill="white" stroke="#138BE1" stroke-linecap="round" stroke-linejoin="round"/>
<path d="M109.418 68.232L114.417 65.4385V74.1431L109.418 76.9366V68.232Z" fill="white" stroke="#138BE1" stroke-linecap="round" stroke-linejoin="round"/>
<path d="M124.701 74.7066L129.705 71.9131V80.6177L124.701 83.4113V74.7066Z" fill="white" stroke="#138BE1" stroke-linecap="round" stroke-linejoin="round"/>
<path d="M117.059 78.9507L122.062 76.1572V84.8576L117.059 87.6511V78.9507Z" fill="white" stroke="#138BE1" stroke-linecap="round" stroke-linejoin="round"/>
<path d="M109.418 82.8912L114.417 80.0977V88.8023L109.418 91.5958V82.8912Z" fill="white" stroke="#138BE1" stroke-linecap="round" stroke-linejoin="round"/>
<path d="M124.701 89.7183L129.705 86.9248V95.6295L124.701 98.423V89.7183Z" fill="white" stroke="#138BE1" stroke-linecap="round" stroke-linejoin="round"/>
<path d="M117.059 93.9625L122.062 91.1689V99.8736L117.059 102.667V93.9625Z" fill="white" stroke="#138BE1" stroke-linecap="round" stroke-linejoin="round"/>
<path d="M109.418 97.9029L114.417 95.1094V103.814L109.418 106.608V97.9029Z" fill="white" stroke="#138BE1" stroke-linecap="round" stroke-linejoin="round"/>
<path d="M82.8081 60.0474L77.8047 57.2539V65.9586L82.8081 68.7521V60.0474Z" fill="white" stroke="#138BE1" stroke-linecap="round" stroke-linejoin="round"/>
<path d="M90.4526 64.2867L85.4492 61.4932V70.1978L90.4526 72.9913V64.2867Z" fill="white" stroke="#138BE1" stroke-linecap="round" stroke-linejoin="round"/>
<path d="M98.0952 68.232L93.0918 65.4385V74.1431L98.0952 76.9366V68.232Z" fill="white" stroke="#138BE1" stroke-linecap="round" stroke-linejoin="round"/>
<path d="M82.8081 74.7066L77.8047 71.9131V80.6177L82.8081 83.4113V74.7066Z" fill="white" stroke="#138BE1" stroke-linecap="round" stroke-linejoin="round"/>
<path d="M90.4526 78.9507L85.4492 76.1572V84.8576L90.4526 87.6511V78.9507Z" fill="white" stroke="#138BE1" stroke-linecap="round" stroke-linejoin="round"/>
<path d="M98.0952 82.8912L93.0918 80.0977V88.8023L98.0952 91.5958V82.8912Z" fill="white" stroke="#138BE1" stroke-linecap="round" stroke-linejoin="round"/>
<path d="M82.8081 89.7183L77.8047 86.9248V95.6295L82.8081 98.423V89.7183Z" fill="white" stroke="#138BE1" stroke-linecap="round" stroke-linejoin="round"/>
<path d="M90.4526 93.9625L85.4492 91.1689V99.8736L90.4526 102.667V93.9625Z" fill="white" stroke="#138BE1" stroke-linecap="round" stroke-linejoin="round"/>
<path d="M98.0952 97.9029L93.0918 95.1094V103.814L98.0952 106.608V97.9029Z" fill="white" stroke="#138BE1" stroke-linecap="round" stroke-linejoin="round"/>
<path d="M124.701 104.842L129.705 102.049V110.749L124.701 113.543V104.842Z" fill="white" stroke="#138BE1" stroke-linecap="round" stroke-linejoin="round"/>
<path d="M117.059 109.082L122.062 106.288V114.993L117.059 117.786V109.082Z" fill="white" stroke="#138BE1" stroke-linecap="round" stroke-linejoin="round"/>
<path d="M109.418 113.026L114.417 110.232V118.937L109.418 121.731V113.026Z" fill="white" stroke="#138BE1" stroke-linecap="round" stroke-linejoin="round"/>
<path d="M82.8081 105.566L77.8047 102.772V111.473L82.8081 114.271V105.566Z" fill="white" stroke="#138BE1" stroke-linecap="round" stroke-linejoin="round"/>
<path d="M90.4526 109.806L85.4492 107.013V115.717L90.4526 118.511V109.806Z" fill="white" stroke="#138BE1" stroke-linecap="round" stroke-linejoin="round"/>
<path d="M98.0952 113.751L93.0918 110.957V119.662L98.0952 122.455V113.751Z" fill="white" stroke="#138BE1" stroke-linecap="round" stroke-linejoin="round"/>
<path d="M86.6907 126.303L77.1777 120.934V136.944L86.6907 142.309V126.303Z" fill="white" stroke="#1C1D22" stroke-linecap="round" stroke-linejoin="round"/>
<path d="M103.758 34.335V36.9451" stroke="#1C1D22" stroke-linecap="round" stroke-linejoin="round"/>
<path d="M103.758 157.595V161.352" stroke="#1C1D22" stroke-linecap="round" stroke-linejoin="round"/>
<path d="M113.721 152.028V155.786" stroke="#1C1D22" stroke-linecap="round" stroke-linejoin="round"/>
<path d="M146.771 170.487V174.249" stroke="#1C1D22" stroke-linecap="round" stroke-linejoin="round"/>
<path d="M143.025 94.1838H121.654C121.339 94.1789 121.032 94.2759 120.781 94.4595C120.53 94.643 120.349 94.9025 120.268 95.1967C120.187 95.4909 120.21 95.8029 120.333 96.083C120.457 96.3632 120.673 96.5954 120.949 96.7427L146.076 110.774C146.29 110.896 146.533 110.96 146.781 110.96C147.029 110.96 147.273 110.896 147.486 110.774L172.614 96.7427C172.889 96.5954 173.106 96.3632 173.229 96.083C173.352 95.8029 173.375 95.4909 173.294 95.1967C173.213 94.9025 173.032 94.643 172.781 94.4595C172.53 94.2759 172.223 94.1789 171.908 94.1838H151.189" fill="white"/>
<path d="M143.025 94.1838H121.654C121.339 94.1789 121.032 94.2759 120.781 94.4595C120.53 94.643 120.349 94.9025 120.268 95.1967C120.187 95.4909 120.21 95.8029 120.333 96.083C120.457 96.3632 120.673 96.5954 120.949 96.7427L146.076 110.774C146.29 110.896 146.533 110.96 146.781 110.96C147.029 110.96 147.273 110.896 147.487 110.774L172.614 96.7427C172.889 96.5954 173.106 96.3632 173.229 96.083C173.352 95.8029 173.375 95.4909 173.294 95.1967C173.213 94.9025 173.032 94.643 172.781 94.4595C172.53 94.2759 172.223 94.1789 171.908 94.1838H151.189" stroke="#1C1D22" stroke-linecap="round" stroke-linejoin="round"/>
<path d="M173.327 126.695V148.758L146.771 164.043V111.158L173.327 95.873V116.707" fill="white"/>
<path d="M173.327 126.695V148.758L146.771 164.043V111.158L173.327 95.873V116.707" stroke="#1C1D22" stroke-linecap="round" stroke-linejoin="round"/>
<path d="M160.688 109.67L171.034 104.032V112.737L160.688 118.371V109.67Z" fill="white" stroke="#138BE1" stroke-linecap="round" stroke-linejoin="round"/>
<path d="M160.688 124.329L171.034 118.69V127.395L160.688 133.033V124.329Z" fill="white" stroke="#138BE1" stroke-linecap="round" stroke-linejoin="round"/>
<path d="M160.688 139.341L171.034 133.703V142.408L160.688 148.046V139.341Z" fill="white" stroke="#138BE1" stroke-linecap="round" stroke-linejoin="round"/>
<path d="M146.77 111.158L120.232 95.873V148.758L146.77 164.043V111.158Z" fill="white" stroke="#1C1D22" stroke-linecap="round" stroke-linejoin="round"/>
<path d="M146.772 116.566L158.043 110.817V119.522L146.772 125.271L136.721 120.004V111.304L146.772 116.566Z" fill="white" stroke="#138BE1" stroke-linecap="round" stroke-linejoin="round"/>
<path d="M133.327 124.085L122.465 118.102V126.802L133.327 132.79V124.085Z" fill="white" stroke="#138BE1" stroke-linecap="round" stroke-linejoin="round"/>
<path d="M146.772 131.562L158.043 125.48V134.181L146.772 140.267L136.721 134.667V125.962L146.772 131.562Z" fill="white" stroke="#138BE1" stroke-linecap="round" stroke-linejoin="round"/>
<path d="M133.327 139.098L122.465 133.114V141.819L133.327 147.803V139.098Z" fill="white" stroke="#138BE1" stroke-linecap="round" stroke-linejoin="round"/>
<path d="M146.772 146.881L158.043 140.492V149.197L146.772 155.586L136.721 149.679V140.974L146.772 146.881Z" fill="white" stroke="#138BE1" stroke-linecap="round" stroke-linejoin="round"/>
<path d="M146.883 96.6279H126.23L146.403 108.143C146.549 108.225 146.714 108.268 146.883 108.268C147.052 108.268 147.218 108.225 147.364 108.143L167.531 96.6279H146.883Z" fill="white" stroke="#1C1D22" stroke-linecap="round" stroke-linejoin="round"/>
<path d="M163.472 98.9443H130.295" stroke="#1C1D22" stroke-linecap="round" stroke-linejoin="round"/>
<path d="M133.327 109.426L122.465 103.442V112.147L133.327 118.131V109.426Z" fill="white" stroke="#138BE1" stroke-linecap="round" stroke-linejoin="round"/>
<path d="M80.3094 132.154L78.8105 131.288" stroke="#1C1D22" stroke-linecap="round" stroke-linejoin="round"/>
<path d="M129.302 35.8994H127.1V40.184H129.302V35.8994Z" fill="white" stroke="#1C1D22" stroke-miterlimit="10" stroke-linecap="round" stroke-linejoin="round"/>
<path d="M132.036 40.4896L130.923 42.3392L127.1 40.2086L129.326 38.8975L132.036 40.4896Z" fill="white" stroke="#1C1D22" stroke-miterlimit="10" stroke-linecap="round" stroke-linejoin="round"/>
<path d="M127.571 40.5353L130.066 37.9836C130.854 37.1786 134.037 38.2707 134.037 38.2707L134.556 46.4555C134.933 47.6793 134.597 49.3453 133.809 50.1504L130.024 56.0897C130.024 56.0897 127.954 55.7427 127.542 55.531C127.341 55.4066 127.168 55.245 127.032 55.0555C126.896 54.866 126.8 54.6523 126.75 54.4268L124.384 46.7341C124.007 45.5104 124.342 43.8419 125.13 43.0369L125.829 42.3212" fill="white"/>
<path d="M127.571 40.5353L130.066 37.9836C130.854 37.1786 134.037 38.2707 134.037 38.2707L134.556 46.4555C134.933 47.6793 134.597 49.3453 133.809 50.1504L130.024 56.0897C130.024 56.0897 127.954 55.7427 127.542 55.531C127.341 55.4066 127.168 55.245 127.032 55.0555C126.896 54.866 126.8 54.6523 126.75 54.4268L124.384 46.7341C124.007 45.5104 124.342 43.8419 125.13 43.0369L125.829 42.3212" stroke="#138BE1" stroke-linecap="round" stroke-linejoin="round"/>
<path d="M136.329 50.7299L131.383 55.786C130.934 56.243 130.431 56.3266 130.012 56.0928C129.633 55.8381 129.365 55.4549 129.263 55.019L126.893 47.3141C126.516 46.0903 126.851 44.4219 127.639 43.6168L132.585 38.5607C133.373 37.7556 134.325 38.1023 134.702 39.3285L137.073 47.0333C137.45 48.2595 137.117 49.9224 136.329 50.7299Z" fill="white" stroke="#138BE1" stroke-linecap="round" stroke-linejoin="round"/>
<path d="M129.557 49.3415C129.498 49.1018 129.456 48.8586 129.43 48.6135L128.947 48.3261L128.985 47.857L129.043 47.0622L129.078 46.5939L129.609 46.2171C129.672 45.9585 129.752 45.7041 129.849 45.4554L129.695 44.6442L129.918 44.2949L130.288 43.7062L130.511 43.3569L130.996 43.6783C131.138 43.5457 131.295 43.4289 131.464 43.3302L131.726 42.4715L132.007 42.4464L132.484 42.4024L132.753 42.3809L132.89 43.2045C133.044 43.2718 133.187 43.3622 133.312 43.4723L133.837 43.0678L134.01 43.3803L134.306 43.9131L134.48 44.2256L134.191 45.0786C134.252 45.3178 134.296 45.5608 134.321 45.8059L134.8 46.0916L134.766 46.5623L134.708 47.3572L134.673 47.8255L134.142 48.2023C134.078 48.4606 133.998 48.7149 133.902 48.964L134.056 49.7751L133.833 50.1245L133.463 50.7132L133.24 51.0625L132.769 50.7479C132.626 50.8806 132.469 50.9973 132.3 51.096L132.038 51.9547L131.77 51.9762L131.293 52.0202L131.024 52.0417L130.886 51.2181C130.732 51.1495 130.59 51.0595 130.463 50.9511L129.94 51.3548L129.764 51.0431L129.47 50.5095L129.297 50.197L129.557 49.3415ZM132.499 48.3689C132.95 47.6664 133.031 46.5879 132.68 45.9588C132.33 45.3297 131.679 45.3892 131.234 46.0903C130.788 46.7914 130.705 47.8706 131.055 48.4997C131.406 49.1288 132.052 49.0707 132.499 48.3689Z" fill="white" stroke="#1C1D22" stroke-linecap="round" stroke-linejoin="round"/>
<path d="M135.832 38.2577L137.969 37.7412L136.895 33.5843L134.759 34.1007L135.832 38.2577Z" fill="white" stroke="#1C1D22" stroke-miterlimit="10" stroke-linecap="round" stroke-linejoin="round"/>
<path d="M133.266 39.2028L134.814 40.7481L137.985 37.7746L135.516 37.0488L133.266 39.2028Z" fill="white" stroke="#1C1D22" stroke-miterlimit="10" stroke-linecap="round" stroke-linejoin="round"/>
<path d="M138.715 29.155C138.715 29.9745 138.279 30.7237 137.529 31.3558C136.198 32.4563 133.899 33.2055 131.31 33.2055C128.696 33.2055 126.397 32.4797 125.09 31.3558C124.34 30.7237 123.904 29.9745 123.904 29.155C123.904 26.9307 127.22 25.1279 131.334 25.1279C135.399 25.1279 138.715 26.9307 138.715 29.155Z" fill="white" stroke="#1C1D22" stroke-miterlimit="10" stroke-linecap="round" stroke-linejoin="round"/>
<path d="M138.714 29.1533V33.555C138.714 35.7793 135.399 37.6055 131.285 37.6055C127.195 37.6055 123.855 35.8027 123.855 33.555V29.1533C123.855 29.9728 124.291 30.722 125.041 31.3542C126.372 32.4546 128.671 33.2038 131.261 33.2038C133.874 33.2038 136.173 32.478 137.48 31.3542C138.279 30.722 138.714 29.9728 138.714 29.1533Z" fill="white" stroke="#1C1D22" stroke-miterlimit="10" stroke-linecap="round" stroke-linejoin="round"/>
<path d="M103.479 49.8299C109.614 49.8299 114.587 47.2093 114.587 43.9766C114.587 40.7439 109.614 38.1233 103.479 38.1233C97.3443 38.1233 92.3711 40.7439 92.3711 43.9766C92.3711 47.2093 97.3443 49.8299 103.479 49.8299Z" fill="white" stroke="#1C1D22" stroke-miterlimit="10" stroke-linecap="round" stroke-linejoin="round"/>
<path d="M108.148 27.4248C110.278 28.1974 111.682 29.5086 111.682 30.9836C111.682 33.3718 108.027 35.315 103.502 35.315C98.9765 35.315 95.3223 33.3718 95.3223 30.9836C95.3223 29.6256 96.5323 28.3847 98.3957 27.6121L98.8313 27.4482" fill="white"/>
<path d="M108.148 27.4248C110.278 28.1974 111.682 29.5086 111.682 30.9836C111.682 33.3718 108.027 35.315 103.502 35.315C98.9765 35.315 95.3223 33.3718 95.3223 30.9836C95.3223 29.6256 96.5323 28.3847 98.3957 27.6121L98.8313 27.4482" stroke="#1C1D22" stroke-miterlimit="10" stroke-linecap="round" stroke-linejoin="round"/>
<path d="M110.957 54.491C113.183 53.414 114.587 51.8688 114.587 50.1596V43.9785C114.587 45.1023 113.982 46.1794 112.917 47.0691C110.957 48.7314 107.472 49.8552 103.479 49.8552C99.486 49.8552 95.9769 48.7548 94.0409 47.0691C92.9761 46.1794 92.3711 45.1258 92.3711 43.9785V50.1596C92.3711 53.3906 97.3563 56.0129 103.479 56.0129C103.479 56.0129 104.979 56.0597 107.399 55.568C110.57 54.9593 110.957 54.491 110.957 54.491Z" fill="white"/>
<path d="M108.154 18.2021V31.1731C108.154 31.5008 107.888 31.8052 107.452 32.0628C106.629 32.531 105.153 32.8588 103.483 32.8588C101.813 32.8588 100.337 32.531 99.5143 32.0628C99.0787 31.8052 98.8125 31.5008 98.8125 31.1731V18.2021H108.154Z" fill="white" stroke="#1C1D22" stroke-miterlimit="10" stroke-linecap="round" stroke-linejoin="round"/>
<path d="M111.66 39.1585V42.9983C111.66 44.0519 110.934 45.0352 109.748 45.7845C108.248 46.721 105.997 47.3297 103.48 47.3297C100.964 47.3297 98.713 46.721 97.2126 45.7845C96.0268 45.0352 95.3008 44.0519 95.3008 42.9983V31.0107C95.3008 33.3989 98.9792 35.3422 103.48 35.3422C108.006 35.3422 111.66 33.3989 111.66 31.0107V35.3422" fill="white"/>
<path d="M111.66 39.1585V42.9983C111.66 44.0519 110.934 45.0352 109.748 45.7845C108.248 46.721 105.997 47.3297 103.48 47.3297C100.964 47.3297 98.713 46.721 97.2126 45.7845C96.0268 45.0352 95.3008 44.0519 95.3008 42.9983V31.0107C95.3008 33.3989 98.9792 35.3422 103.48 35.3422C108.006 35.3422 111.66 33.3989 111.66 31.0107V35.3422" stroke="#1C1D22" stroke-miterlimit="10" stroke-linecap="round" stroke-linejoin="round"/>
<path d="M103.479 56.0129C97.3321 56.0129 92.3711 53.3906 92.3711 50.1596V43.9785C92.3711 45.1023 92.9761 46.1794 94.0409 47.0691C96.0011 48.7314 99.486 49.8552 103.479 49.8552C107.472 49.8552 110.981 48.7548 112.917 47.0691C113.982 46.1794 114.587 45.1258 114.587 43.9785V50.1596C114.587 51.8688 113.183 53.414 110.957 54.491" stroke="#1C1D22" stroke-miterlimit="10" stroke-linecap="round" stroke-linejoin="round"/>
<path d="M99.8244 5.99911L95.9766 7.68486C96.8478 7.19318 98.0094 7.12294 99.3404 7.56779L128.598 21.7562L130.97 20.4216L107.738 8.78528C107.738 8.78528 101.664 5.64791 99.8244 5.99911Z" fill="white"/>
<path d="M129.562 21.6139L130.748 28.3335L102.869 23.2997C102.119 23.206 101.32 22.925 100.57 22.5036C97.7628 20.9583 95.1734 17.4698 94.3506 13.8407C93.3099 9.20491 95.609 6.32509 99.3358 7.5894L129.562 21.6139Z" fill="white"/>
<path d="M127.431 18.5514L107.732 8.78809" stroke="#138BE1" stroke-miterlimit="10" stroke-linecap="round" stroke-linejoin="round"/>
<path d="M103.932 7.0307C101.052 5.76638 100.036 5.67273 99.0678 6.21123C98.5353 6.51561 99.8906 5.71956 96.2363 7.77992" stroke="#138BE1" stroke-miterlimit="10" stroke-linecap="round" stroke-linejoin="round"/>
<path d="M127.094 27.8904L102.869 23.0907C102.167 22.9971 101.417 22.7395 100.667 22.3181C97.8356 20.7494 95.3188 17.2374 94.5444 13.7723C93.9878 11.3139 94.3992 9.2301 95.6334 8.17651C96.2868 7.61459 97.2548 7.31022 98.5132 7.54436C98.9246 7.6146 99.3118 7.75507 99.699 7.94238L126.561 20.4216" stroke="#138BE1" stroke-miterlimit="10" stroke-linecap="round" stroke-linejoin="round"/>
<path d="M105.191 16.6532C105.191 17.7068 104.804 18.4794 104.174 18.8306L102.674 19.6735C103.303 19.3223 103.69 18.5731 103.69 17.4961C103.69 15.3421 102.142 12.7432 100.206 11.6662C99.2375 11.1277 98.3421 11.0809 97.7129 11.4321L99.2133 10.5892C99.8425 10.238 100.714 10.2848 101.706 10.8233C103.642 11.9003 105.191 14.4992 105.191 16.6532Z" fill="white"/>
<path d="M102.578 19.463C102.626 19.4395 102.553 19.4864 104.005 18.6669C104.659 18.2923 105.022 17.5197 105.022 16.5129C105.022 14.4994 103.546 12.0176 101.731 11.0108C100.811 10.4957 99.9398 10.4255 99.2622 10.8001C98.633 11.1513 99.0202 10.9405 97.8828 11.5727" stroke="#1C1D22" stroke-miterlimit="10"/>
<path d="M96.918 13.6125C96.918 11.6458 98.2974 10.8497 100.112 11.8565C101.952 12.8867 103.5 15.4153 103.476 17.5225C103.476 18.2951 103.258 19.138 102.557 19.5126C101.952 19.8404 101.153 19.7701 100.282 19.2785C98.4184 18.2249 96.918 15.6728 96.918 13.6125Z" stroke="#1C1D22" stroke-miterlimit="10"/>
<path d="M129.34 17.989C131.3 19.0894 132.898 21.7585 132.898 23.936L132.873 28.4079C132.873 30.5853 131.252 31.475 129.292 30.3746C127.332 29.2742 125.734 26.6051 125.734 24.4276L125.759 19.9557C125.759 17.7783 127.356 16.8886 129.34 17.989Z" fill="white"/>
<path d="M134.792 26.6493V27.3517C134.792 28.4287 134.381 29.2014 133.751 29.5526L131.864 30.6296C132.493 30.2784 132.904 29.5057 132.904 28.4287L132.929 23.9568C132.929 21.756 131.331 19.1103 129.371 17.9864C128.379 17.4479 127.483 17.3777 126.83 17.7523L128.718 16.6753C129.371 16.3007 130.267 16.3709 131.259 16.9094C133.219 18.0099 134.816 20.679 134.816 22.8564" fill="white"/>
<path d="M134.743 23.323C134.743 21.0753 133.436 18.2423 131.403 17.1185C130.363 16.5331 129.395 16.4629 128.644 16.8843L126.854 17.8911" stroke="#138BE1" stroke-miterlimit="10" stroke-linecap="round" stroke-linejoin="round"/>
<path d="M134.572 26.6289V27.3313C134.572 28.3147 134.233 29.0171 133.628 29.3682L131.74 30.4218" stroke="#138BE1" stroke-miterlimit="10" stroke-linecap="round" stroke-linejoin="round"/>
<path d="M125.959 24.4273L125.983 19.9554C125.983 17.9184 127.435 17.1458 129.25 18.1525C131.162 19.2296 132.711 21.805 132.711 23.9356V24.6848L132.687 28.4075C132.687 30.4679 131.235 31.2171 129.42 30.2103C127.508 29.1333 125.959 26.5345 125.959 24.4273Z" stroke="#138BE1" stroke-miterlimit="10" stroke-linecap="round" stroke-linejoin="round"/>
<path d="M128.426 20.7479C128.426 21.3332 128.861 22.059 129.394 22.3634C129.854 22.6209 130.192 22.4336 130.192 21.9185C130.192 21.3332 129.757 20.6074 129.224 20.303C128.789 20.0455 128.426 20.2094 128.426 20.7479Z" stroke="#1C1D22" stroke-miterlimit="10"/>
<path d="M130.192 27.6073C130.192 27.022 129.757 26.2962 129.224 25.9918C128.765 25.7343 128.426 25.9216 128.426 26.4366C128.426 27.022 128.861 27.7478 129.394 28.0522C129.854 28.3097 130.192 28.1458 130.192 27.6073Z" stroke="#1C1D22" stroke-miterlimit="10"/>
<path d="M43.6093 147.64L43.406 152.135L43.377 152.866V152.894C43.3479 153.568 43.6384 154.243 44.3063 154.636L55.2844 161.38C57.0559 162.475 59.2922 162.588 61.1509 161.66L73.2326 155.788C73.9877 155.423 74.4523 154.524 74.4233 153.821L74.5685 148.932L43.6093 147.64Z" fill="white"/>
<path d="M43.6093 147.64L43.406 152.135L43.377 152.866V152.894C43.3479 153.568 43.6384 154.243 44.3063 154.636L55.2844 161.38C57.0559 162.475 59.2922 162.588 61.1509 161.66L73.2326 155.788C73.9877 155.423 74.4523 154.524 74.4233 153.821L74.5685 148.932" stroke="#1C1D22" stroke-miterlimit="10"/>
<path d="M44.5399 149.382L55.5179 156.125C57.2895 157.221 59.5258 157.333 61.3845 156.406L73.4661 150.534C74.8602 149.859 74.9473 147.949 73.6113 147.162L62.1106 140.334C60.3099 139.267 58.0737 139.182 56.1859 140.138L44.6561 146.038C43.3201 146.741 43.233 148.595 44.5399 149.382Z" fill="white" stroke="#1C1D22" stroke-miterlimit="10"/>
<path d="M43.6093 139.127L43.406 143.623L43.377 144.353V144.381C43.3479 145.056 43.6384 145.73 44.3063 146.123L55.2844 152.867C57.0559 153.963 59.2922 154.075 61.1509 153.148L73.2326 147.275C73.9877 146.91 74.4523 146.011 74.4233 145.308L74.5685 140.419L43.6093 139.127Z" fill="white"/>
<path d="M43.6093 139.127L43.406 143.623L43.377 144.353V144.381C43.3479 145.056 43.6384 145.73 44.3063 146.123L55.2844 152.867C57.0559 153.963 59.2922 154.075 61.1509 153.148L73.2326 147.275C73.9877 146.91 74.4523 146.011 74.4233 145.308L74.5685 140.419" stroke="#1C1D22" stroke-miterlimit="10"/>
<path d="M44.5399 140.869L55.5179 147.613C57.2895 148.708 59.5258 148.821 61.3845 147.894L73.4661 142.021C74.8602 141.347 74.9473 139.436 73.6113 138.649L62.1106 131.822C60.3099 130.754 58.0737 130.67 56.1859 131.625L44.6561 137.525C43.3201 138.228 43.233 140.082 44.5399 140.869Z" fill="white" stroke="#1C1D22" stroke-miterlimit="10"/>
<path d="M43.5511 130.275L43.4059 134.771L43.3768 135.502V135.53C43.3478 136.204 43.6672 136.878 44.3352 137.272L55.4004 143.875C57.1719 144.942 59.4082 145.027 61.296 144.071L73.2905 138.03C74.0456 137.637 74.5103 136.766 74.4522 136.035L74.5393 131.146L43.5511 130.275Z" fill="white"/>
<path d="M43.5511 130.275L43.4059 134.771L43.3768 135.502V135.53C43.3478 136.204 43.6672 136.878 44.3352 137.272L55.4004 143.875C57.1719 144.942 59.4082 145.027 61.296 144.071L73.2905 138.03C74.0456 137.637 74.5103 136.766 74.4522 136.035L74.5393 131.146" stroke="#1C1D22" stroke-miterlimit="10"/>
<path d="M44.5127 132.017L55.5779 138.62C57.3785 139.688 59.5857 139.772 61.4735 138.817L73.468 132.776C74.862 132.073 74.9201 130.162 73.5551 129.404L61.9672 122.717C60.1666 121.677 57.9013 121.621 56.0425 122.604L44.5998 128.645C43.2639 129.376 43.2058 131.23 44.5127 132.017Z" fill="white" stroke="#1C1D22" stroke-miterlimit="10"/>
<path d="M58.3028 124.825L69.1356 130.248C69.5422 130.444 69.5422 130.838 69.1356 131.034L59.6387 136.064C59.2902 136.261 58.7674 136.233 58.448 136.064L48.3993 130.332C48.0799 130.135 48.1089 129.798 48.4864 129.601L57.1992 124.881C57.4896 124.684 57.9833 124.684 58.3028 124.825Z" fill="white" stroke="#1C1D22" stroke-miterlimit="10" stroke-linecap="round" stroke-linejoin="round"/>
<path d="M58.419 126.117L59.6969 126.792C59.9583 126.932 59.9583 127.185 59.6678 127.326L52.8719 131.007C52.6396 131.147 52.2911 131.147 52.0587 131.007L50.7809 130.332C50.5485 130.192 50.5485 129.939 50.839 129.798L57.6058 126.117C57.8382 126.005 58.1867 126.005 58.419 126.117Z" fill="white" stroke="#138BE1" stroke-width="0.8" stroke-miterlimit="10" stroke-linecap="round" stroke-linejoin="round"/>
<path d="M56.5017 131.232L57.3439 131.71C57.5182 131.822 57.5182 131.991 57.3149 132.075L56.1241 132.693C55.9499 132.778 55.7175 132.778 55.5723 132.693L54.7011 132.244C54.5268 132.131 54.5558 131.963 54.7301 131.878L55.9499 131.232C56.1241 131.148 56.3565 131.148 56.5017 131.232Z" fill="white" stroke="#1C1D22" stroke-width="0.8" stroke-miterlimit="10" stroke-linecap="round" stroke-linejoin="round"/>
<path d="M59.2306 129.714L60.1019 130.192C60.2762 130.276 60.2762 130.473 60.0729 130.557L58.8821 131.204C58.7079 131.288 58.4755 131.288 58.3303 131.204L57.43 130.754C57.2557 130.67 57.2558 130.473 57.459 130.389L58.6788 129.742C58.824 129.63 59.0564 129.63 59.2306 129.714Z" fill="white" stroke="#1C1D22" stroke-width="0.8" stroke-miterlimit="10" stroke-linecap="round" stroke-linejoin="round"/>
<path d="M61.965 128.253L62.8363 128.73C63.0105 128.815 63.0105 129.011 62.8363 129.096L61.6455 129.742C61.4713 129.826 61.2389 129.826 61.0937 129.742L60.1644 129.292C59.9901 129.208 59.9901 129.039 60.1934 128.927L61.4422 128.253C61.5584 128.168 61.7908 128.168 61.965 128.253Z" fill="white" stroke="#1C1D22" stroke-width="0.8" stroke-miterlimit="10" stroke-linecap="round" stroke-linejoin="round"/>
<path d="M59.0275 132.833L59.8988 133.339C60.073 133.451 60.073 133.619 59.8697 133.704L58.679 134.35C58.5047 134.434 58.2724 134.434 58.1272 134.35L57.2269 133.872C57.0526 133.76 57.0526 133.591 57.2559 133.507L58.5047 132.833C58.6209 132.748 58.8532 132.748 59.0275 132.833Z" fill="white" stroke="#1C1D22" stroke-width="0.8" stroke-miterlimit="10" stroke-linecap="round" stroke-linejoin="round"/>
<path d="M61.7851 131.315L62.6563 131.793C62.8306 131.905 62.8306 132.074 62.6563 132.158L61.4366 132.804C61.2623 132.889 61.03 132.889 60.8848 132.804L59.9554 132.327C59.7811 132.214 59.7811 132.046 59.9844 131.962L61.2333 131.287C61.3785 131.231 61.6108 131.231 61.7851 131.315Z" fill="white" stroke="#1C1D22" stroke-width="0.8" stroke-miterlimit="10" stroke-linecap="round" stroke-linejoin="round"/>
<path d="M64.5443 129.826L65.4447 130.304C65.6189 130.416 65.6189 130.585 65.4447 130.669L64.2249 131.315C64.0506 131.399 63.8183 131.399 63.644 131.315L62.7147 130.866C62.5404 130.753 62.5404 130.585 62.7147 130.5L63.9635 129.826C64.1377 129.742 64.3991 129.742 64.5443 129.826Z" fill="white" stroke="#138BE1" stroke-width="0.8" stroke-miterlimit="10" stroke-linecap="round" stroke-linejoin="round"/>
<path d="M47.0347 164.948L49.5614 164.302C49.9389 164.218 50.2874 164.049 50.6359 163.824C50.8973 163.628 51.1877 163.403 51.2748 163.122L57.1995 146.376C57.6932 144.971 56.9962 143.369 55.6312 142.779L40.5872 136.345C40.2387 136.204 39.8612 136.176 39.5417 136.26C39.4836 136.288 39.3965 136.288 39.3384 136.317L36.0566 137.44L47.0347 164.948Z" fill="white"/>
<path d="M36.518 137.722L51.3006 144.1C52.6366 144.69 53.3336 146.263 52.8689 147.64L47.1185 164.19C46.799 165.117 45.8116 165.51 44.8822 165.061L30.5353 158.205C29.3155 157.615 28.6766 156.098 29.0832 154.833L34.3689 138.733C34.6884 137.806 35.6468 137.356 36.518 137.722Z" fill="white" stroke="#1C1D22" stroke-miterlimit="10"/>
<path d="M46.1326 165.201L49.9662 164.218C50.3437 164.133 50.6922 163.965 51.0407 163.74C51.3021 163.543 51.5925 163.319 51.6797 163.038L57.6334 146.263C58.1271 144.858 57.4301 143.257 56.0651 142.667L41.0211 136.232C40.6726 136.092 40.2951 136.064 39.9756 136.148C39.9175 136.176 39.8304 136.176 39.7723 136.204L35.1836 137.75" stroke="#1C1D22" stroke-miterlimit="10"/>
<path d="M38.375 143.116L47.0878 146.881C47.8719 147.218 48.2785 148.174 48.0171 148.96L44.6482 158.71C44.4739 159.244 43.864 159.497 43.3413 159.216L34.89 155.17C34.1639 154.833 33.7863 153.934 34.0477 153.175L37.1553 143.706C37.3005 143.172 37.8523 142.891 38.375 143.116Z" fill="white" stroke="#1C1D22" stroke-miterlimit="10"/>
<path d="M36.3164 146.15L47.2944 150.983" stroke="#1C1D22" stroke-miterlimit="10"/>
<path d="M40.8414 151.067L39.6797 154.327" stroke="#1C1D22" stroke-miterlimit="10" stroke-linecap="round"/>
<path d="M38.842 150.534L36.6348 151.237L37.5641 152.979" fill="white"/>
<path d="M38.842 150.534L36.6348 151.237L37.5641 152.979" stroke="#1C1D22" stroke-miterlimit="10" stroke-linecap="round" stroke-linejoin="round"/>
<path d="M43.0496 152.304L43.8918 154.327L41.8008 154.776" fill="white"/>
<path d="M43.0496 152.304L43.8918 154.327L41.8008 154.776" stroke="#1C1D22" stroke-miterlimit="10" stroke-linecap="round" stroke-linejoin="round"/>
<path d="M44.0117 147.556L45.8995 148.427" stroke="#1C1D22" stroke-miterlimit="10" stroke-linecap="round" stroke-linejoin="round"/>
<path d="M56.0447 37.4722L53.0435 38.2502L50.7102 41.9671L57.0681 41.1676L58.0106 38.2357L56.0447 37.4722Z" fill="white"/>
<path d="M57.8866 40.9553L54.8855 41.7333L55.2902 45.3062L58.2378 45.3908C58.9349 44.2735 59.158 43.661 59.2168 42.5909L57.8866 40.9553Z" fill="white"/>
<path d="M57.9098 38.4038C54.6711 37.1648 52.7874 39.5381 50.8824 42.0644L51.2382 42.8209C53.0361 47.73 58.1442 44.0011 58.8508 41.2718C59.5574 38.5425 58.5336 38.7394 57.9098 38.4038Z" fill="white"/>
<path d="M55.2192 45.1492C56.2485 45.9269 57.6346 45.9174 58.5218 45.0765C59.4091 44.2356 59.4873 42.8276 58.7815 41.7385C58.2029 43.2515 56.7474 44.6523 55.2192 45.1492Z" stroke="#1C1D22" stroke-miterlimit="10" stroke-linecap="round" stroke-linejoin="round"/>
<path d="M51.7019 43.8172L52.6912 44.8694C53.1362 45.3488 53.8772 45.5673 54.8021 45.3907C54.9627 45.3671 55.1278 45.3131 55.2929 45.2591C56.8179 44.7638 58.2727 43.3776 58.843 41.8511C58.9044 41.6901 58.9527 41.5322 58.9881 41.3774C59.2262 40.4424 59.0557 39.678 58.5935 39.188L57.6041 38.1358C57.6862 38.2187 57.7596 38.3183 57.8199 38.421C57.8415 38.4451 57.8458 38.4588 57.8544 38.486C57.8629 38.5132 57.8802 38.5237 57.8888 38.551C57.8974 38.5782 57.919 38.6023 57.9275 38.6296C57.9361 38.6568 57.9404 38.6704 57.949 38.6976C58.0091 38.8443 58.0432 38.9972 58.0643 39.1532C58.0684 39.2108 58.0855 39.2652 58.0766 39.3259C58.0762 39.4138 58.0801 39.5153 58.0798 39.6032C58.0794 39.6912 58.0703 39.7958 58.0612 39.9004C58.0566 39.9747 58.0346 40.0385 58.0257 40.0992C58.0211 40.1735 57.9991 40.2373 57.9814 40.3147C57.9286 40.5029 57.8758 40.6912 57.7926 40.872C57.214 42.3273 55.8245 43.654 54.3559 44.1505C54.169 44.2243 53.9736 44.2709 53.7739 44.3039C53.7218 44.3163 53.6827 44.3256 53.6263 44.3244C53.6002 44.3306 53.5872 44.3338 53.5611 44.34C53.4787 44.345 53.3875 44.3667 53.305 44.3718C53.2789 44.378 53.2486 44.3706 53.2225 44.3768C53.2095 44.3799 53.1922 44.3694 53.1792 44.3725C53.1488 44.3651 53.1228 44.3713 53.0967 44.3775C53.0664 44.3701 53.0273 44.3794 52.9969 44.372C52.9666 44.3646 52.9405 44.3708 52.9102 44.3634C52.8799 44.356 52.8538 44.3622 52.8235 44.3548C52.7801 44.3505 52.7367 44.3462 52.6933 44.3419C52.663 44.3345 52.6327 44.3271 52.6023 44.3197C52.572 44.3123 52.5416 44.3049 52.5113 44.2975C52.481 44.2901 52.4506 44.2827 52.4203 44.2753C52.3726 44.2574 52.3292 44.2531 52.2946 44.2321C52.2643 44.2247 52.247 44.2142 52.2123 44.1931C52.1604 44.1616 52.0954 44.1332 52.0435 44.1017C52.0262 44.0912 52.0089 44.0806 51.9873 44.0565C51.9353 44.025 51.8964 43.9904 51.8445 43.9588C51.8229 43.9347 51.8056 43.9242 51.784 43.9001C51.7667 43.8896 51.7278 43.8549 51.7019 43.8172Z" stroke="#1C1D22" stroke-width="0.8" stroke-miterlimit="10" stroke-linecap="round" stroke-linejoin="round"/>
<path d="M51.2525 42.45C51.2415 43.0383 51.4261 43.536 51.7458 43.8844C51.7717 43.9222 51.8107 43.9568 51.8453 43.9779C51.8669 44.002 51.8842 44.0125 51.9058 44.0366C51.9447 44.0713 51.9967 44.1028 52.0486 44.1344C52.0659 44.1449 52.0833 44.1554 52.1049 44.1795C52.1568 44.2111 52.2088 44.2426 52.2738 44.271C52.3041 44.2784 52.3257 44.3026 52.3561 44.31C52.4037 44.3279 52.4384 44.3489 52.4817 44.3532C52.5121 44.3606 52.5424 44.368 52.5728 44.3755C52.6031 44.3829 52.6335 44.3903 52.6638 44.3977C52.6942 44.4051 52.7245 44.4125 52.7549 44.4199C52.7983 44.4242 52.8416 44.4285 52.885 44.4328C52.9154 44.4402 52.9457 44.4476 52.9718 44.4414C53.0021 44.4488 53.0282 44.4426 53.0586 44.45C53.0889 44.4574 53.128 44.4481 53.1584 44.4555C53.1887 44.4629 53.2148 44.4567 53.2408 44.4505C53.2539 44.4474 53.2712 44.4579 53.2842 44.4548C53.3103 44.4485 53.3406 44.4559 53.3667 44.4497C53.4492 44.4447 53.5317 44.4397 53.6229 44.4179C53.6489 44.4117 53.662 44.4086 53.688 44.4024C53.7271 44.3931 53.7836 44.3943 53.8357 44.3819C54.0354 44.3489 54.2266 44.2886 54.4178 44.2284C55.8825 43.7182 57.2592 42.3943 57.8553 40.9491C57.9385 40.7682 57.9913 40.5799 58.0441 40.3916C58.0618 40.3142 58.0838 40.2504 58.0884 40.176C58.0973 40.1153 58.115 40.0379 58.1239 39.9772C58.133 39.8726 58.1464 39.7815 58.1425 39.68C58.1385 39.5784 58.1389 39.4905 58.1393 39.4025C58.1352 39.3449 58.131 39.2874 58.1269 39.2298C58.1059 39.0737 58.0675 38.9072 58.0116 38.7741C58.003 38.7468 57.9987 38.7332 57.9902 38.706C57.9816 38.6787 57.973 38.6515 57.9514 38.6274C57.9471 38.6137 57.9255 38.5896 57.917 38.5624C57.9084 38.5351 57.8868 38.511 57.8825 38.4974C57.8222 38.3946 57.7488 38.295 57.6667 38.2121C57.3469 37.8637 56.8747 37.6541 56.2933 37.6317" stroke="#1C1D22" stroke-width="0.8" stroke-miterlimit="10" stroke-linecap="round" stroke-linejoin="round"/>
<path d="M51.4484 41.5367C51.4657 41.5473 51.5005 41.5684 51.5178 41.5789C53.1772 43.3713 57.0609 39.6847 55.3885 37.8954C55.3668 37.8712 55.3582 37.8439 55.3453 37.8029" stroke="#1C1D22" stroke-miterlimit="10" stroke-linecap="round" stroke-linejoin="round"/>
<path d="M56.4143 37.5652C56.431 37.5755 56.4352 37.5888 56.4393 37.6022C56.456 37.6125 56.4643 37.6391 56.481 37.6494C56.481 37.6494 56.481 37.6494 56.4852 37.6628L56.4978 37.6597L56.4143 37.5652Z" stroke="#1C1D22" stroke-miterlimit="10" stroke-linecap="round" stroke-linejoin="round"/>
<path d="M50.9846 42.4353L51.0681 42.5299L51.064 42.5165C51.0431 42.4929 51.0222 42.4692 50.9846 42.4353Z" stroke="#1C1D22" stroke-miterlimit="10" stroke-linecap="round" stroke-linejoin="round"/>
<path d="M50.741 41.1681C50.9878 41.2849 51.2217 41.4049 51.451 41.5552C51.4683 41.5657 51.503 41.5868 51.5203 41.5973C53.1751 43.3844 57.047 39.7094 55.3792 37.9255C55.3576 37.9013 55.349 37.8741 55.3362 37.8332C55.2026 37.5869 55.0952 37.3343 54.9877 37.0818" stroke="#1C1D22" stroke-miterlimit="10" stroke-linecap="round" stroke-linejoin="round"/>
<path d="M43.3791 35.6574L39.6989 36.6914C40.6391 37.9193 41.2566 38.4792 42.4987 39.2776C45.5745 40.9083 48.8935 40.554 51.7083 41.803L52.1449 42.2906L53.2512 42.1725L54.5005 41.1309L55.4412 40.0154L55.5415 38.954L54.854 37.193L43.3791 35.6574Z" fill="white"/>
<path d="M50.5993 41.3923C49.673 40.9666 48.6606 40.7681 47.6585 40.8326C45.8915 40.9486 44.0476 40.4933 42.4343 39.4516" stroke="#1C1D22" stroke-miterlimit="10" stroke-linecap="round" stroke-linejoin="round"/>
<path d="M51.5944 42.8331C51.6159 42.857 51.6546 42.8914 51.6891 42.9121C51.7623 42.9673 51.8356 43.0224 51.9046 43.0639C51.9219 43.0743 51.9564 43.0951 51.9867 43.1024C52.017 43.1096 52.0385 43.1335 52.0688 43.1408C52.0819 43.1376 52.0861 43.1512 52.0861 43.1512C52.1164 43.1584 52.1336 43.1688 52.164 43.1761C52.2419 43.201 52.3329 43.2227 52.4066 43.2341C52.4369 43.2413 52.4672 43.2486 52.4934 43.2423C52.5237 43.2495 52.5671 43.2536 52.6105 43.2578C52.7103 43.2628 52.8232 43.2647 52.9492 43.2635C53.0057 43.2645 53.0579 43.2519 53.1144 43.2529C53.1405 43.2466 53.1708 43.2539 53.197 43.2476C53.2231 43.2413 53.2362 43.2381 53.2623 43.2319C53.2884 43.2256 53.3015 43.2224 53.3276 43.2161C53.3799 43.2036 53.4322 43.191 53.4713 43.1816C53.5236 43.169 53.5759 43.1564 53.6151 43.147C53.6543 43.1376 53.7065 43.125 53.7415 43.102C53.7677 43.0957 53.8069 43.0863 53.8419 43.0634C53.9291 43.0278 54.0164 42.9923 54.0906 42.9599C54.1298 42.9505 54.1648 42.9275 54.1998 42.9045L54.2129 42.9014C54.2521 42.892 54.2871 42.869 54.3221 42.846C54.3482 42.8398 54.3571 42.8231 54.3832 42.8168C54.4182 42.7938 54.4532 42.7709 54.4924 42.7614C54.5405 42.7353 54.5885 42.7092 54.6366 42.6831C54.6847 42.657 54.7327 42.6309 54.7897 42.5881C54.8116 42.5683 54.8466 42.5453 54.8686 42.5255C55.0436 42.4107 55.2144 42.2823 55.3679 42.1436C55.403 42.1206 55.4338 42.0841 55.4557 42.0643C55.4996 42.0246 55.5434 41.985 55.5873 41.9454C55.6181 41.9089 55.662 41.8692 55.6928 41.8327C55.8291 41.6836 55.9654 41.5344 56.0975 41.3718C56.1283 41.3353 56.1591 41.2988 56.1769 41.2654C56.2077 41.2289 56.2385 41.1924 56.252 41.1455C56.2786 41.0955 56.3225 41.0558 56.3491 41.0058C56.442 40.8525 56.5349 40.6993 56.6106 40.5357C56.6283 40.5023 56.6372 40.4856 56.6549 40.4523C56.6727 40.4189 56.6904 40.3856 56.6951 40.3553C56.704 40.3387 56.704 40.3387 56.6998 40.3251C56.7264 40.2751 56.7399 40.2282 56.7535 40.1813C56.7535 40.1813 56.7535 40.1813 56.7493 40.1678C56.7629 40.1209 56.7895 40.0708 56.7988 40.0104C56.8212 39.9468 56.8306 39.8864 56.853 39.8228C56.8895 39.6686 56.917 39.5311 56.9404 39.38C56.9498 39.3196 56.9461 39.2623 56.9466 39.2186C56.9536 38.9696 56.9257 38.7436 56.867 38.5541C56.8586 38.527 56.8502 38.5 56.8418 38.4729C56.8335 38.4458 56.8251 38.4188 56.8036 38.3948C56.757 38.2897 56.7015 38.2012 56.646 38.1128C56.646 38.1128 56.646 38.1128 56.6418 38.0992C56.6246 38.0888 56.6162 38.0618 56.5989 38.0514C56.5817 38.041 56.5775 38.0274 56.5733 38.0139C56.556 38.0035 56.5518 37.99 56.5346 37.9796C56.2598 37.682 55.4239 37.0686 54.9158 37.0599C55.0086 37.314 55.1275 37.5617 55.2594 37.8063C55.2809 37.8303 55.2893 37.8573 55.3019 37.8979C56.9459 39.6696 53.057 43.3394 51.4129 41.5678C51.3956 41.5574 51.3611 41.5366 51.3438 41.5262C51.1153 41.3776 50.882 41.2591 50.6357 41.1438C50.7125 41.6635 51.2894 42.5283 51.5944 42.8331Z" stroke="#1C1D22" stroke-width="0.8" stroke-miterlimit="10" stroke-linecap="round" stroke-linejoin="round"/>
<path d="M55.2491 37.5037C54.8955 36.5882 54.7592 35.6059 54.8995 34.6585C55.2557 32.1946 54.467 29.5131 52.5547 27.45C49.1362 23.7772 43.5103 23.5938 40.4612 27.2569C38.1885 29.9935 38.181 34.2153 40.4626 37.3351" fill="white"/>
<path d="M55.2491 37.5037C54.8955 36.5882 54.7592 35.6059 54.8995 34.6585C55.2557 32.1946 54.467 29.5131 52.5547 27.45C49.1362 23.7772 43.5103 23.5938 40.4612 27.2569C38.1885 29.9935 38.181 34.2153 40.4626 37.3351" stroke="#1C1D22" stroke-miterlimit="10" stroke-linecap="round" stroke-linejoin="round"/>
<path d="M47.3094 25.8701C48.2522 25.9364 49.1619 26.1723 50.0426 26.5914" stroke="#1C1D22" stroke-miterlimit="10" stroke-linecap="round" stroke-linejoin="round"/>
<path d="M42.0875 27.808C43.094 26.8474 44.3486 26.2361 45.7394 26.032" stroke="#1C1D22" stroke-miterlimit="10" stroke-linecap="round" stroke-linejoin="round"/>
<path d="M54.5621 39.4077C54.5194 39.36 50.0604 34.5038 49.8681 32.377C49.8642 32.32 49.8173 32.2588 49.7573 32.2443C49.6972 32.2297 49.6368 32.2586 49.6149 32.3218C49.3653 33.0335 48.9494 33.5242 48.3719 33.7639C47.51 34.1153 46.2777 33.947 44.7136 33.2498C44.6493 33.2217 44.576 33.2538 44.5541 33.317C44.5322 33.3801 44.5575 33.461 44.6218 33.4891C44.6689 33.5067 49.1565 36.0095 52.2707 40.1595" stroke="#1C1D22" stroke-miterlimit="10" stroke-linecap="round" stroke-linejoin="round"/>
</svg>
