<svg width="368" height="192" viewBox="0 0 368 192" fill="none" xmlns="http://www.w3.org/2000/svg">
<g clip-path="url(#clip0_5044_4573)">
<rect width="368" height="192" rx="28" fill="#F8F8F8"/>
<g filter="url(#filter0_f_5044_4573)">
<path fill-rule="evenodd" clip-rule="evenodd" d="M267.537 -123.254C288.429 -114.396 288.592 -73.2773 300.888 -49.3713C309.902 -31.8456 320.2 -16.7562 330.548 -0.751536C344.22 20.3965 364.629 33.6979 372.026 60.6632C380.274 90.7293 387.76 128.696 374.478 159.388C360.963 190.617 326.945 189.41 306.266 212.622C285.955 235.42 277.844 275.316 255.297 293.162C231.796 311.762 199.741 330.386 179.118 313.259C155.549 293.684 167.731 236.352 151.035 206.57C139.445 185.897 114.85 188.166 99.9223 171.999C80.1095 150.54 41.755 133.197 49.4589 96.5581C58.3215 54.4086 112.327 60.2518 131.22 23.1496C146.135 -6.14128 120.092 -49.7703 137.574 -76.485C153.78 -101.25 182.575 -81.7842 205.22 -89.9333C226.77 -97.6885 247.708 -131.662 267.537 -123.254Z" fill="#79CAF8" fill-opacity="0.5"/>
</g>
<g filter="url(#filter1_d_5044_4573)">
<path d="M62.2093 66.1513C61.6094 57.572 68.0779 50.1308 76.6572 49.5309L283.705 35.0527C292.284 34.4528 299.725 40.9213 300.325 49.5006L305.607 125.036C306.207 133.616 299.738 141.057 291.159 141.657L84.1117 156.135C75.5324 156.735 68.0912 150.266 67.4913 141.687L62.2093 66.1513Z" fill="white"/>
</g>
<g filter="url(#filter2_d_5044_4573)">
<path d="M69.1637 48.7587C69.7637 40.1795 77.2049 33.7109 85.7841 34.3109L286.9 48.3743C295.479 48.9742 301.948 56.4154 301.348 64.9947L296.066 140.526C295.466 149.105 288.025 155.574 279.446 154.974L78.33 140.911C69.7507 140.311 63.2822 132.869 63.8821 124.29L69.1637 48.7587Z" fill="white" shape-rendering="crispEdges"/>
<path d="M186.435 117.777C186.595 115.493 188.577 113.77 190.861 113.93L241.631 117.481C243.916 117.64 245.638 119.622 245.478 121.906C245.318 124.191 243.337 125.913 241.053 125.753L190.282 122.203C187.998 122.043 186.276 120.061 186.435 117.777Z" fill="#EAEDEF"/>
<path d="M185.568 130.187C185.728 127.902 187.709 126.18 189.994 126.34L231.575 129.248C233.86 129.407 235.582 131.389 235.422 133.673C235.263 135.958 233.281 137.68 230.997 137.52L189.415 134.612C187.131 134.453 185.408 132.471 185.568 130.187Z" fill="#EAEDEF"/>
<path d="M143.918 64.668C144.051 62.771 145.696 61.3408 147.593 61.4735L199.8 65.1248C201.697 65.2575 203.127 66.9028 202.994 68.7997C202.862 70.6966 201.216 72.1268 199.319 71.9941L147.112 68.3428C145.216 68.2102 143.785 66.5649 143.918 64.668Z" fill="#DADEE0"/>
<path d="M143.077 76.6833C143.276 73.8379 145.744 71.6926 148.59 71.8916L250.943 79.05C253.788 79.249 255.934 81.717 255.735 84.5624C255.536 87.4078 253.068 89.5531 250.222 89.3541L147.869 82.1956C145.023 81.9966 142.878 79.5286 143.077 76.6833Z" fill="#EAEDEF"/>
<path d="M77.158 110.136C77.3177 107.852 79.2992 106.13 81.5836 106.289L157.667 111.61C159.952 111.77 161.674 113.752 161.514 116.036C161.355 118.321 159.373 120.043 157.089 119.883L81.005 114.562C78.7206 114.402 76.9982 112.421 77.158 110.136Z" fill="#EAEDEF"/>
<path d="M76.2908 122.546C76.4506 120.262 78.432 118.54 80.7164 118.699L93.7787 119.613C96.0632 119.773 97.7856 121.754 97.6258 124.039C97.466 126.323 95.4846 128.045 93.2001 127.886L80.1378 126.972C77.8534 126.812 76.131 124.831 76.2908 122.546Z" fill="#EAEDEF"/>
<path d="M102.797 124.4C102.956 122.115 104.938 120.393 107.222 120.553L120.285 121.466C122.569 121.626 124.291 123.608 124.132 125.892C123.972 128.176 121.99 129.899 119.706 129.739L106.644 128.826C104.359 128.666 102.637 126.684 102.797 124.4Z" fill="#EAEDEF"/>
<path d="M128.283 99.293C119.542 98.692 110.802 98.0808 102.062 97.4594C97.6169 97.1486 93.1819 96.8385 88.7369 96.5277C85.9065 96.3297 79.6448 97.2211 78.5477 93.8622C78.2252 92.8888 78.2985 91.8408 78.3696 90.8233C78.9986 81.8286 79.6268 72.8441 80.2558 63.8495C80.5703 59.3521 80.8848 54.8548 81.1985 50.3676C81.3835 47.7221 80.8516 42.4397 85.1371 42.7393C99.9485 43.7546 114.772 44.74 129.586 45.7146C134.073 46.0079 135.29 48.0766 135.003 52.1771C134.693 56.8997 134.343 61.6195 134.013 66.3406C133.576 72.5881 133.258 78.854 132.801 85.1001C132.573 88.2231 132.305 91.3433 131.957 94.458C131.71 96.6902 131.384 99.4996 128.284 99.2828L128.283 99.293Z" fill="#B8DCF6"/>
<path d="M121.177 90.5141C115.316 90.1138 109.456 89.6945 103.596 89.2847C100.62 89.0766 97.6429 88.8684 94.6661 88.6603C92.7625 88.5271 88.5667 89.1241 87.8335 86.8709C87.6168 86.2144 87.6654 85.5189 87.7134 84.833C88.1351 78.8025 88.5561 72.7816 88.9778 66.7512C89.1883 63.7407 89.3995 60.7207 89.61 57.7102C89.7339 55.9383 89.3812 52.4002 92.2559 52.5916C102.186 53.2669 112.117 53.9326 122.048 54.5887C125.053 54.7893 125.866 56.1768 125.674 58.9205C125.472 62.0847 125.232 65.2463 125.011 68.4092C124.717 72.601 124.508 76.7986 124.197 80.9891C124.05 83.085 123.857 85.1776 123.636 87.2683C123.474 88.7696 123.249 90.6494 121.177 90.5045L121.177 90.5141Z" stroke="white" stroke-width="2" stroke-miterlimit="10"/>
<path d="M100.941 71.8754C100.587 71.4709 100.43 70.9841 100.469 70.4151C100.508 69.846 100.73 69.3862 101.135 69.0355C101.545 68.6815 102.045 68.524 102.635 68.5631C103.3 68.607 103.793 68.8788 104.116 69.3783C104.263 69.6001 104.361 69.8439 104.41 70.1096L103.592 70.0555C103.555 69.9308 103.492 69.8152 103.404 69.7087C103.198 69.4686 102.925 69.3372 102.584 69.3147C102.239 69.2919 101.946 69.3893 101.705 69.6071C101.468 69.8215 101.337 70.1094 101.312 70.4709C101.287 70.8467 101.373 71.1544 101.572 71.3941C101.775 71.6304 102.056 71.7604 102.414 71.7841C102.773 71.8078 103.07 71.7017 103.305 71.4656C103.411 71.354 103.492 71.2335 103.547 71.1041L104.364 71.1581C104.264 71.4355 104.126 71.678 103.949 71.8856C103.535 72.3616 103.006 72.5783 102.363 72.5357C101.772 72.4966 101.298 72.2765 100.941 71.8754Z" fill="white"/>
<path d="M104.767 72.5869L105.025 68.829L106.739 68.9424C107.179 68.9715 107.525 69.122 107.778 69.394C108.035 69.6627 108.151 69.9832 108.125 70.3554C108.1 70.7276 107.941 71.0317 107.65 71.2676C107.362 71.5002 106.998 71.602 106.559 71.5729L105.636 71.5119L105.558 72.6393L104.767 72.5869ZM105.687 70.7603L106.584 70.8196C106.802 70.834 106.974 70.7933 107.101 70.6974C107.227 70.6015 107.296 70.4695 107.308 70.3013C107.32 70.1331 107.269 69.9931 107.157 69.8814C107.044 69.7697 106.879 69.7067 106.661 69.6923L105.765 69.6329L105.687 70.7603Z" fill="white"/>
<path d="M108.535 71.3531L108.691 69.0716L109.482 69.1239L109.326 71.4055C109.308 71.6632 109.364 71.8718 109.495 72.0314C109.629 72.1877 109.817 72.2739 110.06 72.2899C110.302 72.306 110.499 72.2453 110.65 72.1078C110.804 71.9671 110.89 71.7678 110.908 71.5101L111.064 69.2286L111.856 69.2809L111.699 71.5625C111.666 72.0456 111.497 72.4209 111.193 72.6884C110.888 72.9559 110.493 73.0736 110.008 73.0415C109.523 73.0094 109.148 72.8408 108.883 72.5356C108.618 72.2305 108.502 71.8363 108.535 71.3531Z" fill="white"/>
<path d="M94.7467 66.4706L95.1624 60.5259C95.2503 59.2684 96.3207 58.3093 97.5618 58.3961L104.588 58.8875" stroke="white" stroke-width="2" stroke-miterlimit="10"/>
<path d="M101.749 84.0659L96.1597 83.675C94.9279 83.5889 93.9914 82.499 94.08 81.232L94.4551 75.8684" stroke="white" stroke-width="2" stroke-miterlimit="10"/>
<path d="M118.304 77.0742L117.939 82.2949C117.851 83.5524 116.781 84.5115 115.54 84.4247L111.303 84.1284" stroke="white" stroke-width="2" stroke-miterlimit="10"/>
<path d="M111.098 59.5657L116.976 59.9768C118.208 60.0629 119.145 61.1527 119.056 62.4198L118.752 66.764" stroke="white" stroke-width="2" stroke-miterlimit="10"/>
<ellipse cx="271.952" cy="121.86" rx="12.4893" ry="11.8648" transform="rotate(11.7359 271.952 121.86)" fill="#B8DCF6"/>
<ellipse cx="271.952" cy="121.86" rx="7.92943" ry="7.53295" transform="rotate(11.7359 271.952 121.86)" fill="#138BE1"/>
<path fill-rule="evenodd" clip-rule="evenodd" d="M270.581 131.28L265.696 127.156L256.264 137.145L261.491 137.967L262.945 142.784L269.67 135.661L273.003 144.874L276.255 141.034L281.377 142.362L276.704 129.443L270.581 131.28Z" fill="#B8DCF6"/>
</g>
</g>
<defs>
<filter id="filter0_f_5044_4573" x="-167.668" y="-340.701" width="765.515" height="876.842" filterUnits="userSpaceOnUse" color-interpolation-filters="sRGB">
<feFlood flood-opacity="0" result="BackgroundImageFix"/>
<feBlend mode="normal" in="SourceGraphic" in2="BackgroundImageFix" result="shape"/>
<feGaussianBlur stdDeviation="108.059" result="effect1_foregroundBlur_5044_4573"/>
</filter>
<filter id="filter1_d_5044_4573" x="42.8343" y="19.1154" width="282.148" height="159.832" filterUnits="userSpaceOnUse" color-interpolation-filters="sRGB">
<feFlood flood-opacity="0" result="BackgroundImageFix"/>
<feColorMatrix in="SourceAlpha" type="matrix" values="0 0 0 0 0 0 0 0 0 0 0 0 0 0 0 0 0 0 127 0" result="hardAlpha"/>
<feOffset dy="3.43773"/>
<feGaussianBlur stdDeviation="9.14435"/>
<feComposite in2="hardAlpha" operator="out"/>
<feColorMatrix type="matrix" values="0 0 0 0 0 0 0 0 0 0 0 0 0 0 0 0 0 0 0.08 0"/>
<feBlend mode="normal" in2="BackgroundImageFix" result="effect1_dropShadow_5044_4573"/>
<feBlend mode="normal" in="SourceGraphic" in2="effect1_dropShadow_5044_4573" result="shape"/>
</filter>
<filter id="filter2_d_5044_4573" x="44.5062" y="18.3736" width="276.216" height="159.413" filterUnits="userSpaceOnUse" color-interpolation-filters="sRGB">
<feFlood flood-opacity="0" result="BackgroundImageFix"/>
<feColorMatrix in="SourceAlpha" type="matrix" values="0 0 0 0 0 0 0 0 0 0 0 0 0 0 0 0 0 0 127 0" result="hardAlpha"/>
<feOffset dy="3.43773"/>
<feGaussianBlur stdDeviation="9.14435"/>
<feComposite in2="hardAlpha" operator="out"/>
<feColorMatrix type="matrix" values="0 0 0 0 0 0 0 0 0 0 0 0 0 0 0 0 0 0 0.08 0"/>
<feBlend mode="normal" in2="BackgroundImageFix" result="effect1_dropShadow_5044_4573"/>
<feBlend mode="normal" in="SourceGraphic" in2="effect1_dropShadow_5044_4573" result="shape"/>
</filter>
<clipPath id="clip0_5044_4573">
<rect width="368" height="192" rx="28" fill="white"/>
</clipPath>
</defs>
</svg>
