<svg width="200" height="180" viewBox="0 0 200 180" fill="none" xmlns="http://www.w3.org/2000/svg">
<path d="M104.732 56.2388C102.936 59.445 101.139 61.1887 99.6788 60.9075C98.2189 60.57 97.2644 58.2075 96.9275 54.4388C96.4782 49.2639 97.0959 41.5578 98.8366 33.1204C100.465 25.3018 102.767 18.4394 105.069 13.8832C107.091 9.94574 109.112 7.69577 110.741 8.03327C112.369 8.37076 113.267 11.127 113.548 15.4582M88.0556 46.9577C84.6865 46.7327 82.4405 45.7765 81.9352 44.1452C81.4298 42.6265 82.4967 40.714 84.7427 38.6328C88.4487 35.2579 95.3552 31.4892 103.722 28.733C111.807 26.033 119.388 24.908 124.385 25.3018C127.642 25.583 129.832 26.483 130.337 28.1142C130.899 29.8017 129.495 31.9954 126.744 34.3016M89.7963 20.9143C90.1893 17.2581 91.5931 14.3894 94.0638 12.8707C97.0959 11.0145 101.251 11.5207 105.462 13.8832C110.123 16.4144 114.952 21.1956 118.714 27.4392C122.195 33.2329 124.217 39.1953 124.554 44.314C124.947 49.7139 123.543 54.1013 120.23 56.0701C117.479 57.7575 113.885 57.5325 110.123 55.7326M85.8096 27.4392C82.2159 29.6892 80.1383 32.5017 80.1945 35.4829C80.2506 38.4641 82.4405 41.164 86.0342 43.2452C90.7508 45.9452 97.7697 47.5764 105.687 47.4077C113.773 47.2389 120.96 45.1577 125.452 42.1203C128.709 39.9265 130.674 37.2266 130.562 34.3579C130.506 31.4329 128.428 28.7892 124.947 26.7642M90.5262 55.0013C96.6467 59.3325 108.101 53.7076 116.187 42.3453C124.273 30.9829 125.901 18.2706 119.837 13.8832C113.773 9.49574 102.262 15.1769 94.176 26.5392C86.0903 37.9016 84.4619 50.6701 90.5262 55.0013ZM119.051 18.7769C118.209 18.0456 117.31 17.4269 116.356 16.8644C113.211 14.9519 109.505 13.8832 105.519 13.8832C99.5665 13.8832 94.176 16.3581 90.3578 20.3518C89.1225 21.6456 88.0556 23.108 87.1572 24.6268C85.4165 27.7205 84.4058 31.2642 84.4058 35.0891C84.4058 46.7889 93.8953 56.2951 105.575 56.2951C117.254 56.2951 126.744 46.7889 126.744 35.0891C126.687 28.508 123.711 22.6581 119.051 18.7769Z" stroke="#138BE1" stroke-width="0.8" stroke-miterlimit="10" stroke-linecap="round" stroke-linejoin="round"/>
<path d="M90.3572 20.2958C89.1219 21.5895 88.055 23.052 87.1566 24.5707C87.0443 24.5707 86.932 24.5707 86.8197 24.5707C84.7983 24.5707 83.1699 22.9395 83.1699 20.9145C83.1699 18.8895 84.7983 17.2583 86.8197 17.2583C88.5604 17.3708 90.0203 18.6645 90.3572 20.2958ZM119.612 11.5771C117.59 11.5771 115.962 13.2084 115.962 15.2333C115.962 15.8521 116.13 16.4146 116.355 16.9208C117.31 17.4833 118.208 18.1583 119.05 18.8333C119.219 18.8895 119.387 18.8895 119.556 18.8895C121.577 18.8895 123.206 17.2583 123.206 15.2333C123.206 13.2084 121.577 11.5771 119.612 11.5771ZM108.831 50.3328C110.852 50.3328 112.481 48.7016 112.481 46.6766C112.481 44.6517 110.852 43.0204 108.831 43.0204C106.809 43.0204 105.181 44.6517 105.181 46.6766C105.237 48.7016 106.866 50.3328 108.831 50.3328Z" fill="white" stroke="#138BE1" stroke-width="0.8" stroke-miterlimit="10" stroke-linecap="round" stroke-linejoin="round"/>
<path d="M151.387 154.337V145.787H151.33C151.33 145.9 151.33 146.012 151.33 146.125C151.33 147.644 150.937 149.106 150.207 150.512C146.445 157.768 133.587 163.168 118.314 163.168C103.041 163.168 90.1259 157.825 86.4199 150.512C85.6899 149.106 85.2969 147.644 85.2969 146.125V154.956C85.2969 164.35 100.065 172 118.314 172C136.563 172 151.443 164.406 151.443 155.012L151.387 154.337ZM151.33 146.069C151.33 147.587 150.937 149.05 150.207 150.456C146.445 157.712 133.587 163.112 118.314 163.112C103.041 163.112 90.1259 157.768 86.4199 150.456C85.6899 149.05 85.2969 147.587 85.2969 146.069C85.2969 136.675 100.065 129.025 118.314 129.025C136.338 129.025 150.993 136.45 151.33 145.731C151.33 145.844 151.33 145.956 151.33 146.069Z" fill="white" stroke="#1C1D22" stroke-width="0.8" stroke-miterlimit="10"/>
<path d="M118.313 160.581C134.625 160.581 147.848 154.084 147.848 146.069C147.848 138.054 134.625 131.556 118.313 131.556C102.001 131.556 88.7773 138.054 88.7773 146.069C88.7773 154.084 102.001 160.581 118.313 160.581Z" fill="#F6F5F5" stroke="#1C1D22" stroke-width="0.8" stroke-miterlimit="10"/>
<path d="M118.314 157.656C131.184 157.656 141.617 152.468 141.617 146.069C141.617 139.669 131.184 134.481 118.314 134.481C105.445 134.481 95.0117 139.669 95.0117 146.069C95.0117 152.468 105.445 157.656 118.314 157.656Z" fill="white" stroke="#1C1D22" stroke-width="0.8" stroke-miterlimit="10"/>
<path d="M94.9551 146.069V154.956M141.616 146.069V154.956" stroke="#1C1D22" stroke-width="0.8" stroke-miterlimit="10"/>
<path d="M138.53 145.449C137.463 150.568 128.872 154.505 118.372 154.505C108.433 154.505 100.123 150.961 98.438 146.236C98.3819 146.18 98.3819 146.068 98.3257 146.011C98.045 145.393 97.9888 144.661 98.045 143.986L104.053 87.6247C104.053 85.2622 109.724 83.406 116.743 83.406C123.762 83.406 129.433 85.2622 129.433 87.6247L138.417 143.086L138.586 144.155C138.586 144.324 138.642 144.436 138.586 144.605C138.586 144.774 138.586 145.168 138.53 145.449Z" fill="white"/>
<path d="M108.096 113.669L107.198 127.731C106.973 131.219 103.548 133.75 99.8418 133.131M109.444 91.6755L108.433 108.213M104.502 110.125C103.941 110.125 103.435 111.307 103.379 112.825C103.323 114.344 103.716 115.581 104.278 115.581C104.839 115.581 105.345 114.4 105.401 112.881C105.457 111.363 105.064 110.125 104.502 110.125ZM103.829 118.056C103.267 118.056 102.762 119.238 102.705 120.756C102.649 122.275 103.042 123.513 103.604 123.513C104.165 123.513 104.671 122.331 104.727 120.813C104.783 119.294 104.39 118.113 103.829 118.056Z" stroke="#138BE1" stroke-width="0.8" stroke-miterlimit="10" stroke-linecap="round" stroke-linejoin="round"/>
<path d="M104.053 87.6247L98.045 143.986C97.9888 144.661 98.045 145.393 98.3257 146.011C98.3819 146.068 98.3819 146.18 98.438 146.236C100.123 150.961 108.433 154.505 118.372 154.505C128.872 154.505 137.463 150.568 138.53 145.449C138.586 145.168 138.586 144.774 138.586 144.605C138.642 144.436 138.586 144.324 138.586 144.155L138.417 143.086L129.433 87.6247M104.053 87.6247C104.053 85.2622 109.724 83.406 116.743 83.406C123.762 83.406 129.433 85.2622 129.433 87.6247M104.053 87.6247C104.053 89.9872 109.724 91.9559 116.743 91.9559C123.762 91.9559 129.433 90.0434 129.433 87.6247M132.297 133.018V151.861M126.907 142.749V153.549M115.059 92.0684V121.937C115.059 125.987 118.315 129.249 122.358 129.249H123.369C125.278 129.249 126.85 130.824 126.85 132.737V139.486M120.505 91.7309V115.468C120.505 119.518 123.762 122.78 127.805 122.78C130.332 122.78 132.353 124.805 132.353 127.337V128.743" stroke="#1C1D22" stroke-width="0.8" stroke-miterlimit="10"/>
<path d="M126.288 83.2941C126.288 84.9254 122.189 86.3316 117.079 86.3878C111.97 86.4441 107.814 85.1504 107.814 83.5191C107.814 81.8879 111.913 80.4817 117.023 80.4254C122.133 80.3692 126.288 81.6067 126.288 83.2941ZM126.288 83.3504C126.288 84.8129 122.189 86.3316 117.079 86.3878C111.97 86.4441 107.814 85.0941 107.814 83.5754V86.5566C107.814 88.0191 111.97 89.2003 117.079 89.0878C122.189 89.0315 126.288 87.7378 126.288 86.2753V83.3504Z" fill="#F6F5F5"/>
<path d="M117.079 86.3878C122.189 86.3316 126.288 84.9254 126.288 83.2941C126.288 81.6067 122.133 80.3692 117.023 80.4254C111.913 80.4817 107.814 81.8879 107.814 83.5191C107.814 85.1504 111.97 86.4441 117.079 86.3878ZM117.079 86.3878C122.189 86.3316 126.288 84.8129 126.288 83.3504V86.2753C126.288 87.7378 122.189 89.0315 117.079 89.0878C111.97 89.2003 107.814 88.0191 107.814 86.5566V83.5754C107.814 85.0941 111.97 86.4441 117.079 86.3878Z" stroke="#1C1D22" stroke-width="0.8" stroke-miterlimit="10"/>
<path d="M112.701 76.2074C112.757 74.9137 113.094 73.6762 113.655 72.6075L111.409 67.3201C111.409 67.3201 109.444 68.5013 108.826 69.12C108.265 69.795 107.254 71.0888 107.254 71.0888C104.839 74.6325 105.738 79.4699 109.219 81.8886C110.23 82.6199 111.184 83.0136 112.251 83.2948C113.037 83.4636 116.126 83.8573 117.698 84.0261C114.666 83.1823 112.532 79.9761 112.701 76.2074ZM119.719 68.8388C117.193 68.7263 114.947 70.245 113.711 72.6075C113.15 73.6762 112.813 74.9137 112.757 76.2074C112.532 79.9761 114.722 83.2386 117.754 84.0261C118.147 84.1386 118.54 84.1948 118.989 84.2511C122.639 84.4198 125.784 81.1574 126.008 76.8824C126.121 72.6075 123.313 69.0638 119.719 68.8388ZM124.324 77.1637C124.155 80.2574 121.853 82.6198 119.102 82.5073C118.653 82.5073 118.203 82.3948 117.754 82.2261C115.733 81.4386 114.329 79.1886 114.441 76.6574C114.441 76.1512 114.554 75.5887 114.722 75.1387C115.396 72.8325 117.417 71.2013 119.663 71.37C122.415 71.4263 124.492 74.07 124.324 77.1637ZM124.324 77.1637C124.155 80.2574 121.853 82.6198 119.102 82.5073C118.653 82.5073 118.203 82.3948 117.754 82.2261C115.733 81.4386 114.329 79.1886 114.441 76.6574C114.441 76.1512 114.554 75.5887 114.722 75.1387C115.396 72.8325 117.417 71.2013 119.663 71.37C122.415 71.4263 124.492 74.07 124.324 77.1637Z" fill="white" stroke="#1C1D22" stroke-width="0.8" stroke-miterlimit="10" stroke-linecap="round" stroke-linejoin="round"/>
<path d="M83.8422 76.9386L76.0933 75.4761L76.2618 67.77L85.3021 68.2762M67.053 72.1012C67.053 72.1012 68.906 69.5137 69.0183 68.7825C69.1306 68.0512 68.8499 66.195 68.2884 65.9138C67.6707 65.6325 63.4032 62.8201 62.2241 62.8201C60.9887 62.8201 60.1465 63.4388 60.1465 65.0138C60.2026 66.4763 61.3256 69.345 63.0102 70.3012C64.6385 71.3137 67.053 72.1012 67.053 72.1012ZM69.2991 69.2325C69.1306 70.695 67.783 72.7199 67.783 72.7199L76.4303 75.4761L76.9356 67.77L68.6814 65.6325C68.6814 65.745 69.4675 67.77 69.2991 69.2325Z" fill="#F6F5F5"/>
<path d="M83.8422 76.9386L76.0933 75.4761L76.2618 67.77L85.3021 68.2762M67.053 72.1012C67.053 72.1012 68.906 69.5137 69.0183 68.7825C69.1306 68.0512 68.8499 66.195 68.2884 65.9138C67.6707 65.6325 63.4032 62.8201 62.2241 62.8201C60.9887 62.8201 60.1465 63.4388 60.1465 65.0138C60.2026 66.4763 61.3256 69.345 63.0102 70.3012C64.6385 71.3137 67.053 72.1012 67.053 72.1012ZM69.2991 69.2325C69.1306 70.695 67.783 72.7199 67.783 72.7199L76.4303 75.4761L76.9356 67.77L68.6814 65.6325C68.6814 65.745 69.4675 67.77 69.2991 69.2325Z" stroke="#138BE1" stroke-width="0.8" stroke-miterlimit="10"/>
<path d="M85.2999 68.2756C85.2999 68.2756 108.153 65.0131 112.14 64.7881C116.127 64.5631 120.9 65.8006 122.584 67.0943C124.044 68.2193 113.431 70.6943 113.993 73.2817C114.779 76.6004 116.688 76.6567 117.924 78.2317C119.159 79.8066 118.878 82.9004 118.654 83.6878C118.26 84.9816 115.116 86.2191 114.33 86.1628C113.544 86.0503 108.603 87.344 107.199 87.794C105.795 88.244 100.966 90.6065 97.99 91.7315C95.014 92.8002 86.4791 94.8814 86.1422 94.5439C85.9737 94.3752 88.4443 92.9127 87.9951 91.5065C86.8721 87.9065 82.4362 82.0004 82.3239 79.4129C82.2677 77.2754 83.6715 74.238 84.5138 71.7068C85.1876 70.0193 85.2999 68.2756 85.2999 68.2756Z" fill="white"/>
<path d="M93.6692 88.4135C93.6692 88.4135 99.2843 86.7822 102.148 85.151C105.012 83.4635 113.603 79.0199 114.333 78.6261C115.063 78.2324 116.073 79.3011 116.298 80.0886C116.523 80.8761 116.186 85.7698 116.186 85.7698C116.186 85.7698 115.849 85.9948 114.557 86.1073C113.266 86.2198 107.482 87.2322 104.787 88.6947C102.092 90.1572 94.5676 92.8009 93.3885 92.9134C92.2093 93.0822 86.2012 94.6009 86.2012 94.6009C86.2012 94.6009 87.8296 92.6322 87.9419 92.2384C88.0542 91.8447 88.6718 91.7322 88.6718 91.7322C88.6718 91.7322 90.6932 92.9697 90.7494 92.9697C90.8055 92.9134 93.6692 88.4135 93.6692 88.4135Z" fill="#F6F5F5"/>
<path d="M85.2999 68.2756C85.2999 68.2756 108.153 65.0131 112.14 64.7881C116.127 64.5631 120.9 65.8006 122.584 67.0943C124.044 68.2193 113.431 70.6943 113.993 73.2817C114.779 76.6004 116.688 76.6567 117.924 78.2317C119.159 79.8066 118.878 82.9004 118.654 83.6878C118.26 84.9816 115.116 86.2191 114.33 86.1628C113.544 86.0503 108.603 87.344 107.199 87.794C105.795 88.244 100.966 90.6065 97.99 91.7315C95.014 92.8002 86.4791 94.8814 86.1422 94.5439C85.9737 94.3752 88.4443 92.9127 87.9951 91.5065C86.8721 87.9065 82.4362 82.0004 82.3239 79.4129C82.2677 77.2754 83.6715 74.238 84.5138 71.7068C85.1876 70.0193 85.2999 68.2756 85.2999 68.2756Z" stroke="#138BE1" stroke-width="0.8" stroke-miterlimit="10" stroke-linecap="round" stroke-linejoin="round"/>
<path d="M92.7129 88.3568C92.7129 88.3568 98.3841 87.3444 101.248 85.7131C104.112 84.0256 113.601 79.0195 114.331 78.5695C115.061 78.1757 116.072 79.2445 116.296 80.032C116.521 80.8195 116.072 85.6006 116.072 85.6006" stroke="#138BE1" stroke-width="0.8" stroke-miterlimit="10" stroke-linecap="round" stroke-linejoin="round"/>
<path d="M69.1853 87.0071L69.4661 86.7258V86.6133C69.3538 86.7821 69.2415 86.8946 69.1853 87.0071ZM66.0409 87.4008C65.3671 86.8383 65.0302 85.9946 65.1986 85.1509C64.6371 85.6009 64.1879 85.9383 63.9072 86.1633C63.9633 86.8383 64.3002 87.5696 64.9179 88.0758C65.7601 88.8071 66.8832 88.9196 67.7816 88.4696C68.0623 88.3008 68.2869 88.0758 68.5115 87.7946L68.5677 87.7383C67.8377 88.1321 66.827 88.0196 66.0409 87.4008ZM69.1853 87.0071L69.4661 86.7258V86.6133C69.3538 86.7821 69.2415 86.8946 69.1853 87.0071ZM63.6264 73.1698C63.5141 73.901 62.7841 75.026 61.6611 76.0947C61.5488 76.2072 61.4927 76.2635 61.3804 76.376C62.8964 75.0823 63.4579 73.9573 63.6264 73.3948C63.6826 73.3385 63.6826 73.226 63.6264 73.1698ZM63.5141 72.6073C63.458 72.5511 63.4018 72.4948 63.2895 72.4948C63.4579 72.7198 63.5703 72.9448 63.6264 73.1698C63.6826 72.8885 63.6264 72.7198 63.5141 72.6073ZM61.2681 76.4322C60.5943 77.051 59.6397 77.276 58.7413 76.826C58.5728 76.7135 58.3482 76.601 58.2359 76.4885C57.9552 77.051 57.899 77.501 58.0675 77.726C58.1236 77.7822 58.2921 77.951 58.7413 77.8947C58.7974 77.8947 58.8536 77.8947 58.8536 77.8947C58.9097 77.8947 58.9659 77.8947 59.022 77.8385C59.1905 77.7822 59.3589 77.726 59.5274 77.6135C59.6397 77.5572 59.752 77.501 59.8643 77.4447C60.0328 77.3322 60.2573 77.2197 60.4819 77.051C60.5381 76.9947 60.6504 76.9385 60.7066 76.8822C60.7627 76.826 60.875 76.7697 60.9312 76.7135C60.9873 76.6572 61.0996 76.601 61.1558 76.4885L61.2119 76.4322C61.2681 76.4885 61.3242 76.4885 61.2681 76.4322ZM69.41 86.6133C69.2977 86.7258 69.2415 86.8946 69.1292 87.0071H69.1853L68.7923 87.5696C68.7361 87.5696 68.68 87.6258 68.6238 87.6258C67.8377 88.0196 66.7709 87.9071 66.0409 87.2883C65.3671 86.7258 65.0302 85.8821 65.1986 85.0384C65.4794 84.8134 65.7601 84.5321 66.0409 84.3071C66.3217 84.0259 66.6586 83.7446 66.8832 83.4634C67.2762 83.0696 67.6693 82.6197 68.0062 82.1697L69.4661 83.1821L69.41 86.6133ZM76.2604 92.3508C76.2604 92.4633 75.9235 92.857 75.5866 93.2507C75.1935 93.7007 74.5758 93.757 74.0705 93.4757C71.9929 92.2945 66.6585 89.257 66.6585 89.1446C66.6585 89.0883 67.2201 88.8633 67.8377 88.4133C68.1185 88.2446 68.3431 88.0196 68.5677 87.7383L68.6238 87.6821C68.68 87.6821 68.7361 87.6258 68.7923 87.6258L69.1853 87.0633L69.41 86.7258V86.6133C70.3084 85.2634 71.0383 83.6884 71.0383 83.6884L76.2604 92.3508ZM63.7949 73.001C63.7949 73.001 63.7949 73.1135 63.6826 73.3948C63.458 73.9573 62.8964 75.0823 61.4365 76.376C61.5488 76.3197 61.605 76.2072 61.7173 76.0947C62.8403 75.026 63.5703 73.8448 63.6826 73.1698C63.6264 72.9448 63.5141 72.7198 63.3456 72.4948C63.121 72.1573 62.7841 71.8198 62.3349 71.6511C62.2226 71.5948 62.0542 71.5386 61.9419 71.4823C61.5488 71.8761 61.0435 72.326 60.4258 72.776C60.2574 72.8885 60.145 73.001 59.9766 73.1135C59.5274 73.451 59.0782 73.7323 58.6851 73.9573C58.6851 74.4635 58.8536 74.9135 59.0782 75.3073C59.3028 75.701 59.6958 76.0385 60.1451 76.2072C60.5381 76.376 60.9312 76.4885 61.3242 76.4885H61.3804C61.3804 76.4885 61.3804 76.4885 61.3242 76.5447C61.3242 76.5447 61.3242 76.5447 61.2681 76.601L61.2119 76.6572C61.0996 76.7135 61.0435 76.7697 60.9873 76.8822C60.875 76.9385 60.8189 76.9947 60.7627 77.051C60.7066 77.1072 60.5943 77.1635 60.5381 77.2197C60.3135 77.3885 60.0889 77.501 59.9204 77.6135C59.8081 77.6697 59.6958 77.726 59.5835 77.7822C59.4151 77.8947 59.2466 77.951 59.0782 78.0072C59.022 78.0072 58.9659 78.0072 58.9097 78.0635C58.8536 78.0635 58.7974 78.0635 58.7974 78.0635C58.3482 78.1197 58.2359 78.0072 58.1798 77.951C58.3482 78.2885 59.8643 80.9884 60.8189 82.3947C61.8857 83.9134 63.7387 86.3883 63.7387 86.3883C63.7387 86.3883 63.7949 86.3321 63.9633 86.2196C64.2441 86.0508 64.6933 85.6571 65.2548 85.2071C65.5355 84.9821 65.8163 84.7009 66.097 84.4759C66.3778 84.1946 66.7147 83.9134 66.9393 83.6321C67.3324 83.2384 67.7254 82.7884 68.0623 82.3384C68.9046 81.2697 69.5784 80.2572 69.5784 80.2572L63.7949 73.001ZM60.6504 75.026C60.3135 74.8573 60.0889 74.576 59.9766 74.2385C59.8643 73.9573 59.9204 73.6198 60.0327 73.3385C60.145 73.1135 60.3135 72.9448 60.5381 72.776C60.875 72.551 61.3242 72.551 61.7173 72.7198C61.7734 72.7198 61.8296 72.776 61.8296 72.776C62.3349 73.1135 62.5595 73.7885 62.2788 74.4073C62.1665 74.576 62.0542 74.7448 61.8857 74.8573C61.605 75.1948 61.0996 75.251 60.6504 75.026ZM61.2681 76.4322C60.5943 77.051 59.6397 77.276 58.7413 76.826C58.5728 76.7135 58.3482 76.601 58.2359 76.4885C57.6744 75.9822 57.4498 75.251 57.5621 74.5198C57.8429 74.4073 58.2359 74.1823 58.6851 73.901C58.6851 74.4073 58.8536 74.8573 59.0782 75.251C59.3028 75.6448 59.6958 75.9822 60.1451 76.151C60.482 76.376 60.875 76.4322 61.2681 76.4322ZM62.3349 74.4635C62.2226 74.6323 62.1103 74.801 61.9419 74.9135C61.5488 75.1948 61.0996 75.251 60.6504 75.026C60.3135 74.8573 60.0889 74.576 59.9766 74.2385C59.8643 73.9573 59.9204 73.6198 60.0327 73.3385C60.145 73.1135 60.3135 72.9448 60.5381 72.776C60.875 72.551 61.3242 72.551 61.7173 72.7198C61.7734 72.7198 61.8296 72.776 61.8296 72.776C62.4472 73.1698 62.6157 73.8448 62.3349 74.4635ZM62.6718 70.6386C62.6718 70.6386 62.3911 70.9761 61.8857 71.4261C61.4927 71.8198 60.9873 72.2698 60.3697 72.7198C60.2012 72.8323 60.0889 72.9448 59.9204 73.0573C59.4712 73.3948 59.022 73.676 58.629 73.901C58.1798 74.1823 57.7867 74.4073 57.506 74.5198C57.1691 74.6885 57.0006 74.801 57.0006 74.801C57.0006 74.801 55.3161 71.7073 54.3615 69.4573C53.6315 67.8261 51.7224 63.7199 51.7786 62.9887C51.8347 62.2574 53.3508 60.7387 55.2599 61.8075C57.1691 62.8762 60.3697 67.1511 60.9873 68.1074C61.605 69.0636 62.6718 70.6386 62.6718 70.6386Z" fill="white"/>
<path d="M69.1853 87.0071L69.4661 86.7258V86.6133C69.3538 86.7821 69.2415 86.8946 69.1853 87.0071ZM69.1853 87.0071H69.1292C69.2415 86.8946 69.2977 86.7258 69.41 86.6133M69.1853 87.0071L68.7923 87.5696C68.7361 87.5696 68.68 87.6258 68.6238 87.6258C67.8377 88.0196 66.7709 87.9071 66.0409 87.2883C65.3671 86.7258 65.0302 85.8821 65.1986 85.0384C65.4794 84.8134 65.7601 84.5321 66.0409 84.3071C66.3217 84.0259 66.6586 83.7446 66.8832 83.4634C67.2762 83.0696 67.6693 82.6197 68.0062 82.1697L69.4661 83.1821L69.41 86.6133M68.5677 87.7383L68.5115 87.7946C68.2869 88.0758 68.0623 88.3008 67.7816 88.4696C66.8832 88.9196 65.7601 88.8071 64.9179 88.0758C64.3002 87.5696 63.9633 86.8383 63.9072 86.1633C64.1879 85.9383 64.6371 85.6009 65.1986 85.1509C65.0302 85.9946 65.3671 86.8383 66.0409 87.4008C66.827 88.0196 67.8377 88.1321 68.5677 87.7383ZM68.5677 87.7383C68.3431 88.0196 68.1185 88.2446 67.8377 88.4133C67.2201 88.8633 66.6585 89.0883 66.6585 89.1446C66.6585 89.2571 71.9929 92.2945 74.0705 93.4757C74.5758 93.757 75.1935 93.7007 75.5866 93.2507C75.9235 92.857 76.2604 92.4633 76.2604 92.3508L71.0383 83.6884C71.0383 83.6884 70.3084 85.2634 69.41 86.6133M68.5677 87.7383L68.6238 87.6821C68.68 87.6821 68.7361 87.6258 68.7923 87.6258L69.1853 87.0633L69.41 86.7258V86.6133M63.6264 73.1698C63.5141 73.901 62.7841 75.026 61.6611 76.0947C61.5488 76.2072 61.4927 76.2635 61.3804 76.376C62.8964 75.0823 63.4579 73.9573 63.6264 73.3948C63.6826 73.3385 63.6826 73.226 63.6264 73.1698ZM63.6264 73.1698C63.5703 72.9448 63.4579 72.7198 63.2895 72.4948C63.4018 72.4948 63.458 72.5511 63.5141 72.6073C63.6264 72.7198 63.6826 72.8885 63.6264 73.1698ZM61.2681 76.4322C60.5943 77.051 59.6397 77.276 58.7413 76.826C58.5728 76.7135 58.3482 76.601 58.2359 76.4885M61.2681 76.4322C61.3242 76.4885 61.2681 76.4885 61.2119 76.4322L61.1558 76.4885C61.0996 76.601 60.9873 76.6572 60.9312 76.7135C60.875 76.7697 60.7627 76.826 60.7066 76.8822C60.6504 76.9385 60.5381 76.9947 60.4819 77.051C60.2573 77.2197 60.0328 77.3322 59.8643 77.4447C59.752 77.501 59.6397 77.5572 59.5274 77.6135C59.3589 77.726 59.1905 77.7822 59.022 77.8385C58.9659 77.8947 58.9097 77.8947 58.8536 77.8947C58.8536 77.8947 58.7974 77.8947 58.7413 77.8947C58.2921 77.951 58.1236 77.7822 58.0675 77.726C57.899 77.501 57.9552 77.051 58.2359 76.4885M61.2681 76.4322C61.3242 76.4322 61.3242 76.4322 61.3242 76.4322M61.2681 76.4322C60.875 76.4322 60.482 76.376 60.1451 76.151C59.6958 75.9822 59.3028 75.6448 59.0782 75.251C58.8536 74.8573 58.6851 74.4073 58.6851 73.901C58.2359 74.1823 57.8429 74.4073 57.5621 74.5198C57.4498 75.251 57.6744 75.9822 58.2359 76.4885M60.6504 75.026C60.3135 74.8573 60.0889 74.576 59.9766 74.2385C59.8643 73.9573 59.9204 73.6198 60.0327 73.3385C60.145 73.1135 60.3135 72.9448 60.5381 72.776C60.875 72.551 61.3242 72.551 61.7173 72.7198C61.7734 72.7198 61.8296 72.776 61.8296 72.776M60.6504 75.026C61.0996 75.251 61.605 75.1948 61.8857 74.8573C62.0542 74.7448 62.1665 74.576 62.2788 74.4073C62.5595 73.7885 62.3349 73.1135 61.8296 72.776M60.6504 75.026C61.0996 75.251 61.5488 75.1948 61.9419 74.9135C62.1103 74.801 62.2226 74.6323 62.3349 74.4635C62.6157 73.8448 62.4472 73.1698 61.8296 72.776M63.7949 73.001C63.7949 73.001 63.7949 73.1135 63.6826 73.3948C63.458 73.9573 62.8964 75.0823 61.4365 76.376C61.5488 76.3197 61.605 76.2072 61.7173 76.0947C62.8403 75.026 63.5703 73.8448 63.6826 73.1698C63.6264 72.9448 63.5141 72.7198 63.3456 72.4948C63.121 72.1573 62.7841 71.8198 62.3349 71.6511C62.2226 71.5948 62.0542 71.5386 61.9419 71.4823C61.5488 71.8761 61.0435 72.326 60.4258 72.776C60.2574 72.8885 60.145 73.001 59.9766 73.1135C59.5274 73.451 59.0782 73.7323 58.6851 73.9573C58.6851 74.4635 58.8536 74.9135 59.0782 75.3073C59.3028 75.701 59.6958 76.0385 60.1451 76.2072C60.5381 76.376 60.9312 76.4885 61.3242 76.4885H61.3804C61.3804 76.4885 61.3804 76.4885 61.3242 76.5447C61.3242 76.5447 61.3242 76.5447 61.2681 76.601L61.2119 76.6572C61.0996 76.7135 61.0435 76.7697 60.9873 76.8822C60.875 76.9385 60.8189 76.9947 60.7627 77.051C60.7066 77.1072 60.5943 77.1635 60.5381 77.2197C60.3135 77.3885 60.0889 77.501 59.9204 77.6135C59.8081 77.6697 59.6958 77.726 59.5835 77.7822C59.4151 77.8947 59.2466 77.951 59.0782 78.0072C59.022 78.0072 58.9659 78.0072 58.9097 78.0635C58.8536 78.0635 58.7974 78.0635 58.7974 78.0635C58.3482 78.1197 58.2359 78.0072 58.1798 77.951C58.3482 78.2885 59.8643 80.9884 60.8189 82.3947C61.8857 83.9134 63.7387 86.3883 63.7387 86.3883C63.7387 86.3883 63.7949 86.3321 63.9633 86.2196C64.2441 86.0508 64.6933 85.6571 65.2548 85.2071C65.5355 84.9821 65.8163 84.7009 66.097 84.4759C66.3778 84.1946 66.7147 83.9134 66.9393 83.6321C67.3324 83.2384 67.7254 82.7884 68.0623 82.3384C68.9046 81.2697 69.5784 80.2572 69.5784 80.2572L63.7949 73.001ZM62.6718 70.6386C62.6718 70.6386 62.3911 70.9761 61.8857 71.4261C61.4927 71.8198 60.9873 72.2698 60.3697 72.7198C60.2012 72.8323 60.0889 72.9448 59.9204 73.0573C59.4712 73.3948 59.022 73.676 58.629 73.901C58.1798 74.1823 57.7867 74.4073 57.506 74.5198C57.1691 74.6885 57.0006 74.801 57.0006 74.801C57.0006 74.801 55.3161 71.7073 54.3615 69.4573C53.6315 67.8261 51.7224 63.7199 51.7786 62.9887C51.8347 62.2574 53.3508 60.7387 55.2599 61.8075C57.1691 62.8762 60.3697 67.1511 60.9873 68.1074C61.605 69.0636 62.6718 70.6386 62.6718 70.6386Z" stroke="#138BE1" stroke-width="0.8" stroke-miterlimit="10" stroke-linecap="round" stroke-linejoin="round"/>
<path d="M64.3554 72.6633C64.0185 71.5945 64.0185 70.582 64.2993 69.9633L62.6709 69.9071C62.0532 70.357 61.8848 71.707 62.334 73.057C62.6147 73.9007 63.0639 74.5757 63.5132 74.9695C64.0747 75.082 64.9731 75.1382 65.8153 74.8007C65.31 74.4632 64.6923 73.6757 64.3554 72.6633ZM74.1257 87.2318C74.0134 87.5693 73.8449 87.8505 73.6765 88.0755C73.9011 87.9068 74.0695 87.6818 74.1818 87.4568C74.1257 87.4568 74.1257 87.4005 74.1257 87.2318ZM69.1282 86.3881C68.7352 85.5443 68.6229 84.7006 68.7352 83.9693C68.1737 84.0818 67.556 84.1381 67.0507 84.1381C66.8822 84.9818 67.0507 85.9381 67.556 86.8943C68.4544 88.6943 70.1951 89.7068 72.3288 88.6943C71.0935 88.8068 69.8021 87.8505 69.1282 86.3881ZM73.8449 87.963C73.8449 87.963 73.508 88.8068 72.8342 89.088C72.1604 89.3693 71.3181 89.2568 71.3181 89.2568L77.2701 92.8567C77.2701 92.8567 77.9439 93.138 78.3931 92.7442C78.7301 92.463 78.8423 91.7317 78.8423 91.7317L73.8449 87.963ZM74.238 86.7818C74.238 86.9506 74.1818 87.1193 74.1257 87.288C74.0134 87.6255 73.8449 87.9068 73.6765 88.1318C73.508 88.3568 73.2834 88.5255 73.0027 88.638C72.7781 88.7505 72.4973 88.8068 72.2727 88.8068C71.0935 88.863 69.8021 87.9068 69.1282 86.4443C68.7352 85.6006 68.6229 84.7568 68.7352 84.0256C69.1282 83.9693 69.4651 83.8568 69.802 83.6881C70.3636 83.4069 70.9251 82.9569 71.3743 82.5069C72.1042 81.7194 72.6096 80.8756 72.6096 80.8756C72.6096 80.8756 72.5535 80.7631 72.4973 80.4819L72.7219 80.3694C72.7219 80.3694 73.0588 81.9444 73.3957 83.5756C72.9465 83.0131 72.3288 82.7319 71.7673 82.9006C71.7112 82.9006 71.7112 82.9006 71.655 82.9569C70.9251 83.2944 70.6443 84.3631 70.9812 85.3756C71.3743 86.5006 72.2727 87.1755 73.1149 86.8943C73.4519 86.7818 73.7326 86.5006 73.9011 86.1631C73.9011 86.1068 73.9572 86.0506 73.9572 85.9943C73.9572 86.1068 74.0134 86.2193 74.0134 86.3318L74.238 86.7818ZM73.9011 85.9943C73.9011 86.0506 73.8449 86.1068 73.8449 86.1631C73.6765 86.5006 73.4519 86.7818 73.0588 86.8943C72.2727 87.1755 71.3181 86.4443 70.9251 85.3756C70.5882 84.3068 70.8689 83.2381 71.5989 82.9569C71.655 82.9569 71.655 82.9006 71.7112 82.9006C72.2727 82.7319 72.8904 83.0131 73.3396 83.5756C73.5642 83.8006 73.6765 84.1381 73.7888 84.4756C74.0134 84.9818 74.0134 85.5443 73.9011 85.9943ZM72.5534 80.8194C72.5534 80.8194 72.0481 81.6631 71.3181 82.4506C70.8689 82.9006 70.3636 83.3506 69.7459 83.6318C69.409 83.8006 69.0721 83.9131 68.679 83.9693C68.1175 84.0818 67.4999 84.1381 66.9945 84.1381C66.2645 84.1381 65.7592 84.1381 65.7592 84.1381L63.1201 74.857C63.1201 74.857 63.2885 74.9132 63.5693 74.9695C64.1308 75.082 65.0292 75.1382 65.8715 74.8007C66.433 74.5757 66.9384 74.2945 67.3876 74.0132C67.6122 73.8445 67.8368 73.6757 68.0614 73.5632C68.4544 73.2258 68.7352 73.0008 68.7352 73.0008C68.7352 73.0008 70.8689 76.2632 71.262 76.9944C71.5427 77.5569 72.2165 79.5819 72.4973 80.4256C72.4973 80.6506 72.5534 80.8194 72.5534 80.8194ZM68.0614 73.5632C67.8929 73.732 67.6683 73.8445 67.3876 74.0132C66.9384 74.2945 66.433 74.5757 65.8715 74.8007C65.2538 74.4632 64.6923 73.6757 64.3554 72.607C64.0185 71.5383 64.0185 70.5258 64.2993 69.9071L66.0961 69.9633C65.703 70.357 65.6469 71.2008 65.9276 72.1008C66.2084 73.0008 66.7699 73.6195 67.2753 73.732C67.3876 73.732 67.4999 73.732 67.6122 73.732C67.7245 73.6757 67.8929 73.6195 67.9491 73.4508L68.0614 73.5632ZM68.0052 73.4508C67.8929 73.5632 67.7806 73.6757 67.6683 73.732C67.556 73.7882 67.4437 73.7882 67.3314 73.732C66.8261 73.6195 66.2645 73.0008 65.9838 72.1008C65.703 71.2008 65.7592 70.357 66.1522 69.9633H66.3207H66.433L67.163 70.0195C67.4999 70.3008 67.8368 70.807 68.0614 71.4258C68.3421 72.2695 68.286 73.057 68.0052 73.4508ZM67.8929 66.8133C67.8368 68.1633 67.4999 70.132 67.4999 70.132H67.2191L66.4891 70.0758H66.3768H66.2084L64.4116 70.0195L62.7832 69.9633L61.8848 69.9071C61.8848 69.9071 62.2778 66.8133 62.727 63.8884C63.1762 61.3572 63.6816 58.826 64.0747 58.3197C64.4677 57.8135 66.433 58.151 67.163 59.8384C67.8929 61.5259 67.9491 65.8571 67.8929 66.8133Z" fill="white"/>
<path d="M65.8715 74.8007C65.0292 75.1382 64.1308 75.082 63.5693 74.9695C63.2885 74.9132 63.1201 74.857 63.1201 74.857L65.7592 84.1381C65.7592 84.1381 66.2645 84.1381 66.9945 84.1381C67.4999 84.1381 68.1175 84.0818 68.679 83.9693C69.0721 83.9131 69.409 83.8006 69.7459 83.6318C70.3636 83.3506 70.8689 82.9006 71.3181 82.4506C72.0481 81.6631 72.5534 80.8194 72.5534 80.8194C72.5534 80.8194 72.4973 80.6506 72.4973 80.4256C72.2165 79.5819 71.5427 77.5569 71.262 76.9944C70.8689 76.2632 68.7352 73.0008 68.7352 73.0008C68.7352 73.0008 68.4544 73.2258 68.0614 73.5632M65.8715 74.8007C66.433 74.5757 66.9384 74.2945 67.3876 74.0132M65.8715 74.8007C65.2538 74.4632 64.6923 73.6757 64.3554 72.607C64.0185 71.5383 64.0185 70.5258 64.2993 69.907L66.0961 69.9633C65.703 70.357 65.6469 71.2008 65.9276 72.1008C66.2084 73.0008 66.7699 73.6195 67.2753 73.732C67.3876 73.732 67.4999 73.732 67.6122 73.732C67.7245 73.6757 67.8929 73.6195 67.9491 73.4508L68.0614 73.5632M67.3876 74.0132C67.6122 73.8445 67.8368 73.6757 68.0614 73.5632M67.3876 74.0132C67.6683 73.8445 67.8929 73.732 68.0614 73.5632M64.3554 72.6633C64.0185 71.5945 64.0185 70.582 64.2993 69.9633L62.6709 69.907C62.0532 70.357 61.8848 71.707 62.334 73.057C62.6147 73.9007 63.0639 74.5757 63.5132 74.9695C64.0747 75.082 64.9731 75.1382 65.8153 74.8007C65.31 74.4632 64.6923 73.6757 64.3554 72.6633ZM74.1257 87.2318C74.0134 87.5693 73.8449 87.8505 73.6765 88.0755C73.9011 87.9068 74.0695 87.6818 74.1818 87.4568C74.1257 87.4568 74.1257 87.4005 74.1257 87.2318ZM69.1282 86.3881C68.7352 85.5443 68.6229 84.7006 68.7352 83.9693C68.1737 84.0818 67.556 84.1381 67.0507 84.1381C66.8822 84.9818 67.0507 85.9381 67.556 86.8943C68.4544 88.6943 70.1951 89.7068 72.3288 88.6943C71.0935 88.8068 69.8021 87.8505 69.1282 86.3881ZM73.8449 87.963C73.8449 87.963 73.508 88.8068 72.8342 89.088C72.1604 89.3693 71.3181 89.2568 71.3181 89.2568L77.2701 92.8567C77.2701 92.8567 77.9439 93.138 78.3931 92.7442C78.7301 92.463 78.8423 91.7317 78.8423 91.7317L73.8449 87.963ZM74.238 86.7818C74.238 86.9506 74.1818 87.1193 74.1257 87.288C74.0134 87.6255 73.8449 87.9068 73.6765 88.1318C73.508 88.3568 73.2834 88.5255 73.0027 88.638C72.7781 88.7505 72.4973 88.8068 72.2727 88.8068C71.0935 88.863 69.8021 87.9068 69.1282 86.4443C68.7352 85.6006 68.6229 84.7568 68.7352 84.0256C69.1282 83.9693 69.4651 83.8568 69.802 83.6881C70.3636 83.4069 70.9251 82.9569 71.3743 82.5069C72.1042 81.7194 72.6096 80.8756 72.6096 80.8756C72.6096 80.8756 72.5535 80.7631 72.4973 80.4819L72.7219 80.3694C72.7219 80.3694 73.0588 81.9444 73.3957 83.5756C72.9465 83.0131 72.3288 82.7319 71.7673 82.9006C71.7112 82.9006 71.7112 82.9006 71.655 82.9569C70.9251 83.2944 70.6443 84.3631 70.9812 85.3756C71.3743 86.5006 72.2727 87.1755 73.1149 86.8943C73.4519 86.7818 73.7326 86.5006 73.9011 86.1631C73.9011 86.1068 73.9572 86.0506 73.9572 85.9943C73.9572 86.1068 74.0134 86.2193 74.0134 86.3318L74.238 86.7818ZM73.9011 85.9943C73.9011 86.0506 73.8449 86.1068 73.8449 86.1631C73.6765 86.5006 73.4519 86.7818 73.0588 86.8943C72.2727 87.1755 71.3181 86.4443 70.9251 85.3756C70.5882 84.3068 70.8689 83.2381 71.5989 82.9569C71.655 82.9569 71.655 82.9006 71.7112 82.9006C72.2727 82.7319 72.8904 83.0131 73.3396 83.5756C73.5642 83.8006 73.6765 84.1381 73.7888 84.4756C74.0134 84.9818 74.0134 85.5443 73.9011 85.9943ZM68.0052 73.4508C67.8929 73.5632 67.7806 73.6757 67.6683 73.732C67.556 73.7882 67.4437 73.7882 67.3314 73.732C66.8261 73.6195 66.2645 73.0008 65.9838 72.1008C65.703 71.2008 65.7592 70.357 66.1522 69.9633H66.3207H66.433L67.163 70.0195C67.4999 70.3008 67.8368 70.807 68.0614 71.4258C68.3421 72.2695 68.286 73.057 68.0052 73.4508ZM67.8929 66.8133C67.8368 68.1633 67.4999 70.132 67.4999 70.132H67.2191L66.4891 70.0758H66.3768H66.2084L64.4116 70.0195L62.7832 69.9633L61.8848 69.907C61.8848 69.907 62.2778 66.8133 62.727 63.8884C63.1762 61.3572 63.6816 58.826 64.0747 58.3197C64.4677 57.8135 66.433 58.151 67.163 59.8384C67.8929 61.5259 67.9491 65.8571 67.8929 66.8133Z" stroke="#138BE1" stroke-width="0.8" stroke-miterlimit="10" stroke-linecap="round" stroke-linejoin="round"/>
<path d="M103.999 65.9697C100.686 66.9259 99.3945 68.8384 97.9346 70.7508C96.4747 72.6633 91.4772 74.9695 88.7258 74.4633C85.9744 73.957 86.3675 67.9946 86.6482 67.4321C86.929 66.8696 88.4451 66.5321 91.4211 65.6322C94.3971 64.7322 99.563 64.2822 102.539 64.3947C107.143 64.5634 108.042 65.2384 108.042 65.2384C108.042 65.2384 107.312 65.0697 103.999 65.9697ZM82.4931 79.7507C83.1669 86.5569 86.5921 83.1819 86.5921 83.1819C86.5921 83.1819 91.1403 82.1694 92.881 82.9569C95.0709 83.9131 94.734 87.7381 94.734 87.7381C94.734 87.7381 104.111 80.9882 105.403 78.8507C106.694 76.7695 104.841 73.1695 102.314 71.9883C99.7875 70.8071 95.4639 72.7195 93.0494 74.4633C90.6349 76.2632 85.6937 75.757 85.6937 75.757C85.6937 75.757 81.9877 74.7445 82.4931 79.7507ZM78.7871 81.0444L80.3032 76.6007L78.7871 81.0444Z" fill="white"/>
<path d="M78.7871 81.0444L80.3032 76.6007M103.999 65.9697C100.686 66.9259 99.3945 68.8384 97.9346 70.7508C96.4747 72.6633 91.4772 74.9695 88.7258 74.4633C85.9744 73.957 86.3675 67.9946 86.6482 67.4321C86.929 66.8696 88.4451 66.5321 91.4211 65.6322C94.3971 64.7322 99.563 64.2822 102.539 64.3947C107.143 64.5634 108.042 65.2384 108.042 65.2384C108.042 65.2384 107.312 65.0697 103.999 65.9697ZM82.4931 79.7507C83.1669 86.5568 86.5921 83.1819 86.5921 83.1819C86.5921 83.1819 91.1403 82.1694 92.881 82.9569C95.0709 83.9131 94.734 87.7381 94.734 87.7381C94.734 87.7381 104.111 80.9882 105.403 78.8507C106.694 76.7695 104.841 73.1695 102.314 71.9883C99.7875 70.8071 95.4639 72.7195 93.0494 74.4633C90.6349 76.2632 85.6937 75.757 85.6937 75.757C85.6937 75.757 81.9877 74.7445 82.4931 79.7507Z" stroke="#138BE1" stroke-width="0.8" stroke-miterlimit="10" stroke-linecap="round" stroke-linejoin="round"/>
<path d="M86.8726 93.869L83.6159 93.0253L86.8726 93.869ZM80.0784 83.8004C79.573 82.5629 78.6185 81.7754 77.9446 82.0567C77.2708 82.3379 77.1585 83.5754 77.6639 84.8129C78.1693 86.0504 79.1238 86.8378 79.7976 86.5566C79.8538 86.5566 79.9099 86.5004 80.0222 86.4441C80.2468 85.8254 80.303 85.0941 80.303 84.4191C80.1907 84.2504 80.1345 84.0254 80.0784 83.8004ZM80.2468 83.0692C80.1907 83.0692 80.303 83.6879 80.2468 84.4191C80.2468 85.0941 80.1907 85.8254 79.9661 86.4441C79.9099 86.5566 79.8538 86.7254 79.7976 86.8378C79.4607 87.4566 79.0115 87.9066 78.5623 88.2441C77.8323 88.7503 76.9901 88.8628 76.3724 88.8628C76.3724 88.8628 76.3724 88.8628 76.3163 88.8628C76.0355 88.8628 75.8109 88.8628 75.5302 88.8066C75.474 88.8066 75.4179 88.8066 75.4179 88.8066C75.4179 88.8066 75.3617 88.8066 75.4179 88.8628L80.8083 92.8565C80.8083 92.8565 83.0544 94.0377 84.6266 92.4628C86.0304 91.0565 86.3111 87.8503 86.3111 87.8503C86.3111 87.8503 80.3591 83.0692 80.2468 83.0692ZM76.2601 61.3007C75.5302 59.782 73.8456 59.5008 73.4526 59.8945C73.1157 60.3445 72.6103 62.5945 72.2173 64.9007C71.7681 67.5444 71.4311 70.3006 71.4311 70.3006H71.5996L73.3964 70.3568L75.1933 70.4131L75.9232 70.4693H76.597C76.597 70.4693 76.8778 68.7256 76.9339 67.4881C77.1024 66.7006 76.9339 62.8195 76.2601 61.3007ZM76.7655 72.0443C76.6532 71.3131 76.3724 70.6943 75.9794 70.4131L75.2494 70.3568C74.8564 70.6381 74.6318 71.3693 74.7441 72.2131C74.8002 72.8318 75.0809 73.3943 75.3617 73.6755L76.4286 73.6193C76.7093 73.338 76.8216 72.7193 76.7655 72.0443ZM73.228 72.4381C73.1157 71.6506 73.228 70.8631 73.5087 70.3568L71.7119 70.3006C71.4311 70.8631 71.3188 71.5943 71.4311 72.4381C71.4873 73.0006 71.6558 73.5631 71.8804 74.013L73.6772 73.9005C73.4526 73.5068 73.2841 73.0006 73.228 72.4381ZM75.7548 85.6004C75.1933 84.3066 75.1371 83.0692 75.474 82.2817L73.3403 82.6192C72.7788 83.4066 72.7788 84.9816 73.2841 86.2754C73.7333 87.5128 74.5194 88.4691 75.5302 88.7503C75.6986 88.8066 75.9794 88.8066 76.3163 88.8066C76.3163 88.8066 76.3163 88.8066 76.3724 88.8066C76.9901 88.8066 77.5516 88.6941 78.3377 88.1878C77.3831 88.3003 76.4847 87.2316 75.7548 85.6004ZM74.7441 72.2693C74.6318 71.4256 74.8564 70.6943 75.2494 70.4131L73.4526 70.3568C73.228 70.8631 73.1157 71.6506 73.1718 72.4381C73.228 73.0006 73.3964 73.4506 73.5649 73.8443L75.3056 73.7318C75.081 73.4506 74.8564 72.9443 74.7441 72.2693ZM78.1692 77.1067C77.8885 75.5318 77.2147 73.6193 77.2147 73.6193L76.4286 73.6755L75.3617 73.7318L73.621 73.8443L71.8242 73.9568H71.375C71.375 73.9568 71.5434 76.488 72.0488 78.4567C72.498 80.4254 72.9472 82.6192 72.9472 82.6192L73.4526 82.5629L75.5863 82.2254L78.8992 81.6629C78.8431 81.7192 78.45 78.6817 78.1692 77.1067Z" fill="white"/>
<path d="M86.8726 93.869L83.6159 93.0253M80.0784 83.8004C79.573 82.5629 78.6185 81.7754 77.9446 82.0567C77.2708 82.3379 77.1585 83.5754 77.6639 84.8129C78.1693 86.0504 79.1238 86.8378 79.7976 86.5566C79.8538 86.5566 79.9099 86.5004 80.0222 86.4441C80.2468 85.8254 80.303 85.0941 80.303 84.4191C80.1907 84.2504 80.1345 84.0254 80.0784 83.8004ZM80.2468 83.0692C80.1907 83.0692 80.303 83.6879 80.2468 84.4191C80.2468 85.0941 80.1907 85.8254 79.9661 86.4441C79.9099 86.5566 79.8538 86.7254 79.7976 86.8378C79.4607 87.4566 79.0115 87.9066 78.5623 88.2441C77.8323 88.7503 76.9901 88.8628 76.3724 88.8628C76.3724 88.8628 76.3724 88.8628 76.3163 88.8628C76.0355 88.8628 75.8109 88.8628 75.5302 88.8066C75.474 88.8066 75.4179 88.8066 75.4179 88.8066C75.4179 88.8066 75.3617 88.8066 75.4179 88.8628L80.8083 92.8565C80.8083 92.8565 83.0544 94.0377 84.6266 92.4628C86.0304 91.0565 86.3111 87.8503 86.3111 87.8503C86.3111 87.8503 80.3591 83.0692 80.2468 83.0692ZM76.2601 61.3007C75.5302 59.782 73.8456 59.5008 73.4526 59.8945C73.1157 60.3445 72.6103 62.5945 72.2173 64.9007C71.7681 67.5444 71.4311 70.3006 71.4311 70.3006H71.5996L73.3964 70.3568L75.1933 70.4131L75.9232 70.4693H76.597C76.597 70.4693 76.8778 68.7256 76.9339 67.4881C77.1024 66.7006 76.9339 62.8195 76.2601 61.3007ZM76.7655 72.0443C76.6532 71.3131 76.3724 70.6943 75.9794 70.4131L75.2494 70.3568C74.8564 70.6381 74.6318 71.3693 74.7441 72.2131C74.8002 72.8318 75.0809 73.3943 75.3617 73.6755L76.4286 73.6193C76.7093 73.338 76.8216 72.7193 76.7655 72.0443ZM73.228 72.4381C73.1157 71.6506 73.228 70.8631 73.5087 70.3568L71.7119 70.3006C71.4311 70.8631 71.3188 71.5943 71.4311 72.4381C71.4873 73.0006 71.6558 73.5631 71.8804 74.013L73.6772 73.9005C73.4526 73.5068 73.2841 73.0006 73.228 72.4381ZM75.7548 85.6004C75.1933 84.3066 75.1371 83.0692 75.474 82.2817L73.3403 82.6192C72.7788 83.4066 72.7788 84.9816 73.2841 86.2754C73.7333 87.5128 74.5194 88.4691 75.5302 88.7503C75.6986 88.8066 75.9794 88.8066 76.3163 88.8066C76.3163 88.8066 76.3163 88.8066 76.3724 88.8066C76.9901 88.8066 77.5516 88.6941 78.3377 88.1878C77.3831 88.3003 76.4847 87.2316 75.7548 85.6004ZM74.7441 72.2693C74.6318 71.4256 74.8564 70.6943 75.2494 70.4131L73.4526 70.3568C73.228 70.8631 73.1157 71.6506 73.1718 72.4381C73.228 73.0006 73.3964 73.4506 73.5649 73.8443L75.3056 73.7318C75.081 73.4506 74.8564 72.9443 74.7441 72.2693ZM78.1692 77.1067C77.8885 75.5318 77.2147 73.6193 77.2147 73.6193L76.4286 73.6755L75.3617 73.7318L73.621 73.8443L71.8242 73.9568H71.375C71.375 73.9568 71.5434 76.488 72.0488 78.4567C72.498 80.4254 72.9472 82.6192 72.9472 82.6192L73.4526 82.5629L75.5863 82.2254L78.8992 81.6629C78.8431 81.7192 78.45 78.6817 78.1692 77.1067Z" stroke="#138BE1" stroke-width="0.8" stroke-miterlimit="10" stroke-linecap="round" stroke-linejoin="round"/>
<path d="M83.9535 77.1632C83.7851 76.9382 83.6166 76.5444 83.5043 76.1507C83.3359 75.3632 83.5605 74.632 83.8974 74.5195C83.8974 74.5195 83.8974 74.5195 83.9535 74.5195C84.2343 74.4632 84.515 74.6882 84.6835 75.1382L84.6273 74.5195C84.4589 74.4632 83.8974 74.1257 83.2797 73.957H83.2236C82.7743 74.0695 82.4374 74.9694 82.5498 75.9819C82.6059 76.5444 82.7743 77.0507 82.999 77.3319C83.1113 77.5007 83.2236 77.6132 83.3359 77.6694L83.6728 77.6132L84.4027 77.5007C84.2343 77.4444 84.0658 77.3319 83.9535 77.1632ZM84.7396 70.807C84.4027 69.682 83.7289 68.3883 83.1674 68.2758C82.6621 68.2195 81.7075 67.9946 81.146 69.232C80.5845 70.4695 80.1914 75.2507 80.1914 75.2507C80.1914 75.2507 80.416 75.0257 80.7529 74.7444C81.146 74.2945 81.7636 73.732 82.3813 73.7882C82.5497 73.7882 82.7182 73.8445 82.8867 73.8445C82.9428 73.8445 82.999 73.8445 83.1113 73.9007H83.1674C83.8412 74.0695 84.4027 74.3507 84.515 74.4632C84.6835 74.5757 84.7958 74.6882 84.7958 74.6882C84.7958 74.6882 85.245 72.2695 84.7396 70.807ZM84.9642 75.8694C84.9081 75.5882 84.8519 75.3069 84.7396 75.1382C84.515 74.7445 84.2343 74.4632 84.0097 74.5195C84.0097 74.5195 84.0097 74.5195 83.9535 74.5195C83.5605 74.632 83.392 75.3069 83.5605 76.1507C83.6166 76.5444 83.7851 76.9382 84.0097 77.1632C84.122 77.3319 84.3466 77.5007 84.4589 77.5007H84.6273C84.7396 77.4444 84.8519 77.3319 84.9081 77.1632C84.9081 77.1632 84.9081 77.1069 84.9642 77.1069C85.0204 76.7132 85.0204 76.2632 84.9642 75.8694ZM85.6942 77.1069C85.6942 77.1069 84.6835 77.3882 84.5712 77.4444H84.4027L83.6728 77.5569L83.3359 77.6132L81.146 78.0069C80.8091 78.1194 80.5845 78.2319 80.5845 78.2319L82.5498 84.7006C82.5498 84.7006 83.8974 84.2506 84.9642 83.7443C85.0765 83.6881 85.1327 83.6881 85.245 83.6318C85.5819 83.5193 85.9188 83.3506 86.3119 83.2381C86.368 83.2381 86.4803 83.1818 86.5365 83.1818C86.8734 83.0693 87.1541 83.0131 87.3787 82.9568C87.5472 82.9006 87.6595 82.9006 87.7718 82.9006C87.8841 82.9006 87.9402 82.8443 87.9402 82.8443L85.6942 77.1069ZM86.5365 85.038C86.3119 84.4756 86.1995 83.8568 86.3119 83.4068C86.3119 83.3506 86.3119 83.3506 86.3119 83.2943C85.9749 83.4068 85.5819 83.5193 85.245 83.6881V83.7443V83.8006C85.1888 84.3068 85.245 84.9256 85.5257 85.5443C85.5819 85.6568 85.6381 85.7693 85.6942 85.8818C86.1434 86.6693 86.7049 87.1755 87.3226 87.288C87.3787 87.2318 87.4349 87.1755 87.4349 87.063C87.5472 86.838 87.6595 86.6693 87.7718 86.4443C87.2664 86.2755 86.8172 85.713 86.5365 85.038ZM87.8279 82.9006C87.7156 82.9006 87.6033 82.9568 87.4349 82.9568C87.2103 83.0131 86.8734 83.0693 86.5926 83.1818C86.5365 83.1818 86.4242 83.2381 86.368 83.2381C86.368 83.2943 86.368 83.2943 86.368 83.3506C86.3119 83.8006 86.368 84.3631 86.5926 84.9818C86.8734 85.6568 87.3787 86.2193 87.8279 86.4443C87.8841 86.3318 87.8841 86.2755 87.9402 86.163C87.9964 86.0505 87.9964 85.9943 88.0525 85.938C88.3894 85.038 88.614 84.1943 88.6702 83.9131C88.3894 83.4631 88.1087 83.1256 87.8279 82.9006ZM82.999 77.3319C82.7743 76.9944 82.6059 76.4882 82.5498 75.9819C82.4374 74.9694 82.7182 74.0695 83.2236 73.957C83.1674 73.957 83.1113 73.9007 82.999 73.9007C82.8305 73.8445 82.662 73.8445 82.4936 73.8445C81.8198 73.7882 81.2583 74.3507 80.8652 74.8007C80.6406 75.0819 80.4722 75.3069 80.4722 75.3069C80.416 75.6444 80.416 76.0382 80.416 76.4319C80.4722 77.0507 80.6406 77.6694 80.8652 78.0632L81.146 78.0069L83.3359 77.6132C83.1674 77.5569 83.0551 77.4444 82.999 77.3319ZM85.6942 85.8818C85.6381 85.7693 85.5819 85.6568 85.5257 85.5443C85.3011 84.9256 85.245 84.2506 85.3011 83.7443H85.245L83.1113 84.5881C82.999 85.1505 83.1113 85.8818 83.392 86.5568C83.8412 87.6255 84.6273 88.3568 85.3573 88.4692C85.5257 88.413 85.6942 88.3567 85.8627 88.3005C86.0311 88.2443 86.1996 88.188 86.368 88.0755C86.7049 87.9068 86.9857 87.6255 87.2664 87.288C86.7049 87.1755 86.0873 86.6693 85.6942 85.8818ZM92.9377 86.5568C92.7692 86.5005 92.4885 86.5005 92.2639 86.6693L92.8254 87.1193C92.8254 87.1193 92.0954 90.0442 91.5339 90.8317C91.0847 91.4505 90.2986 92.1817 89.9617 92.4629C90.074 92.8004 90.1863 93.0254 90.4109 93.0817C91.1408 93.3629 92.2639 92.1254 92.9377 90.3255C93.6676 88.4693 93.6676 86.7818 92.9377 86.5568ZM92.8815 87.063C92.8815 87.063 92.1516 89.988 91.59 90.7755C91.1408 91.3942 90.3547 92.1254 90.0178 92.4067C89.9055 92.5192 89.8494 92.5192 89.8494 92.5192C89.8494 92.5192 84.6273 88.8067 84.6273 88.638C84.6273 88.5817 84.9642 88.5255 85.4135 88.413C85.5819 88.3567 85.7504 88.3005 85.9188 88.2442C86.0873 88.188 86.2557 88.1318 86.4242 88.0193C86.7611 87.8505 87.098 87.5693 87.3226 87.2318C87.3787 87.1755 87.4349 87.1193 87.4349 87.0068C87.5472 86.7818 87.6595 86.613 87.7718 86.388C87.8279 86.2755 87.8279 86.2193 87.8841 86.1068C87.9402 85.9943 87.9402 85.938 87.9964 85.8818C88.3333 84.9818 88.5579 84.1381 88.614 83.8568C88.614 83.8006 88.614 83.7443 88.614 83.7443L92.2639 86.5568L92.8815 87.063Z" fill="#F6F5F5"/>
<path d="M83.9535 74.5195C83.8974 74.5195 83.8974 74.5195 83.8974 74.5195C83.5605 74.632 83.3359 75.3632 83.5043 76.1507C83.6166 76.5444 83.7851 76.9382 83.9535 77.1632C84.0658 77.3319 84.2343 77.4444 84.4027 77.5007L83.6728 77.6132L83.3359 77.6694C83.2236 77.6132 83.1113 77.5007 82.999 77.3319M83.9535 74.5195C84.2343 74.4632 84.515 74.6882 84.6835 75.1382L84.6273 74.5195C84.4589 74.4632 83.8974 74.1257 83.2797 73.957H83.2236M83.9535 74.5195C84.0097 74.5195 84.0097 74.5195 84.0097 74.5195C84.2343 74.4632 84.515 74.7445 84.7396 75.1382C84.8519 75.3069 84.9081 75.5882 84.9642 75.8694C85.0204 76.2632 85.0204 76.7132 84.9642 77.1069C84.9081 77.1069 84.9081 77.1632 84.9081 77.1632C84.8519 77.3319 84.7396 77.4444 84.6273 77.5007H84.4589C84.3466 77.5007 84.122 77.3319 84.0097 77.1632C83.7851 76.9382 83.6166 76.5444 83.5605 76.1507C83.392 75.3069 83.5605 74.632 83.9535 74.5195ZM83.2236 73.957C82.7743 74.0695 82.4374 74.9694 82.5498 75.9819M83.2236 73.957C82.7182 74.0695 82.4374 74.9694 82.5498 75.9819M83.2236 73.957C83.1674 73.957 83.1113 73.9007 82.999 73.9007C82.8305 73.8445 82.662 73.8445 82.4936 73.8445C81.8198 73.7882 81.2583 74.3507 80.8652 74.8007C80.6406 75.0819 80.4722 75.3069 80.4722 75.3069C80.416 75.6444 80.416 76.0382 80.416 76.4319C80.4722 77.0507 80.6406 77.6694 80.8652 78.0632L81.146 78.0069M82.5498 75.9819C82.6059 76.5444 82.7743 77.0507 82.999 77.3319M82.5498 75.9819C82.6059 76.4882 82.7743 76.9944 82.999 77.3319M82.999 77.3319C83.0551 77.4444 83.1674 77.5569 83.3359 77.6132M83.3359 77.6132L83.6728 77.5569L84.4027 77.4444H84.5712C84.6835 77.3882 85.6942 77.1069 85.6942 77.1069L87.9402 82.8443C87.9402 82.8443 87.8841 82.9006 87.7718 82.9006C87.6595 82.9006 87.5472 82.9006 87.3787 82.9568C87.1541 83.0131 86.8734 83.0693 86.5365 83.1818C86.4803 83.1818 86.368 83.2381 86.3119 83.2381C85.9188 83.3506 85.5819 83.5193 85.245 83.6318C85.1327 83.6881 85.0765 83.6881 84.9642 83.7443C83.8974 84.2506 82.5498 84.7006 82.5498 84.7006L80.5845 78.2319C80.5845 78.2319 80.8091 78.1194 81.146 78.0069M83.3359 77.6132L81.146 78.0069M85.245 83.7443V83.6881C85.5819 83.5193 85.9749 83.4068 86.3119 83.2943C86.3119 83.3506 86.3119 83.3506 86.3119 83.4068C86.1995 83.8568 86.3119 84.4756 86.5365 85.038C86.8172 85.713 87.2664 86.2755 87.7718 86.4443C87.6595 86.6693 87.5472 86.838 87.4349 87.063C87.4349 87.1755 87.3787 87.2318 87.3226 87.288C86.7049 87.1755 86.1434 86.6693 85.6942 85.8818M85.245 83.7443V83.8006C85.1888 84.3068 85.245 84.9256 85.5257 85.5443M85.245 83.7443H85.3011C85.245 84.2506 85.3011 84.9256 85.5257 85.5443M85.245 83.7443L83.1113 84.5881C82.999 85.1505 83.1113 85.8818 83.392 86.5568C83.8412 87.6255 84.6273 88.3568 85.3573 88.4692C85.5257 88.413 85.6942 88.3567 85.8627 88.3005C86.0311 88.2443 86.1996 88.188 86.368 88.0755C86.7049 87.9068 86.9857 87.6255 87.2664 87.288C86.7049 87.1755 86.0873 86.6693 85.6942 85.8818M85.5257 85.5443C85.5819 85.6568 85.6381 85.7693 85.6942 85.8818M84.7396 70.807C84.4027 69.682 83.7289 68.3883 83.1674 68.2758C82.6621 68.2195 81.7075 67.9946 81.146 69.232C80.5845 70.4695 80.1914 75.2507 80.1914 75.2507C80.1914 75.2507 80.416 75.0257 80.7529 74.7444C81.146 74.2945 81.7636 73.732 82.3813 73.7882C82.5497 73.7882 82.7182 73.8445 82.8867 73.8445C82.9428 73.8445 82.999 73.8445 83.1113 73.9007H83.1674C83.8412 74.0695 84.4027 74.3507 84.515 74.4632C84.6835 74.5757 84.7958 74.6882 84.7958 74.6882C84.7958 74.6882 85.245 72.2695 84.7396 70.807ZM87.8279 82.9006C87.7156 82.9006 87.6033 82.9568 87.4349 82.9568C87.2103 83.0131 86.8734 83.0693 86.5926 83.1818C86.5365 83.1818 86.4242 83.2381 86.368 83.2381C86.368 83.2943 86.368 83.2943 86.368 83.3506C86.3119 83.8006 86.368 84.3631 86.5926 84.9818C86.8734 85.6568 87.3787 86.2193 87.8279 86.4443C87.8841 86.3318 87.8841 86.2755 87.9402 86.163C87.9964 86.0505 87.9964 85.9943 88.0525 85.938C88.3894 85.038 88.614 84.1943 88.6702 83.9131C88.3894 83.4631 88.1087 83.1256 87.8279 82.9006ZM92.9377 86.5568C92.7692 86.5005 92.4885 86.5005 92.2639 86.6693L92.8254 87.1193C92.8254 87.1193 92.0954 90.0442 91.5339 90.8317C91.0847 91.4505 90.2986 92.1817 89.9617 92.4629C90.074 92.8004 90.1863 93.0254 90.4109 93.0817C91.1408 93.3629 92.2639 92.1254 92.9377 90.3255C93.6676 88.4693 93.6676 86.7818 92.9377 86.5568ZM92.8815 87.063C92.8815 87.063 92.1516 89.988 91.59 90.7755C91.1408 91.3942 90.3547 92.1254 90.0178 92.4067C89.9055 92.5192 89.8494 92.5192 89.8494 92.5192C89.8494 92.5192 84.6273 88.8067 84.6273 88.638C84.6273 88.5817 84.9642 88.5255 85.4135 88.413C85.5819 88.3567 85.7504 88.3005 85.9188 88.2442C86.0873 88.188 86.2557 88.1318 86.4242 88.0193C86.7611 87.8505 87.098 87.5693 87.3226 87.2318C87.3787 87.1755 87.4349 87.1193 87.4349 87.0068C87.5472 86.7818 87.6595 86.613 87.7718 86.388C87.8279 86.2755 87.8279 86.2193 87.8841 86.1068C87.9402 85.9943 87.9402 85.938 87.9964 85.8818C88.3333 84.9818 88.5579 84.1381 88.614 83.8568C88.614 83.8006 88.614 83.7443 88.614 83.7443L92.2639 86.5568L92.8815 87.063Z" stroke="#138BE1" stroke-width="0.8" stroke-miterlimit="10" stroke-linecap="round" stroke-linejoin="round"/>
<path d="M24.1125 142.009C24.0796 142.096 24.0348 142.188 24.0019 142.275C24.5255 141.231 26.2708 135.718 27.0043 134.932C30.3219 130.801 36.5342 130.909 41.2423 131.898C48.1307 133.316 59.1864 139.993 56.9123 147.931L54.6081 153.977C57.6124 141.664 30.7537 131.024 24.1038 142.006L24.1125 142.009Z" fill="#F6F5F5" stroke="#1C1D22" stroke-width="0.8" stroke-linecap="round" stroke-linejoin="round"/>
<path d="M57.175 142.924C57.4395 142.487 57.9024 142.235 58.3899 142.101L60.6991 136.043C58.9975 136.025 57.7342 142.101 57.0701 143.123C57.0964 143.053 57.1347 142.978 57.1696 142.912L57.175 142.924Z" fill="#F6F5F5" stroke="#1C1D22" stroke-width="0.8" stroke-linecap="round" stroke-linejoin="round"/>
<path d="M28.8568 130.912L31.1628 124.862C31.5676 125.473 31.6561 126.054 31.4752 126.532L29.1693 132.582C29.2614 132.338 29.2806 132.077 29.2304 131.789C29.1769 131.511 29.0538 131.205 28.8482 130.908L28.8568 130.912Z" fill="#F6F5F5" stroke="#1C1D22" stroke-width="0.8" stroke-linecap="round" stroke-linejoin="round"/>
<path d="M61.148 151.521C61.148 151.521 61.113 151.588 61.0999 151.622C61.1994 151.412 63.3717 145.531 63.5168 145.357C64.124 144.433 65.3765 144.351 66.3893 144.456L64.0839 150.506C63.0538 150.394 61.6946 150.495 61.16 151.516L61.148 151.521Z" fill="#F6F5F5" stroke="#1C1D22" stroke-width="0.8" stroke-linecap="round" stroke-linejoin="round"/>
<path d="M19.4995 133.563C19.4138 133.501 19.3368 133.442 19.2511 133.38L21.5564 127.331C25.0908 128.989 21.3234 133.966 20.8196 136.272C21.2146 135.437 20.3413 134.121 19.4995 133.563Z" fill="#F6F5F5" stroke="#1C1D22" stroke-width="0.8" stroke-linecap="round" stroke-linejoin="round"/>
<path d="M66.426 151.565C65.9654 152.653 64.0552 158.103 63.4495 158.997C62.8899 158.665 62.2887 158.417 61.6547 158.256L60.0612 162.474C58.8278 163.27 57.4854 163.854 56.0955 164.302C54.7348 162.991 52.6674 162.237 50.7855 162.647L49.7604 165.36C47.6915 165.451 45.6221 165.332 43.5825 165.056C42.8745 162.412 37.3747 160.287 36.0401 163.321C34.3349 162.764 32.6572 162.108 31.0243 161.36C31.6613 158.36 26.7876 156.522 24.4321 157.608C22.9402 156.565 21.5172 155.419 20.1987 154.154L21.2107 151.475C20.0932 149.888 18.0227 149.064 16.1124 149.155C15.2443 147.722 14.6282 146.306 14.2716 144.938L15.8126 140.859C15.2736 140.525 14.6757 140.269 14.0657 140.097C14.1969 139.093 16.4297 133.656 16.7859 132.608C16.6085 133.077 16.4691 133.552 16.3698 134.051C21.869 135.678 19.4387 138.853 18.0923 142.548C18.1993 142.738 18.3063 142.928 18.4253 143.112C21.5461 142.943 25.4052 145.47 23.2028 148.751C24.3134 149.778 25.5133 150.7 26.7416 151.574C29.0809 150.452 34.0066 152.389 33.3339 155.325C34.9581 156.07 36.6217 156.711 38.3149 157.273C39.719 154.266 45.1667 156.371 45.8834 159.019C47.6135 159.247 49.359 159.382 51.0943 159.334C51.7799 155.338 55.9074 156.078 58.2805 158.151C59.9988 153.97 59.9759 150.064 65.7417 152.956C66.0006 152.507 66.2247 152.045 66.4141 151.57L66.426 151.565Z" fill="#F6F5F5" stroke="#1C1D22" stroke-width="0.8" stroke-linecap="round" stroke-linejoin="round"/>
<path d="M50.5619 145.984C48.3669 148.93 43.6722 148.851 39.5774 147.289C35.4826 145.726 31.733 142.436 32.4802 138.592C31.5967 141.877 28.1276 146.12 31.4468 149.447C35.0099 153.651 44.8612 157.396 48.4587 151.63L50.7663 145.574C50.7137 145.713 50.6525 145.849 50.5739 145.979L50.5619 145.984Z" fill="#F6F5F5" stroke="#1C1D22" stroke-width="0.8" stroke-linecap="round" stroke-linejoin="round"/>
<path d="M66.9642 149.358C65.7754 149.036 64.6181 148.369 63.9263 147.52C62.795 146.127 63.299 144.766 65.059 144.469C65.4732 144.397 65.9285 144.401 66.3847 144.455C66.0175 143.351 65.4841 142.214 64.7868 141.065C63.0772 141.202 60.9523 140.337 59.8968 139.032C58.8381 137.735 59.2038 136.452 60.7033 136.056C59.4217 134.824 58.0017 133.67 56.4783 132.605C56.2324 132.73 55.9463 132.831 55.606 132.891C53.846 133.188 51.4963 132.287 50.3617 130.902C49.7566 130.166 49.6186 129.427 49.8909 128.864C48.3273 128.142 46.7102 127.509 45.069 126.967C44.9204 127.597 44.3365 128.091 43.3635 128.249C41.6035 128.547 39.2538 127.646 38.1192 126.261C37.8194 125.899 37.6368 125.541 37.5596 125.194C35.3831 124.886 33.2342 124.767 31.1651 124.858C32.0272 126.149 31.4705 127.36 29.8289 127.633C28.1874 127.905 26.0318 127.148 24.8207 125.913C23.607 126.288 22.5211 126.772 21.5589 127.322C21.971 127.597 22.3286 127.912 22.6144 128.259C23.7457 129.652 23.2418 131.012 21.4817 131.31C20.3576 131.5 18.9916 131.201 17.858 130.602C17.1257 131.647 16.6333 132.793 16.384 134.031C17.5641 134.349 18.7041 135.01 19.3872 135.856C20.5185 137.249 20.0145 138.609 18.2545 138.906C17.737 138.989 17.1677 138.972 16.59 138.872C16.9466 140.24 17.5627 141.657 18.4309 143.09C20.1405 142.953 22.2621 143.827 23.3209 145.123C24.3796 146.419 24.0139 147.703 22.5144 148.099C23.7961 149.33 25.216 150.485 26.7481 151.553C26.994 151.428 27.2801 151.327 27.6204 151.267C29.3804 150.97 31.7334 151.862 32.8647 153.256C33.4698 153.992 33.6078 154.73 33.3322 155.302C34.9653 156.051 36.6431 156.707 38.3484 157.264C38.4494 156.576 39.0551 156.05 40.0727 155.879C41.8327 155.581 44.1857 156.473 45.317 157.867C45.6363 158.256 45.821 158.635 45.8916 159C47.9867 159.287 50.0628 159.388 52.0613 159.3C51.1992 158.009 51.7559 156.798 53.3975 156.525C55.039 156.252 57.2033 157.013 58.4057 158.245C59.9142 157.772 61.2406 157.152 62.3631 156.414C61.7067 156.075 61.1224 155.625 60.6991 155.117C59.5678 153.723 60.0718 152.363 61.8318 152.066C63.0591 151.865 64.5695 152.229 65.7484 152.944C66.4004 151.849 66.8072 150.641 66.9556 149.355L66.9642 149.358ZM50.1065 152.493C42.8391 153.706 33.1146 150.019 28.426 144.274C23.7374 138.529 25.8439 132.874 33.108 131.67C40.3753 130.458 50.0999 134.144 54.7885 139.889C59.4771 145.634 57.3705 151.289 50.1032 152.502L50.1065 152.493Z" fill="white"/>
<path d="M16.59 138.872C17.1677 138.972 17.737 138.989 18.2545 138.906C20.0145 138.609 20.5185 137.249 19.3872 135.856C18.7041 135.01 17.5641 134.349 16.384 134.031C16.6333 132.793 17.1257 131.647 17.858 130.602C18.9916 131.201 20.3576 131.5 21.4817 131.31C23.2417 131.012 23.7457 129.652 22.6144 128.259C22.3286 127.912 21.971 127.597 21.5589 127.322C22.5211 126.772 23.607 126.288 24.8207 125.913C26.0318 127.148 28.1874 127.905 29.8289 127.633C31.4705 127.36 32.0272 126.149 31.1651 124.858C33.2342 124.767 35.3831 124.886 37.5596 125.194C37.6368 125.541 37.8194 125.899 38.1192 126.261C39.2538 127.646 41.6035 128.547 43.3635 128.249C44.3365 128.091 44.9204 127.597 45.069 126.967C46.7102 127.509 48.3273 128.142 49.8909 128.864C49.6186 129.427 49.7566 130.166 50.3617 130.902C51.4963 132.287 53.846 133.188 55.606 132.891C55.9463 132.831 56.2324 132.73 56.4783 132.605C58.0017 133.67 59.4217 134.824 60.7033 136.056C59.2038 136.452 58.8381 137.735 59.8968 139.032C60.9523 140.337 63.0772 141.202 64.7868 141.065C65.4841 142.214 66.0175 143.351 66.3847 144.455C65.9285 144.401 65.4732 144.397 65.059 144.469C63.299 144.766 62.795 146.127 63.9263 147.52C64.6181 148.369 65.7754 149.036 66.9642 149.358L66.9556 149.355C66.8072 150.641 66.4004 151.849 65.7484 152.944C64.5695 152.229 63.0591 151.865 61.8318 152.066C60.0718 152.363 59.5678 153.723 60.6991 155.117C61.1224 155.625 61.7067 156.075 62.3631 156.414M16.59 138.872C16.9466 140.24 17.5627 141.657 18.4309 143.09M16.59 138.872L15.8332 140.875M18.4309 143.09C20.1405 142.953 22.2621 143.827 23.3209 145.123C24.3796 146.419 24.0139 147.703 22.5144 148.099M18.4309 143.09L16.1802 149.183M22.5144 148.099C23.7961 149.33 25.216 150.485 26.7481 151.553M22.5144 148.099L20.265 154.053M26.7481 151.553C26.994 151.428 27.2801 151.327 27.6204 151.267C29.3804 150.97 31.7334 151.862 32.8647 153.256C33.4698 153.992 33.6078 154.73 33.3322 155.302M26.7481 151.553L24.4345 157.678M33.3322 155.302C34.9653 156.051 36.6431 156.707 38.3484 157.264M33.3322 155.302L31.0949 161.225M38.3484 157.264C38.4494 156.576 39.0551 156.05 40.0727 155.879C41.8327 155.581 44.1857 156.473 45.317 157.867C45.6363 158.256 45.821 158.635 45.8916 159M38.3484 157.264L36.0464 163.357M45.8916 159C47.9867 159.287 50.0628 159.388 52.0613 159.3M45.8916 159L43.556 165.182M52.0613 159.3C51.1992 158.009 51.7559 156.798 53.3975 156.525C55.039 156.252 57.2033 157.013 58.4057 158.245M52.0613 159.3L49.8119 165.254M58.4057 158.245C59.9142 157.772 61.2406 157.152 62.3631 156.414M58.4057 158.245L56.1104 164.32M62.3631 156.414L61.6687 158.252M50.1065 152.493C42.8391 153.706 33.1146 150.019 28.426 144.274C23.7374 138.529 25.8439 132.874 33.108 131.67C40.3753 130.458 50.0999 134.144 54.7885 139.889C59.4771 145.634 57.3705 151.289 50.1032 152.502L50.1065 152.493Z" stroke="#1C1D22" stroke-width="0.8" stroke-linecap="round" stroke-linejoin="round"/>
<path d="M49.4873 140.77C52.291 144.2 51.0368 147.572 46.695 148.293C42.3532 149.013 36.5622 146.818 33.7584 143.388C30.9546 139.959 32.2089 136.586 36.5506 135.866C40.8924 135.145 46.6868 137.332 49.4873 140.77Z" fill="white" stroke="#1C1D22" stroke-width="0.8" stroke-linecap="round" stroke-linejoin="round"/>
<path d="M174.501 38.3618C174.501 38.3618 174.523 38.387 174.534 38.3995C174.172 37.7469 171.366 35.4369 171.837 34.5399L174.37 37.4149C174.29 37.7425 174.298 38.0935 174.508 38.3562L174.501 38.3618Z" fill="white" stroke="#1C1D22" stroke-width="0.8" stroke-linecap="round" stroke-linejoin="round"/>
<path d="M160.905 49.8547C161.062 49.9062 161.205 49.9925 161.305 50.1057L158.772 47.2307C158.579 46.9987 158.248 46.8768 157.818 46.9209L160.351 49.7959C160.56 49.7794 160.748 49.8032 160.912 49.8491L160.905 49.8547Z" fill="white" stroke="#1C1D22" stroke-width="0.8" stroke-linecap="round" stroke-linejoin="round"/>
<path d="M179.994 38.52C179.68 37.9476 179.983 37.2659 180.316 36.7702L177.783 33.8952C177.463 34.3799 177.166 35.0561 177.462 35.6332C177.547 35.793 179.978 38.5011 180.081 38.6443C180.048 38.6065 180.02 38.5751 180 38.5263L179.994 38.52Z" fill="white" stroke="#1C1D22" stroke-width="0.8" stroke-linecap="round" stroke-linejoin="round"/>
<path d="M159.383 55.3361C159.894 55.119 160.653 55.1313 160.921 55.4988C159.888 54.6434 158.234 51.1825 156.447 52.6377L158.98 55.5126C159.103 55.4491 159.237 55.3863 159.383 55.3361Z" fill="white" stroke="#1C1D22" stroke-width="0.8" stroke-linecap="round" stroke-linejoin="round"/>
<path d="M166.914 54.5911C166.942 54.6225 166.975 54.6603 167.003 54.6917C166.813 54.5906 163.686 53.2701 163.768 52.9962C163.234 52.0358 162.676 49.5533 162.507 48.4615C162.571 44.9372 165.391 42.0328 168.267 40.3318C169.651 39.6353 171.558 39.0134 172.827 38.0602C174.551 37.7119 175.852 41.3166 176.617 42.1846L178.634 44.4744C174.035 40.5838 163.893 49.2619 166.921 54.5737L166.914 54.5911Z" fill="#F6F5F5" stroke="#1C1D22" stroke-width="0.8" stroke-linecap="round" stroke-linejoin="round"/>
<path d="M181.628 35.9616C181.788 36.1558 181.93 36.3549 182.059 36.565C181.182 37.1273 180.192 38.1694 180.49 39.2931C180.366 39.2912 182.675 41.8488 182.719 41.911C182.694 41.9213 182.664 41.9254 182.634 41.9412C181.856 42.2366 181.173 42.8171 180.749 43.5386C180.516 43.9456 180.331 44.4447 180.48 44.9056C180.524 45.1579 181.202 45.8007 181.349 46.006C180.889 46.9273 180.336 47.807 179.738 48.6483C178.291 48.1706 175.448 50.7707 176.734 52.1291C175.977 52.8652 175.18 53.5573 174.34 54.1991C173.127 52.9997 170.667 55.0716 170.562 56.4845C170.559 56.5319 170.556 56.5792 170.553 56.6147C169.757 57.0276 168.939 57.3917 168.096 57.6888L167.398 56.8962C166.495 56.0491 164.882 57.1053 164.243 57.938C164.081 58.1476 163.937 58.376 163.827 58.6186C163.696 58.6222 163.571 58.6321 163.44 58.6357L161.462 56.39C160.674 55.5977 159.167 56.4705 158.523 57.1842C158.292 56.9973 158.079 56.7938 157.879 56.5673C158.325 57.035 161.569 60.8813 162.008 61.1645C162.268 60.89 162.562 60.6531 162.882 60.4595L162.888 60.454L164.595 62.3915C165.402 62.585 166.311 62.6544 167.299 62.5982C167.778 61.5712 168.787 60.7143 169.929 60.5667L171.048 61.8374C172.066 61.4979 173.065 61.074 174.015 60.5817C174.018 59.8632 174.636 58.9934 175.378 58.4048C176.657 57.3869 177.789 58.1654 177.789 58.1654C178.631 57.5118 179.433 56.8141 180.196 56.0843C180.196 56.0843 179.29 55.0171 180.713 53.5925C181.427 52.8833 182.429 52.4121 183.188 52.6145C183.896 51.6199 184.531 50.5671 185.05 49.4595L183.914 48.17C184.22 47.0726 185.188 46.1954 186.248 45.8407C186.384 45.0831 186.449 44.3209 186.407 43.5521C186.396 43.4504 186.39 43.355 186.384 43.2595L184.622 41.2592C184.883 40.9728 185.183 40.7185 185.51 40.5194C185.285 40.036 181.88 36.2983 181.478 35.8036C181.517 35.8476 181.55 35.8853 181.589 35.9294L181.628 35.9616Z" fill="#F6F5F5" stroke="#1C1D22" stroke-width="0.8" stroke-linecap="round" stroke-linejoin="round"/>
<path d="M180.515 34.9405C180.019 35.4794 179.352 35.9005 178.716 36.0266C177.676 36.24 177.099 35.5976 177.435 34.5853C177.515 34.3468 177.642 34.1113 177.792 33.8892C177.111 33.7748 176.372 33.734 175.58 33.7849C175.178 34.7217 174.139 35.5945 173.166 35.7824C172.193 35.9822 171.628 35.4297 171.832 34.5338C170.839 34.863 169.839 35.2869 168.859 35.7951C168.86 35.9615 168.826 36.1375 168.76 36.3294C168.425 37.3298 167.308 38.3165 166.269 38.5299C165.716 38.6375 165.291 38.5096 165.072 38.2107C164.262 38.8366 163.486 39.5003 162.753 40.2142C163.046 40.4703 163.138 40.9038 162.949 41.4621C162.614 42.4626 161.497 43.4492 160.457 43.6627C160.181 43.7165 159.944 43.7133 159.752 43.6596C158.986 44.716 158.331 45.8091 157.805 46.9222C158.718 46.8315 159.202 47.4561 158.889 48.3926C158.575 49.3291 157.581 50.2522 156.608 50.5411C156.467 51.2807 156.418 51.9844 156.442 52.6452C156.7 52.5071 156.967 52.4052 157.225 52.3562C158.264 52.1428 158.835 52.7907 158.506 53.7975C158.295 54.4316 157.763 55.0691 157.137 55.4988C157.481 56.168 157.944 56.7438 158.525 57.2142C159.021 56.6872 159.681 56.2716 160.306 56.1448C161.346 55.9314 161.917 56.5793 161.587 57.5861C161.492 57.883 161.325 58.1754 161.107 58.4467C161.92 58.6347 162.829 58.7041 163.817 58.6478C164.219 57.711 165.258 56.8382 166.231 56.6503C167.204 56.4505 167.769 57.003 167.565 57.8989C168.559 57.5697 169.558 57.1458 170.538 56.6376C170.537 56.4712 170.571 56.2952 170.637 56.1033C170.972 55.1028 172.089 54.1162 173.122 53.9083C173.674 53.8007 174.1 53.9286 174.318 54.2275C175.159 53.5857 175.968 52.8825 176.725 52.1464C176.397 51.8999 176.283 51.4412 176.479 50.8656C176.813 49.8651 177.931 48.8784 178.964 48.6706C179.258 48.612 179.507 48.6158 179.711 48.6822C180.438 47.659 181.068 46.5999 181.573 45.5271C180.66 45.6178 180.177 44.9932 180.49 44.0567C180.803 43.1202 181.797 42.1971 182.77 41.9082C182.94 40.9864 182.982 40.1218 182.907 39.327C182.547 39.5775 182.15 39.7603 181.772 39.8373C180.732 40.0507 180.161 39.4028 180.491 38.396C180.724 37.698 181.33 37.0057 182.033 36.5868C181.64 35.9383 181.121 35.4006 180.49 34.9627L180.515 34.9405ZM175.873 44.7566C174.778 48.0613 171.1 51.3094 167.676 51.9957C164.252 52.682 162.361 50.5606 163.456 47.2559C164.55 43.9513 168.228 40.7031 171.658 40.0113C175.082 39.325 176.974 41.4464 175.879 44.7511L175.873 44.7566Z" fill="white"/>
<path d="M161.107 58.4467C161.325 58.1754 161.492 57.883 161.587 57.5861C161.917 56.5793 161.346 55.9314 160.306 56.1448C159.681 56.2716 159.021 56.6872 158.525 57.2142C157.944 56.7438 157.481 56.168 157.137 55.4988C157.763 55.0691 158.295 54.4316 158.506 53.7975C158.835 52.7907 158.264 52.1428 157.225 52.3562C156.967 52.4052 156.7 52.5071 156.442 52.6452C156.418 51.9844 156.467 51.2807 156.608 50.5411C157.581 50.2522 158.575 49.3291 158.889 48.3926C159.202 47.4561 158.718 46.8315 157.805 46.9222C158.331 45.8091 158.986 44.716 159.752 43.6596C159.944 43.7133 160.181 43.7165 160.457 43.6627C161.497 43.4492 162.614 42.4626 162.949 41.4621C163.138 40.9038 163.046 40.4703 162.753 40.2142C163.486 39.5003 164.262 38.8366 165.072 38.2107C165.291 38.5096 165.716 38.6375 166.269 38.5299C167.308 38.3165 168.425 37.3298 168.76 36.3294C168.826 36.1375 168.86 35.9615 168.859 35.7951C169.839 35.2869 170.839 34.863 171.832 34.5338C171.628 35.4297 172.193 35.9822 173.166 35.7824C174.139 35.5945 175.178 34.7217 175.58 33.7849C176.372 33.734 177.111 33.7748 177.792 33.8892C177.642 34.1113 177.515 34.3468 177.435 34.5853C177.099 35.5976 177.676 36.24 178.716 36.0266C179.352 35.9005 180.019 35.4794 180.515 34.9405L180.49 34.9627C181.121 35.4006 181.64 35.9383 182.033 36.5868C181.33 37.0057 180.724 37.698 180.491 38.396C180.161 39.4028 180.732 40.0507 181.772 39.8373C182.15 39.7603 182.547 39.5775 182.907 39.327M161.107 58.4467C161.92 58.6347 162.829 58.7041 163.817 58.6478M161.107 58.4467L162.868 60.4462M163.817 58.6478C164.219 57.711 165.258 56.8382 166.231 56.6503C167.204 56.4505 167.769 57.003 167.565 57.8989M163.817 58.6478L167.283 62.5822M167.565 57.8989C168.559 57.5697 169.558 57.1458 170.538 56.6376M167.565 57.8989L170.994 61.8918M170.538 56.6376C170.537 56.4712 170.571 56.2952 170.637 56.1033C170.972 55.1028 172.089 54.1162 173.122 53.9083C173.674 53.8007 174.1 53.9286 174.318 54.2275M170.538 56.6376L174.053 60.6269M174.318 54.2275C175.159 53.5857 175.968 52.8825 176.725 52.1464M174.318 54.2275L177.709 58.2602M176.725 52.1464C176.397 51.8999 176.283 51.4412 176.479 50.8656C176.813 49.8651 177.931 48.8784 178.964 48.6706C179.258 48.612 179.507 48.6158 179.711 48.6822M176.725 52.1464L180.185 56.0733M179.711 48.6822C180.438 47.659 181.068 46.5999 181.573 45.5271M179.711 48.6822L183.153 52.5896M181.573 45.5271C180.66 45.6178 180.177 44.9932 180.49 44.0567C180.803 43.1202 181.797 42.1971 182.77 41.9082M181.573 45.5271L185.052 49.4756M182.77 41.9082C182.94 40.9864 182.982 40.1218 182.907 39.327M182.77 41.9082L186.237 45.8426M182.907 39.327L186.143 43.0007M175.873 44.7566C174.778 48.0613 171.1 51.3094 167.676 51.9957C164.252 52.682 162.361 50.5606 163.456 47.2559C164.55 43.9513 168.228 40.7031 171.658 40.0113C175.082 39.325 176.974 41.4464 175.879 44.7511L175.873 44.7566Z" stroke="#1C1D22" stroke-width="0.8" stroke-linecap="round" stroke-linejoin="round"/>
</svg>
