<svg width="295" height="226" viewBox="0 0 295 226" fill="none" xmlns="http://www.w3.org/2000/svg">
<g clip-path="url(#clip0_3437_35472)">
<path d="M159.514 212.985C159.514 212.985 56.8783 150.662 57.1509 148.688C57.4236 146.741 62.0591 142.601 62.0591 142.601C62.0591 142.601 116.513 111.81 119.212 111.344C121.912 110.85 125.947 109.342 136.527 115.84C147.107 122.339 226.756 170.87 226.756 170.87C226.756 170.87 227.629 175.23 226.429 175.778C225.202 176.326 159.514 212.985 159.514 212.985Z" fill="white"/>
<path d="M232.343 100.157L230.925 164.07C230.843 166.785 230.898 169.115 229.344 169.965L237.033 165.715C238.587 164.865 239.596 162.973 239.651 160.259L241.423 96.318C241.587 90.8616 237.933 84.144 233.27 81.265L143.559 26.0981C141.214 24.6724 139.06 24.4804 137.506 25.3578L129.816 29.6078C131.398 28.7303 132.516 29.9916 134.861 31.4448L225.417 86.4472L231.034 94.0148L232.343 100.157Z" fill="#F6F5F5"/>
<path d="M127.093 56.122L127.011 35.9691C127.174 30.5675 130.583 28.2644 135.218 31.1159L224.875 87.3795C229.074 89.6827 233.11 95.3859 232.946 102.295L230.928 164.07C230.765 169.472 227.574 171.446 222.966 168.594L133.991 113.894C129.383 111.069 124.775 104.352 124.911 98.9503L127.093 56.122Z" fill="white"/>
<path d="M226.401 100.349C226.483 97.4427 224.138 93.1105 221.657 91.6025L140.508 41.7275C137.863 40.1097 134.455 41.9468 134.346 45.0726L132.846 99.1701C132.764 102.076 135.109 106.409 137.59 107.917L218.739 157.792C221.384 159.409 224.793 157.572 224.902 154.447L226.401 100.349Z" fill="white"/>
<path d="M213.175 192.421L222.855 187.596C225.2 186.307 226.318 184.113 226.372 182.331L226.618 173.557C226.563 175.339 225.254 176.601 222.909 177.889L167.965 208.407C163.22 211.011 155.64 210.819 151.031 207.968L61.6477 153.103C59.3299 151.677 57.8029 150.416 57.8575 148.633L57.6121 157.407C57.5575 159.217 58.321 161.493 60.6388 162.919L150.459 218.25C155.094 221.101 162.675 221.293 167.392 218.689L200.304 199.578" fill="#F6F5F5"/>
<path d="M134.535 46.4155L133.063 99.142C132.981 102.295 135.462 106.874 138.162 108.547L217.265 157.16C220.483 159.135 224.655 156.886 224.737 153.075L226.209 100.348C226.291 97.1953 223.81 92.6163 221.11 90.9438L142.006 42.3575C138.789 40.3559 134.644 42.6317 134.535 46.4155Z" fill="white" stroke="#138BE1" stroke-miterlimit="10"/>
<path d="M125.564 73.8346L124.91 98.9503C124.801 102.981 126.682 107.642 129.491 111.124C125.128 110.165 120.083 110.603 116.566 112.55L79.836 132.785M126.955 34.8997C127.091 30.1562 130.172 28.5659 134.181 31.0062L224.628 86.6118C228.5 88.7504 232.508 94.0971 232.345 100.87C231.772 121.16 231.472 131.963 230.545 165.304C230.409 169.883 227.436 171.72 223.346 169.198L132.899 113.619C128.509 110.905 125.019 104.516 125.182 99.3616M148.414 28.2917L144.433 25.8515C141.87 24.2886 139.389 24.0144 137.426 25.0837L129.791 29.2788C127.855 30.3482 126.764 32.5691 126.682 35.5303L126.109 56.0671M66.8838 139.942L61.2394 143.04C58.649 144.466 57.2038 146.467 57.122 148.688L56.8766 157.435C56.822 159.683 58.1854 161.794 60.7486 163.357L149.751 218.058C154.604 221.047 162.621 221.266 167.638 218.497L200.605 200.373L213.421 193.299L222.964 188.034C225.555 186.609 227 184.607 227.082 182.386L227.327 173.639C227.327 173.639 227.327 173.639 227.327 173.612C227.355 172.652 227.545 172.077 226.564 170.843C226.618 170.843 226.673 170.87 226.727 170.87C227.709 170.898 228.636 170.678 229.454 170.239L237.089 166.044C239.025 164.975 240.143 162.754 240.225 159.793L241.97 96.3729C242.134 90.6698 238.289 83.5683 233.408 80.5796L158.34 34.4062M227.355 173.201C227.327 173.502 227.246 173.804 227.109 174.106C226.646 175.038 225.555 175.97 223.946 176.847C221.492 178.191 170.201 206.487 167.42 207.995C162.894 210.49 155.64 210.298 151.196 207.584L60.285 151.677C56.2767 149.209 56.304 145.809 60.4214 143.533" stroke="#041C2D" stroke-miterlimit="10" stroke-linecap="round" stroke-linejoin="round"/>
<path d="M129.517 118.033L93.5234 137.994L175.354 189.103L211.375 169.142L129.517 118.033Z" fill="#F6F5F5" stroke="#041C2D" stroke-miterlimit="10" stroke-linecap="round" stroke-linejoin="round"/>
<path d="M94.3945 163.192L109.474 154.83L148.494 179.178L133.415 187.54L94.3945 163.192Z" fill="#F6F5F5" stroke="#041C2D" stroke-miterlimit="10" stroke-linecap="round" stroke-linejoin="round"/>
<path d="M105.521 131.331L187.379 182.44" stroke="#041C2D" stroke-miterlimit="10" stroke-linecap="round" stroke-linejoin="round"/>
<path d="M117.631 125.107L199.08 175.969" stroke="#041C2D" stroke-miterlimit="10" stroke-linecap="round" stroke-linejoin="round"/>
<path d="M104.047 144.437L140.477 125.189" stroke="#041C2D" stroke-miterlimit="10" stroke-linecap="round" stroke-linejoin="round"/>
<path d="M126.492 144.437L150.651 131.66" stroke="#041C2D" stroke-miterlimit="10" stroke-linecap="round" stroke-linejoin="round"/>
<path d="M138.186 151.374L162.372 138.57" stroke="#041C2D" stroke-miterlimit="10" stroke-linecap="round" stroke-linejoin="round"/>
<path d="M149.721 158.394L173.689 145.726" stroke="#041C2D" stroke-miterlimit="10" stroke-linecap="round" stroke-linejoin="round"/>
<path d="M148.768 172.048L185.006 152.882" stroke="#041C2D" stroke-miterlimit="10" stroke-linecap="round" stroke-linejoin="round"/>
<path d="M184.898 167.113L197.496 160.45" stroke="#041C2D" stroke-miterlimit="10" stroke-linecap="round" stroke-linejoin="round"/>
<path d="M161.26 179.973L173.285 173.611" stroke="#041C2D" stroke-miterlimit="10" stroke-linecap="round" stroke-linejoin="round"/>
<path d="M161.04 108.904L162.076 68.5704C162.076 68.0495 162.649 67.7479 163.085 68.0221L215.194 99.0877C215.794 99.4441 216.148 100.13 216.094 100.842L213.149 141.011C213.094 141.724 212.304 142.135 211.704 141.752L162.376 111.399C161.504 110.878 161.013 109.918 161.04 108.904Z" fill="white" stroke="#041C2D" stroke-miterlimit="10"/>
<path d="M161.641 71.7234L215.522 104.105" stroke="#041C2D" stroke-miterlimit="10"/>
<path d="M212.932 97.964L212.469 102.269" stroke="#041C2D" stroke-miterlimit="10"/>
<path d="M172.137 89.2992C172.164 89.2717 174.127 88.2847 174.891 87.7363C175.845 87.0508 177.209 87.1331 178.599 87.9556C181.299 89.5185 183.48 93.3297 183.48 96.4555C183.48 97.9361 182.989 99.0603 182.089 99.6361C181.926 99.7458 181.626 99.9103 181.462 100.02C183.507 102.515 184.789 105.751 184.789 108.465V114.47C184.789 114.497 184.762 114.552 184.734 114.579L181.817 116.225C181.817 116.225 181.19 106.765 180.699 105.696C180.208 104.626 178.19 101.555 178.19 101.555C178.19 101.555 183.207 99.17 177.699 91.7394C174.127 86.8315 172.137 89.2992 172.137 89.2992Z" fill="#F6F5F5"/>
<path d="M181.844 116.389L184.762 114.744C184.789 114.717 184.816 114.689 184.816 114.634V108.63C184.816 105.915 183.535 102.707 181.49 100.184C181.653 100.102 181.953 99.9103 182.117 99.8006C183.017 99.2248 183.507 98.1007 183.507 96.62C183.507 93.4943 181.326 89.683 178.627 88.1202C177.209 87.2976 175.872 87.2154 174.918 87.9008C174.155 88.4218 172.219 89.4363 172.164 89.4637" stroke="#138BE1" stroke-miterlimit="10" stroke-linecap="round" stroke-linejoin="round"/>
<path d="M172.163 89.4912C171.263 90.0121 170.772 91.1089 170.772 92.5621C170.772 94.3443 171.508 96.483 172.763 98.2652C172.79 98.2926 172.79 98.3475 172.763 98.3749C172.736 98.4023 172.708 98.4297 172.654 98.4297C171.699 98.3749 170.854 98.6765 170.227 99.2523C169.409 100.047 168.945 101.309 168.945 102.926V108.959L181.679 116.362V110.494C181.679 107.697 180.343 104.38 178.162 101.83C178.135 101.802 178.135 101.747 178.135 101.72C178.135 101.693 178.189 101.665 178.216 101.638C179.552 101.391 180.316 100.13 180.316 98.2926C180.316 95.1943 178.135 91.4105 175.462 89.8476C174.699 89.4089 173.963 89.1896 173.308 89.1896C172.926 89.1621 172.517 89.2718 172.163 89.4912Z" fill="white" stroke="#138BE1" stroke-miterlimit="10" stroke-linecap="round" stroke-linejoin="round"/>
<path d="M178.789 101.747L181.57 100.157" stroke="#138BE1" stroke-miterlimit="10" stroke-linecap="round" stroke-linejoin="round"/>
<path d="M191.908 101.007C191.935 100.98 193.899 99.9925 194.662 99.4442C195.617 98.7587 196.98 98.8409 198.371 99.6635C201.07 101.226 203.252 105.038 203.252 108.163C203.252 109.644 202.761 110.768 201.861 111.344C201.697 111.454 201.397 111.618 201.234 111.728C203.279 114.223 204.56 117.458 204.56 120.173V126.178C204.56 126.205 204.533 126.26 204.506 126.287L201.588 127.932C201.588 127.932 200.961 118.473 200.47 117.404C199.979 116.334 197.962 113.263 197.962 113.263C197.962 113.263 202.979 110.878 197.471 103.447C193.899 98.5393 191.908 101.007 191.908 101.007Z" fill="#F6F5F5"/>
<path d="M201.616 127.905L204.533 126.26C204.561 126.233 204.588 126.205 204.588 126.15V120.146C204.588 117.431 203.306 114.223 201.261 111.7C201.425 111.618 201.725 111.426 201.888 111.317C202.788 110.741 203.279 109.617 203.279 108.136C203.279 105.01 201.098 101.199 198.398 99.6362C196.98 98.8136 195.644 98.7313 194.69 99.4168C193.926 99.9378 191.99 100.952 191.936 100.98" stroke="#041C2D" stroke-miterlimit="10" stroke-linecap="round" stroke-linejoin="round"/>
<path d="M198.561 113.263L201.369 111.673" stroke="#041C2D" stroke-miterlimit="10" stroke-linecap="round" stroke-linejoin="round"/>
<path d="M191.934 101.007C191.035 101.528 190.544 102.625 190.544 104.078C190.544 105.86 191.28 107.999 192.534 109.781C192.562 109.809 192.562 109.863 192.534 109.891C192.507 109.918 192.48 109.946 192.425 109.946C191.471 109.891 190.626 110.192 189.998 110.768C189.18 111.563 188.717 112.825 188.717 114.442V120.474L201.451 127.878V122.01C201.451 119.213 200.115 115.896 197.933 113.346C197.906 113.318 197.906 113.263 197.906 113.236C197.906 113.208 197.961 113.181 197.988 113.154C199.324 112.907 200.087 111.646 200.087 109.809C200.087 106.71 197.906 102.926 195.234 101.363C194.47 100.925 193.734 100.705 193.08 100.705C192.725 100.678 192.316 100.788 191.934 101.007Z" fill="white" stroke="#041C2D" stroke-miterlimit="10" stroke-linecap="round" stroke-linejoin="round"/>
<path d="M153.65 74.1909C153.65 77.865 152.587 80.5795 150.869 81.9779C150.569 82.2246 150.269 82.4166 149.942 82.5811L149.397 82.8279L145.552 84.1714C144.707 84.4182 143.78 84.4456 142.798 84.1988V88.8874L139.171 90.1761L133.909 79.4828L115.285 68.762C110.158 65.8007 106.014 57.575 106.014 50.3365C106.014 46.7172 107.05 44.0301 108.713 42.6043C109.231 42.1656 109.831 41.8366 110.458 41.6447L113.376 40.6302C113.676 40.4931 114.003 40.3834 114.33 40.3011C115.666 39.9995 117.221 40.2737 118.884 41.206L144.189 55.5735C149.424 58.5073 153.65 66.8701 153.65 74.1909Z" fill="white"/>
<path d="M113.378 40.6026C113.678 40.4655 114.005 40.3558 114.333 40.2735C115.669 39.9719 117.223 40.2461 118.886 41.1784L144.191 55.5459C149.399 58.5071 153.653 66.8425 153.653 74.1633C153.653 77.8375 152.589 80.5519 150.871 81.9503C150.571 82.1971 150.271 82.389 149.944 82.5535L149.399 82.8003L145.554 84.1438C145.554 84.1438 149.317 83.2116 149.862 77.7278C150.408 72.244 148.963 65.1425 144.382 60.0974C139.801 55.0523 114.442 42.0284 114.442 42.0284L111.006 41.4251L113.378 40.6026Z" fill="#F6F5F5"/>
<path d="M139.17 90.1482L142.797 88.8595V84.1709C142.088 84.0064 141.351 83.7048 140.588 83.2661L139.17 82.6628V90.1482Z" fill="#F6F5F5"/>
<path d="M150.024 75.452C150.024 78.989 149.042 81.6212 147.461 83.0744C147.406 83.1293 147.324 83.1841 147.27 83.239C146.752 83.6502 146.179 83.9793 145.552 84.1438C144.707 84.3905 143.78 84.418 142.798 84.1712C142.089 84.0067 141.353 83.7051 140.589 83.2664L139.826 82.8277L139.171 82.4438V90.1211L133.909 79.4277L115.285 68.7069C110.158 65.7457 106.014 57.52 106.014 50.2814C106.014 46.6621 107.05 43.9751 108.713 42.5493C109.231 42.1106 109.831 41.7816 110.458 41.5896C111.004 41.4251 111.576 41.3703 112.176 41.4251C112.667 41.4525 113.158 41.5622 113.676 41.7267C113.812 41.7541 113.921 41.809 114.058 41.8638C114.167 41.9186 114.303 41.9735 114.412 42.0283H114.439C114.712 42.138 114.985 42.2751 115.257 42.4396L140.562 56.8071C145.797 59.7958 150.024 68.1311 150.024 75.452Z" stroke="#041C2D" stroke-miterlimit="10" stroke-linecap="round" stroke-linejoin="round"/>
<path d="M142.797 84.1986V88.8872L139.17 90.1485" stroke="#041C2D" stroke-miterlimit="10" stroke-linecap="round" stroke-linejoin="round"/>
<path d="M113.377 40.6026C113.677 40.4655 114.004 40.3558 114.331 40.2735C115.667 39.9719 117.222 40.2461 118.885 41.1784L144.19 55.5459C149.398 58.5071 153.651 66.8425 153.651 74.1633C153.651 77.8375 152.588 80.5519 150.87 81.9503C150.57 82.1971 150.27 82.389 149.943 82.5535L149.398 82.8003L145.553 84.1438" stroke="#041C2D" stroke-miterlimit="10" stroke-linecap="round" stroke-linejoin="round"/>
<path d="M114.327 40.2737L113.4 40.6027H113.373L110.455 41.6172" stroke="#041C2D" stroke-miterlimit="10" stroke-linecap="round" stroke-linejoin="round"/>
<path d="M135.217 65.8555C135.217 70.5441 131.645 72.6005 127.228 70.4619C122.81 68.3232 119.211 62.7846 119.211 58.0959C119.211 53.4073 122.81 51.3235 127.228 53.4896C131.618 55.6282 135.217 61.1668 135.217 65.8555Z" fill="white" stroke="#138BE1" stroke-miterlimit="10" stroke-linecap="round" stroke-linejoin="round"/>
<path d="M129.518 60.0151C129.518 61.3587 128.482 61.9619 127.228 61.3312C125.946 60.728 124.938 59.1377 124.938 57.7668C124.938 56.3958 125.974 55.82 127.228 56.4507C128.482 57.0813 129.518 58.6716 129.518 60.0151Z" fill="white" stroke="#138BE1" stroke-miterlimit="10" stroke-linecap="round" stroke-linejoin="round"/>
<path d="M132.136 67.3907C132.245 67.5826 132.191 67.8294 132.027 67.9665C130.855 68.8439 129.137 68.9261 127.201 67.9665C125.21 67.0068 123.438 65.1697 122.265 63.0859C122.156 62.894 122.211 62.6198 122.429 62.5101C123.629 61.7698 125.347 61.7698 127.228 62.6746C129.164 63.6068 130.937 65.3617 132.136 67.3907Z" fill="white" stroke="#138BE1" stroke-miterlimit="10" stroke-linecap="round" stroke-linejoin="round"/>
<path d="M71.053 48.6088L67.6445 47.4846L69.0079 44.1943L73.7798 41.9734L77.1882 43.0701L75.8249 46.3878L71.053 48.6088Z" fill="white" stroke="#041C2D" stroke-miterlimit="10" stroke-linecap="round" stroke-linejoin="round"/>
<path d="M75.7289 46.5293L71.1465 48.6501L95.3045 101.429L99.8869 99.308L75.7289 46.5293Z" fill="#F6F5F5" stroke="#041C2D" stroke-miterlimit="10"/>
<path d="M99.9311 99.1143L101.213 95.5773L77.1898 43.0701L75.9082 46.6071L99.9311 99.1143Z" fill="white" stroke="#041C2D" stroke-miterlimit="10" stroke-linecap="round" stroke-linejoin="round"/>
<path d="M95.2143 101.445L91.6967 100.128L67.6738 47.6487L71.1914 48.9648L95.2143 101.445Z" fill="white" stroke="#041C2D" stroke-miterlimit="10" stroke-linecap="round" stroke-linejoin="round"/>
<path d="M72.6319 45.9922C73.4116 45.6313 73.8498 44.915 73.6105 44.3923C73.3713 43.8696 72.5452 43.7384 71.7654 44.0992C70.9856 44.4601 70.5475 45.1764 70.7867 45.6992C71.026 46.2219 71.8521 46.3531 72.6319 45.9922Z" fill="#041C2D"/>
<path d="M91.6934 100.129L100.719 107.45L102.41 106.655L101.21 95.5774L99.8737 99.3338L95.2109 101.445L91.6934 100.129Z" fill="white" stroke="#041C2D" stroke-miterlimit="10" stroke-linecap="round" stroke-linejoin="round"/>
<path d="M100.857 107.614C100.857 107.614 103.202 111.617 103.639 111.343C103.993 111.123 102.548 106.819 102.548 106.819L100.857 107.614Z" fill="#041C2D"/>
<path d="M222.242 22.1741L223.769 18.2532L218.643 21.0773L221.724 22.4757L222.242 22.1741Z" fill="#F6F5F5"/>
<path d="M248.884 38.2141L246.839 31.0304L248.802 28.782L246.348 24.3127L243.185 24.724L237.895 19.0209L237.268 14.7984L233.723 12.7968L232.741 16.1419L227.56 15.6209L224.888 12.0291L222.352 12.9613L224.207 17.6773L221.943 22.5031L218.426 21.2692L218.453 25.245L221.889 28.0143L224.534 35.2803L222.161 37.6931L224.916 42.1899L227.67 41.7786L232.85 47.0704L233.914 52.0332L237.159 53.9252L238.059 50.3059L243.13 50.7171L246.212 54.638L248.611 53.3768L246.675 48.8526L248.938 44.0818L252.456 45.1785L252.483 41.477L248.884 38.2141ZM243.185 41.1479C242.83 41.8334 242.64 42.4366 241.767 42.6011C241.085 42.7382 240.376 42.5189 239.749 42.2173C237.159 40.9834 235.359 38.5706 233.668 36.24C233.314 35.7464 232.959 35.2529 232.687 34.7045C232.496 34.3481 232.36 33.9642 232.223 33.5803C231.651 32.0723 231.105 30.5094 230.86 28.9191C230.805 28.5352 230.751 28.1514 230.751 27.7675C230.778 27.4111 230.833 27.0272 230.914 26.6707C231.078 25.903 231.242 25.1353 231.405 24.3676C231.569 23.6273 231.814 22.7499 232.55 22.5031C233.041 22.3386 233.532 22.5305 234.023 22.7224C234.786 23.024 235.55 23.3256 236.313 23.6272C236.668 23.7643 238.413 25.0256 238.822 25.5466C239.749 26.7256 240.594 27.9869 241.385 29.2755C242.121 30.5368 243.921 37.748 244.03 38.7351C244.057 39.7496 243.594 40.3254 243.185 41.1479Z" fill="white"/>
<path d="M248.663 53.4318C248.69 53.4318 248.69 53.4318 248.663 53.4318C248.69 53.4044 248.69 53.4044 248.69 53.4044L252.753 51.0738C253.135 50.8545 253.217 50.3335 252.999 49.8125C251.608 46.6594 251.172 46.0013 251.226 45.8094C251.308 45.6997 251.39 45.5626 251.472 45.4255L251.635 45.4804C251.853 45.5626 252.153 45.5352 252.29 45.4529L256.38 43.0949C256.516 43.0127 256.734 42.8207 256.734 42.382L256.761 38.7079C256.761 38.2692 256.516 37.8031 256.162 37.5289L253.298 35.3079C253.189 35.2257 253.08 35.0612 253.053 34.8692C252.726 32.9499 252.126 30.9758 251.335 29.029C251.281 28.9193 251.281 28.8371 251.308 28.8097L252.999 27.1371C253.298 26.8355 253.298 26.3145 253.026 25.821L250.79 21.9001C250.572 21.4888 250.081 21.1324 249.645 21.242L247.3 21.8178C247.272 21.7904 247.19 21.7356 247.136 21.6533C246.1 20.2824 244.218 18.2808 243.019 17.2663C242.855 17.1292 242.746 16.9373 242.719 16.7728C242.637 16.0873 242.555 15.4018 242.473 14.7986C242.391 14.168 242.337 13.6196 242.282 13.2631C242.228 12.8244 241.928 12.3583 241.573 12.1664L238.41 10.3019C238.029 10.0825 237.756 10.1648 237.592 10.2745C237.592 10.2745 234.347 12.139 233.529 12.6051C233.366 12.7696 233.229 12.8518 233.175 13.1535L233.148 13.2906C232.984 13.2906 232.548 13.2631 232.439 13.126L230.148 9.83577C229.985 9.64384 229.848 9.50675 229.712 9.42449C229.385 9.25998 229.112 9.25997 228.894 9.36965L225.922 10.9874L225.131 11.7003L227.939 15.7583L233.039 16.0873L234.102 12.9615L237.401 15.0179L238.029 19.1308L243.155 24.5871L246.4 24.2855L248.745 28.3984L246.891 30.9757L248.936 38.1595L252.317 40.9288L252.371 44.7675L249.317 44.1643L246.945 48.3319L248.39 52.6093L248.663 53.4318ZM236.911 53.7883C237.156 53.9254 237.429 53.9528 237.647 53.8431C237.647 53.8431 240.319 52.3077 241.791 51.4577C241.982 51.348 242.119 51.1561 242.146 50.9093L242.173 50.7722" fill="#F6F5F5"/>
<path d="M241.601 50.6626L237.892 50.553L237.129 54.1723L243.046 50.9368L241.601 50.6626Z" fill="#F6F5F5"/>
<path d="M223.77 18.6098L223.634 18.555C223.416 18.4453 223.143 18.4727 222.952 18.5824C222.789 18.6921 218.971 20.8582 218.78 20.9678C218.562 21.1049 218.453 21.3517 218.453 21.6533M246.43 54.6931L248.693 53.4318C248.693 53.4318 248.693 53.4318 248.72 53.4044C248.72 53.4044 248.72 53.4044 248.748 53.4044L252.81 51.0738C253.192 50.8545 253.274 50.3335 253.056 49.8125C251.665 46.6594 251.229 46.0013 251.284 45.8094C251.365 45.6997 251.447 45.5626 251.529 45.4255L251.693 45.4804C251.911 45.5626 252.211 45.5352 252.347 45.4529L256.437 43.0949C256.573 43.0127 256.792 42.8207 256.792 42.382L256.819 38.7079C256.819 38.2692 256.573 37.8031 256.219 37.5289L253.356 35.3079C253.247 35.2257 253.138 35.0612 253.11 34.8692C252.783 32.9499 252.183 30.9758 251.393 29.029C251.338 28.9193 251.338 28.8371 251.365 28.8097L253.056 27.1371C253.356 26.8355 253.356 26.3145 253.083 25.821L250.847 21.9001C250.629 21.4888 250.138 21.1324 249.702 21.242L247.357 21.8178C247.33 21.7904 247.248 21.7356 247.193 21.6533C246.157 20.2824 244.276 18.2808 243.076 17.2663C242.912 17.1292 242.803 16.9373 242.776 16.7728C242.694 16.0873 242.612 15.4018 242.531 14.7986C242.449 14.168 242.394 13.6196 242.34 13.2631C242.285 12.8244 241.985 12.3583 241.631 12.1664L238.468 10.3019C238.086 10.0825 237.813 10.1648 237.65 10.2745C237.65 10.2745 234.405 12.139 233.587 12.6051C233.423 12.7696 233.287 12.8518 233.232 13.1535L233.205 13.2906C233.041 13.2906 232.605 13.2631 232.496 13.126L230.206 9.83577C230.042 9.64384 229.906 9.50675 229.769 9.42449C229.442 9.25998 229.169 9.25997 228.951 9.36965L225.979 10.9874L222.571 12.9615M236.913 53.7883C237.159 53.9254 237.431 53.9528 237.65 53.8431C237.65 53.8431 240.322 52.3077 241.794 51.4577C241.985 51.348 242.122 51.1561 242.149 50.9093L242.176 50.7722" stroke="#041C2D" stroke-miterlimit="10"/>
<path d="M241.847 42.903C241.056 42.7385 240.238 42.4094 239.393 41.9159C234.621 39.1192 230.776 32.4015 230.831 26.9452C230.831 25.1629 231.267 23.7097 232.085 22.6952M252.263 40.9836C252.072 40.8465 249.236 38.653 249.236 38.653C249.045 38.4885 248.745 38.0772 248.664 37.6385C248.336 35.7466 247.764 33.7176 246.919 31.7161C246.837 31.4967 246.782 30.8112 247.028 30.537L248.8 28.7822C248.8 28.7274 248.8 28.6177 248.718 28.4532C248.636 28.2613 246.51 24.5597 246.373 24.3404C246.319 24.2307 246.237 24.1484 246.182 24.0936C245.991 24.1484 243.456 24.7517 243.646 24.6968C243.21 24.7791 242.883 24.5323 242.61 24.2033C241.52 22.7775 239.993 21.0775 238.438 19.7614C238.247 19.6243 237.866 19.0485 237.784 18.6372C237.757 18.2534 237.402 15.4566 237.348 15.0728C237.266 14.8808 237.32 14.6341 237.02 14.4696L233.775 12.5777L233.285 15.5937C233.257 15.8405 233.148 16.0324 232.985 16.1421C232.794 16.2792 232.576 16.3066 232.276 16.2518C230.831 15.7857 229.44 15.6486 228.186 15.8131C227.886 15.8679 227.449 15.7034 227.122 15.2647C227.013 15.1002 224.886 12.0567 224.777 11.8922C224.723 11.8099 224.668 11.7825 224.614 11.7277L222.35 12.9889C222.35 13.0438 222.35 13.126 222.405 13.2083L224.095 16.9647C224.286 17.4034 224.286 17.8421 224.041 18.1437C223.25 19.1034 222.678 20.3646 222.323 21.8727C222.214 22.3388 221.778 22.613 221.287 22.421C221.096 22.3662 218.615 21.3517 218.424 21.2695L218.396 24.9984C218.396 25.1629 218.506 25.4097 218.669 25.5194L221.696 27.85C221.996 28.0693 222.214 28.4532 222.296 28.8645C222.623 30.7838 223.196 32.7854 224.041 34.8144C224.232 35.2805 224.177 35.7192 223.932 35.9934L222.159 37.7208C222.159 37.7482 222.159 37.8853 222.241 38.0772L224.586 42.1901C224.641 42.2998 224.75 42.382 224.777 42.4643L227.313 41.8336C227.722 41.7514 228.077 42.0256 228.349 42.3546C229.658 44.0546 231.049 45.5626 232.548 46.8239C232.876 47.0981 233.121 47.5368 233.176 47.9206C233.257 48.6061 233.421 49.8948 233.612 51.6222C233.639 51.7867 233.775 52.0335 233.912 52.1157L237.157 54.0076L237.648 50.9641C237.729 50.498 238.111 50.1964 238.656 50.3335C240.102 50.7996 241.492 50.9367 242.719 50.7722C243.128 50.6625 243.537 50.9641 243.783 51.3206L246.21 54.7205C246.264 54.8028 248.609 53.4592 248.609 53.4592C248.609 53.2947 246.809 49.5658 246.809 49.5932C246.755 49.4013 246.51 48.8255 246.864 48.4416C247.682 47.4271 248.255 46.1658 248.582 44.6578C248.691 44.2191 249.127 43.9449 249.645 44.1368L252.481 45.2884C252.481 45.1239 252.508 41.8336 252.508 41.5869C252.536 41.3675 252.427 41.1207 252.263 40.9836Z" stroke="#041C2D" stroke-miterlimit="10" stroke-linecap="round" stroke-linejoin="round"/>
<path d="M235.684 23.6825C231.048 20.9954 227.122 23.2164 227.067 28.563C227.012 33.7452 230.666 40.1338 235.193 42.7935C240.237 45.7273 243.782 42.8483 243.809 37.9129C243.864 32.7033 240.21 26.3421 235.684 23.6825Z" stroke="#041C2D" stroke-miterlimit="10"/>
<path d="M248.883 38.4341L253.982 35.4729" stroke="#041C2D" stroke-miterlimit="10"/>
<path d="M247.109 47.8928L251.472 45.3977" stroke="#041C2D" stroke-miterlimit="10"/>
<path d="M247.109 31.0307L251.854 28.2888" stroke="#041C2D" stroke-miterlimit="10"/>
<path d="M242.771 24.7516L248.061 21.6807" stroke="#041C2D" stroke-miterlimit="10"/>
<path d="M237.975 18.7196L242.419 16.1697" stroke="#041C2D" stroke-miterlimit="10"/>
<path d="M252.241 70.8451L253.421 67.8148L249.459 69.9975L251.84 71.0782L252.241 70.8451Z" fill="#F6F5F5"/>
<path d="M272.831 83.242L271.25 77.69L272.768 75.9524L270.871 72.4983L268.426 72.8161L264.338 68.4084L263.853 65.145L261.114 63.5981L260.355 66.1834L256.351 65.7808L254.286 63.0048L252.326 63.7252L253.759 67.3701L252.01 71.0997L249.291 70.1461L249.312 73.2188L251.967 75.359L254.012 80.9746L252.178 82.8394L254.307 86.3147L256.435 85.9969L260.439 90.0867L261.261 93.9222L263.769 95.3844L264.464 92.5872L268.384 92.9051L270.765 95.9354L272.62 94.9606L271.124 91.4641L272.873 87.7769L275.591 88.6245L275.612 85.7637L272.831 83.242ZM268.426 85.5095C268.152 86.0392 268.005 86.5054 267.33 86.6326C266.804 86.7385 266.256 86.569 265.771 86.3359C263.769 85.3823 262.378 83.5175 261.071 81.7163C260.797 81.3349 260.523 80.9534 260.313 80.5296C260.165 80.2541 260.06 79.9575 259.954 79.6608C259.512 78.4953 259.09 77.2874 258.901 76.0583C258.859 75.7617 258.816 75.465 258.816 75.1683C258.838 74.8928 258.88 74.5962 258.943 74.3207C259.069 73.7273 259.196 73.134 259.322 72.5407C259.449 71.9685 259.638 71.2904 260.207 71.0997C260.587 70.9725 260.966 71.1209 261.345 71.2692C261.935 71.5023 262.526 71.7354 263.116 71.9685C263.39 72.0745 264.738 73.0492 265.054 73.4519C265.771 74.3631 266.424 75.3378 267.035 76.3338C267.604 77.3086 268.995 82.8818 269.08 83.6447C269.101 84.4287 268.742 84.8737 268.426 85.5095Z" fill="white"/>
<path d="M272.66 95.0028C272.681 95.0028 272.681 95.0028 272.66 95.0028C272.681 94.9816 272.681 94.9816 272.681 94.9816L275.821 93.1804C276.116 93.0109 276.179 92.6083 276.01 92.2056C274.936 89.7687 274.598 89.2601 274.641 89.1118C274.704 89.027 274.767 88.921 274.83 88.8151L274.957 88.8575C275.125 88.921 275.357 88.8998 275.462 88.8363L278.624 87.0139C278.729 86.9503 278.897 86.802 278.897 86.4629L278.919 83.6233C278.919 83.2843 278.729 82.924 278.455 82.7121L276.242 80.9956C276.158 80.9321 276.074 80.8049 276.052 80.6566C275.8 79.1732 275.336 77.6475 274.725 76.1429C274.683 76.0582 274.683 75.9946 274.704 75.9734L276.01 74.6808C276.242 74.4477 276.242 74.045 276.031 73.6636L274.303 70.6333C274.135 70.3155 273.755 70.04 273.418 70.1247L271.606 70.5697C271.585 70.5486 271.522 70.5062 271.479 70.4426C270.679 69.3831 269.224 67.8361 268.297 67.0521C268.171 66.9461 268.086 66.7978 268.065 66.6706C268.002 66.1409 267.939 65.6111 267.876 65.1449C267.813 64.6575 267.77 64.2337 267.728 63.9582C267.686 63.6191 267.454 63.2589 267.18 63.1106L264.736 61.6696C264.441 61.5001 264.23 61.5636 264.103 61.6484C264.103 61.6484 261.596 63.0894 260.963 63.4496C260.837 63.5768 260.732 63.6403 260.689 63.8734L260.668 63.9794C260.542 63.9794 260.205 63.9582 260.121 63.8522L258.35 61.3093C258.224 61.161 258.118 61.055 258.013 60.9915C257.76 60.8643 257.549 60.8643 257.381 60.9491L255.084 62.1994L254.473 62.7503L256.643 65.8866L260.584 66.1409L261.406 63.7251L263.956 65.3144L264.441 68.493L268.403 72.71L270.91 72.4769L272.723 75.6556L271.29 77.6475L272.87 83.1995L275.483 85.3398L275.526 88.3065L273.165 87.8403L271.332 91.0613L272.449 94.3671L272.66 95.0028ZM263.577 95.2783C263.766 95.3843 263.977 95.4054 264.146 95.3207C264.146 95.3207 266.211 94.134 267.349 93.4771C267.496 93.3923 267.602 93.244 267.623 93.0533L267.644 92.9473" fill="#F6F5F5"/>
<path d="M267.204 92.8625L264.338 92.7777L263.748 95.5749L268.321 93.0744L267.204 92.8625Z" fill="#F6F5F5"/>
<path d="M253.422 68.0904L253.317 68.048C253.148 67.9633 252.937 67.9845 252.79 68.0692C252.663 68.154 249.713 69.8281 249.565 69.9128C249.397 70.0188 249.312 70.2095 249.312 70.4426M270.934 95.9776L272.684 95.0028C272.684 95.0028 272.684 95.0028 272.705 94.9816C272.705 94.9816 272.705 94.9816 272.726 94.9816L275.866 93.1804C276.161 93.0109 276.224 92.6082 276.055 92.2056C274.981 89.7687 274.644 89.2601 274.686 89.1118C274.749 89.027 274.812 88.921 274.875 88.8151L275.002 88.8575C275.17 88.921 275.402 88.8998 275.508 88.8363L278.669 87.0139C278.774 86.9503 278.943 86.802 278.943 86.4629L278.964 83.6233C278.964 83.2843 278.774 82.924 278.5 82.7121L276.287 80.9956C276.203 80.9321 276.119 80.8049 276.098 80.6566C275.845 79.1732 275.381 77.6475 274.77 76.1429C274.728 76.0582 274.728 75.9946 274.749 75.9734L276.055 74.6808C276.287 74.4477 276.287 74.045 276.077 73.6636L274.348 70.6333C274.18 70.3155 273.801 70.04 273.463 70.1247L271.651 70.5697C271.63 70.5486 271.567 70.5062 271.525 70.4426C270.724 69.3831 269.27 67.8361 268.342 67.0521C268.216 66.9461 268.132 66.7978 268.111 66.6706C268.047 66.1409 267.984 65.6111 267.921 65.1449C267.858 64.6575 267.816 64.2337 267.773 63.9582C267.731 63.6191 267.499 63.2589 267.225 63.1106L264.781 61.6696C264.486 61.5001 264.275 61.5636 264.149 61.6484C264.149 61.6484 261.641 63.0894 261.009 63.4496C260.882 63.5768 260.777 63.6403 260.735 63.8734L260.714 63.9794C260.587 63.9794 260.25 63.9582 260.166 63.8522L258.395 61.3093C258.269 61.161 258.164 61.055 258.058 60.9915C257.805 60.8643 257.595 60.8643 257.426 60.9491L255.129 62.1994L252.495 63.7251M263.58 95.2783C263.769 95.3843 263.98 95.4054 264.149 95.3207C264.149 95.3207 266.214 94.134 267.352 93.4771C267.499 93.3923 267.605 93.244 267.626 93.0533L267.647 92.9473" stroke="#041C2D" stroke-miterlimit="10"/>
<path d="M267.393 86.8654C266.782 86.7382 266.15 86.484 265.497 86.1025C261.809 83.941 258.837 78.7493 258.879 74.5323C258.879 73.1549 259.216 72.0318 259.849 71.2477M275.443 85.382C275.296 85.2761 273.104 83.5808 273.104 83.5808C272.957 83.4537 272.725 83.1358 272.662 82.7967C272.409 81.3346 271.966 79.7664 271.313 78.2195C271.25 78.05 271.208 77.5202 271.397 77.3083L272.767 75.9521C272.767 75.9097 272.767 75.8249 272.704 75.6978C272.641 75.5495 270.997 72.6887 270.891 72.5192C270.849 72.4344 270.786 72.3708 270.744 72.3285C270.596 72.3708 268.637 72.837 268.784 72.7947C268.447 72.8582 268.194 72.6675 267.983 72.4132C267.14 71.3113 265.96 69.9975 264.759 68.9803C264.611 68.8743 264.316 68.4293 264.253 68.1115C264.232 67.8148 263.958 65.6533 263.916 65.3567C263.853 65.2083 263.895 65.0176 263.663 64.8904L261.155 63.4283L260.776 65.7593C260.755 65.95 260.671 66.0983 260.544 66.1831C260.397 66.2891 260.228 66.3102 259.996 66.2679C258.879 65.9076 257.805 65.8017 256.835 65.9288C256.603 65.9712 256.266 65.844 256.013 65.505C255.929 65.3778 254.285 63.0257 254.201 62.8985C254.159 62.8349 254.117 62.8137 254.074 62.7714L252.325 63.7462C252.325 63.7885 252.325 63.8521 252.367 63.9157L253.674 66.8188C253.822 67.1579 253.822 67.4969 253.632 67.73C253.021 68.4717 252.578 69.4465 252.304 70.612C252.22 70.9722 251.883 71.1841 251.503 71.0358C251.356 70.9934 249.438 70.2094 249.291 70.1458L249.27 73.0277C249.27 73.1549 249.354 73.3456 249.48 73.4304L251.819 75.2316C252.051 75.4011 252.22 75.6978 252.283 76.0157C252.536 77.499 252.979 79.046 253.632 80.6141C253.779 80.9743 253.737 81.3134 253.548 81.5253L252.178 82.8603C252.178 82.8815 252.178 82.9875 252.241 83.1358L254.053 86.3144C254.095 86.3992 254.18 86.4628 254.201 86.5263L256.161 86.0389C256.477 85.9754 256.751 86.1873 256.962 86.4416C257.973 87.7554 259.048 88.9209 260.207 89.8957C260.46 90.1076 260.65 90.4466 260.692 90.7433C260.755 91.2731 260.881 92.2691 261.029 93.6041C261.05 93.7312 261.155 93.9219 261.261 93.9855L263.768 95.4477L264.148 93.0955C264.211 92.7353 264.506 92.5022 264.928 92.6081C266.044 92.9684 267.119 93.0743 268.068 92.9472C268.384 92.8624 268.7 93.0955 268.889 93.371L270.765 95.9987C270.807 96.0622 272.62 95.0239 272.62 95.0239C272.62 94.8967 271.229 92.0148 271.229 92.036C271.187 91.8876 270.997 91.4426 271.271 91.1459C271.903 90.3619 272.346 89.3871 272.598 88.2216C272.683 87.8825 273.02 87.6706 273.42 87.819L275.612 88.709C275.612 88.5818 275.633 86.0389 275.633 85.8482C275.654 85.6787 275.57 85.488 275.443 85.382Z" stroke="#041C2D" stroke-miterlimit="10" stroke-linecap="round" stroke-linejoin="round"/>
<path d="M262.629 72.0111C259.046 69.9344 256.011 71.6509 255.969 75.7831C255.927 79.7882 258.751 84.7257 262.249 86.7812C266.148 89.0486 268.888 86.8235 268.909 83.0092C268.951 78.9829 266.127 74.0666 262.629 72.0111Z" stroke="#041C2D" stroke-miterlimit="10"/>
<path d="M272.83 83.412L276.771 81.1234" stroke="#041C2D" stroke-miterlimit="10"/>
<path d="M271.461 90.7227L274.833 88.7943" stroke="#041C2D" stroke-miterlimit="10"/>
<path d="M271.461 77.6898L275.128 75.5707" stroke="#041C2D" stroke-miterlimit="10"/>
<path d="M268.107 72.8371L272.196 70.4637" stroke="#041C2D" stroke-miterlimit="10"/>
<path d="M264.4 68.1756L267.835 66.2048" stroke="#041C2D" stroke-miterlimit="10"/>
</g>
<defs>
<clipPath id="clip0_3437_35472">
<rect width="263" height="219" fill="white" transform="translate(16 7)"/>
</clipPath>
</defs>
</svg>
