<svg width="200" height="180" viewBox="0 0 200 180" fill="none" xmlns="http://www.w3.org/2000/svg">
<rect x="158.844" y="90.418" width="13.2636" height="13.2636" fill="white"/>
<path d="M124.096 38.8709C125.116 40.2774 125.697 41.955 125.764 43.6916C125.832 45.4282 125.383 47.1458 124.474 48.6273C123.566 50.1087 122.239 51.2874 120.661 52.0144C119.083 52.7414 117.325 52.984 115.61 52.7115C113.894 52.439 112.298 51.6637 111.022 50.4836C109.747 49.3035 108.85 47.7716 108.445 46.0816C108.04 44.3915 108.145 42.6193 108.747 40.989C109.349 39.3586 110.42 37.9434 111.826 36.9222C112.759 36.243 113.817 35.7547 114.939 35.485C116.061 35.2154 117.225 35.1698 118.365 35.3508C119.504 35.5318 120.597 35.9359 121.58 36.5399C122.564 37.1439 123.419 37.936 124.096 38.8709Z" fill="white" stroke="#138BE1" stroke-linecap="round" stroke-linejoin="round"/>
<path d="M122.367 40.3401C122.367 40.3401 121.039 37.3469 117.645 37.978L122.367 40.3401Z" fill="white"/>
<path d="M122.367 40.3401C122.367 40.3401 121.039 37.3469 117.645 37.978" stroke="#138BE1" stroke-linecap="round" stroke-linejoin="round"/>
<path d="M115.541 50.1816C115.541 50.1816 117.245 51.3885 119.274 49.9307L115.541 50.1816Z" fill="white"/>
<path d="M115.541 50.1816C115.541 50.1816 117.245 51.3885 119.274 49.9307" stroke="#138BE1" stroke-linecap="round" stroke-linejoin="round"/>
<path d="M166.811 64.6523H98.883C94.4495 64.6523 90.8555 68.2479 90.8555 72.6833V122.297C90.8555 126.733 94.4495 130.328 98.883 130.328H166.811C171.244 130.328 174.838 126.733 174.838 122.297V72.6833C174.838 68.2479 171.244 64.6523 166.811 64.6523Z" fill="white"/>
<path d="M162.586 140.157C170.244 135.729 174.332 130.008 174.833 124.203V119.036C174.483 124.941 170.381 130.802 162.571 135.315C146.162 144.786 119.556 144.786 103.176 135.315C94.9677 130.576 90.8691 124.365 90.8691 118.157V122.985C90.8691 129.196 94.9677 135.404 103.176 140.146C117.449 148.395 139.451 149.465 155.735 143.354" fill="white"/>
<path d="M162.586 140.157C170.244 135.729 174.332 130.008 174.833 124.203V119.036C174.483 124.941 170.381 130.802 162.571 135.315C146.162 144.786 119.556 144.786 103.176 135.315C94.9677 130.576 90.8691 124.365 90.8691 118.157V122.985C90.8691 129.196 94.9677 135.404 103.176 140.146C117.449 148.395 139.451 149.465 155.735 143.354" stroke="#1C1D22" stroke-linecap="round" stroke-linejoin="round"/>
<path d="M174.843 119.049C174.493 124.954 170.391 130.815 162.581 135.329C146.171 144.799 119.566 144.799 103.186 135.329C94.9775 130.59 90.8789 124.379 90.8789 118.171" fill="white"/>
<path d="M174.843 119.049C174.493 124.954 170.391 130.815 162.581 135.329C146.171 144.799 119.566 144.799 103.186 135.329C94.9775 130.59 90.8789 124.379 90.8789 118.171" stroke="#1C1D22" stroke-linecap="round" stroke-linejoin="round"/>
<path d="M162.586 114.132C170.244 109.703 174.332 103.986 174.833 98.1772V93.0102C174.483 98.9153 170.381 104.772 162.571 109.29C146.162 118.76 119.556 118.76 103.176 109.29C94.9677 104.547 90.8691 98.3396 90.8691 92.1318V96.9593C90.8691 103.167 94.9677 109.375 103.176 114.117C117.449 122.37 139.451 123.44 155.735 117.328" fill="white"/>
<path d="M162.586 114.132C170.244 109.703 174.332 103.986 174.833 98.1772V93.0102C174.483 98.9153 170.381 104.772 162.571 109.29C146.162 118.76 119.556 118.76 103.176 109.29C94.9677 104.547 90.8691 98.3396 90.8691 92.1318V96.9593C90.8691 103.167 94.9677 109.375 103.176 114.117C117.449 122.37 139.451 123.44 155.735 117.328" stroke="#1C1D22" stroke-linecap="round" stroke-linejoin="round"/>
<path d="M174.843 91.2705V93.0273C174.493 98.9324 170.391 104.79 162.581 109.307C146.171 118.777 119.566 118.777 103.186 109.307C94.9775 104.564 90.8789 98.3566 90.8789 92.1489" fill="white"/>
<path d="M174.843 91.2705V93.0273C174.493 98.9324 170.391 104.79 162.581 109.307C146.171 118.777 119.566 118.777 103.186 109.307C94.9775 104.564 90.8789 98.3566 90.8789 92.1489" stroke="#1C1D22" stroke-linecap="round" stroke-linejoin="round"/>
<path d="M162.582 96.0343C170.24 91.6054 174.328 85.8886 174.829 80.0794V74.9124C174.479 80.8176 170.377 86.6747 162.567 91.1921C146.158 100.662 119.552 100.662 103.172 91.1921C94.9599 86.4643 90.8613 80.2492 90.8613 74.0488V78.8762C90.8613 85.084 94.9599 91.2917 103.168 96.0343C117.441 104.287 139.443 105.357 155.727 99.2452" fill="white"/>
<path d="M162.582 96.0343C170.24 91.6054 174.328 85.8886 174.829 80.0794V74.9124C174.479 80.8176 170.377 86.6747 162.567 91.1921C146.158 100.662 119.552 100.662 103.172 91.1921C94.9599 86.4643 90.8613 80.2492 90.8613 74.0488V78.8762C90.8613 85.084 94.9599 91.2917 103.168 96.0343C117.441 104.287 139.443 105.357 155.727 99.2452" stroke="#1C1D22" stroke-linecap="round" stroke-linejoin="round"/>
<path d="M103.168 58.8908C119.566 49.4094 146.172 49.4094 162.563 58.8908C165.606 60.583 168.334 62.7879 170.627 65.4086C171.638 66.5897 172.505 67.8869 173.21 69.2727C174.147 71.11 174.699 73.1195 174.833 75.1779V76.9346C174.483 82.8397 170.38 88.6969 162.57 93.2143C146.161 102.685 119.555 102.685 103.176 93.2143C94.9599 88.4643 90.8613 82.2492 90.8613 76.0489C90.8613 71.417 93.1301 66.8 97.6751 62.7882" fill="white"/>
<path d="M103.168 58.8908C119.566 49.4094 146.172 49.4094 162.563 58.8908C165.606 60.583 168.334 62.7879 170.627 65.4086C171.638 66.5897 172.505 67.8869 173.21 69.2727C174.147 71.11 174.699 73.1195 174.833 75.1779V76.9346C174.483 82.8397 170.38 88.6969 162.57 93.2143C146.161 102.685 119.555 102.685 103.176 93.2143C94.9599 88.4643 90.8613 82.2492 90.8613 76.0489C90.8613 71.417 93.1301 66.8 97.6751 62.7882" stroke="#1C1D22" stroke-linecap="round" stroke-linejoin="round"/>
<path d="M174.842 73.958V125.517" stroke="#1C1D22" stroke-linecap="round" stroke-linejoin="round"/>
<path d="M90.8555 74.375V118.206" stroke="#1C1D22" stroke-linecap="round" stroke-linejoin="round"/>
<path d="M171.606 155.06C170.276 155.969 168.666 156.375 167.065 156.204C165.463 156.033 163.975 155.298 162.866 154.129C161.758 152.96 161.102 151.434 161.016 149.825C160.929 148.216 161.419 146.629 162.396 145.349C163.373 144.068 164.774 143.177 166.349 142.836C167.923 142.495 169.567 142.726 170.986 143.488C172.405 144.249 173.507 145.492 174.094 146.992C174.681 148.493 174.714 150.153 174.188 151.676C173.713 153.052 172.807 154.239 171.606 155.06Z" fill="white" stroke="#138BE1" stroke-linecap="round" stroke-linejoin="round"/>
<path d="M145.701 142.866C141.643 149.221 141.916 148.771 141.765 149.026C130.089 168.52 178.461 172.58 177.299 154.012V154.097C177.299 154.016 177.299 153.945 177.299 153.945C177.299 153.945 177.266 153.576 177.247 153.429C176.823 150.107 174.941 147.937 165.217 132.945C165.217 132.676 165.217 132.396 165.217 132.115C165.217 130.491 165.313 128.517 161.841 127.088C159.997 126.332 157.012 126.332 154.921 127.07C153.843 127.439 152.028 128.653 152.036 130.624V132.986L148.454 138.574" fill="white"/>
<path d="M145.701 142.866C141.643 149.221 141.916 148.771 141.765 149.026C130.089 168.52 178.461 172.58 177.299 154.012V154.097C177.299 154.016 177.299 153.945 177.299 153.945C177.299 153.945 177.266 153.576 177.247 153.429C176.823 150.107 174.941 147.937 165.217 132.945C165.217 132.676 165.217 132.396 165.217 132.115C165.217 130.491 165.313 128.517 161.841 127.088C159.997 126.332 157.012 126.332 154.921 127.07C153.843 127.439 152.028 128.653 152.036 130.624V132.986L148.454 138.574" fill="white"/>
<path d="M145.701 142.866C141.643 149.221 141.916 148.771 141.765 149.026C130.089 168.52 178.461 172.58 177.299 154.012V154.097C177.299 154.016 177.299 153.945 177.299 153.945C177.299 153.945 177.266 153.576 177.247 153.429C176.823 150.107 174.941 147.937 165.217 132.945C165.217 132.676 165.217 132.396 165.217 132.115C165.217 130.491 165.313 128.517 161.841 127.088C159.997 126.332 157.012 126.332 154.921 127.07C153.843 127.439 152.028 128.653 152.036 130.624V132.986L148.454 138.574" stroke="#1C1D22" stroke-miterlimit="10"/>
<path d="M145.701 142.866C141.643 149.221 141.916 148.771 141.765 149.026C130.089 168.52 178.461 172.58 177.299 154.012V154.097C177.299 154.016 177.299 153.945 177.299 153.945C177.299 153.945 177.266 153.576 177.247 153.429C176.823 150.107 174.941 147.937 165.217 132.945C165.217 132.676 165.217 132.396 165.217 132.115C165.217 130.491 165.313 128.517 161.841 127.088C159.997 126.332 157.012 126.332 154.921 127.07C153.843 127.439 152.028 128.653 152.036 130.624V132.986L145.701 142.866Z" stroke="#1C1D22" stroke-linecap="round" stroke-linejoin="round"/>
<path d="M167.376 162.117C170.969 160.611 173.43 157.976 173.209 154.119C173.209 154.064 173.209 154.02 173.209 154.02C173.209 154.02 173.183 153.724 173.168 153.606C172.888 151.418 171.803 149.831 167.026 142.534C167.952 144.346 167.177 146.387 164.702 147.816C161.101 149.897 155.265 149.897 151.664 147.816C149.561 146.601 148.695 144.948 149.049 143.368C144.622 150.288 144.898 149.842 144.762 150.067C139.269 159.246 150.395 164.151 160.304 163.608" fill="white"/>
<path d="M167.376 162.117C170.969 160.611 173.43 157.976 173.209 154.119C173.209 154.064 173.209 154.02 173.209 154.02C173.209 154.02 173.183 153.724 173.168 153.606C172.888 151.418 171.803 149.831 167.026 142.534C167.952 144.346 167.177 146.387 164.702 147.816C161.101 149.897 155.265 149.897 151.664 147.816C149.561 146.601 148.695 144.948 149.049 143.368C144.622 150.288 144.898 149.842 144.762 150.067C139.269 159.246 150.395 164.151 160.304 163.608" stroke="#138BE1" stroke-linecap="round" stroke-linejoin="round"/>
<path d="M167.022 142.548C166.476 141.592 165.67 140.811 164.698 140.297C161.097 138.219 155.261 138.219 151.66 140.297C150.159 141.164 149.295 142.256 149.045 143.382C148.676 144.962 149.557 146.615 151.66 147.829C155.261 149.911 161.097 149.911 164.698 147.829C167.166 146.401 167.94 144.36 167.022 142.548Z" fill="white" stroke="#138BE1" stroke-linecap="round" stroke-linejoin="round"/>
<path d="M162.868 123.533C155.018 120.868 146.385 126.415 151.063 131.689C152.263 132.975 153.818 133.875 155.53 134.273C156.463 134.422 157.402 134.522 158.345 134.572C159.308 134.572 160.869 134.417 160.869 134.417C168.966 133.011 169.715 125.707 162.868 123.533Z" fill="white"/>
<path d="M162.868 123.533C155.018 120.868 146.385 126.415 151.063 131.689C152.263 132.975 153.818 133.875 155.53 134.273C156.463 134.422 157.402 134.522 158.345 134.572C159.308 134.572 160.869 134.417 160.869 134.417C168.966 133.011 169.715 125.707 162.868 123.533Z" fill="white" stroke="#1C1D22" stroke-miterlimit="10"/>
<path d="M162.868 123.533C155.018 120.868 146.385 126.415 151.063 131.689C152.263 132.975 153.818 133.875 155.53 134.273C156.463 134.422 157.402 134.522 158.345 134.572C159.308 134.572 160.869 134.417 160.869 134.417C168.966 133.011 169.715 125.707 162.868 123.533Z" stroke="#1C1D22" stroke-linecap="round" stroke-linejoin="round"/>
<path d="M161.924 125.095C155.84 123.249 149.156 127.106 152.771 130.789C153.728 131.709 154.927 132.337 156.228 132.602C156.264 132.602 157.751 132.808 158.408 132.808C159.146 132.808 160.363 132.701 160.363 132.701C166.66 131.716 167.225 126.615 161.924 125.095Z" fill="white"/>
<path d="M161.924 125.095C155.84 123.249 149.156 127.106 152.771 130.789C153.728 131.709 154.927 132.337 156.228 132.602C156.264 132.602 157.751 132.808 158.408 132.808C159.146 132.808 160.363 132.701 160.363 132.701C166.66 131.716 167.225 126.615 161.924 125.095Z" fill="white" stroke="#1C1D22" stroke-miterlimit="10"/>
<path d="M161.924 125.095C155.84 123.249 149.156 127.106 152.771 130.789C153.728 131.709 154.927 132.337 156.228 132.602C156.264 132.602 157.751 132.808 158.408 132.808C159.146 132.808 160.363 132.701 160.363 132.701C166.66 131.716 167.225 126.615 161.924 125.095Z" stroke="#1C1D22" stroke-linecap="round" stroke-linejoin="round"/>
<path d="M163.162 138.995C163.524 139.718 163.66 140.533 163.553 141.335C163.313 142.498 162.288 142.701 161.262 141.789C160.236 140.877 159.602 139.206 159.842 138.032C160.081 136.858 161.107 136.663 162.133 137.574C162.541 137.997 162.887 138.475 163.162 138.995Z" fill="white" stroke="#138BE1" stroke-linecap="round" stroke-linejoin="round"/>
<path d="M157.586 122.442C158.121 123.612 158.379 124.9 158.165 125.923C157.797 127.657 156.284 127.96 154.757 126.602C153.229 125.243 152.285 122.756 152.636 121.003C152.986 119.25 154.521 118.966 156.048 120.324C156.658 120.954 157.176 121.667 157.586 122.442Z" fill="white" stroke="#138BE1" stroke-linecap="round" stroke-linejoin="round"/>
<path d="M151.21 147.333C150.871 147.993 150.742 148.742 150.841 149.477C151.059 150.544 152 150.732 152.94 149.894C153.881 149.057 154.464 147.514 154.246 146.447C154.029 145.381 153.084 145.192 152.144 146.026C151.773 146.416 151.459 146.856 151.21 147.333Z" fill="white" stroke="#138BE1" stroke-linecap="round" stroke-linejoin="round"/>
<path d="M116.908 80.212L105.316 73.2625L113.296 70.0146" fill="white"/>
<path d="M116.908 80.212L105.316 73.2625L113.296 70.0146" stroke="#138BE1" stroke-linecap="round" stroke-linejoin="round"/>
<path d="M117.087 81.1269C117 81.0679 116.934 80.9833 116.897 80.8849C116.86 80.7864 116.855 80.679 116.882 80.5776C116.91 80.4761 116.968 80.3857 117.049 80.3188C117.13 80.2518 117.229 80.2118 117.334 80.2042C117.387 80.189 117.441 80.1791 117.496 80.1747C117.872 80.1348 118.251 80.208 118.585 80.385L118.784 80.5031C118.832 80.5437 118.887 80.588 118.935 80.636C119.022 80.695 119.088 80.7796 119.125 80.878C119.162 80.9764 119.167 81.0838 119.139 81.1853C119.112 81.2867 119.054 81.3772 118.973 81.4441C118.892 81.511 118.793 81.5511 118.688 81.5587C118.406 81.6185 118.114 81.6106 117.835 81.5355C117.557 81.4604 117.301 81.3204 117.087 81.1269Z" fill="white" stroke="#138BE1" stroke-linecap="round" stroke-linejoin="round"/>
<path d="M115.148 87.8988L127.57 82.5732L134.896 86.9909L145.971 82.1709" fill="white"/>
<path d="M115.148 87.8988L127.57 82.5732L134.896 86.9909L145.971 82.1709" stroke="#138BE1" stroke-linecap="round" stroke-linejoin="round"/>
<path d="M113.093 88.7931C112.997 88.7488 112.917 88.6757 112.865 88.5839C112.813 88.4921 112.791 88.3863 112.802 88.2813C112.813 88.1762 112.856 88.0773 112.926 87.9983C112.996 87.9193 113.089 87.8643 113.192 87.8409C113.241 87.8153 113.293 87.7967 113.347 87.7855C113.711 87.6853 114.097 87.6982 114.454 87.8224C114.527 87.845 114.598 87.8721 114.668 87.9036C114.723 87.9368 114.786 87.9737 114.838 88.0106C115.265 88.3206 115.206 88.7488 114.742 88.9628C114.473 89.0652 114.183 89.1032 113.897 89.0737C113.611 89.0442 113.335 88.9481 113.093 88.7931Z" fill="white" stroke="#138BE1" stroke-linecap="round" stroke-linejoin="round"/>
<path d="M163.995 79.6475L163.992 82.3011L147.092 89.3946V86.741L163.995 79.6475Z" fill="white" stroke="#1C1D22" stroke-linecap="round" stroke-linejoin="round"/>
<path d="M132.845 78.5106L147.089 86.7409V89.3613L104.432 64.7222V62.1018L124.106 73.4655" fill="white"/>
<path d="M132.845 78.5106L147.089 86.7409V89.3613L104.432 64.7222V62.1018L124.106 73.4655" stroke="#1C1D22" stroke-linecap="round" stroke-linejoin="round"/>
<path d="M124.106 73.4661L104.432 62.1025L120.206 55.3301L163.992 79.6481L147.089 86.7416L132.845 78.5113" fill="white"/>
<path d="M124.106 73.4661L104.432 62.1025L120.206 55.3301L163.992 79.6481L147.089 86.7416L132.845 78.5113" stroke="#1C1D22" stroke-linecap="round" stroke-linejoin="round"/>
<path d="M110.736 36.3287L110.637 62.2373C110.626 62.3606 110.582 62.4786 110.51 62.5791C110.438 62.6797 110.34 62.7592 110.227 62.8094C109.919 62.9677 109.578 63.0503 109.231 63.0503C108.885 63.0503 108.543 62.9677 108.235 62.8094C108.12 62.7587 108.021 62.6782 107.948 62.5764C107.875 62.4745 107.83 62.3549 107.818 62.23L107.914 36.3213C107.926 36.4466 107.971 36.5664 108.044 36.6688C108.118 36.7712 108.217 36.8525 108.331 36.9044C108.64 37.0602 108.981 37.1413 109.327 37.1413C109.673 37.1413 110.014 37.0602 110.323 36.9044C110.436 36.8529 110.534 36.7726 110.607 36.6716C110.679 36.5706 110.724 36.4524 110.736 36.3287Z" fill="white"/>
<mask id="mask0_4664_8906" style="mask-type:luminance" maskUnits="userSpaceOnUse" x="107" y="36" width="4" height="28">
<path d="M110.736 36.3287L110.637 62.2373C110.626 62.3606 110.582 62.4786 110.51 62.5791C110.438 62.6797 110.34 62.7592 110.227 62.8094C109.919 62.9677 109.578 63.0503 109.231 63.0503C108.885 63.0503 108.543 62.9677 108.235 62.8094C108.12 62.7587 108.021 62.6782 107.948 62.5764C107.875 62.4745 107.83 62.3549 107.818 62.23L107.914 36.3213C107.926 36.4466 107.971 36.5664 108.044 36.6688C108.118 36.7712 108.217 36.8525 108.331 36.9044C108.64 37.0602 108.981 37.1413 109.327 37.1413C109.673 37.1413 110.014 37.0602 110.323 36.9044C110.436 36.8529 110.534 36.7726 110.607 36.6716C110.679 36.5706 110.724 36.4524 110.736 36.3287Z" fill="white"/>
</mask>
<g mask="url(#mask0_4664_8906)">
<path d="M107.911 37.4336L107.818 62.2387C107.83 62.3637 107.875 62.4833 107.948 62.5852C108.021 62.687 108.12 62.7675 108.235 62.8182C108.543 62.9765 108.885 63.0591 109.231 63.0591C109.578 63.0591 109.919 62.9765 110.227 62.8182C110.34 62.768 110.438 62.6885 110.51 62.5879C110.582 62.4873 110.626 62.3693 110.637 62.2461L110.729 37.5C109.792 37.4779 108.851 37.4336 107.911 37.4336Z" fill="white" stroke="#1C1D22" stroke-linecap="round" stroke-linejoin="round"/>
</g>
<path d="M110.736 36.3287L110.637 62.2373C110.626 62.3606 110.582 62.4786 110.51 62.5791C110.438 62.6797 110.34 62.7592 110.227 62.8094C109.919 62.9677 109.578 63.0503 109.231 63.0503C108.885 63.0503 108.543 62.9677 108.235 62.8094C108.12 62.7587 108.021 62.6782 107.948 62.5764C107.875 62.4745 107.83 62.3549 107.818 62.23L107.914 36.3213C107.926 36.4466 107.971 36.5664 108.044 36.6688C108.118 36.7712 108.217 36.8525 108.331 36.9044C108.64 37.0602 108.981 37.1413 109.327 37.1413C109.673 37.1413 110.014 37.0602 110.323 36.9044C110.436 36.8529 110.534 36.7726 110.607 36.6716C110.679 36.5706 110.724 36.4524 110.736 36.3287Z" stroke="#1C1D22" stroke-linecap="round" stroke-linejoin="round"/>
<path d="M121.661 31.9439L121.565 57.8526C121.553 57.9757 121.509 58.0935 121.437 58.194C121.365 58.2945 121.268 58.3741 121.155 58.4246C120.846 58.5804 120.505 58.6615 120.159 58.6615C119.813 58.6615 119.472 58.5804 119.163 58.4246C119.048 58.3733 118.949 58.2922 118.875 58.1897C118.802 58.0872 118.757 57.967 118.746 57.8415L118.842 31.9365C118.853 32.0617 118.897 32.1816 118.971 32.2836C119.044 32.3856 119.144 32.4659 119.259 32.516C119.567 32.6743 119.909 32.7569 120.255 32.7569C120.601 32.7569 120.943 32.6743 121.251 32.516C121.364 32.4655 121.461 32.3859 121.533 32.2854C121.605 32.1849 121.649 32.067 121.661 31.9439Z" fill="white"/>
<mask id="mask1_4664_8906" style="mask-type:luminance" maskUnits="userSpaceOnUse" x="118" y="31" width="4" height="28">
<path d="M121.655 31.9449L121.559 57.8535C121.547 57.9766 121.503 58.0945 121.431 58.195C121.359 58.2955 121.262 58.3751 121.149 58.4256C120.84 58.5813 120.499 58.6625 120.153 58.6625C119.807 58.6625 119.466 58.5813 119.157 58.4256C119.042 58.3743 118.943 58.2932 118.87 58.1907C118.796 58.0882 118.752 57.968 118.74 57.8425L118.836 31.9375C118.847 32.0627 118.892 32.1826 118.965 32.2846C119.038 32.3866 119.138 32.4669 119.253 32.5169C119.561 32.6753 119.903 32.7579 120.249 32.7579C120.596 32.7579 120.937 32.6753 121.245 32.5169C121.358 32.4664 121.455 32.3869 121.527 32.2863C121.599 32.1858 121.643 32.068 121.655 31.9449Z" fill="white"/>
</mask>
<g mask="url(#mask1_4664_8906)">
<path d="M118.831 33.04L118.738 57.8415C118.75 57.967 118.794 58.0872 118.868 58.1897C118.941 58.2922 119.04 58.3733 119.155 58.4246C119.464 58.5804 119.805 58.6615 120.151 58.6615C120.497 58.6615 120.838 58.5804 121.147 58.4246C121.26 58.3741 121.357 58.2945 121.429 58.194C121.501 58.0935 121.545 57.9757 121.557 57.8526L121.649 33.1028C120.708 33.0917 119.771 33.0474 118.831 33.04Z" fill="white" stroke="#1C1D22" stroke-linecap="round" stroke-linejoin="round"/>
</g>
<path d="M121.661 31.9439L121.565 57.8526C121.553 57.9757 121.509 58.0935 121.437 58.194C121.365 58.2945 121.268 58.3741 121.155 58.4246C120.846 58.5804 120.505 58.6615 120.159 58.6615C119.813 58.6615 119.472 58.5804 119.163 58.4246C119.048 58.3733 118.949 58.2922 118.875 58.1897C118.802 58.0872 118.757 57.967 118.746 57.8415L118.842 31.9365C118.853 32.0617 118.897 32.1816 118.971 32.2836C119.044 32.3856 119.144 32.4659 119.259 32.516C119.567 32.6743 119.909 32.7569 120.255 32.7569C120.601 32.7569 120.943 32.6743 121.251 32.516C121.364 32.4655 121.461 32.3859 121.533 32.2854C121.605 32.1849 121.649 32.067 121.661 31.9439Z" stroke="#1C1D22" stroke-linecap="round" stroke-linejoin="round"/>
<path d="M161.508 56.3638L161.412 79.0653C161.412 79.2461 161.276 79.4343 161.003 79.5672C160.688 79.706 160.348 79.7777 160.005 79.7777C159.661 79.7777 159.321 79.706 159.007 79.5672C158.73 79.427 158.594 79.2424 158.594 79.0579L158.69 56.3564C158.69 56.541 158.826 56.7255 159.107 56.8658C159.42 57.0045 159.76 57.0761 160.103 57.0761C160.446 57.0761 160.785 57.0045 161.099 56.8658C161.357 56.7292 161.508 56.5447 161.508 56.3638Z" fill="white"/>
<path d="M161.508 56.3638L161.412 79.0653C161.412 79.2461 161.276 79.4343 161.003 79.5672C160.688 79.706 160.348 79.7777 160.005 79.7777C159.661 79.7777 159.321 79.706 159.007 79.5672C158.73 79.427 158.594 79.2424 158.594 79.0579L158.69 56.3564C158.69 56.541 158.826 56.7255 159.107 56.8658C159.42 57.0045 159.76 57.0761 160.103 57.0761C160.446 57.0761 160.785 57.0045 161.099 56.8658C161.357 56.7292 161.508 56.5447 161.508 56.3638Z" stroke="#1C1D22" stroke-linecap="round" stroke-linejoin="round"/>
<path d="M161.221 53.6299L161.217 56.2835L147.092 64.4953V61.8417L161.221 53.6299Z" fill="white" stroke="#1C1D22" stroke-linecap="round" stroke-linejoin="round"/>
<path d="M147.089 61.8402V64.4643L104.432 39.8252V37.2012L147.089 61.8402Z" fill="white" stroke="#1C1D22" stroke-linecap="round" stroke-linejoin="round"/>
<path d="M161.218 53.6294L147.089 61.8412L104.432 37.2021L119.926 30.8984L161.218 53.6294Z" fill="white" stroke="#1C1D22" stroke-linecap="round" stroke-linejoin="round"/>
<path d="M119.464 40.2611C122.531 40.2611 125.016 38.8252 125.016 37.0539C125.016 35.2826 122.531 33.8467 119.464 33.8467C116.398 33.8467 113.912 35.2826 113.912 37.0539C113.912 38.8252 116.398 40.2611 119.464 40.2611Z" fill="white" stroke="#1C1D22" stroke-linecap="round" stroke-linejoin="round"/>
<path d="M131.812 47.1859C134.878 47.1859 137.364 45.75 137.364 43.9787C137.364 42.2074 134.878 40.7715 131.812 40.7715C128.746 40.7715 126.26 42.2074 126.26 43.9787C126.26 45.75 128.746 47.1859 131.812 47.1859Z" fill="white" stroke="#1C1D22" stroke-linecap="round" stroke-linejoin="round"/>
<path d="M148.513 48.7444C150.679 49.9956 150.679 52.0255 148.513 53.2766C146.348 54.5277 142.828 54.5277 140.663 53.2766C138.497 52.0255 138.493 49.9956 140.663 48.7444C142.832 47.4933 146.344 47.4896 148.513 48.7444Z" fill="white" stroke="#1C1D22" stroke-linecap="round" stroke-linejoin="round"/>
<path d="M124.83 49.9843V47.4009C124.83 46.6627 124.83 45.9246 124.83 45.1864L124.786 34.8525C124.786 34.5646 124.786 34.2768 124.786 33.9889V31.9811C124.786 31.291 124.786 30.6119 124.786 29.9402C124.786 29.7151 124.834 25.1091 124.753 24.9024C123.366 21.2966 115.552 21.4996 114.184 25.1607L114.254 49.9991C114.257 56.6977 124.543 56.9192 124.83 49.9843Z" fill="white" stroke="#1C1D22" stroke-linecap="round" stroke-linejoin="round"/>
<path d="M123.382 32.6357C123.29 33.0232 122.932 33.3959 122.297 33.6912C120.582 34.3815 118.667 34.3815 116.952 33.6912C116.284 33.3812 115.922 32.9789 115.845 32.584C115.804 34.2374 115.952 49.4615 115.952 49.1921C115.952 52.9418 123.267 53.1116 123.47 49.0998C123.485 49.0408 123.397 34.743 123.382 32.6357Z" fill="white" stroke="#138BE1" stroke-linecap="round" stroke-linejoin="round"/>
<path d="M122.297 31.2091C120.582 30.5188 118.667 30.5188 116.952 31.2091C116.144 31.5782 115.782 32.0949 115.845 32.5895C115.908 32.9954 116.269 33.3977 116.952 33.6967C118.667 34.387 120.582 34.387 122.297 33.6967C122.932 33.4014 123.289 33.0287 123.382 32.6411C123.518 32.1392 123.149 31.6041 122.297 31.2091Z" fill="white" stroke="#138BE1" stroke-linecap="round" stroke-linejoin="round"/>
<path d="M123.449 27.0352C123.565 26.9402 123.688 26.8551 123.818 26.7805L123.885 26.6218C123.968 26.4761 124.067 26.3399 124.18 26.2158C124.214 26.1753 124.253 26.1382 124.294 26.1051V24.7506C124.287 24.4619 124.214 24.1787 124.08 23.9227C123.947 23.6668 123.756 23.4449 123.523 23.2744C123.833 23.4872 124.106 23.7489 124.331 24.0494V23.9904C124.331 23.1452 124.903 22.802 124.268 21.942C122.841 20.0192 118.82 19.5689 116.676 20.4657C114.533 21.3626 114.525 22.3111 114.525 23.5401C114.632 23.6137 114.725 23.7063 114.798 23.8132C114.961 23.6367 115.14 23.476 115.333 23.3334C115.121 23.5067 114.949 23.7243 114.829 23.971C114.709 24.2177 114.645 24.4875 114.64 24.7617V26.0645C114.751 26.1881 114.84 26.3306 114.902 26.4853C115.363 27.6774 117.908 28.0169 118.934 28.1129C120.417 28.2625 121.909 27.9216 123.18 27.1422C123.266 27.0984 123.357 27.0626 123.449 27.0352Z" fill="white" stroke="#1C1D22" stroke-linecap="round" stroke-linejoin="round"/>
<path d="M124.252 23.9434L123.979 24.2165C124.658 25.2351 124.263 26.4309 122.817 27.2429C120.891 28.3169 117.836 28.2836 115.992 27.1727C114.653 26.3682 114.324 25.213 114.977 24.2202L114.76 23.877C113.804 24.9842 114.096 26.3903 115.675 27.3388C117.689 28.5531 121.02 28.5863 123.119 27.4163C124.768 26.4973 125.152 25.0912 124.252 23.9434Z" fill="white" stroke="#1C1D22" stroke-linecap="round" stroke-linejoin="round"/>
<path d="M122.826 19.9267C116.507 17.7824 109.545 22.2445 113.316 26.4887C114.278 27.5273 115.53 28.2536 116.909 28.574C117.659 28.6948 118.415 28.7749 119.174 28.8139C119.952 28.8139 121.207 28.6884 121.207 28.6884C127.733 27.5554 128.338 21.6761 122.826 19.9267Z" fill="white" stroke="#1C1D22" stroke-linecap="round" stroke-linejoin="round"/>
<path d="M115.658 25.0745C113.643 23.864 113.713 21.93 115.813 20.7601C117.912 19.5901 121.243 19.6234 123.257 20.8376C125.271 22.0518 125.201 23.9784 123.102 25.152C121.003 26.3257 117.672 26.2888 115.658 25.0745ZM115.975 24.8974C117.819 26.0046 120.878 26.0415 122.8 24.9675C124.722 23.8935 124.788 22.1257 122.94 21.0111C121.092 19.8965 118.041 19.8706 116.115 20.9446C114.189 22.0186 114.13 23.7865 115.975 24.8974Z" fill="white" stroke="#1C1D22" stroke-linecap="round" stroke-linejoin="round"/>
<path d="M116.142 23.2185C118.068 22.1445 121.122 22.174 122.967 23.2849C123.371 23.5169 123.72 23.8343 123.989 24.215L124.262 23.9419C123.988 23.6082 123.657 23.3258 123.284 23.1078C121.27 21.8972 117.938 21.864 115.839 23.034C115.435 23.2519 115.072 23.5406 114.77 23.8865L114.987 24.2298C115.285 23.8046 115.681 23.4577 116.142 23.2185Z" fill="white" stroke="#1C1D22" stroke-linecap="round" stroke-linejoin="round"/>
<path d="M136.988 56.116V53.5141C136.988 52.776 136.988 52.0378 136.988 51.2997L136.958 41.0064C136.958 40.7185 136.958 40.4306 136.958 40.1427V38.135C136.958 37.4485 136.958 36.7694 136.958 36.0977C136.958 35.8689 137.006 31.2666 136.925 31.0562C135.538 27.4541 127.724 27.6534 126.355 31.3146L126.426 56.1566C126.414 62.8442 136.703 63.0656 136.988 56.116Z" fill="white" stroke="#1C1D22" stroke-linecap="round" stroke-linejoin="round"/>
<path d="M135.54 38.7968C135.448 39.1659 135.09 39.5571 134.455 39.8523C132.74 40.5426 130.825 40.5426 129.11 39.8523C128.442 39.5386 128.08 39.14 128.003 38.7451C127.962 40.3985 128.114 55.6227 128.114 55.3532C128.114 59.0993 135.426 59.2691 135.628 55.261C135.643 55.1835 135.558 40.8894 135.54 38.7968Z" fill="white" stroke="#138BE1" stroke-linecap="round" stroke-linejoin="round"/>
<path d="M134.455 37.3527C132.74 36.6624 130.825 36.6624 129.11 37.3527C128.302 37.7218 127.94 38.2385 128.003 38.733C128.066 39.1427 128.427 39.5413 129.11 39.8402C130.825 40.5306 132.74 40.5306 134.455 39.8402C135.09 39.545 135.448 39.1685 135.54 38.7847C135.662 38.2828 135.3 37.7476 134.455 37.3527Z" fill="white" stroke="#138BE1" stroke-linecap="round" stroke-linejoin="round"/>
<path d="M135.606 33.1817C135.721 33.0867 135.845 33.0015 135.975 32.927L136.041 32.7683C136.125 32.622 136.224 32.4847 136.336 32.3586C136.371 32.3192 136.409 32.2834 136.45 32.2516V30.8971C136.443 30.6084 136.37 30.3252 136.237 30.0692C136.103 29.8133 135.912 29.5914 135.679 29.4208C135.991 29.6316 136.264 29.8937 136.487 30.1959V30.1368C136.487 29.288 137.059 28.9484 136.425 28.0885C134.997 26.1657 130.976 25.7154 128.836 26.6122C126.696 27.5091 126.682 28.4576 126.682 29.6866C126.788 29.7608 126.881 29.8518 126.958 29.956C127.119 29.7798 127.297 29.6203 127.49 29.4799C127.277 29.6523 127.105 29.8693 126.986 30.1155C126.867 30.3616 126.803 30.631 126.8 30.9045V32.211C126.912 32.334 127.001 32.4767 127.062 32.6317C127.523 33.8238 130.068 34.1634 131.094 34.2593C132.577 34.409 134.069 34.068 135.34 33.2887C135.424 33.2437 135.514 33.2078 135.606 33.1817Z" fill="white" stroke="#1C1D22" stroke-linecap="round" stroke-linejoin="round"/>
<path d="M136.394 30.085L136.121 30.3581C136.8 31.3767 136.406 32.5725 134.959 33.3882C133.034 34.4585 129.979 34.4289 128.135 33.318C126.795 32.5098 126.467 31.3583 127.12 30.3655L126.902 30.0186C125.947 31.1258 126.238 32.5319 127.817 33.4841C129.831 34.6947 133.163 34.7279 135.262 33.5579C136.929 32.639 137.309 31.2328 136.394 30.085Z" fill="white" stroke="#1C1D22" stroke-linecap="round" stroke-linejoin="round"/>
<path d="M134.986 26.0732C128.667 23.9289 121.706 28.3909 125.472 32.6352C126.437 33.6706 127.688 34.3963 129.065 34.7205C129.816 34.8394 130.572 34.9194 131.331 34.9604C132.109 34.9604 133.363 34.8349 133.363 34.8349C139.893 33.6981 140.483 27.841 134.986 26.0732Z" fill="white" stroke="#1C1D22" stroke-linecap="round" stroke-linejoin="round"/>
<path d="M127.807 31.2224C125.796 30.0082 125.862 28.0779 127.962 26.908C130.061 25.738 133.396 25.7713 135.406 26.9818C137.417 28.1923 137.35 30.1263 135.251 31.2962C133.152 32.4662 129.821 32.433 127.807 31.2224ZM128.124 31.0453C129.968 32.1525 133.027 32.1857 134.949 31.1154C136.871 30.0451 136.937 28.2699 135.089 27.159C133.241 26.0481 130.19 26.0185 128.264 27.0888C126.338 28.1591 126.279 29.9344 128.124 31.0453Z" fill="white" stroke="#1C1D22" stroke-linecap="round" stroke-linejoin="round"/>
<path d="M128.275 29.3627C130.2 28.2887 133.255 28.3219 135.1 29.4328C135.504 29.6635 135.852 29.9797 136.121 30.3592L136.394 30.0861C136.12 29.7536 135.789 29.4724 135.417 29.2557C133.403 28.0451 130.071 28.0082 127.972 29.1819C127.568 29.3985 127.205 29.686 126.902 30.0307L127.12 30.3776C127.419 29.9522 127.815 29.6043 128.275 29.3627Z" fill="white" stroke="#1C1D22" stroke-linecap="round" stroke-linejoin="round"/>
<path d="M149.909 61.4277V58.8442C149.909 58.1061 149.909 57.3679 149.909 56.6298L149.88 46.3364C149.88 46.0486 149.88 45.7607 149.88 45.4728V43.4651C149.88 42.7786 149.88 42.0958 149.88 41.4278C149.88 41.199 149.928 36.5967 149.847 36.3863C148.456 32.7842 140.642 32.9835 139.277 36.6447L139.347 61.4867C139.34 68.1706 149.625 68.392 149.909 61.4277Z" fill="white" stroke="#1C1D22" stroke-linecap="round" stroke-linejoin="round"/>
<path d="M148.461 44.1237C148.372 44.4928 148.011 44.8803 147.38 45.1756C145.666 45.8694 143.749 45.8694 142.035 45.1756C141.367 44.8655 141.005 44.4633 140.928 44.0684C140.891 45.7218 141.038 60.9459 141.038 60.6765C141.038 64.4262 148.354 64.596 148.553 60.5842C148.564 60.5104 148.479 46.2126 148.461 44.1237Z" fill="white" stroke="#138BE1" stroke-linecap="round" stroke-linejoin="round"/>
<path d="M147.38 42.6779C145.665 41.9876 143.749 41.9876 142.034 42.6779C141.226 43.047 140.861 43.5637 140.928 44.0582C140.994 44.4642 141.356 44.8665 142.034 45.1654C143.749 45.8592 145.665 45.8592 147.38 45.1654C148.011 44.8702 148.372 44.4974 148.461 44.1136C148.601 43.6079 148.232 43.0728 147.38 42.6779Z" fill="white" stroke="#138BE1" stroke-linecap="round" stroke-linejoin="round"/>
<path d="M148.531 38.5059C148.646 38.4097 148.769 38.3245 148.9 38.2512L148.966 38.0888C149.049 37.944 149.147 37.8079 149.258 37.6829C149.293 37.6443 149.331 37.6085 149.372 37.5758V36.2176C149.364 35.9288 149.29 35.6456 149.156 35.3898C149.021 35.1339 148.83 34.9122 148.597 34.7414C148.909 34.9521 149.182 35.2142 149.405 35.5164C149.405 35.498 149.405 35.4795 149.405 35.4611C149.405 34.6122 149.977 34.269 149.339 33.4127C147.915 31.4899 143.894 31.0396 141.75 31.9364C139.607 32.8333 139.6 33.7818 139.6 35.0071C139.705 35.0828 139.797 35.175 139.873 35.2802C140.035 35.104 140.214 34.9445 140.408 34.8041C140.195 34.9762 140.022 35.193 139.902 35.4392C139.782 35.6854 139.718 35.9549 139.714 36.2287V37.5352C139.829 37.6571 139.919 37.7999 139.98 37.956C140.441 39.1444 142.983 39.4839 144.012 39.5799C145.495 39.7295 146.987 39.3886 148.258 38.6092C148.345 38.5641 148.436 38.5294 148.531 38.5059Z" fill="white" stroke="#1C1D22" stroke-linecap="round" stroke-linejoin="round"/>
<path d="M149.338 35.4092L149.065 35.6823C149.743 36.7009 149.352 37.8967 147.903 38.7087C145.981 39.7827 142.926 39.7532 141.078 38.6386C139.739 37.834 139.41 36.6825 140.063 35.686L139.849 35.3428C138.89 36.45 139.185 37.8561 140.764 38.8046C142.775 40.0189 146.11 40.0521 148.209 38.8822C149.854 37.9632 150.238 36.557 149.338 35.4092Z" fill="white" stroke="#1C1D22" stroke-linecap="round" stroke-linejoin="round"/>
<path d="M147.908 31.3958C141.589 29.2552 134.628 33.7172 138.398 37.9578C139.36 38.9964 140.612 39.7227 141.991 40.0431C142.741 40.1641 143.497 40.2442 144.256 40.283C145.031 40.283 146.289 40.1612 146.289 40.1612C152.815 39.0244 153.416 33.1489 147.908 31.3958Z" fill="white" stroke="#1C1D22" stroke-linecap="round" stroke-linejoin="round"/>
<path d="M140.74 36.5437C138.725 35.3332 138.795 33.4029 140.895 32.2293C142.994 31.0556 146.325 31.0926 148.339 32.3068C150.353 33.521 150.283 35.4513 148.184 36.6212C146.085 37.7912 142.754 37.7579 140.74 36.5437ZM141.057 36.3702C142.901 37.4775 145.956 37.5107 147.882 36.4367C149.807 35.3627 149.867 33.5948 148.022 32.4839C146.177 31.373 143.119 31.3398 141.197 32.4138C139.275 33.4878 139.209 35.2557 141.057 36.3702Z" fill="white" stroke="#1C1D22" stroke-linecap="round" stroke-linejoin="round"/>
<path d="M141.224 34.6888C143.146 33.6148 146.201 33.648 148.049 34.7589C148.453 34.9874 148.801 35.304 149.067 35.6853L149.34 35.4121C149.067 35.0797 148.737 34.7985 148.366 34.5817C146.352 33.3675 143.017 33.3343 140.918 34.5042C140.515 34.7232 140.154 35.0118 139.852 35.3568L140.066 35.7C140.367 35.2769 140.764 34.9305 141.224 34.6888Z" fill="white" stroke="#1C1D22" stroke-linecap="round" stroke-linejoin="round"/>
<path d="M146.117 59.3604L146.014 84.1618C146.025 84.2873 146.07 84.4075 146.143 84.51C146.216 84.6125 146.316 84.6936 146.431 84.7449C146.739 84.9007 147.081 84.9818 147.427 84.9818C147.773 84.9818 148.114 84.9007 148.423 84.7449C148.535 84.6944 148.633 84.6149 148.705 84.5143C148.777 84.4138 148.821 84.296 148.832 84.1729L148.924 59.4231C147.998 59.412 147.058 59.3677 146.117 59.3604Z" fill="white" stroke="#1C1D22" stroke-linecap="round" stroke-linejoin="round"/>
<path d="M163.7 55.0303V57.6802L147.092 64.4969V61.8433L163.7 55.0303Z" fill="white" stroke="#1C1D22" stroke-linecap="round" stroke-linejoin="round"/>
<path d="M147.089 61.8422V64.4663L104.432 39.8272V37.2031L147.089 61.8422Z" fill="white" stroke="#1C1D22" stroke-linecap="round" stroke-linejoin="round"/>
<path d="M150.048 47.18L163.697 55.0301L147.089 61.8431L133.469 53.9782L132.661 53.5095L104.432 37.2041L114.167 33.207" fill="white"/>
<path d="M150.048 47.18L163.697 55.0301L147.089 61.8431L133.469 53.9782L132.661 53.5095L104.432 37.2041L114.167 33.207" stroke="#1C1D22" stroke-linecap="round" stroke-linejoin="round"/>
<path d="M136.773 39.5146L139.197 40.9134" stroke="#1C1D22" stroke-linecap="round" stroke-linejoin="round"/>
<mask id="mask2_4664_8906" style="mask-type:luminance" maskUnits="userSpaceOnUse" x="110" y="14" width="21" height="27">
<path d="M125.455 34.7018C127.624 35.9529 125.54 38.0714 123.374 39.3262C121.209 40.5811 117.693 40.5774 115.524 39.3262C113.355 38.0751 111.311 35.8385 113.48 34.5874C113.901 34.3438 109.629 21.9874 110.138 21.7991C111.772 21.1939 127.322 12.0373 130.753 15.9236C131.745 17.0492 125.064 34.4841 125.455 34.7018Z" fill="white"/>
</mask>
<g mask="url(#mask2_4664_8906)">
<path d="M124.819 49.9834V47.3999C124.819 46.6617 124.819 45.9236 124.819 45.1855L124.774 34.8515C124.774 34.5637 124.774 34.2758 124.774 33.9879V31.9802C124.774 31.29 124.774 30.6109 124.774 29.9392C124.774 29.7141 124.822 25.1081 124.741 24.9014C123.354 21.2956 115.541 21.4986 114.172 25.1598L114.242 49.9981C114.246 56.6967 124.531 56.9182 124.819 49.9834Z" fill="white" stroke="#1C1D22" stroke-linecap="round" stroke-linejoin="round"/>
<path d="M123.094 33.0366C123.01 33.2626 122.876 33.4672 122.703 33.6356C122.531 33.8041 122.323 33.9322 122.095 34.0109C120.511 34.6493 118.742 34.6493 117.159 34.0109C116.543 33.7231 116.207 33.354 116.148 32.9775C116.115 34.5018 116.251 48.556 116.251 48.3161C116.251 51.7779 123.002 51.9329 123.19 48.2312C123.19 48.1647 123.109 34.9668 123.094 33.0366Z" fill="white" stroke="#138BE1" stroke-linecap="round" stroke-linejoin="round"/>
<path d="M122.098 31.6985C120.514 31.064 118.747 31.064 117.162 31.6985C116.424 32.0492 116.081 32.5179 116.152 32.9755C116.211 33.3446 116.546 33.7137 117.162 34.0089C118.746 34.6472 120.515 34.6472 122.098 34.0089C122.326 33.9302 122.534 33.802 122.707 33.6336C122.88 33.4652 123.014 33.2606 123.098 33.0346C123.209 32.5585 122.877 32.0639 122.098 31.6985Z" fill="white" stroke="#138BE1" stroke-linecap="round" stroke-linejoin="round"/>
<path d="M123.438 27.0342C123.553 26.9393 123.677 26.8541 123.807 26.7795L123.873 26.6208C123.956 26.4751 124.055 26.3389 124.168 26.2149C124.202 26.1743 124.241 26.1372 124.282 26.1041V24.7497C124.275 24.461 124.202 24.1777 124.069 23.9217C123.935 23.6658 123.744 23.444 123.511 23.2734C123.821 23.4862 124.094 23.748 124.319 24.0484V23.9894C124.319 23.1442 124.891 22.801 124.257 21.941C122.829 20.0182 118.808 19.5679 116.664 20.4648C114.521 21.3616 114.514 22.3101 114.514 23.5391C114.621 23.6128 114.713 23.7053 114.787 23.8122C114.949 23.6357 115.128 23.475 115.322 23.3324C115.109 23.5057 114.937 23.7233 114.817 23.97C114.697 24.2167 114.633 24.4865 114.628 24.7607V26.0635C114.74 26.1872 114.828 26.3296 114.89 26.4843C115.351 27.6764 117.897 28.0159 118.922 28.1119C120.406 28.2615 121.897 27.9206 123.168 27.1412C123.255 27.0974 123.345 27.0616 123.438 27.0342Z" fill="white" stroke="#1C1D22" stroke-linecap="round" stroke-linejoin="round"/>
<path d="M124.24 23.9424L123.967 24.2155C124.646 25.2342 124.251 26.4299 122.805 27.2419C120.879 28.3159 117.825 28.2827 115.98 27.1718C114.641 26.3672 114.313 25.212 114.966 24.2192L114.748 23.876C113.793 24.9832 114.084 26.3893 115.663 27.3378C117.677 28.5521 121.008 28.5853 123.108 27.4154C124.757 26.4964 125.14 25.0902 124.24 23.9424Z" fill="white" stroke="#1C1D22" stroke-linecap="round" stroke-linejoin="round"/>
<path d="M122.815 19.9257C116.495 17.7814 109.534 22.2435 113.304 26.4878C114.267 27.5263 115.518 28.2526 116.897 28.573C117.647 28.6938 118.404 28.7739 119.162 28.8129C119.941 28.8129 121.195 28.6874 121.195 28.6874C127.721 27.5544 128.326 21.6751 122.815 19.9257Z" fill="white" stroke="#1C1D22" stroke-linecap="round" stroke-linejoin="round"/>
<path d="M115.646 25.9109C113.632 24.7003 113.702 22.7664 115.801 21.5965C117.9 20.4265 121.231 20.4597 123.245 21.6703C125.26 22.8808 125.19 24.8147 123.091 25.9847C120.991 27.1546 117.66 27.1214 115.646 25.9109ZM115.963 25.7337C117.808 26.8409 120.866 26.8779 122.788 25.8039C124.71 24.7299 124.776 22.9583 122.928 21.8474C121.08 20.7365 118.029 20.707 116.103 21.7773C114.178 22.8476 114.119 24.6228 115.963 25.7337Z" fill="#1C1D22" stroke="#1C1D22" stroke-width="0.8" stroke-linecap="round" stroke-linejoin="round"/>
</g>
<path d="M124.892 36.4142C125.453 37.5215 124.892 38.4626 123.383 39.3262C121.214 40.5773 117.702 40.5773 115.533 39.3262C113.979 38.4294 113.363 37.0712 114.035 35.9492" stroke="#1C1D22" stroke-linecap="round" stroke-linejoin="round"/>
<mask id="mask3_4664_8906" style="mask-type:luminance" maskUnits="userSpaceOnUse" x="122" y="21" width="19" height="27">
<path d="M132.239 21.9346L122.965 28.8768L125.632 41.8274L126.37 44.7467C126.37 44.7467 129.247 47.7399 132.479 47.1605C135.711 46.581 137.216 44.9829 137.216 44.9829L140.702 27.6072L132.239 21.9346Z" fill="white"/>
</mask>
<g mask="url(#mask3_4664_8906)">
<path d="M136.991 56.1151V53.5131C136.991 52.775 136.991 52.0369 136.991 51.2987L136.962 41.0054C136.962 40.7175 136.962 40.4296 136.962 40.1417V38.134C136.962 37.4476 136.962 36.7685 136.962 36.0968C136.962 35.8679 137.01 31.2656 136.929 31.0553C135.542 27.4532 127.728 27.6524 126.359 31.3136L126.429 56.1557C126.418 62.8432 136.707 63.0646 136.991 56.1151Z" fill="white" stroke="#1C1D22" stroke-linecap="round" stroke-linejoin="round"/>
<path d="M135.197 39.0452C135.108 39.4142 134.765 39.7833 134.164 40.0527C132.527 40.7095 130.699 40.7095 129.062 40.0527C128.424 39.7538 128.077 39.3736 128.018 38.9824C127.981 40.562 128.121 55.0923 128.121 54.8524C128.121 58.4324 135.101 58.5911 135.293 54.7675C135.293 54.6863 135.212 41.0418 135.197 39.0452Z" fill="white" stroke="#138BE1" stroke-linecap="round" stroke-linejoin="round"/>
<path d="M129.053 37.6637C128.279 38.0328 127.947 38.5089 128.009 38.9813C128.068 39.3725 128.415 39.7527 129.053 40.0516C130.691 40.7084 132.518 40.7084 134.155 40.0516C134.757 39.7674 135.1 39.4131 135.188 39.0441C135.303 38.5532 134.96 38.0402 134.155 37.6637C133.316 37.309 132.41 37.1403 131.499 37.1692" fill="white"/>
<path d="M129.053 37.6637C128.279 38.0328 127.947 38.5089 128.009 38.9813C128.068 39.3725 128.415 39.7527 129.053 40.0516C130.691 40.7084 132.518 40.7084 134.155 40.0516C134.757 39.7674 135.1 39.4131 135.188 39.0441C135.303 38.5532 134.96 38.0402 134.155 37.6637C133.316 37.309 132.41 37.1403 131.499 37.1692" stroke="#138BE1" stroke-linecap="round" stroke-linejoin="round"/>
<path d="M135.61 33.1807C135.725 33.0857 135.849 33.0006 135.978 32.926L136.045 32.7673C136.129 32.621 136.228 32.4837 136.34 32.3577C136.374 32.3183 136.413 32.2824 136.454 32.2506V30.8961C136.447 30.6074 136.374 30.3242 136.241 30.0682C136.107 29.8123 135.916 29.5905 135.683 29.4199C135.995 29.6306 136.268 29.8927 136.491 30.1949V30.1359C136.491 29.287 137.063 28.9475 136.429 28.0875C135.001 26.1647 130.98 25.7144 128.84 26.6112C126.7 27.5081 126.686 28.4566 126.686 29.6856C126.792 29.7598 126.885 29.8508 126.962 29.955C127.123 29.7789 127.301 29.6194 127.493 29.4789C127.281 29.6513 127.109 29.8683 126.99 30.1145C126.871 30.3607 126.807 30.63 126.804 30.9035V32.21C126.916 32.3331 127.005 32.4757 127.066 32.6308C127.527 33.8229 130.072 34.1624 131.098 34.2584C132.581 34.408 134.073 34.0671 135.344 33.2877C135.428 33.2427 135.517 33.2068 135.61 33.1807Z" fill="white" stroke="#1C1D22" stroke-linecap="round" stroke-linejoin="round"/>
<path d="M136.398 30.084L136.125 30.3571C136.804 31.3758 136.409 32.5715 134.963 33.3872C133.038 34.4575 129.983 34.428 128.138 33.3171C126.799 32.5088 126.471 31.3573 127.124 30.3645L126.906 30.0176C125.951 31.1248 126.242 32.5309 127.821 33.4831C129.835 34.6937 133.167 34.7269 135.266 33.557C136.933 32.638 137.313 31.2318 136.398 30.084Z" fill="white" stroke="#1C1D22" stroke-linecap="round" stroke-linejoin="round"/>
<path d="M134.99 26.0722C128.671 23.9279 121.71 28.39 125.476 32.6343C126.441 33.6696 127.692 34.3953 129.069 34.7195C129.82 34.8384 130.576 34.9185 131.334 34.9594C132.113 34.9594 133.367 34.8339 133.367 34.8339C139.897 33.6972 140.487 27.84 134.99 26.0722Z" fill="white" stroke="#1C1D22" stroke-linecap="round" stroke-linejoin="round"/>
<path d="M127.81 32.2679C125.8 31.0573 125.866 29.1234 127.965 27.9535C130.065 26.7835 133.399 26.8167 135.41 28.031C137.421 29.2452 137.354 31.1717 135.255 32.3454C134.282 32.8537 133.209 33.141 132.112 33.1869C130.62 33.3027 129.125 32.9835 127.81 32.2679ZM128.128 32.0907C128.885 32.5231 129.725 32.7933 130.592 32.8842C132.087 33.0879 133.608 32.8304 134.953 32.1461C136.875 31.0721 136.941 29.3042 135.093 28.1897C133.245 27.0751 130.194 27.0492 128.268 28.1232C126.342 29.1972 126.283 30.9651 128.128 32.076V32.0907Z" fill="#1C1D22" stroke="#1C1D22" stroke-width="0.8" stroke-linecap="round" stroke-linejoin="round"/>
</g>
<path d="M137.083 43.4558C137.422 44.467 137.083 45.4672 135.736 46.2496C133.571 47.5008 130.055 47.5008 127.889 46.2496C126.554 45.4783 125.838 44.3637 126.144 43.3672" stroke="#1C1D22" stroke-linecap="round" stroke-linejoin="round"/>
<mask id="mask4_4664_8906" style="mask-type:luminance" maskUnits="userSpaceOnUse" x="136" y="27" width="19" height="28">
<path d="M145.458 27.4121L136.059 33.7933L138.556 51.0325L141.297 53.7231L145.517 54.0478L149.114 52.889L150.158 51.4939L154.393 33.8524L147.665 28.3975L145.458 27.4121Z" fill="white"/>
</mask>
<g mask="url(#mask4_4664_8906)">
<path d="M149.909 61.4277V58.8442C149.909 58.1061 149.909 57.3679 149.909 56.6298L149.88 46.3364C149.88 46.0486 149.88 45.7607 149.88 45.4728V43.4651C149.88 42.7786 149.88 42.0958 149.88 41.4278C149.88 41.199 149.928 36.5967 149.847 36.3863C148.456 32.7842 140.642 32.9835 139.277 36.6447L139.347 61.4867C139.34 68.1706 149.625 68.392 149.909 61.4277Z" fill="white" stroke="#1C1D22" stroke-linecap="round" stroke-linejoin="round"/>
<path d="M148.049 44.1779C147.962 44.4091 147.826 44.6184 147.649 44.7907C147.473 44.963 147.26 45.094 147.027 45.1743C145.404 45.8352 143.588 45.8391 141.962 45.1854C141.331 44.8939 140.988 44.5137 140.925 44.1299C140.892 45.691 141.032 60.0737 141.032 59.8264C141.032 63.3658 147.942 63.5171 148.13 59.7378C148.145 59.6603 148.063 46.1561 148.049 44.1779Z" fill="white" stroke="#138BE1" stroke-linecap="round" stroke-linejoin="round"/>
<path d="M147.018 42.8152C145.397 42.1658 143.588 42.1658 141.968 42.8152C141.2 43.1843 140.861 43.653 140.931 44.1217C140.994 44.4908 141.337 44.8857 141.968 45.1773C143.588 45.8306 145.398 45.8306 147.018 45.1773C147.251 45.0969 147.464 44.9659 147.641 44.7936C147.817 44.6213 147.954 44.412 148.04 44.1808C148.154 43.7121 147.815 43.1917 147.018 42.8152Z" fill="white" stroke="#138BE1" stroke-linecap="round" stroke-linejoin="round"/>
<path d="M148.531 38.5059C148.646 38.4097 148.769 38.3245 148.9 38.2512L148.966 38.0888C149.049 37.944 149.147 37.8079 149.258 37.6829C149.293 37.6443 149.331 37.6085 149.372 37.5758V36.2176C149.364 35.9288 149.29 35.6456 149.156 35.3898C149.021 35.1339 148.83 34.9122 148.597 34.7414C148.909 34.9521 149.182 35.2142 149.405 35.5164C149.405 35.498 149.405 35.4795 149.405 35.4611C149.405 34.6122 149.977 34.269 149.339 33.4127C147.915 31.4899 143.894 31.0396 141.75 31.9364C139.607 32.8333 139.6 33.7818 139.6 35.0071C139.705 35.0828 139.797 35.175 139.873 35.2802C140.035 35.104 140.214 34.9445 140.408 34.8041C140.195 34.9762 140.022 35.193 139.902 35.4392C139.782 35.6854 139.718 35.9549 139.714 36.2287V37.5352C139.829 37.6571 139.919 37.7999 139.98 37.956C140.441 39.1444 142.983 39.4839 144.012 39.5799C145.495 39.7295 146.987 39.3886 148.258 38.6092C148.345 38.5641 148.436 38.5294 148.531 38.5059Z" fill="white" stroke="#1C1D22" stroke-linecap="round" stroke-linejoin="round"/>
<path d="M149.338 35.4092L149.065 35.6823C149.743 36.7009 149.352 37.8967 147.903 38.7087C145.981 39.7827 142.926 39.7532 141.078 38.6386C139.739 37.834 139.41 36.6825 140.063 35.686L139.849 35.3428C138.89 36.45 139.185 37.8561 140.764 38.8046C142.775 40.0189 146.11 40.0521 148.209 38.8822C149.854 37.9632 150.238 36.557 149.338 35.4092Z" fill="white" stroke="#1C1D22" stroke-linecap="round" stroke-linejoin="round"/>
<path d="M147.908 31.3958C141.589 29.2552 134.628 33.7172 138.398 37.9578C139.36 38.9964 140.612 39.7227 141.991 40.0431C142.741 40.1641 143.497 40.2442 144.256 40.283C145.031 40.283 146.289 40.1612 146.289 40.1612C152.815 39.0244 153.416 33.1489 147.908 31.3958Z" fill="white" stroke="#1C1D22" stroke-linecap="round" stroke-linejoin="round"/>
<path d="M140.74 37.5935C138.725 36.3793 138.795 34.449 140.895 33.2791C142.994 32.1091 146.325 32.1423 148.339 33.3529C150.353 34.5634 150.283 36.4974 148.184 37.6673C146.085 38.8373 142.754 38.8041 140.74 37.5935ZM141.057 37.4164C142.901 38.5236 145.956 38.5568 147.882 37.4865C149.807 36.4162 149.867 34.641 148.022 33.5301C147.022 32.9747 145.897 32.6815 144.753 32.6775C144.395 32.6701 144.036 32.6849 143.68 32.7218C142.812 32.8017 141.968 33.0526 141.197 33.4599C139.275 34.5339 139.209 36.3055 141.057 37.4164Z" fill="#1C1D22" stroke="#1C1D22" stroke-width="0.8" stroke-linecap="round" stroke-linejoin="round"/>
</g>
<path d="M150.211 50.4481C150.532 51.5848 150.134 52.3377 148.511 53.2751C146.341 54.5263 142.826 54.5263 140.66 53.2751C139.162 52.4115 138.395 50.9352 138.967 49.8428" stroke="#1C1D22" stroke-linecap="round" stroke-linejoin="round"/>
<path d="M37.7848 42.5432L33.0507 38.5622L32.9771 39.2442C32.1758 42.505 29.5309 45.4505 26.812 47.5085L26.6462 47.6337L30.7427 51.0039L30.8356 50.8154C32.3341 47.7469 33.6901 44.6469 37.9465 43.1449L37.7848 42.5432Z" fill="white" stroke="#1C1D22" stroke-linecap="round" stroke-linejoin="round"/>
<path d="M52.6087 45.1356L54.5707 38.5731L54.5053 38.5713C50.4679 38.4681 46.5274 37.3091 43.0763 35.2096L42.863 35.079L40.9016 41.6325L41.1517 41.6412C45.1952 41.7792 49.1319 42.978 52.5669 45.1172L52.6087 45.1356Z" fill="white" stroke="#1C1D22" stroke-linecap="round" stroke-linejoin="round"/>
<path d="M33.4271 35.2267L39.4577 31.9739L39.4239 31.9357C37.1304 29.7589 35.811 28.8529 35.0902 25.8523C34.9805 25.3962 34.5433 24.0977 33.9993 23.6553C33.1821 22.9904 32.0068 23.2292 31.1033 23.7468C30.3819 24.1673 30.0892 24.9237 29.6961 25.6242L29.3921 27.0415C32.9846 29.0617 32.8307 31.8184 33.4333 35.1616L33.4271 35.2267Z" fill="white" stroke="#1C1D22" stroke-linecap="round" stroke-linejoin="round"/>
<path d="M52.5626 27.8057L47.5312 23.1515L47.486 23.2255C44.6229 27.8827 42.6896 32.1437 37.5979 32.8737L36.4636 36.0032L41.2194 40.0713L41.9714 38.7133C43.9132 31.4157 48.0637 31.0835 52.4846 27.8619L52.5626 27.8057Z" fill="white" stroke="#1C1D22" stroke-linecap="round" stroke-linejoin="round"/>
<path d="M39.6818 43.1041C38.3898 43.3436 37.0545 43.1402 35.892 42.5267C34.7295 41.9133 33.8078 40.9258 33.2758 39.7238C32.7439 38.5218 32.6329 37.1757 32.9608 35.9031C33.2886 34.6306 34.0362 33.506 35.0826 32.7114C36.129 31.9167 37.413 31.4984 38.7269 31.524C40.0408 31.5497 41.3079 32.0179 42.3231 32.8529C43.3383 33.6878 44.0423 34.8408 44.3213 36.1252C44.6003 37.4096 44.4379 38.7503 43.8604 39.9306C43.4616 40.7503 42.8757 41.4646 42.1498 42.0159C41.4239 42.5671 40.5785 42.9399 39.6818 43.1041Z" fill="white" stroke="#138BE1" stroke-linecap="round" stroke-linejoin="round"/>
<path d="M56.9308 48.3284C58.1501 47.8291 59.1659 46.9342 59.815 45.7876C60.4641 44.641 60.7087 43.3093 60.5095 42.0065C60.3103 40.7038 59.679 39.5056 58.7169 38.6047C57.7548 37.7037 56.5179 37.1523 55.2049 37.0391C56.0274 36.7023 56.9156 36.5566 57.8028 36.6129C58.6899 36.6693 59.5527 36.9262 60.3263 37.3644C61.0999 37.8026 61.764 38.4106 62.2686 39.1426C62.7733 39.8746 63.1053 40.7115 63.2397 41.5903C63.374 42.469 63.3072 43.3668 63.0442 44.2158C62.7813 45.0648 62.3291 45.843 61.7216 46.4918C61.1142 47.1405 60.3674 47.6429 59.5376 47.9611C58.7077 48.2792 57.8164 48.4048 56.9308 48.3284Z" fill="#138BE1"/>
<path d="M59.1064 46.7828C58.5096 47.4558 57.7665 47.9829 56.9341 48.3237C55.6211 48.2105 54.3842 47.6591 53.4221 46.7582C52.46 45.8572 51.8286 44.6591 51.6295 43.3563C51.4303 42.0535 51.675 40.7218 52.324 39.5752C52.9731 38.4286 53.989 37.5337 55.2083 37.0344C56.2925 37.1283 57.3294 37.5216 58.2034 38.1703C59.0774 38.819 59.7542 39.6976 60.1582 40.7083C60.5622 41.719 60.6776 42.8219 60.4915 43.8941C60.3054 44.9662 59.8251 45.9655 59.1042 46.7804L59.1064 46.7828Z" fill="#138BE1"/>
<path d="M53.0685 30.6617C54.0522 29.5732 54.6413 28.1856 54.7413 26.7216C54.8413 25.2576 54.4463 23.8023 53.6199 22.5894C52.7934 21.3765 51.5834 20.4764 50.1842 20.0338C48.785 19.5911 47.2779 19.6316 45.9048 20.1486C46.5688 19.4139 47.3909 18.8396 48.3092 18.469C49.2275 18.0983 50.2181 17.941 51.2063 18.0089C52.1944 18.0769 53.1543 18.3682 54.0137 18.8611C54.873 19.3539 55.6094 20.0353 56.1673 20.854C56.7251 21.6727 57.0899 22.6072 57.2341 23.5872C57.3784 24.5672 57.2983 25.5671 56.9999 26.5114C56.7015 27.4558 56.1927 28.32 55.5117 29.0389C54.8307 29.7578 53.9953 30.3127 53.0685 30.6617Z" fill="#138BE1"/>
<path d="M54.5202 28.0755C54.2454 29.0395 53.7519 29.9269 53.078 30.6688C51.7049 31.1858 50.1978 31.2263 48.7986 30.7836C47.3994 30.3409 46.1894 29.4409 45.3629 28.228C44.5364 27.0151 44.1415 25.5598 44.2415 24.0958C44.3415 22.6318 44.9306 21.2442 45.9143 20.1557C47.0488 19.7274 48.2801 19.6229 49.4708 19.8538C50.6615 20.0848 51.7648 20.6421 52.6574 21.4636C53.55 22.285 54.1969 23.3383 54.5259 24.5059C54.8548 25.6734 54.8528 26.9093 54.5202 28.0755Z" fill="#138BE1"/>
<path d="M28.1645 27.628C27.5326 27.4269 26.9465 27.1033 26.4396 26.6756C25.9328 26.2479 25.5152 25.7246 25.2107 25.1355C24.9061 24.5464 24.7207 23.9031 24.6649 23.2424C24.6091 22.5817 24.684 21.9165 24.8855 21.2849C25.1192 20.5465 25.52 19.872 26.0568 19.3138C26.7135 18.6356 27.547 18.1547 28.463 17.9257C29.379 17.6968 30.3409 17.7288 31.2398 18.0182C31.8719 18.2197 32.4582 18.5437 32.9651 18.9718C33.4721 19.3999 33.8897 19.9236 34.1942 20.5131C34.4987 21.1026 34.6841 21.7463 34.7397 22.4074C34.7954 23.0685 34.7202 23.734 34.5185 24.3659C34.2784 25.1157 33.8659 25.7987 33.3141 26.3602C32.7623 26.9217 32.0866 27.346 31.3411 27.5991C30.3134 27.9523 29.1987 27.9625 28.1645 27.628Z" fill="white" stroke="#138BE1" stroke-linecap="round" stroke-linejoin="round"/>
<path d="M24.8335 45.4714C26.2336 45.1956 27.6857 45.385 28.9686 46.0106C30.2516 46.6362 31.2952 47.6639 31.9405 48.9371C32.5859 50.2103 32.7976 51.6594 32.5435 53.0637C32.2893 54.468 31.5833 55.7506 30.5328 56.7162C29.4823 57.6818 28.1449 58.2776 26.7242 58.4128C25.3036 58.548 23.8775 58.2152 22.663 57.4651C21.4486 56.715 20.5123 55.5887 19.9967 54.2576C19.4812 52.9266 19.4146 51.4637 19.8071 50.0917" fill="white"/>
<path d="M24.8335 45.4714C26.2336 45.1956 27.6857 45.385 28.9686 46.0106C30.2516 46.6362 31.2952 47.6639 31.9405 48.9371C32.5859 50.2103 32.7976 51.6594 32.5435 53.0637C32.2893 54.468 31.5833 55.7506 30.5328 56.7162C29.4823 57.6818 28.1449 58.2776 26.7242 58.4128C25.3036 58.548 23.8775 58.2152 22.663 57.4651C21.4486 56.715 20.5123 55.5887 19.9967 54.2576C19.4812 52.9266 19.4146 51.4637 19.8071 50.0917" stroke="#138BE1" stroke-linecap="round" stroke-linejoin="round"/>
<path d="M61.834 46.3679C61.3227 46.9455 60.7025 47.4166 60.009 47.7544C59.3155 48.0922 58.5622 48.2901 57.7921 48.3367C57.022 48.3834 56.2502 48.2778 55.5207 48.0262C54.7913 47.7745 54.1185 47.3817 53.5407 46.8701C52.963 46.3585 52.4916 45.7381 52.1535 45.0444C51.8154 44.3507 51.6173 43.5973 51.5703 42.8271C51.5234 42.057 51.6285 41.2852 51.8798 40.5558C52.1312 39.8264 52.5237 39.1537 53.0351 38.5762C53.6297 37.9008 54.3734 37.3732 55.2074 37.0352C56.4349 36.5323 57.7966 36.4598 59.071 36.8296C60.3453 37.1993 61.4571 37.9895 62.2254 39.0715C62.9937 40.1536 63.3732 41.4637 63.3021 42.7885C63.231 44.1134 62.7136 45.375 61.834 46.3679Z" fill="white" stroke="#138BE1" stroke-linecap="round" stroke-linejoin="round"/>
<path d="M48.9635 30.8269C47.4684 30.3984 46.1746 29.4515 45.3139 28.1559C44.4532 26.8603 44.0819 25.3007 44.2666 23.7566C44.4512 22.2125 45.1797 20.7849 46.3215 19.7296C47.4633 18.6743 48.9438 18.0603 50.4976 17.9977C52.0514 17.9351 53.5769 18.4279 54.8008 19.3878C56.0246 20.3478 56.8668 21.7121 57.1764 23.2362C57.486 24.7604 57.2428 26.3447 56.4902 27.7054C55.7377 29.066 54.5252 30.1139 53.0699 30.6614C51.7546 31.1564 50.3147 31.2144 48.9635 30.8269Z" fill="white" stroke="#138BE1" stroke-linecap="round" stroke-linejoin="round"/>
<path d="M54.5632 25.5866C54.8824 24.9496 54.979 24.2239 54.8374 23.5254C54.6957 22.8269 54.3242 22.1959 53.782 21.7332" fill="white"/>
<path d="M54.5632 25.5866C54.8824 24.9496 54.979 24.2239 54.8374 23.5254C54.6957 22.8269 54.3242 22.1959 53.782 21.7332" stroke="#138BE1" stroke-linecap="round" stroke-linejoin="round"/>
<path d="M40.2059 40.8463C40.888 40.645 41.4831 40.2211 41.8964 39.6424C42.3097 39.0636 42.5175 38.3631 42.4867 37.6524" fill="white"/>
<path d="M40.2059 40.8463C40.888 40.645 41.4831 40.2211 41.8964 39.6424C42.3097 39.0636 42.5175 38.3631 42.4867 37.6524" stroke="#138BE1" stroke-linecap="round" stroke-linejoin="round"/>
<path d="M30.7312 53.3542C31.0496 52.7172 31.1454 51.9917 31.0034 51.2937C30.8614 50.5956 30.4897 49.9651 29.9476 49.5029" fill="white"/>
<path d="M30.7312 53.3542C31.0496 52.7172 31.1454 51.9917 31.0034 51.2937C30.8614 50.5956 30.4897 49.9651 29.9476 49.5029" stroke="#138BE1" stroke-linecap="round" stroke-linejoin="round"/>
<path d="M21.8326 53.87C21.891 54.3654 22.1014 54.8307 22.4347 55.2019C22.768 55.5731 23.2081 55.832 23.6944 55.9432" fill="white"/>
<path d="M21.8326 53.87C21.891 54.3654 22.1014 54.8307 22.4347 55.2019C22.768 55.5731 23.2081 55.832 23.6944 55.9432" stroke="#138BE1" stroke-linecap="round" stroke-linejoin="round"/>
<path d="M59.3248 46.0519C60.007 45.8511 60.6022 45.4278 61.0159 44.8494C61.4296 44.2711 61.6379 43.571 61.6078 42.8604" fill="white"/>
<path d="M59.3248 46.0519C60.007 45.8511 60.6022 45.4278 61.0159 44.8494C61.4296 44.2711 61.6379 43.571 61.6078 42.8604" stroke="#138BE1" stroke-linecap="round" stroke-linejoin="round"/>
<path d="M58.9027 38.9029C58.278 38.5611 57.557 38.4383 56.8545 38.5539C56.1521 38.6696 55.5087 39.0171 55.027 39.5411" fill="white"/>
<path d="M58.9027 38.9029C58.278 38.5611 57.557 38.4383 56.8545 38.5539C56.1521 38.6696 55.5087 39.0171 55.027 39.5411" stroke="#138BE1" stroke-linecap="round" stroke-linejoin="round"/>
<path d="M66.877 142.19L78.4682 149.14" stroke="#138BE1" stroke-linecap="round" stroke-linejoin="round"/>
<path d="M78.6506 150.058C78.2817 149.689 78.3887 149.271 78.8978 149.131C78.9511 149.117 79.0054 149.108 79.0601 149.102C79.4361 149.063 79.815 149.138 80.1484 149.316C80.2168 149.35 80.2833 149.388 80.3476 149.43L80.4989 149.563C80.5857 149.622 80.6521 149.707 80.6887 149.805C80.7254 149.903 80.7304 150.011 80.7033 150.112C80.6761 150.214 80.618 150.304 80.5371 150.371C80.4562 150.438 80.3564 150.478 80.2517 150.486C79.97 150.544 79.6784 150.536 79.4004 150.462C79.1224 150.387 78.8656 150.249 78.6506 150.058Z" fill="white" stroke="#138BE1" stroke-linecap="round" stroke-linejoin="round"/>
<path d="M30.6061 148.891L23.084 144.248L62.1333 127.6L92.2439 145.658L52.6965 162.517L30.6061 148.891Z" fill="white" stroke="#1C1D22" stroke-linecap="round" stroke-linejoin="round"/>
<path d="M23 136.575L62.053 119.927L92.1599 137.982L52.6089 154.841L23 136.575Z" fill="white" stroke="#1C1D22" stroke-linecap="round" stroke-linejoin="round"/>
<path d="M27.3945 139.288V142.5L53 158" fill="white"/>
<path d="M27.3945 139.288V142.5L53 158" stroke="#1C1D22" stroke-linecap="round" stroke-linejoin="round"/>
<path d="M92.1624 137.985C92.7232 138.383 93.1806 138.909 93.4964 139.52C93.8122 140.13 93.9772 140.808 93.9774 141.495C93.9774 142.912 93.9258 144.957 92.2472 145.658C87.5657 147.625 52.7036 162.506 52.7036 162.506C52.7036 162.506 53.7181 161.883 53.4414 158.845C53.1647 155.808 52.6113 154.833 52.6113 154.833L92.1624 137.985Z" fill="white" stroke="#1C1D22" stroke-linecap="round" stroke-linejoin="round"/>
<path d="M24.5241 140.508L17.002 135.865L56.0513 119.216L86.1619 137.275L46.6145 154.134L24.5241 140.508Z" fill="white" stroke="#1C1D22" stroke-linecap="round" stroke-linejoin="round"/>
<path d="M16.918 128.192L55.971 111.543L86.0779 129.598L46.5268 146.457L16.918 128.192Z" fill="white" stroke="#1C1D22" stroke-linecap="round" stroke-linejoin="round"/>
<path d="M21.3125 130.905V135.043L47.2188 151.043" fill="white"/>
<path d="M21.3125 130.905V135.043L47.2188 151.043" stroke="#1C1D22" stroke-linecap="round" stroke-linejoin="round"/>
<path d="M86.0804 129.602C86.6412 129.999 87.0986 130.525 87.4144 131.136C87.7302 131.747 87.8951 132.424 87.8954 133.112C87.8954 134.529 87.8437 136.574 86.1652 137.275C81.4837 139.242 46.6215 154.123 46.6215 154.123C46.6215 154.123 47.636 153.499 47.3593 150.462C47.0827 147.424 46.5293 146.45 46.5293 146.45L86.0804 129.602Z" fill="white" stroke="#1C1D22" stroke-linecap="round" stroke-linejoin="round"/>
<path d="M43.7683 85.032C43.7683 85.032 39.0204 88.169 39.7361 95.0928C40.4518 102.017 44.1631 108.01 44.1631 108.01L40.2452 110.225C40.2452 110.225 35.8183 100.363 36.7184 93.635C37.2298 89.6702 38.9376 85.9558 41.6139 82.9873L43.9011 84.0318L43.7683 85.032Z" fill="white" stroke="#1C1D22" stroke-linecap="round" stroke-linejoin="round"/>
<path d="M70.8241 125.544L70.588 130.711C70.5736 131.038 70.4754 131.355 70.3029 131.633C70.1304 131.911 69.8894 132.14 69.603 132.298L68.5331 132.885C67.8056 133.257 67.0002 133.45 66.1832 133.45C65.3661 133.45 64.5608 133.257 63.8332 132.885L54.7949 127.666C53.0942 126.684 50.3273 126.684 48.6414 127.666C46.9555 128.648 46.9629 130.249 48.6598 131.231L58.5983 132.744L58.5319 136.457C58.5168 137.198 58.2995 137.92 57.9035 138.546C57.5075 139.172 56.9479 139.677 56.2853 140.008C55.5572 140.38 54.7512 140.574 53.9335 140.574C53.1157 140.574 52.3097 140.38 51.5816 140.008L37.4265 131.833C33.2209 129.404 32.6897 120.735 36.8694 118.306L40.5585 121.156C44.7383 118.727 51.5964 118.723 55.802 121.156L70.8241 125.544Z" fill="white" stroke="#1C1D22" stroke-linecap="round" stroke-linejoin="round"/>
<mask id="mask5_4664_8906" style="mask-type:luminance" maskUnits="userSpaceOnUse" x="47" y="121" width="8" height="7">
<path d="M47.373 127.281V124.214C47.373 123.572 47.7936 122.933 48.631 122.446C50.317 121.465 53.0838 121.465 54.7845 122.446V125.51C53.0875 124.531 50.3207 124.531 48.6347 125.51C47.7936 125.997 47.3767 126.639 47.373 127.281Z" fill="white"/>
</mask>
<g mask="url(#mask5_4664_8906)">
<path d="M47.8513 123.082V126.149C47.5628 126.457 47.3962 126.86 47.3828 127.282V124.215C47.3935 123.793 47.559 123.39 47.8476 123.082H47.8513Z" fill="white"/>
</g>
<path d="M37.4264 126.615C33.2208 124.186 33.1986 120.211 37.3784 117.779L40.551 115.934C44.7308 113.505 51.5889 113.505 55.7945 115.934L69.9496 124.105C71.2519 124.843 71.2593 126.079 69.9496 126.832L68.5183 127.663C67.7907 128.035 66.9853 128.229 66.1683 128.229C65.3513 128.229 64.5459 128.035 63.8183 127.663L54.78 122.444C53.0793 121.462 50.3124 121.462 48.6265 122.444C46.9406 123.426 46.948 125.028 48.645 126.009L57.6833 131.228C58.9893 131.966 58.993 133.202 57.6833 133.955L56.2851 134.808C55.5571 135.18 54.7511 135.375 53.9333 135.375C53.1156 135.375 52.3095 135.18 51.5815 134.808L44.0926 130.482" fill="white"/>
<path d="M37.4264 126.615C33.2208 124.186 33.1986 120.211 37.3784 117.779L40.551 115.934C44.7308 113.505 51.5889 113.505 55.7945 115.934L69.9496 124.105C71.2519 124.843 71.2593 126.079 69.9496 126.832L68.5183 127.663C67.7907 128.035 66.9853 128.229 66.1683 128.229C65.3513 128.229 64.5459 128.035 63.8183 127.663L54.78 122.444C53.0793 121.462 50.3124 121.462 48.6265 122.444C46.9406 123.426 46.948 125.028 48.645 126.009L57.6833 131.228C58.9893 131.966 58.993 133.202 57.6833 133.955L56.2851 134.808C55.5571 135.18 54.7511 135.375 53.9333 135.375C53.1156 135.375 52.3095 135.18 51.5815 134.808L44.0926 130.482" stroke="#1C1D22" stroke-linecap="round" stroke-linejoin="round"/>
<path d="M45.8526 116.864L49.6561 114.653L49.6414 119.986L45.8379 122.197L45.8526 116.864Z" fill="white"/>
<mask id="mask6_4664_8906" style="mask-type:luminance" maskUnits="userSpaceOnUse" x="36" y="83" width="14" height="34">
<path d="M40.7102 85.231L44.5099 83.0166C44.0997 83.2598 43.7217 83.5537 43.3848 83.8913C41.4664 85.8031 40.404 89.2465 40.3929 93.5904C40.424 98.1215 41.4227 102.594 43.322 106.707C45.0633 110.479 47.31 113.299 49.6563 114.653L45.8565 116.868C43.5102 115.513 41.2598 112.69 39.5186 108.922C37.6163 104.807 36.615 100.334 36.582 95.8012C36.582 91.4572 37.6593 88.0138 39.5776 86.102C39.9163 85.7644 40.2969 85.4717 40.7102 85.231Z" fill="white"/>
</mask>
<g mask="url(#mask6_4664_8906)">
<path d="M45.3555 116.552L49.1589 114.338C49.3213 114.449 49.4873 114.552 49.6533 114.648L45.8535 116.862C45.6887 116.766 45.5227 116.663 45.3555 116.552Z" fill="white"/>
</g>
<path d="M48.2778 81.492L52.0813 79.2812L52.0554 88.1278L48.252 90.3386L48.2778 81.492Z" fill="white"/>
<path d="M49.7611 77.9447C48.8587 77.4114 47.89 76.9994 46.8799 76.7194C45.9469 76.436 44.966 76.3454 43.9969 76.4533C43.0278 76.5611 42.0908 76.8652 41.2429 77.3469L37.4395 79.5613C38.2881 79.0799 39.2256 78.7757 40.1951 78.6673C41.1647 78.5588 42.1461 78.6482 43.0801 78.9302C44.09 79.2122 45.0587 79.6254 45.9613 80.1592L48.2818 81.4989L52.0816 79.2845L49.7611 77.9447Z" fill="white" stroke="#1C1D22" stroke-linecap="round" stroke-linejoin="round"/>
<path d="M48.2829 81.4949L48.2571 90.3525L43.6162 87.6731V84.6652C42.8799 84.5661 42.1306 84.6436 41.4301 84.8913C40.7297 85.139 40.0981 85.5498 39.5877 86.0898C37.6693 88.0016 36.6068 91.445 36.5921 95.7889C36.6263 100.325 37.6301 104.801 39.536 108.917C41.2773 112.685 43.5276 115.508 45.8739 116.863V122.196C42.004 119.963 38.4256 115.589 35.7952 109.891C33.3457 104.636 32.0464 98.9184 31.9844 93.1205C32.0028 87.6546 33.3825 83.2775 35.8764 80.7936C38.5326 78.1474 42.1258 77.9186 45.992 80.1551L48.2829 81.4949Z" fill="white" stroke="#1C1D22" stroke-linecap="round" stroke-linejoin="round"/>
<path d="M71.8946 111.393C72.9524 112.078 72.8773 113.06 71.728 113.576L49.7165 123.572C49.0718 123.821 48.3794 123.923 47.6902 123.871C47.0009 123.818 46.3321 123.612 45.7328 123.267L32.4395 114.638C31.382 113.95 31.457 112.967 32.6063 112.452L54.6139 102.459C55.2595 102.211 55.9523 102.109 56.642 102.162C57.3317 102.214 58.001 102.42 58.6013 102.764L71.8946 111.393Z" fill="white" stroke="#138BE1" stroke-linecap="round" stroke-linejoin="round"/>
<path d="M50.2647 104.799L52.5888 100.001C52.6633 99.8013 52.6845 99.5856 52.6502 99.3753C52.6159 99.1649 52.5273 98.9672 52.3933 98.8015C52.0551 98.3541 51.6164 97.9927 51.1126 97.7465C50.6089 97.5003 50.0542 97.3762 49.4936 97.3843C49.2751 97.3781 49.059 97.4311 48.8681 97.5376C48.6772 97.6441 48.5186 97.8003 48.409 97.9895L46.0812 102.787C46.0369 102.885 46.0095 102.99 46 103.097C46 103.123 46 103.153 46 103.204C45.9994 103.283 46.0068 103.36 46.0222 103.437C46.0222 103.437 46.0222 103.485 46.0222 103.492C46.0316 103.524 46.0427 103.554 46.0554 103.585L46.0775 103.644L46.0996 103.706C46.1449 103.809 46.1992 103.908 46.262 104.002C46.2986 104.057 46.338 104.11 46.38 104.16L46.4833 104.282L46.5571 104.36C46.6235 104.426 46.6936 104.493 46.7932 104.577L46.8375 104.614C46.9345 104.692 47.0354 104.765 47.14 104.832C47.2809 104.923 47.4275 105.004 47.579 105.076L47.6565 105.109L47.697 105.127C47.8151 105.175 47.9294 105.223 48.0475 105.26L48.2061 105.304C48.3176 105.336 48.431 105.361 48.5455 105.378H48.5861L48.6894 105.397C48.8453 105.409 49.002 105.409 49.1579 105.397C49.3791 105.406 49.5988 105.356 49.7936 105.25C49.9884 105.145 50.1512 104.989 50.2647 104.799Z" fill="white" stroke="#1C1D22" stroke-linecap="round" stroke-linejoin="round"/>
<path d="M62.1383 102.557L59.8953 97.7187C59.7876 97.5342 59.6336 97.381 59.4486 97.2742C59.2635 97.1674 59.0539 97.1107 58.8403 97.1098C58.2804 97.0895 57.7235 97.2012 57.2147 97.4359C56.7059 97.6705 56.2594 98.0215 55.9111 98.4605C55.768 98.6263 55.6723 98.8277 55.634 99.0433C55.5957 99.2589 55.6162 99.4809 55.6934 99.6859L57.9401 104.521C57.9859 104.619 58.0497 104.708 58.1283 104.783L58.2094 104.849C58.2708 104.897 58.3362 104.939 58.4049 104.975L58.4566 105.008L58.5451 105.037L58.6078 105.06L58.6706 105.082C58.7782 105.11 58.888 105.13 58.9989 105.141C59.064 105.145 59.1293 105.145 59.1944 105.141H59.3567H59.4637C59.5559 105.141 59.6519 105.119 59.781 105.096H59.84C59.9651 105.073 60.0885 105.041 60.2089 105C60.3681 104.95 60.5234 104.889 60.6737 104.816L60.7512 104.775L60.7881 104.753C60.8999 104.698 61.0084 104.637 61.1128 104.569C61.1607 104.539 61.205 104.506 61.2492 104.473C61.3438 104.408 61.4337 104.336 61.5186 104.259L61.5518 104.229C61.5793 104.208 61.6052 104.184 61.6292 104.159C61.7439 104.053 61.8477 103.935 61.9391 103.808C62.0835 103.638 62.1784 103.431 62.2135 103.211C62.2486 102.99 62.2226 102.764 62.1383 102.557Z" fill="white" stroke="#1C1D22" stroke-linecap="round" stroke-linejoin="round"/>
<path d="M56.5845 104.593V99.2602C56.5658 99.0475 56.4915 98.8435 56.3691 98.6686C56.2467 98.4937 56.0806 98.3541 55.8872 98.2637C55.3875 98.0107 54.8352 97.8789 54.2751 97.8789C53.715 97.8789 53.1627 98.0107 52.663 98.2637C52.4629 98.353 52.2907 98.4949 52.1647 98.6742C52.0387 98.8536 51.9635 99.0637 51.9473 99.2823V104.615C51.9482 104.723 51.9682 104.829 52.0063 104.929C52.0199 104.962 52.036 104.994 52.0543 105.025C52.0888 105.095 52.1295 105.162 52.176 105.224L52.2092 105.272L52.2756 105.339L52.3236 105.383C52.3376 105.401 52.3537 105.417 52.3715 105.431C52.4567 105.504 52.5481 105.569 52.6445 105.627L52.8179 105.715L52.9655 105.782L53.0651 105.819C53.1655 105.854 53.2677 105.885 53.3713 105.911L53.4303 105.929C53.5519 105.958 53.6751 105.978 53.7992 105.992C53.9656 106.013 54.1332 106.023 54.3009 106.022H54.43C54.5536 106.018 54.6768 106.007 54.799 105.988L54.9613 105.962C55.0746 105.941 55.1866 105.914 55.297 105.881H55.3412L55.4409 105.852C55.589 105.801 55.7323 105.737 55.8688 105.66C56.0761 105.567 56.2532 105.418 56.3797 105.229C56.5063 105.041 56.5773 104.82 56.5845 104.593Z" fill="white" stroke="#1C1D22" stroke-linecap="round" stroke-linejoin="round"/>
<path d="M60.6508 75.2148L60.5955 95.2073C60.5776 95.84 60.3282 96.4441 59.8945 96.905L59.9536 76.9126C60.3858 76.4511 60.6339 75.8471 60.6508 75.2148Z" fill="white"/>
<path d="M60.6398 78.6255V75.2153C60.6415 75.2324 60.6415 75.2498 60.6398 75.2669C60.6693 74.2741 60.0311 73.274 58.7177 72.5174C56.1575 71.0411 52.0183 71.0411 49.4765 72.5174C48.2074 73.2555 47.5766 74.2188 47.5766 75.1857L47.5176 95.1782C47.5176 96.1526 48.1595 97.1306 49.447 97.8761C49.6351 97.9831 49.8159 98.0791 50.0299 98.1714L50.2217 98.2526C50.3693 98.3153 50.5168 98.3707 50.6681 98.426L50.8857 98.4998C51.0481 98.5515 51.2141 98.5995 51.3801 98.6438L51.5572 98.6918C51.7859 98.7471 52.0146 98.7951 52.2507 98.832L52.3946 98.8541C52.5827 98.8837 52.7635 98.9058 52.9664 98.928L53.2025 98.9464C53.3722 98.9464 53.5419 98.9686 53.7116 98.9722H53.9477C54.1506 98.9722 54.3535 98.9722 54.5564 98.9722H54.6745C54.9179 98.9722 55.1577 98.9353 55.3938 98.9095H55.4492L55.5599 98.8911C55.7775 98.8615 55.9952 98.8283 56.2055 98.784L56.401 98.7434C56.6555 98.6881 56.9027 98.6253 57.1388 98.5515L57.2347 98.5183C57.4487 98.4482 57.6516 98.3707 57.8545 98.2895L58.0353 98.212C58.2571 98.1148 58.4738 98.0064 58.6845 97.8872C58.8284 97.8023 58.9612 97.7137 59.0903 97.6251L59.2047 97.5403C59.2896 97.4775 59.3707 97.4111 59.4519 97.3447L59.5626 97.2487C59.64 97.1786 59.7101 97.1084 59.7802 97.0346L59.8577 96.9534L59.8835 96.9239C60.3155 96.4649 60.5648 95.8637 60.5844 95.2336L60.6103 84.9735" fill="white"/>
<path d="M60.6398 78.6255V75.2153C60.6415 75.2324 60.6415 75.2498 60.6398 75.2669C60.6693 74.2741 60.0311 73.274 58.7177 72.5174C56.1575 71.0411 52.0183 71.0411 49.4765 72.5174C48.2074 73.2555 47.5766 74.2188 47.5766 75.1857L47.5176 95.1782C47.5176 96.1526 48.1595 97.1306 49.447 97.8761C49.6351 97.9831 49.8159 98.0791 50.0299 98.1714L50.2217 98.2526C50.3693 98.3153 50.5168 98.3707 50.6681 98.426L50.8857 98.4998C51.0481 98.5515 51.2141 98.5995 51.3801 98.6438L51.5572 98.6918C51.7859 98.7471 52.0146 98.7951 52.2507 98.832L52.3946 98.8541C52.5827 98.8837 52.7635 98.9058 52.9664 98.928L53.2025 98.9464C53.3722 98.9464 53.5419 98.9686 53.7116 98.9722H53.9477C54.1506 98.9722 54.3535 98.9722 54.5564 98.9722H54.6745C54.9179 98.9722 55.1577 98.9353 55.3938 98.9095H55.4492L55.5599 98.8911C55.7775 98.8615 55.9952 98.8283 56.2055 98.784L56.401 98.7434C56.6555 98.6881 56.9027 98.6253 57.1388 98.5515L57.2347 98.5183C57.4487 98.4482 57.6516 98.3707 57.8545 98.2895L58.0353 98.212C58.2571 98.1148 58.4738 98.0064 58.6845 97.8872C58.8284 97.8023 58.9612 97.7137 59.0903 97.6251L59.2047 97.5403C59.2896 97.4775 59.3707 97.4111 59.4519 97.3447L59.5626 97.2487C59.64 97.1786 59.7101 97.1084 59.7802 97.0346L59.8577 96.9534L59.8835 96.9239C60.3155 96.4649 60.5648 95.8637 60.5844 95.2336L60.6103 84.9735" stroke="#1C1D22" stroke-linecap="round" stroke-linejoin="round"/>
<path d="M58.2489 71.5583C60.562 72.8906 60.573 75.057 58.2747 76.3894C55.9764 77.7217 52.2467 77.7254 49.9336 76.3894C47.6205 75.0533 47.6095 72.8906 49.9078 71.5583C52.2061 70.2259 55.9395 70.2222 58.2489 71.5583Z" fill="white" stroke="#1C1D22" stroke-linecap="round" stroke-linejoin="round"/>
<path d="M58.503 60.6748H49.6307V72.8541C49.6251 72.9714 49.6325 73.089 49.6529 73.2047C49.7406 73.5432 49.9013 73.8583 50.1237 74.128C50.3461 74.3977 50.6249 74.6154 50.9404 74.7659C52.689 75.7734 55.5149 75.7734 57.2524 74.7659C57.5639 74.6163 57.8389 74.4004 58.0581 74.1333C58.2774 73.8661 58.4355 73.5542 58.5215 73.2195C58.5805 72.9796 58.503 60.6748 58.503 60.6748Z" fill="white" stroke="#138BE1" stroke-linecap="round" stroke-linejoin="round"/>
<path d="M57.242 58.758C58.2381 59.3337 58.6697 60.1161 58.5295 60.869C58.4431 61.2036 58.2847 61.5153 58.0656 61.7823C57.8464 62.0494 57.5716 62.2655 57.2605 62.4154C55.5229 63.423 52.697 63.423 50.9484 62.4154C50.6335 62.2642 50.3552 62.0462 50.1329 61.7766C49.9106 61.5071 49.7495 61.1923 49.6609 60.8543C49.5207 60.1161 49.9449 59.33 50.9299 58.758C51.8977 58.2392 52.9827 57.9786 54.0804 58.0014" fill="white"/>
<path d="M57.242 58.758C58.2381 59.3337 58.6697 60.1161 58.5295 60.869C58.4431 61.2036 58.2847 61.5153 58.0656 61.7823C57.8464 62.0494 57.5716 62.2655 57.2605 62.4154C55.5229 63.423 52.697 63.423 50.9484 62.4154C50.6335 62.2642 50.3552 62.0462 50.1329 61.7766C49.9106 61.5071 49.7495 61.1923 49.6609 60.8543C49.5207 60.1161 49.9449 59.33 50.9299 58.758C51.8977 58.2392 52.9827 57.9786 54.0804 58.0014" stroke="#138BE1" stroke-linecap="round" stroke-linejoin="round"/>
<path d="M56.9436 113.194C56.8575 113.527 56.6997 113.838 56.4812 114.105C56.2626 114.371 55.9886 114.587 55.6782 114.736C53.937 115.748 51.1148 115.748 49.3624 114.736C49.0478 114.586 48.7697 114.368 48.5473 114.099C48.325 113.831 48.1638 113.516 48.0749 113.179C47.9348 112.441 48.359 111.655 49.344 111.083C51.0816 110.071 53.9074 110.071 55.6561 111.083C56.6521 111.658 57.0838 112.441 56.9436 113.194Z" fill="white" stroke="#138BE1" stroke-linecap="round" stroke-linejoin="round"/>
</svg>
