<svg width="200" height="180" viewBox="0 0 200 180" fill="none" xmlns="http://www.w3.org/2000/svg">
<path d="M174.831 133.058V114.888C174.831 115.052 174.831 115.38 174.831 115.543C174.831 118.817 174.009 122.091 172.364 125.201C163.977 141.242 135.527 153.027 101.815 153.027C67.9383 153.027 39.4885 141.242 31.266 125.201C29.6215 122.091 28.7992 118.817 28.7992 115.543V134.858C28.7992 155.483 61.5248 172.342 101.815 172.342C142.105 172.342 174.995 155.483 174.995 134.858L174.831 133.058ZM174.666 115.707C174.666 118.981 173.844 122.254 172.2 125.364C163.813 141.406 135.363 153.191 101.651 153.191C67.7739 153.191 39.324 141.406 31.1015 125.364C29.457 122.254 28.6348 118.981 28.6348 115.707C28.6348 95.0824 61.3603 78.2227 101.651 78.2227C141.447 78.2227 174.009 94.5913 174.666 114.888C174.666 115.216 174.666 115.379 174.666 115.707Z" fill="white" stroke="#1C1D22" stroke-miterlimit="10"/>
<path d="M101.65 147.627C137.707 147.627 166.937 133.336 166.937 115.708C166.937 98.0796 137.707 83.7891 101.65 83.7891C65.5931 83.7891 36.3633 98.0796 36.3633 115.708C36.3633 133.336 65.5931 147.627 101.65 147.627Z" fill="#F6F5F5" stroke="#1C1D22" stroke-miterlimit="10"/>
<path d="M101.649 141.242C130.168 141.242 153.286 129.81 153.286 115.707C153.286 101.604 130.168 90.1719 101.649 90.1719C73.1305 90.1719 50.0117 101.604 50.0117 115.707C50.0117 129.81 73.1305 141.242 101.649 141.242Z" fill="white" stroke="#1C1D22" stroke-miterlimit="10"/>
<path d="M50.1777 115.707V135.349M153.288 115.707V135.186" stroke="#1C1D22" stroke-miterlimit="10"/>
<path d="M87.9976 90.498L83.393 100.156L85.3664 117.015C85.5309 118.816 84.7087 120.616 82.8997 122.09L81.4196 123.072L81.4194 123.072C81.0906 123.235 80.7618 123.399 80.5974 123.399C80.2685 123.563 80.104 123.563 79.7752 123.726C79.4463 123.89 78.9529 123.89 78.624 124.054C78.4595 124.054 78.2951 124.217 77.9662 124.217C77.6373 124.217 77.1439 124.217 76.6506 124.381H76.1572C73.6905 124.381 71.0593 123.726 69.2503 122.09C67.4414 120.616 66.6191 118.816 66.7836 117.015L69.7437 88.2064L68.2636 85.2601C67.277 82.9685 65.7969 81.0042 63.9879 79.3674L61.5212 77.2394C61.3568 77.0757 61.1923 76.7484 61.1923 76.5847C61.8501 76.5847 62.3434 76.421 62.8368 76.2573C65.6324 77.5668 68.0992 79.3674 70.0726 81.8227L70.7304 72.8199C71.1834 72.6696 71.4978 72.3812 71.9282 72.0816C71.9125 72.055 71.8969 72.0283 71.8815 72.0015C71.8565 71.9641 71.8324 71.9257 71.8092 71.8865C71.3551 72.1973 71.0348 72.5006 70.566 72.6562C69.7437 72.9836 68.9214 73.1472 67.9347 73.1472H67.9343C67.441 73.1472 66.7835 73.1472 66.2902 72.9836C65.468 74.4568 64.1524 75.6026 62.6723 76.0936C62.179 76.2573 61.6856 76.421 61.0278 76.421H60.37C58.5611 80.0221 54.7787 82.4774 50.503 82.4774C46.2273 82.4774 42.6094 80.0221 40.8005 76.421H40.1427C38.9915 76.421 37.8404 76.0936 36.8537 75.6025C35.867 76.0936 34.7158 76.421 33.5647 76.421C29.9468 76.421 26.9867 73.4746 26.9867 69.8735C26.9867 69.5461 27.1512 69.0551 27.1512 68.7277V68.2366C27.1512 68.3982 27.1912 68.5199 27.212 68.6214C27.2601 68.4478 27.1512 68.2062 27.1512 68.073V67.5819C27.1512 66.7635 27.3156 65.945 27.6445 65.2903C27.8089 65.1266 27.8089 64.9629 27.8089 64.9629C27.8089 64.7992 27.9734 64.7993 27.9734 64.6356C27.9734 64.4719 28.1378 64.1445 28.3023 63.9808C27.9734 63.4898 27.8089 62.835 27.8089 62.344C26.6578 61.5255 26 60.216 26 58.5791C26 57.4333 26.4934 56.2875 27.1512 55.4691C27.315 46.9893 35.3133 39.8093 45.7801 38.2988C45.0445 37.3499 44.7473 36.253 44.7473 35.0083C44.7473 33.3714 45.2406 32.0619 46.2273 30.9161C46.5562 18.1486 59.8767 8 76.3217 8C92.7667 8 106.252 18.3123 106.416 31.0798C107.238 32.0619 107.896 33.3714 107.896 34.8446C104.607 33.6988 100.989 33.044 97.2068 33.044C84.3797 33.044 73.8549 40.0826 71.3882 49.4127C71.3784 49.3932 71.3685 49.3736 71.3586 49.3541C71.0494 50.4744 70.8948 51.7392 70.8948 52.8501C70.0726 53.8322 69.5792 54.9781 69.5792 56.4512C69.5792 57.3985 69.8068 58.2551 70.214 58.9973C69.9105 58.3341 69.7437 57.5895 69.7437 56.7786C69.7437 55.4691 70.237 54.1596 71.0593 53.1775C71.0593 51.868 71.2237 50.7222 71.5527 49.5764C74.0194 40.2462 84.5442 33.2077 97.3713 33.2077C101.154 33.2077 104.772 33.8625 108.061 35.0083C117.27 38.1183 123.683 45.1568 123.683 53.5048C124.341 54.1596 124.834 55.3054 124.834 56.6149V56.9423C124.783 57.0676 124.728 57.1913 124.67 57.3132V57.9244C124.67 58.5792 124.67 59.2339 124.341 59.8887C124.834 60.8708 125.163 62.0166 125.163 63.1624V63.9808V64.6356C125.163 68.8914 121.71 72.1652 117.599 72.1652C116.941 72.1652 116.283 72.1651 115.625 72.0015C114.474 74.2931 112.007 75.9299 109.047 75.9299C107.074 80.0221 102.798 82.8048 97.8646 82.8048C96.4302 82.8048 94.9958 82.4973 93.7111 82.0313C91.266 84.6372 89.4692 87.4058 87.9976 90.498Z" fill="white"/>
<path d="M67.7703 63.9808C69.4148 63.9808 70.8949 63.4898 72.2105 62.344C72.2105 62.344 72.2104 62.344 72.046 62.1803C71.8815 61.6892 71.7171 61.1982 71.7171 60.7071C70.4015 59.725 69.5792 58.2518 69.5792 56.4512C69.5792 54.9781 70.0726 53.8322 70.8948 52.8501C70.8948 51.7043 71.0593 50.3948 71.3882 49.249C68.0992 42.7016 59.7122 37.9546 50.0097 37.9546C48.6941 37.9546 47.214 38.1183 45.8984 38.282C35.3736 39.7552 27.3156 46.9574 27.1512 55.4691C26.4934 56.2875 26 57.4333 26 58.5791C26 60.216 26.6578 61.5255 27.8089 62.344C27.8089 62.835 27.9734 63.4898 28.3023 63.9808M67.7703 63.9808C67.1125 63.9808 66.6191 63.8171 66.1258 63.8171C64.9746 65.9451 62.8368 67.2546 60.37 67.2546C58.5611 70.8557 54.9432 73.3109 50.503 73.3109C46.2273 73.3109 42.6094 70.8557 40.8005 67.2546C40.636 67.2546 40.4716 67.2546 40.1427 67.2546C38.9915 67.2546 37.8404 66.9272 36.8537 66.4361C35.867 66.9272 34.7158 67.2546 33.5647 67.2546C33.4002 67.2546 33.2358 67.2546 33.2358 67.2546C31.5913 67.0909 29.6179 65.454 28.3023 63.9808M67.7703 63.9808C69.4148 63.9808 70.8948 63.3261 72.046 62.344C72.2104 62.5077 72.2105 62.5076 72.2105 62.6713C72.2105 62.835 72.046 63.1624 72.046 63.1624C71.3882 64.3082 71.0593 65.6177 71.0593 66.9272C71.0593 67.2545 71.0593 67.4182 71.0593 67.7456C71.0593 67.9093 71.0593 68.2367 71.0593 68.4003C71.0593 68.8914 71.0593 69.5461 71.2237 70.0372C71.3882 70.692 71.5526 71.3467 71.8815 71.8378C71.3882 72.1651 71.0593 72.4925 70.566 72.6562C69.7437 72.9836 68.9214 73.1472 67.9347 73.1472C67.4414 73.1472 66.7836 73.1473 66.2902 72.9836C65.468 74.4568 64.1524 75.6026 62.6723 76.0936C62.179 76.2573 61.6856 76.421 61.0278 76.421C60.6989 76.421 60.5345 76.421 60.37 76.421C58.5611 80.0221 54.7787 82.4774 50.503 82.4774C46.2273 82.4774 42.6094 80.0221 40.8005 76.421C40.4716 76.421 40.3071 76.421 40.1427 76.421C38.9915 76.421 37.8404 76.0936 36.8537 75.6025C35.867 76.0936 34.7158 76.421 33.5647 76.421C29.9468 76.421 26.9867 73.4746 26.9867 69.8735C26.9867 69.5461 27.1512 69.0551 27.1512 68.7277C27.3156 68.564 27.1512 68.2367 27.1512 68.073C27.1512 67.9093 27.1512 67.7456 27.1512 67.5819C27.1512 66.7635 27.3156 65.945 27.6445 65.2903C27.8089 65.1266 27.8089 64.9629 27.8089 64.9629C27.8089 64.7992 27.9734 64.7993 27.9734 64.6356C27.9734 64.4719 28.1378 64.1445 28.3023 63.9808M87.9976 90.498L83.393 100.156L85.3664 117.015C85.5309 118.816 84.7087 120.616 82.8997 122.09C82.4064 122.417 81.913 122.744 81.4196 123.072C81.0907 123.235 80.7618 123.399 80.5974 123.399C80.2685 123.563 80.104 123.563 79.7751 123.726C79.4462 123.89 78.9529 123.89 78.624 124.054C78.4595 124.054 78.2951 124.217 77.9662 124.217C77.6373 124.217 77.1439 124.217 76.6506 124.381C76.4861 124.381 76.3217 124.381 76.1572 124.381C73.6905 124.381 71.0593 123.726 69.2503 122.09C67.4414 120.616 66.6191 118.816 66.7836 117.015L69.7437 88.2064L68.2636 85.2601C67.2769 82.9685 65.7969 81.0042 63.988 79.3674L61.5212 77.2394C61.3568 77.0757 61.1923 76.7484 61.1923 76.5847C61.8501 76.5847 62.3434 76.421 62.8368 76.2573C65.6324 77.5668 68.0992 79.3674 70.0726 81.8227L70.7304 72.8199C71.2237 72.6562 71.5526 72.3288 72.046 72.0015C73.3616 74.2931 75.8283 75.9299 78.624 75.9299C79.7751 75.9299 80.9263 75.6026 81.913 75.1115L82.5708 85.9148L83.0641 85.0964C84.7086 82.6411 86.6821 80.5132 88.8199 78.7126C90.1355 80.1858 91.78 81.3316 93.7534 81.9864C91.2866 84.6053 89.4777 87.388 87.9976 90.498ZM100.002 71.8378C99.6736 72.0015 99.5091 72.0015 99.1802 72.1652C99.838 72.1652 100.496 72.0015 100.989 71.8378C100.825 71.6741 100.331 71.6741 100.002 71.8378ZM72.3749 62.1803C72.3749 62.344 72.3749 62.344 72.3749 62.1803ZM106.416 31.0798C106.252 18.3123 92.7667 8 76.3217 8C59.8767 8 46.5562 18.1486 46.2273 30.9161C45.2406 32.0619 44.7473 33.3714 44.7473 35.0083C44.7473 36.3178 45.0762 37.4636 45.8984 38.4457C47.214 38.282 48.6941 38.1183 50.0097 38.1183C59.7122 38.1183 68.0992 42.8652 71.3882 49.4127C73.855 40.0825 84.3797 33.044 97.2068 33.044C100.989 33.044 104.607 33.6988 107.896 34.8446C107.896 33.3714 107.238 32.0619 106.416 31.0798ZM72.2105 62.5076H72.3749C72.5393 62.5076 72.5393 62.344 72.5393 62.344L72.7038 62.5076C73.0327 62.835 73.3616 63.1624 73.6905 63.4897C74.0194 63.6534 74.3483 63.9808 74.6772 64.1445C75.8284 64.7992 77.1439 65.2903 78.624 65.2903C79.9396 65.2903 81.2552 64.9629 82.4063 64.3082C83.5575 64.9629 84.8731 65.2903 86.1887 65.2903C86.3532 65.2903 86.682 65.2903 86.8465 65.2903C88.8199 69.3825 93.0956 72.1652 98.0291 72.1652C98.5224 72.1652 98.8513 72.1652 99.3447 72.1652C99.6736 72.0015 99.838 72.0015 100.167 71.8378C100.66 71.6741 100.989 71.6741 101.318 71.8378C104.936 70.8556 107.732 68.4003 109.376 65.2903C112.172 65.2903 114.639 63.6534 115.954 61.3618C116.612 61.5255 117.27 61.6892 117.928 61.6892C121.052 61.6892 123.683 59.7249 124.834 56.9423C124.834 57.106 124.834 57.2697 124.834 57.4334C124.834 57.106 124.834 56.9423 124.834 56.6149C124.834 55.3054 124.341 54.1596 123.683 53.5048C123.683 45.1568 117.27 38.1183 108.061 35.0083C104.772 33.8625 101.154 33.2077 97.3713 33.2077C84.5442 33.2077 74.0194 40.2462 71.5526 49.5764C71.2237 50.7222 71.0593 51.868 71.0593 53.1775C70.237 54.1596 69.7437 55.4691 69.7437 56.7786C69.7437 58.5791 70.5659 60.0523 71.8815 61.0344C71.8815 61.5255 72.046 62.0165 72.2105 62.5076ZM27.1512 68.8914C27.1512 68.7277 27.1512 68.564 27.1512 68.2366C27.1512 68.564 27.3156 68.7277 27.1512 68.8914ZM125.163 63.9808C125.163 63.8171 125.163 63.4898 125.163 63.1624C125.163 62.0166 124.834 60.8708 124.341 59.8887C124.67 59.2339 124.67 58.5792 124.67 57.9244C124.67 57.7607 124.67 57.4334 124.67 57.2697C124.67 57.106 124.67 56.9423 124.67 56.7786C123.519 59.5613 120.888 61.5255 117.763 61.5255C117.105 61.5255 116.447 61.3618 115.79 61.1981C114.474 63.4897 112.007 65.1266 109.212 65.1266C107.567 68.2366 104.772 70.692 101.154 71.6741C100.496 71.8378 99.838 72.0015 99.3447 72.0015C98.8513 72.0015 98.5224 72.0015 98.0291 72.0015C93.0956 72.0015 88.8199 69.2188 86.8465 65.1266C86.682 65.1266 86.3532 65.1266 86.1887 65.1266C84.8731 65.1266 83.5575 64.7992 82.4063 64.1445C81.2552 64.7992 79.9396 65.1266 78.624 65.1266C77.1439 65.1266 75.8284 64.6356 74.6772 63.9808C74.3483 63.8171 74.0194 63.4897 73.6905 63.326C73.3616 62.9987 73.0327 62.6713 72.7038 62.344L72.5393 62.1803C72.5393 62.1803 72.5393 62.344 72.3749 62.344C72.3749 62.344 72.046 63.1624 72.046 63.326C71.3882 64.4719 71.0593 65.7814 71.0593 67.0909C71.0593 67.2546 71.0593 67.5819 71.0593 67.9093C71.0593 68.073 71.0593 68.4003 71.0593 68.564C71.0593 69.2188 71.0593 69.7098 71.2237 70.2009C71.3882 70.8556 71.5526 71.5104 71.8815 72.0015C73.1971 74.2931 75.6639 75.9299 78.4595 75.9299C79.6107 75.9299 80.7618 75.6026 81.7485 75.1115C81.913 75.1115 82.0774 74.9478 82.2419 74.7841C83.393 75.4388 84.5442 75.7662 86.0242 75.7662C86.3531 75.7662 86.5176 75.7662 86.682 75.7662C87.1754 76.912 87.9976 77.8942 88.6554 78.7126C89.971 80.1858 91.6156 81.3316 93.589 81.9864C94.9046 82.4774 96.3846 82.8048 97.8646 82.8048C102.798 82.8048 107.074 80.0221 109.047 75.9299C112.007 75.9299 114.474 74.2931 115.625 72.0015C116.283 72.1651 116.941 72.1652 117.599 72.1652C121.71 72.1652 125.163 68.8914 125.163 64.6356C125.163 64.4719 125.163 64.3082 125.163 63.9808Z" stroke="#138BE1" stroke-miterlimit="10" stroke-linecap="round" stroke-linejoin="round"/>
<path d="M131.586 118.159V90.3326V118.159ZM156.747 79.5293V107.52L131.75 118.159L106.754 107.52V79.5293" fill="white"/>
<path d="M131.586 118.159V90.3326M156.747 79.5293V107.52L131.75 118.159L106.754 107.52V79.5293" stroke="#1C1D22" stroke-miterlimit="10" stroke-linecap="round" stroke-linejoin="round"/>
<path d="M156.741 79.5293L131.58 90.1689L106.584 79.5293L131.745 68.8896L156.741 79.5293Z" fill="white" stroke="#1C1D22" stroke-miterlimit="10" stroke-linecap="round" stroke-linejoin="round"/>
<path d="M129.61 68.89C129.61 67.7442 130.596 66.9258 131.583 66.9258C132.57 66.9258 133.556 67.9079 133.556 68.89C133.556 69.8722 132.57 70.8542 131.583 70.8542C130.596 70.8542 129.61 70.0358 129.61 68.89ZM156.579 81.6576C157.731 81.6576 158.553 80.6754 158.553 79.6933C158.553 78.7112 157.566 77.7291 156.579 77.7291C155.593 77.7291 154.606 78.7112 154.606 79.6933C154.606 80.6754 155.428 81.6576 156.579 81.6576ZM106.916 81.8213C108.067 81.8213 108.889 80.8391 108.889 79.857C108.889 78.7112 107.902 77.8928 106.916 77.8928C105.929 77.8928 104.942 78.8749 104.942 79.857C104.778 80.8391 105.764 81.8213 106.916 81.8213ZM156.744 109.484C157.895 109.484 158.717 108.502 158.717 107.52C158.717 106.538 157.731 105.556 156.744 105.556C155.593 105.556 154.771 106.538 154.771 107.52C154.771 108.502 155.593 109.484 156.744 109.484ZM106.751 109.648C107.902 109.648 108.889 108.666 108.889 107.52C108.889 106.374 107.902 105.392 106.751 105.392C105.6 105.392 104.613 106.374 104.613 107.52C104.613 108.666 105.6 109.648 106.751 109.648ZM131.748 92.2972C132.899 92.2972 133.721 91.3151 133.721 90.3329C133.721 89.1871 132.734 88.3687 131.748 88.3687C130.596 88.3687 129.774 89.3508 129.774 90.3329C129.774 91.3151 130.596 92.2972 131.748 92.2972ZM131.748 120.124C132.899 120.124 133.721 119.142 133.721 118.16C133.721 117.178 132.734 116.195 131.748 116.195C130.596 116.195 129.774 117.178 129.774 118.16C129.774 119.142 130.596 120.124 131.748 120.124Z" fill="#1C1D22"/>
<path d="M109.212 133.22V113.25V133.22ZM109.212 113.25L91.4512 105.721V125.69L109.376 133.22L127.301 125.69V105.721L109.212 113.25ZM109.212 98.0273L91.4512 105.721L109.376 113.25L127.301 105.721L109.212 98.0273Z" fill="white"/>
<path d="M109.212 133.22V113.25M109.212 113.25L91.4512 105.721M109.212 113.25L127.301 105.721M91.4512 105.721V125.69L109.376 133.22L127.301 125.69V105.721M91.4512 105.721L109.212 98.0273L127.301 105.721M91.4512 105.721L109.376 113.25L127.301 105.721" stroke="#1C1D22" stroke-miterlimit="10" stroke-linecap="round" stroke-linejoin="round"/>
<path d="M107.075 113.25C107.075 112.104 108.062 111.122 109.213 111.122C110.364 111.122 111.351 112.104 111.351 113.25C111.351 114.396 110.364 115.378 109.213 115.378C108.062 115.378 107.075 114.56 107.075 113.25ZM109.377 135.184C110.529 135.184 111.515 134.202 111.515 133.056C111.515 131.91 110.529 130.928 109.377 130.928C108.226 130.928 107.24 131.91 107.24 133.056C107.24 134.202 108.226 135.184 109.377 135.184ZM109.213 100.155C110.364 100.155 111.351 99.1731 111.351 98.0273C111.351 96.8815 110.364 95.8994 109.213 95.8994C108.062 95.8994 107.075 96.8815 107.075 98.0273C107.075 99.1731 108.062 100.155 109.213 100.155ZM91.6168 107.849C92.7679 107.849 93.7546 106.866 93.7546 105.721C93.7546 104.575 92.7679 103.593 91.6168 103.593C90.4656 103.593 89.4789 104.575 89.4789 105.721C89.4789 106.866 90.3012 107.849 91.6168 107.849ZM127.138 107.849C128.289 107.849 129.276 106.866 129.276 105.721C129.276 104.575 128.289 103.593 127.138 103.593C125.987 103.593 125 104.575 125 105.721C125 106.866 125.987 107.849 127.138 107.849ZM91.4523 127.818C92.6035 127.818 93.5902 126.836 93.5902 125.69C93.5902 124.545 92.6035 123.562 91.4523 123.562C90.3012 123.562 89.3145 124.545 89.3145 125.69C89.3145 126.836 90.1367 127.818 91.4523 127.818ZM127.138 127.818C128.289 127.818 129.276 126.836 129.276 125.69C129.276 124.545 128.289 123.562 127.138 123.562C125.987 123.562 125 124.545 125 125.69C125 126.836 125.987 127.818 127.138 127.818Z" fill="#1C1D22"/>
</svg>
