<svg width="24" height="25" viewBox="0 0 24 25" fill="none" xmlns="http://www.w3.org/2000/svg">
<path opacity="0.5" d="M21.9982 5.93408H17.2188V18.8619H21.9982V5.93408Z" fill="white"/>
<path opacity="0.5" d="M14.3888 5.93408H9.60938V17.6993H14.3888V5.93408Z" fill="white"/>
<path d="M2 19.0701V14.0083C4.01899 14.0056 5.95442 13.1533 7.38116 11.6387C8.80791 10.124 9.6093 8.07087 9.6093 5.93018L14.3887 5.93018C14.3862 9.41352 13.0803 12.7535 10.7576 15.217C8.43495 17.6805 5.2853 19.0662 2 19.0701Z" fill="white"/>
<path d="M9.60938 19.0701V14.0083C11.6286 14.006 13.5644 13.1539 14.9914 11.6392C16.4185 10.1245 17.22 8.07112 17.22 5.93018L21.9995 5.93018C21.9966 9.41365 20.6904 12.7536 18.3675 15.2171C16.0446 17.6806 12.8948 19.0662 9.60938 19.0701Z" fill="white"/>
</svg>
