<svg width="179" height="41" viewBox="0 0 179 41" fill="none" xmlns="http://www.w3.org/2000/svg">
<path d="M66.3984 14.9381V6.26562H68.0126L70.35 11.827H70.8527L73.1901 6.26562H74.8042V14.9381H73.8017V7.50549V7.38117H73.7811L71.5084 12.8313H69.6708L67.4128 7.38117H67.3893V7.50549V14.9381H66.3984Z" fill="white"/>
<path d="M77.4503 14.1112C77.1371 13.8276 76.8906 13.4888 76.7261 13.1156C76.5615 12.7423 76.4823 12.3425 76.4932 11.9404C76.4914 11.5385 76.5766 11.1401 76.7439 10.7681C76.9112 10.3962 77.1573 10.0578 77.4682 9.77247C77.7791 9.4871 78.1487 9.26027 78.5559 9.10495C78.9631 8.94962 79.3999 8.86884 79.8414 8.86721C80.2829 8.86558 80.7204 8.94314 81.1289 9.09545C81.5375 9.24777 81.9091 9.47186 82.2225 9.75493C82.536 10.038 82.7851 10.3745 82.9557 10.7452C83.1263 11.116 83.215 11.5136 83.2168 11.9156C83.2001 12.5151 82.9928 13.0974 82.62 13.5918C82.2473 14.0862 81.725 14.4717 81.1166 14.7014C80.5081 14.9311 79.8396 14.9953 79.1919 14.8861C78.5442 14.777 77.9451 14.4992 77.4673 14.0864L77.4503 14.1112ZM78.1826 10.365C77.9655 10.5708 77.7955 10.8139 77.6826 11.0801C77.5698 11.3463 77.5162 11.6304 77.5252 11.9156C77.5176 12.2007 77.5717 12.4844 77.6845 12.7504C77.7973 13.0165 77.9665 13.2597 78.1826 13.4661C78.6307 13.8561 79.2267 14.0737 79.8465 14.0737C80.4663 14.0737 81.0623 13.8561 81.5104 13.4661C81.7278 13.2606 81.898 13.0175 82.0109 12.7513C82.1238 12.485 82.1771 12.2009 82.1678 11.9156C82.178 11.6305 82.1253 11.3464 82.013 11.0801C81.9007 10.8138 81.731 10.5707 81.5138 10.365C81.0686 9.97009 80.4715 9.74906 79.8499 9.74906C79.2283 9.74906 78.6312 9.97009 78.186 10.365H78.1826Z" fill="white"/>
<path d="M84.9 14.0842C84.6158 13.7947 84.394 13.4519 84.2477 13.0762C84.1015 12.7004 84.0339 12.2995 84.0489 11.8975C84.0378 11.4991 84.1079 11.1025 84.2551 10.7312C84.4024 10.3599 84.6238 10.0213 84.9063 9.73556C85.2013 9.44687 85.5537 9.22098 85.9413 9.07195C86.329 8.92292 86.7437 8.85393 87.1596 8.86929C87.5755 8.88464 87.9838 8.984 88.359 9.1612C88.7342 9.33839 89.0683 9.58961 89.3406 9.89925C89.5846 10.2007 89.767 10.5457 89.8776 10.9154H88.9354C88.8425 10.6986 88.7094 10.5006 88.5429 10.3316C88.3467 10.1355 88.1109 9.98202 87.8508 9.88096C87.5906 9.77989 87.3118 9.73352 87.0323 9.74482C86.7605 9.73918 86.4906 9.79146 86.2413 9.89809C85.9919 10.0047 85.769 10.1632 85.5877 10.3625C85.1935 10.7784 84.9795 11.329 84.9911 11.8975C84.9743 12.4696 85.1888 13.025 85.5877 13.4418C85.7678 13.6377 85.9878 13.7939 86.2335 13.9004C86.4792 14.0068 86.745 14.061 87.0135 14.0595C87.3073 14.0737 87.6006 14.0234 87.8722 13.9123C88.1438 13.8012 88.3869 13.632 88.5837 13.417C88.7608 13.2315 88.8985 13.0131 88.9888 12.7746H89.931C89.7682 13.4075 89.3906 13.9668 88.8606 14.36C88.3307 14.7531 87.6801 14.9565 87.0166 14.9366C86.6229 14.9474 86.2312 14.8771 85.8667 14.7303C85.5022 14.5836 85.1729 14.3635 84.9 14.0842Z" fill="white"/>
<path d="M90.7734 14.9347V8.86719H91.8082V11.2955H93.1153L95.2055 8.86719H96.4609L94.0466 11.7183L96.6575 14.9219H95.3503L93.1257 12.2085H91.8185V14.9379L90.7734 14.9347Z" fill="white"/>
<path d="M97.4941 14.0982C97.2198 13.8193 97.0042 13.4863 96.8604 13.1195C96.7166 12.7527 96.6476 12.3598 96.6577 11.9648C96.6452 11.5627 96.712 11.1622 96.8541 10.787C96.9962 10.4117 97.2108 10.0695 97.4851 9.78054C97.7594 9.49159 98.0878 9.26184 98.4508 9.10494C98.8138 8.94804 99.204 8.86719 99.5983 8.86719C99.9925 8.86719 100.383 8.94804 100.746 9.10494C101.109 9.26184 101.437 9.49159 101.711 9.78054C101.986 10.0695 102.2 10.4117 102.342 10.787C102.485 11.1622 102.551 11.5627 102.539 11.9648C102.525 12.5546 102.343 13.1275 102.016 13.6141C101.689 14.1006 101.231 14.4798 100.696 14.7057C100.162 14.9316 99.5754 14.9944 99.007 14.8866C98.4385 14.7787 97.9129 14.5049 97.4941 14.0982ZM98.1392 10.4166C97.9482 10.6184 97.7988 10.8572 97.6998 11.119C97.6008 11.3807 97.5542 11.66 97.5628 11.9404C97.5545 12.2208 97.6013 12.5 97.7003 12.7617C97.7993 13.0234 97.9485 13.2623 98.1392 13.4643C98.5321 13.8475 99.0547 14.0613 99.5983 14.0613C100.142 14.0613 100.664 13.8475 101.057 13.4643C101.247 13.2614 101.395 13.0224 101.494 12.7609C101.593 12.4994 101.641 12.2206 101.634 11.9404C101.642 11.6601 101.595 11.381 101.496 11.1193C101.397 10.8577 101.248 10.6188 101.057 10.4166C100.667 10.0284 100.143 9.8112 99.5983 9.8112C99.0532 9.8112 98.5296 10.0284 98.1392 10.4166Z" fill="white"/>
<path d="M104.219 14.9371V8.87011H107.195C107.678 8.84382 108.154 8.99541 108.533 9.29615C108.689 9.43097 108.814 9.59892 108.898 9.78784C108.982 9.97676 109.022 10.1819 109.017 10.3885C109.019 10.5754 108.99 10.7614 108.934 10.9394C108.889 11.0805 108.818 11.212 108.725 11.327C108.65 11.4157 108.562 11.4933 108.465 11.5577C108.394 11.6079 108.316 11.6488 108.234 11.6794C108.193 11.6946 108.15 11.7043 108.106 11.7082C108.155 11.7125 108.204 11.7233 108.25 11.7402C108.351 11.7717 108.447 11.8158 108.536 11.8716C108.656 11.9433 108.769 12.027 108.873 12.1214C108.992 12.2416 109.085 12.3857 109.145 12.5443C109.224 12.7419 109.263 12.953 109.261 13.1657C109.271 13.4061 109.228 13.6457 109.134 13.8674C109.041 14.089 108.899 14.287 108.719 14.447C108.294 14.7933 107.755 14.9672 107.208 14.9339L104.219 14.9371ZM105.181 11.359H107.125C107.731 11.359 108.035 11.0964 108.035 10.5678C108.035 10.0393 107.731 9.77984 107.125 9.77984H105.181V11.359ZM105.181 14.0274H107.186C107.478 14.0468 107.767 13.9604 108 13.7839C108.093 13.7006 108.167 13.5976 108.215 13.4823C108.263 13.367 108.285 13.2424 108.279 13.1176C108.286 12.9923 108.264 12.8672 108.216 12.7514C108.167 12.6356 108.094 12.532 108 12.4482C107.766 12.2728 107.477 12.1875 107.186 12.2079H105.181V14.0274Z" fill="white"/>
<path d="M110.963 14.0516C110.682 13.7659 110.461 13.4278 110.315 13.0571C110.169 12.6864 110.099 12.2906 110.111 11.893C110.099 11.4954 110.168 11.0995 110.315 10.7288C110.461 10.358 110.681 10.0199 110.963 9.73443C111.257 9.4461 111.609 9.22051 111.996 9.07168C112.383 8.92285 112.797 8.85395 113.212 8.86928C113.627 8.88461 114.034 8.98383 114.409 9.16078C114.784 9.33773 115.117 9.58862 115.389 9.89786C115.632 10.1982 115.813 10.543 115.921 10.9124H114.982C114.89 10.6954 114.757 10.4976 114.59 10.3296C114.395 10.1335 114.16 9.97999 113.9 9.87906C113.64 9.77813 113.362 9.732 113.083 9.74368C112.812 9.73804 112.543 9.79025 112.294 9.89671C112.046 10.0032 111.823 10.1614 111.642 10.3604C111.256 10.7821 111.051 11.3347 111.069 11.9023C111.052 12.4731 111.264 13.0275 111.661 13.4441C111.841 13.6396 112.06 13.7955 112.305 13.9018C112.551 14.0081 112.816 14.0623 113.083 14.0609C113.376 14.0753 113.669 14.0252 113.94 13.9143C114.211 13.8033 114.453 13.6343 114.65 13.4195C114.828 13.2358 114.966 13.0173 115.054 12.778H115.993C115.891 13.1735 115.705 13.5433 115.448 13.8635C115.166 14.2101 114.806 14.4875 114.396 14.6737C113.986 14.8599 113.538 14.9499 113.087 14.9366C112.689 14.9448 112.294 14.8702 111.928 14.7177C111.562 14.5652 111.233 14.3382 110.963 14.0516Z" fill="white"/>
<path d="M116.828 14.9347V8.86719H117.865V11.2955H119.172L121.267 8.86719H122.512L120.092 11.7183L122.712 14.9219H121.402L119.182 12.2085H117.876V14.9379L116.828 14.9347Z" fill="white"/>
<path d="M123.562 14.9379V8.86719H124.47V13.4186V13.5404H124.491L127.574 8.86719H128.606V14.9379H127.698V10.3865V10.2647H127.674L124.594 14.9379H123.562Z" fill="white"/>
<path d="M130.281 14.9381V8.74207H131.189V13.3875V13.5118H131.211L134.292 8.74207H135.325V14.9381H134.417V10.2927V10.1684H134.392L131.311 14.9381H130.281ZM131.105 6.26562H131.955C131.952 6.36746 131.97 6.46878 132.008 6.56218C132.046 6.65557 132.102 6.73867 132.173 6.80541C132.358 6.95345 132.586 7.02537 132.815 7.00823C133.049 7.02918 133.281 6.95704 133.469 6.80541C133.54 6.73836 133.596 6.65512 133.633 6.56174C133.67 6.46837 133.687 6.36721 133.684 6.26563L134.544 6.26562C134.548 6.47767 134.508 6.68799 134.426 6.88107C134.345 7.07414 134.225 7.24505 134.074 7.38117C133.717 7.68797 133.268 7.8417 132.812 7.813C132.357 7.84089 131.909 7.6872 131.553 7.38117C131.406 7.2427 131.29 7.07078 131.213 6.87786C131.135 6.68494 131.098 6.47582 131.105 6.26562V6.26562Z" fill="white"/>
<path d="M66.3984 25.3442V19.2734H67.3072V23.8273V23.9492H67.3314L70.412 19.2734H71.4419V25.3442H70.5332V20.7903V20.6685H70.512L67.4314 25.3442H66.3984Z" fill="white"/>
<path d="M73.1172 25.3442V19.2734H74.0281V21.762H77.2497V19.2734H78.1607V25.3442H77.2497V22.6728H74.0372V25.3442H73.1172Z" fill="white"/>
<path d="M79.8594 25.3442V19.2734H80.7708V21.762H83.9914V19.2734H84.9029V25.3442H83.9914V22.6728H80.7708V25.3442H79.8594Z" fill="white"/>
<path d="M87.4081 24.5045C87.1343 24.2253 86.9189 23.8922 86.7752 23.5254C86.6314 23.1587 86.5622 22.7659 86.5718 22.3711C86.5592 21.969 86.626 21.5684 86.7681 21.1932C86.9103 20.818 87.1248 20.4757 87.3991 20.1868C87.6734 19.8978 88.0018 19.6681 88.3649 19.5112C88.7279 19.3543 89.1181 19.2734 89.5123 19.2734C89.9066 19.2734 90.2968 19.3543 90.6598 19.5112C91.0228 19.6681 91.3513 19.8978 91.6255 20.1868C91.8998 20.4757 92.1144 20.818 92.2565 21.1932C92.3987 21.5684 92.4654 21.969 92.4529 22.3711C92.4387 22.9609 92.2571 23.5338 91.9301 24.0203C91.603 24.5068 91.1446 24.8861 90.6105 25.1119C90.0764 25.3378 89.4895 25.4007 88.921 25.2928C88.3526 25.185 87.827 24.9111 87.4081 24.5045ZM88.0533 20.8228C87.862 21.0245 87.7124 21.2633 87.6134 21.525C87.5144 21.7868 87.4679 22.0662 87.4768 22.3467C87.4681 22.6271 87.5146 22.9065 87.6136 23.1682C87.7127 23.43 87.8622 23.6688 88.0533 23.8705C88.4437 24.2587 88.9672 24.4759 89.5123 24.4759C90.0574 24.4759 90.581 24.2587 90.9714 23.8705C91.1625 23.6688 91.312 23.43 91.411 23.1682C91.5101 22.9065 91.5566 22.6271 91.5479 22.3467C91.5568 22.0662 91.5103 21.7868 91.4113 21.525C91.3123 21.2633 91.1627 21.0245 90.9714 20.8228C90.581 20.4347 90.0574 20.2175 89.5123 20.2175C88.9672 20.2175 88.4437 20.4347 88.0533 20.8228Z" fill="white"/>
<path d="M94.1328 25.3442V19.2768H97.1156C97.5999 19.2486 98.0776 19.3993 98.4574 19.6999C98.615 19.8345 98.7404 20.0025 98.8245 20.1916C98.9086 20.3807 98.9491 20.5861 98.9433 20.7928C98.9452 20.9799 98.9169 21.166 98.8596 21.3441C98.7839 21.6005 98.6169 21.8204 98.3898 21.9627C98.3181 22.013 98.2403 22.0539 98.1581 22.0845C98.1172 22.1019 98.0738 22.1127 98.0294 22.1166C98.0796 22.1211 98.1292 22.1307 98.1774 22.1454C98.2785 22.1775 98.3748 22.2227 98.4638 22.28C98.5792 22.3512 98.687 22.4339 98.7856 22.5268C98.9059 22.6481 98.9991 22.7934 99.0591 22.9531C99.1384 23.1497 99.1777 23.3599 99.1749 23.5717C99.1848 23.8118 99.1414 24.0512 99.048 24.2727C98.9546 24.4943 98.8134 24.6927 98.6344 24.8538C98.2068 25.1988 97.6648 25.3715 97.1156 25.3378L94.1328 25.3442ZM95.0981 21.764H97.0448C97.6562 21.764 97.9586 21.5012 97.9586 20.9755C97.9586 20.4499 97.6658 20.1967 97.0545 20.1967H95.1078L95.0981 21.764ZM95.0981 24.4339H97.106C97.3991 24.4548 97.6898 24.3682 97.9233 24.1903C98.012 24.1032 98.0824 23.9994 98.1305 23.885C98.1786 23.7705 98.2034 23.6477 98.2034 23.5236C98.2034 23.3996 98.1786 23.2767 98.1305 23.1623C98.0824 23.0478 98.012 22.944 97.9233 22.857C97.6898 22.6791 97.3991 22.5924 97.106 22.6134H95.0981V24.4339Z" fill="white"/>
<path d="M100.853 24.4796C100.3 23.8935 100.002 23.1152 100.025 22.3134C100.002 21.5115 100.299 20.733 100.853 20.1472C101.106 19.8681 101.416 19.6459 101.763 19.4954C102.11 19.3449 102.486 19.2696 102.865 19.2745C103.298 19.262 103.728 19.3589 104.114 19.5561C104.408 19.7032 104.665 19.9149 104.864 20.175L104.97 20.3483V19.3766H105.908V25.2346H104.97V24.2877L104.864 24.4517C104.671 24.7066 104.421 24.9132 104.133 25.0551C103.739 25.2575 103.299 25.3565 102.855 25.3429C102.479 25.3477 102.105 25.2732 101.76 25.1243C101.415 24.9755 101.106 24.7557 100.853 24.4796ZM101.556 20.7475C101.169 21.1701 100.964 21.7251 100.984 22.2948C100.965 22.8645 101.17 23.4193 101.556 23.8421C101.741 24.0346 101.965 24.1879 102.212 24.2926C102.459 24.3973 102.725 24.4513 102.994 24.4513C103.263 24.4513 103.529 24.3973 103.777 24.2926C104.024 24.1879 104.247 24.0346 104.433 23.8421C104.819 23.4193 105.024 22.8645 105.005 22.2948C105.024 21.7251 104.819 21.1701 104.433 20.7475C104.247 20.555 104.024 20.4017 103.777 20.297C103.529 20.1923 103.263 20.1383 102.994 20.1383C102.725 20.1383 102.459 20.1923 102.212 20.297C101.965 20.4017 101.741 20.555 101.556 20.7475Z" fill="white"/>
<path d="M107.594 25.6202V19.2734H108.548V24.668H111.681V19.2734H112.635V24.668H113.478V27.0787H112.524V25.6202H107.594Z" fill="white"/>
<path d="M114.312 25.3442V19.2734H115.22V23.8273V23.9492H115.241L118.324 19.2734H119.356V25.3442H118.448V20.7903V20.6685H118.427L115.344 25.3442H114.312Z" fill="white"/>
<path d="M121.885 24.5045C121.611 24.2253 121.395 23.8922 121.252 23.5254C121.108 23.1587 121.039 22.7659 121.048 22.3711C121.036 21.969 121.103 21.5684 121.245 21.1932C121.387 20.818 121.601 20.4757 121.876 20.1868C122.15 19.8978 122.478 19.6681 122.841 19.5112C123.204 19.3543 123.595 19.2734 123.989 19.2734C124.383 19.2734 124.773 19.3543 125.136 19.5112C125.499 19.6681 125.828 19.8978 126.102 20.1868C126.376 20.4757 126.591 20.818 126.733 21.1932C126.875 21.5684 126.942 21.969 126.929 22.3711C126.915 22.9609 126.734 23.5338 126.407 24.0203C126.08 24.5068 125.621 24.8861 125.087 25.1119C124.553 25.3378 123.966 25.4007 123.398 25.2928C122.829 25.185 122.304 24.9111 121.885 24.5045ZM122.53 20.8228C122.339 21.0245 122.189 21.2633 122.09 21.525C121.991 21.7868 121.944 22.0662 121.953 22.3467C121.945 22.6271 121.991 22.9065 122.09 23.1682C122.189 23.43 122.339 23.6688 122.53 23.8705C122.92 24.2587 123.444 24.4759 123.989 24.4759C124.534 24.4759 125.058 24.2587 125.448 23.8705C125.639 23.6688 125.789 23.43 125.888 23.1682C125.987 22.9065 126.033 22.6271 126.024 22.3467C126.033 22.0662 125.987 21.7868 125.888 21.525C125.789 21.2633 125.639 21.0245 125.448 20.8228C125.058 20.4347 124.534 20.2175 123.989 20.2175C123.444 20.2175 122.92 20.4347 122.53 20.8228Z" fill="white"/>
<path d="M128.602 25.3442V19.2734H129.512V21.762H132.734V19.2734H133.645V25.3442H132.734V22.6728H129.522V25.3442H128.602Z" fill="white"/>
<path d="M135.328 25.3442V19.2734H136.24V21.762H139.46V19.2734H140.372V25.3442H139.46V22.6728H136.24V25.3442H135.328Z" fill="white"/>
<path d="M142.047 25.3421V19.2734H143.046V21.3348H144.557C145.188 21.3095 145.805 21.5157 146.285 21.9118C146.495 22.0902 146.664 22.3097 146.779 22.5557C146.894 22.8017 146.954 23.0685 146.954 23.3384C146.954 23.6084 146.894 23.8752 146.779 24.1212C146.664 24.3671 146.495 24.5866 146.285 24.765C145.805 25.1612 145.188 25.3674 144.557 25.3421H142.047ZM143.046 24.4316H144.557C144.925 24.4544 145.289 24.346 145.579 24.1271C145.694 24.0278 145.786 23.9063 145.85 23.7704C145.913 23.6345 145.945 23.4873 145.945 23.3384C145.945 23.1896 145.913 23.0424 145.85 22.9065C145.786 22.7706 145.694 22.649 145.579 22.5498C145.29 22.3267 144.927 22.2128 144.557 22.2292H143.046V24.4316ZM147.773 25.3421V19.2734H148.772V25.3421H147.773Z" fill="white"/>
<path d="M150.469 25.3444V19.1516H151.376V23.797V23.9213H151.398L154.481 19.1516H155.512V25.3444H154.605V20.699V20.5747H154.58L151.497 25.3444H150.469ZM151.295 16.6719H152.154C152.15 16.7738 152.168 16.8752 152.206 16.9687C152.243 17.0622 152.3 17.1452 152.372 17.2117C152.563 17.3462 152.785 17.4179 153.013 17.4179C153.241 17.4179 153.464 17.3462 153.655 17.2117C153.726 17.1452 153.783 17.0622 153.821 16.9687C153.858 16.8752 153.876 16.7738 153.872 16.6719H154.732C154.739 16.8854 154.702 17.0979 154.622 17.2934C154.542 17.489 154.423 17.6624 154.272 17.8005C153.904 18.0834 153.463 18.2353 153.012 18.2353C152.56 18.2353 152.12 18.0834 151.752 17.8005C151.602 17.6619 151.483 17.4883 151.403 17.2929C151.324 17.0974 151.287 16.8851 151.295 16.6719Z" fill="white"/>
<path d="M66.3984 35.7543V29.6836H67.2879V32.1132H68.4117L70.2085 29.6836H71.2729L69.1974 32.5363L71.4419 35.7415H70.3271L68.4176 33.0106H67.2939V35.7415L66.3984 35.7543Z" fill="white"/>
<path d="M71.4375 35.7543L73.1141 29.6836H75.6449L77.3216 35.7543H76.2903L74.911 30.5939H73.8322L72.4561 35.7543H71.4375Z" fill="white"/>
<path d="M78.9864 34.8817C78.4562 34.2826 78.1641 33.5142 78.1641 32.7187C78.1641 31.9233 78.4562 31.1548 78.9864 30.5558C79.2395 30.2772 79.5501 30.0554 79.8972 29.9051C80.2444 29.7548 80.6201 29.6796 80.9992 29.6844C81.4338 29.6735 81.8642 29.7702 82.2513 29.9656C82.5442 30.1153 82.8006 30.3262 83.0026 30.5836L83.109 30.7597V29.7864H84.0481V35.6387H83.109V34.7117L83.0026 34.8755C82.8123 35.1244 82.5672 35.3272 82.2857 35.4688C81.8903 35.6691 81.4497 35.7669 81.0054 35.753C80.6253 35.7588 80.2484 35.684 79.9001 35.5336C79.5518 35.3833 79.2402 35.161 78.9864 34.8817ZM79.6782 31.1552C79.3084 31.5921 79.1058 32.1433 79.1058 32.7125C79.1058 33.2818 79.3084 33.833 79.6782 34.2699C79.8645 34.4613 80.0881 34.6136 80.3356 34.7176C80.583 34.8216 80.8492 34.8752 81.1181 34.8752C81.3871 34.8752 81.6532 34.8216 81.9007 34.7176C82.1481 34.6136 82.3717 34.4613 82.5581 34.2699C82.9302 33.8341 83.1343 33.2825 83.1343 32.7125C83.1343 32.1426 82.9302 31.591 82.5581 31.1552C82.3722 30.963 82.1487 30.8101 81.9012 30.7055C81.6537 30.601 81.3873 30.5471 81.1181 30.5471C80.8489 30.5471 80.5825 30.601 80.335 30.7055C80.0875 30.8101 79.8641 30.963 79.6782 31.1552Z" fill="white"/>
<path d="M86.5927 34.8876C86.0405 34.2949 85.7344 33.5213 85.7344 32.7187C85.7344 31.9161 86.0405 31.1425 86.5927 30.5498C86.888 30.2618 87.2406 30.0365 87.6286 29.8878C88.0166 29.7392 88.4316 29.6704 88.8479 29.6857C89.2642 29.701 89.6728 29.8001 90.0483 29.9769C90.4238 30.1536 90.7582 30.4042 91.0307 30.7131C91.2761 31.013 91.4587 31.3575 91.5681 31.7267H90.6252C90.5307 31.5053 90.3942 31.3035 90.2229 31.1321C90.0266 30.9365 89.7906 30.7833 89.5302 30.6825C89.2698 30.5817 88.9908 30.5354 88.7111 30.5467C88.439 30.5411 88.1689 30.5932 87.9194 30.6996C87.6698 30.806 87.4467 30.964 87.2653 31.1629C86.8753 31.583 86.6678 32.1356 86.687 32.7033C86.6701 33.274 86.8849 33.828 87.2842 34.2437C87.4643 34.4391 87.6846 34.595 87.9305 34.7012C88.1764 34.8074 88.4424 34.8614 88.7111 34.8599C89.0052 34.8741 89.2987 34.824 89.5706 34.7131C89.8424 34.6023 90.0856 34.4335 90.2826 34.2191C90.4553 34.0399 90.589 33.8281 90.6755 33.5967H91.6184C91.5157 33.9918 91.3294 34.3613 91.0715 34.6812C90.7891 35.0262 90.429 35.3025 90.0196 35.4885C89.6101 35.6745 89.1623 35.7651 88.7111 35.7533C88.3159 35.7621 87.9232 35.6896 87.5583 35.5405C87.1934 35.3914 86.8645 35.169 86.5927 34.8876Z" fill="white"/>
<path d="M91.6094 30.5939V29.6836H96.6529V30.5939H94.6002V35.7543H93.6714V30.5939H91.6094Z" fill="white"/>
<path d="M98.3485 34.8877C97.8081 34.2977 97.5078 33.5231 97.5078 32.7189C97.5078 31.9147 97.8081 31.1402 98.3485 30.5502C98.6204 30.2672 98.9473 30.0443 99.3086 29.8953C99.6698 29.7463 100.058 29.6745 100.448 29.6845C100.838 29.6756 101.225 29.7469 101.587 29.8941C101.949 30.0413 102.278 30.2612 102.553 30.5407C102.828 30.8201 103.044 31.1532 103.188 31.5197C103.332 31.8862 103.401 32.2785 103.391 32.6727V33.0116H98.4338C98.4809 33.5254 98.7155 34.0032 99.0919 34.3516C99.4598 34.6991 99.9475 34.8871 100.451 34.8754C100.986 34.8886 101.508 34.7022 101.916 34.3516C102.094 34.2068 102.243 34.0291 102.355 33.8279H103.269C103.055 34.4059 102.669 34.902 102.163 35.2472C101.657 35.5923 101.058 35.7693 100.448 35.7533C100.058 35.7635 99.6697 35.6918 99.3085 35.5428C98.9472 35.3938 98.6203 35.1708 98.3485 34.8877ZM98.4521 32.1952H102.413C102.349 31.7442 102.126 31.3317 101.785 31.0338C101.417 30.7128 100.943 30.5434 100.457 30.5594C99.9685 30.5456 99.4922 30.7145 99.1194 31.0338C98.7661 31.3272 98.5292 31.7396 98.4521 32.1952Z" fill="white"/>
<path d="M105.07 38.3561V29.819H106.007V30.7991L106.126 30.6129C106.317 30.3493 106.563 30.1357 106.847 29.9889C107.24 29.7745 107.68 29.6698 108.124 29.685C108.502 29.6801 108.877 29.7597 109.224 29.9186C109.571 30.0775 109.881 30.312 110.134 30.6064C110.663 31.2398 110.954 32.0523 110.954 32.8934C110.954 33.7344 110.663 34.547 110.134 35.1804C109.72 35.6371 109.177 35.9436 108.585 36.0552C107.992 36.1669 107.381 36.0779 106.841 35.8012C106.554 35.6571 106.307 35.4376 106.126 35.1641L106.007 34.9909V38.3561H105.07ZM106.591 31.2664C106.22 31.7271 106.016 32.3104 106.016 32.913C106.016 33.5156 106.22 34.0989 106.591 34.5596C106.777 34.762 107 34.923 107.246 35.033C107.493 35.143 107.759 35.1997 108.027 35.1997C108.295 35.1997 108.561 35.143 108.807 35.033C109.054 34.923 109.277 34.762 109.463 34.5596C109.834 34.0989 110.038 33.5156 110.038 32.913C110.038 32.3104 109.834 31.7271 109.463 31.2664C109.278 31.0631 109.055 30.9014 108.808 30.7909C108.561 30.6804 108.295 30.6234 108.027 30.6234C107.758 30.6234 107.493 30.6804 107.246 30.7909C106.999 30.9014 106.776 31.0631 106.591 31.2664Z" fill="white"/>
<path fill-rule="evenodd" clip-rule="evenodd" d="M44.8984 38.9948H58.999V3.5H44.8984V38.9948Z" fill="white"/>
<path fill-rule="evenodd" clip-rule="evenodd" d="M22.4453 35.8024H36.5466V3.5H22.4453V35.8024Z" fill="white"/>
<path fill-rule="evenodd" clip-rule="evenodd" d="M0.796875 26.4257C12.9842 26.02 22.8222 16.3117 23.2341 4.28516H35.7486C35.5916 11.3974 33.2979 18.1953 29.0918 23.9932L27.6414 25.9922L29.9971 25.1914C39.1357 22.0873 45.3564 13.7482 45.6832 4.28516H58.1978C57.7791 23.118 42.3311 38.3617 23.246 38.7752V30.3357L21.9618 31.3252C15.8369 36.043 8.53398 38.6104 0.796875 38.7752V26.4257Z" fill="#38CA96"/>
<path fill-rule="evenodd" clip-rule="evenodd" d="M59 3.5H44.8999C44.8999 13.1985 38.5484 21.4559 29.7362 24.449C34.0242 18.5397 36.5509 11.3059 36.5509 3.5H22.4503C22.4503 15.7153 12.379 25.6535 0 25.6535V39.5676C8.45595 39.5676 16.2499 36.7185 22.4491 31.9434V39.5676C42.6038 39.5676 59 23.3878 59 3.5ZM57.3739 5.06933C56.5636 22.846 42.0543 37.1634 24.0395 37.963V31.9434V28.7274L21.4707 30.706C15.6969 35.1535 8.85354 37.6464 1.59036 37.9638V27.1714C13.5833 26.3954 23.2022 16.9037 23.9886 5.06933H34.9247C34.6226 11.7316 32.3972 18.0858 28.4432 23.5353L25.5424 27.5336L30.2538 25.9329C39.46 22.806 45.8028 14.5414 46.4377 5.06933H57.3739Z" fill="white"/>
</svg>
