<svg width="24" height="24" viewBox="0 0 24 24" fill="none" xmlns="http://www.w3.org/2000/svg">
<path fill-rule="evenodd" clip-rule="evenodd" d="M8.49554 4.25H13.2293C14.4912 4.24998 15.514 4.24996 16.3197 4.35829C17.1585 4.47106 17.8734 4.71348 18.4424 5.28244C18.9572 5.79728 19.2047 6.43159 19.3306 7.1691C20.0683 7.29504 20.7027 7.54255 21.2176 8.05745C21.7865 8.62641 22.0289 9.34129 22.1417 10.1801C22.25 10.9858 22.25 12.0087 22.25 13.2706V13.3793C22.25 14.6412 22.25 15.6641 22.1417 16.4698C22.0289 17.3086 21.7865 18.0235 21.2176 18.5924C20.6486 19.1614 19.9337 19.4038 19.0949 19.5166C18.2892 19.6249 17.2664 19.6249 16.0045 19.6249H11.2707C10.0088 19.6249 8.98601 19.6249 8.1803 19.5166C7.34148 19.4038 6.6266 19.1614 6.05764 18.5924C5.54279 18.0776 5.29527 17.4433 5.16933 16.7057C4.43172 16.5798 3.79733 16.3323 3.28244 15.8174C2.71348 15.2485 2.47106 14.5336 2.35829 13.6948C2.24996 12.889 2.24998 11.8662 2.25 10.6043V10.4955C2.24998 9.23365 2.24996 8.21081 2.35829 7.4051C2.47106 6.56628 2.71348 5.8514 3.28244 5.28244C3.8514 4.71348 4.56628 4.47106 5.4051 4.35829C6.21081 4.24996 7.23365 4.24998 8.49554 4.25ZM6.73338 16.8351C6.82703 17.1588 6.95473 17.3682 7.1183 17.5318C7.36211 17.7756 7.70768 17.9396 8.38018 18.03C9.07425 18.1233 9.9958 18.1249 11.3251 18.1249H15.9501C17.2794 18.1249 18.201 18.1233 18.895 18.03C19.5675 17.9396 19.9131 17.7756 20.1569 17.5318C20.4007 17.288 20.5647 16.9424 20.6551 16.2699C20.7484 15.5758 20.75 14.6543 20.75 13.3249C20.75 11.9956 20.7484 11.0741 20.6551 10.38C20.5647 9.70749 20.4007 9.36192 20.1569 9.11811C19.9933 8.95451 19.7838 8.82679 19.46 8.73313C19.4748 9.2592 19.4748 9.84567 19.4748 10.4955V10.6043C19.4748 11.8662 19.4748 12.889 19.3665 13.6948C19.2537 14.5336 19.0113 15.2485 18.4424 15.8174C17.8734 16.3864 17.1585 16.6288 16.3197 16.7416C15.514 16.8499 14.4912 16.8499 13.2293 16.8499H8.49555C7.84577 16.8499 7.25938 16.8499 6.73338 16.8351ZM5.60498 5.84491C4.93248 5.93532 4.58691 6.09929 4.3431 6.3431C4.09929 6.58691 3.93532 6.93248 3.84491 7.60498C3.75159 8.29905 3.75 9.2206 3.75 10.5499C3.75 11.8793 3.75159 12.8008 3.84491 13.4949C3.93532 14.1674 4.09929 14.513 4.3431 14.7568C4.58691 15.0006 4.93248 15.1645 5.60498 15.255C6.29905 15.3483 7.2206 15.3499 8.54993 15.3499H13.1749C14.5042 15.3499 15.4258 15.3483 16.1198 15.255C16.7923 15.1645 17.1379 15.0006 17.3817 14.7568C17.6255 14.513 17.7895 14.1674 17.8799 13.4949C17.9732 12.8008 17.9748 11.8793 17.9748 10.5499C17.9748 9.2206 17.9732 8.29905 17.8799 7.60498C17.7895 6.93248 17.6255 6.58691 17.3817 6.3431C17.1379 6.09929 16.7923 5.93532 16.1198 5.84491C15.4258 5.75159 14.5042 5.75 13.1749 5.75H8.54993C7.2206 5.75 6.29905 5.75159 5.60498 5.84491ZM10.8624 8.98746C9.99947 8.98746 9.29993 9.687 9.29993 10.5499C9.29993 11.4129 9.99947 12.1124 10.8624 12.1124C11.7253 12.1124 12.4249 11.4129 12.4249 10.5499C12.4249 9.687 11.7253 8.98746 10.8624 8.98746ZM7.79993 10.5499C7.79993 8.85858 9.17105 7.48746 10.8624 7.48746C12.5538 7.48746 13.9249 8.85858 13.9249 10.5499C13.9249 12.2413 12.5538 13.6124 10.8624 13.6124C9.17105 13.6124 7.79993 12.2413 7.79993 10.5499ZM5.77497 7.94995C6.18918 7.94995 6.52497 8.28574 6.52497 8.69995L6.52497 12.3999C6.52497 12.8141 6.18918 13.1499 5.77497 13.1499C5.36075 13.1499 5.02497 12.8141 5.02497 12.3999L5.02497 8.69995C5.02497 8.28574 5.36075 7.94995 5.77497 7.94995ZM15.9498 7.94995C16.364 7.94995 16.6998 8.28574 16.6998 8.69995V12.3999C16.6998 12.8141 16.364 13.1499 15.9498 13.1499C15.5356 13.1499 15.1998 12.8141 15.1998 12.3999V8.69995C15.1998 8.28574 15.5356 7.94995 15.9498 7.94995Z" fill="#138BE1"/>
</svg>
