<svg width="24" height="24" viewBox="0 0 24 24" fill="none" xmlns="http://www.w3.org/2000/svg">
<path fill-rule="evenodd" clip-rule="evenodd" d="M15.2257 2.27516C15.2469 2.28219 15.2682 2.28926 15.2896 2.29636C15.5218 2.37332 15.7515 2.45879 15.9782 2.55269C17.2047 3.06074 18.3192 3.8054 19.258 4.74415C20.1967 5.6829 20.9414 6.79736 21.4494 8.0239C21.5433 8.25058 21.6288 8.48028 21.7057 8.71251C21.7128 8.73392 21.7199 8.75521 21.7269 8.77638C21.9332 9.39725 22.1068 9.91976 21.9193 10.6624C21.8397 10.978 21.665 11.292 21.4843 11.5423C21.3036 11.7925 21.0605 12.0571 20.7859 12.232C20.1379 12.6449 19.4427 12.6439 18.6087 12.6427C18.5642 12.6427 18.5193 12.6426 18.4739 12.6426H18.0668C17.0462 12.6426 16.2345 12.6426 15.5795 12.5891C14.9089 12.5343 14.3369 12.4197 13.8131 12.1528C12.9676 11.722 12.2801 11.0345 11.8493 10.189C11.5824 9.6652 11.4678 9.09322 11.413 8.42255C11.3595 7.76765 11.3595 6.95594 11.3595 5.93539V5.52818C11.3595 5.48284 11.3594 5.4379 11.3593 5.39336C11.3582 4.55939 11.3572 3.86425 11.7701 3.21618C11.945 2.94164 12.2096 2.69847 12.4598 2.51777C12.7101 2.33707 13.0241 2.16244 13.3397 2.08277C14.0823 1.89533 14.6049 2.06891 15.2257 2.27516ZM14.8177 3.72021C14.1319 3.49294 13.9969 3.46394 13.7068 3.53716C13.6392 3.55424 13.4991 3.6175 13.3379 3.73387C13.1768 3.85023 13.0727 3.96329 13.0352 4.02214C12.8838 4.25979 12.8595 4.49078 12.8595 5.52818V5.90256C12.8595 6.9633 12.8601 7.71374 12.908 8.3004C12.9552 8.87831 13.0446 9.23092 13.1858 9.50799C13.4728 10.0713 13.9308 10.5293 14.4941 10.8163C14.7712 10.9575 15.1238 11.0469 15.7017 11.0941C16.2884 11.142 17.0388 11.1426 18.0995 11.1426H18.4739C19.5113 11.1426 19.7423 11.1183 19.98 10.9669C20.0388 10.9294 20.1519 10.8253 20.2682 10.6642C20.3846 10.503 20.4479 10.3629 20.4649 10.2953C20.5382 10.0052 20.5092 9.87017 20.2819 9.18436C20.2163 8.98659 20.1436 8.79097 20.0636 8.59792C19.6309 7.55337 18.9968 6.60427 18.1973 5.80481C17.3978 5.00534 16.4487 4.37118 15.4042 3.93851C15.2111 3.85854 15.0155 3.78575 14.8177 3.72021ZM9.05346 3.01009C9.21913 3.38973 9.04567 3.83179 8.66603 3.99746C7.37709 4.55993 6.24556 5.42959 5.37036 6.53039C4.49517 7.6312 3.90296 8.92964 3.6455 10.3122C3.38805 11.6947 3.47319 13.1193 3.89349 14.4614C4.31378 15.8034 5.05644 17.0221 6.05652 18.0108C7.0566 18.9995 8.28366 19.7282 9.63042 20.1332C10.9772 20.5381 12.4026 20.607 13.7822 20.3337C15.1617 20.0605 16.4533 19.4535 17.544 18.5658C18.6348 17.6781 19.4914 16.5367 20.0391 15.2414C20.2005 14.8599 20.6405 14.6814 21.022 14.8428C21.4035 15.0041 21.582 15.4441 21.4207 15.8256C20.7776 17.3466 19.7716 18.6868 18.4909 19.7292C17.2101 20.7716 15.6935 21.4843 14.0736 21.8052C12.4537 22.126 10.7799 22.0451 9.1985 21.5696C7.6171 21.0941 6.17625 20.2385 5.00193 19.0775C3.82761 17.9165 2.95556 16.4855 2.46204 14.9097C1.96852 13.3338 1.86854 11.661 2.17085 10.0376C2.47316 8.41416 3.16855 6.88949 4.19623 5.5969C5.22391 4.3043 6.55258 3.28313 8.06609 2.62266C8.44573 2.45699 8.88779 2.63045 9.05346 3.01009Z" fill="#138BE1"/>
</svg>
