<svg width="24" height="24" viewBox="0 0 24 24" fill="none" xmlns="http://www.w3.org/2000/svg">
<path fill-rule="evenodd" clip-rule="evenodd" d="M17.7674 4.5183C17.6684 4.54402 17.6057 4.59037 17.5662 4.64728C17.4293 4.84488 17.2059 4.96485 16.9655 4.96989C16.7251 4.97494 16.4969 4.86444 16.3518 4.67275C16.2476 4.53509 16.0225 4.46018 15.8012 4.52559C15.4241 4.64657 15.1724 5.1331 15.3509 5.66768C15.5018 6.11548 15.8435 6.48665 16.2316 6.75586C16.4219 6.88788 16.6081 6.98439 16.7587 7.0456C16.8605 7.08697 16.9235 7.10319 16.9495 7.10952C16.9756 7.10314 17.0394 7.08671 17.1429 7.04459C17.2952 6.98259 17.4831 6.88516 17.6746 6.75253C18.0662 6.48117 18.404 6.11162 18.5467 5.67373L18.5485 5.66825L18.5485 5.66825C18.7297 5.12634 18.4697 4.63915 18.1014 4.52648C17.9957 4.49464 17.8725 4.491 17.7674 4.5183ZM16.9386 3.24398C17.4556 2.95839 18.0699 2.94978 18.5365 3.09099L18.5378 3.09138C19.95 3.52154 20.3336 5.05511 19.972 6.14119C19.6935 6.99311 19.0832 7.60138 18.5288 7.98551C18.2469 8.18084 17.962 8.33066 17.7083 8.43393C17.4787 8.52736 17.2004 8.61352 16.9498 8.61352C16.7 8.61352 16.4232 8.52842 16.1939 8.43522C15.9411 8.33246 15.6575 8.18326 15.3766 7.98835C14.8223 7.60387 14.2154 6.9966 13.9289 6.14527L13.9285 6.14392C13.5634 5.05201 13.953 3.53348 15.3557 3.09325L15.363 3.09095L15.363 3.09099C15.8461 2.9448 16.4365 2.9729 16.9386 3.24398ZM5.51701 5.51643C4.88277 6.1487 4.5 7.1576 4.5 8.68631V12.7986C4.5 14.7895 4.90593 15.7416 5.48051 16.2428C6.08061 16.7663 7.06299 16.9833 8.7 16.9833H9.1125C9.37122 16.9833 9.61808 17.0633 9.80882 17.1576C9.99674 17.2504 10.2153 17.3992 10.3744 17.6147L11.6093 19.2563C11.7603 19.457 11.9089 19.5 12 19.5C12.0911 19.5 12.2397 19.457 12.3907 19.2563L13.6282 17.6114L13.6311 17.6076C13.9278 17.2183 14.3948 16.9833 14.8875 16.9833H15.3C16.835 16.9833 17.8483 16.6012 18.483 15.9685C19.1172 15.3362 19.5 14.3273 19.5 12.7986V8.68631C19.5 8.2721 19.8358 7.93631 20.25 7.93631C20.6642 7.93631 21 8.2721 21 8.68631V12.7986C21 14.5597 20.5578 16.0181 19.542 17.0308C18.5267 18.043 17.065 18.4833 15.3 18.4833H14.8875C14.869 18.4833 14.8414 18.4947 14.8246 18.5161C14.8244 18.5164 14.8242 18.5167 14.8239 18.517L13.5893 20.1581C13.1958 20.6811 12.6266 21 12 21C11.3734 21 10.8042 20.6811 10.4107 20.1581L9.18158 18.5243C9.17367 18.5186 9.16095 18.5106 9.14425 18.5023C9.12484 18.4927 9.10749 18.4865 9.09592 18.4834C9.09575 18.4834 9.09558 18.4833 9.09542 18.4833H8.7C7.03701 18.4833 5.54439 18.289 4.49449 17.3732C3.41907 16.4351 3 14.9199 3 12.7986V8.68631C3 6.92521 3.44222 5.46675 4.45799 4.45413C5.47333 3.44192 6.93498 3.0016 8.7 3.0016H12C12.4142 3.0016 12.75 3.33738 12.75 3.7516C12.75 4.16581 12.4142 4.5016 12 4.5016H8.7C7.16502 4.5016 6.15167 4.88373 5.51701 5.51643ZM7.94547 11.1537C7.94547 10.7395 8.28125 10.4037 8.69547 10.4037H8.70288C9.11709 10.4037 9.45288 10.7395 9.45288 11.1537C9.45288 11.5679 9.11709 11.9037 8.70288 11.9037H8.69547C8.28125 11.9037 7.94547 11.5679 7.94547 11.1537ZM11.2463 11.1537C11.2463 10.7395 11.5821 10.4037 11.9963 10.4037H12.0037C12.4179 10.4037 12.7537 10.7395 12.7537 11.1537C12.7537 11.5679 12.4179 11.9037 12.0037 11.9037H11.9963C11.5821 11.9037 11.2463 11.5679 11.2463 11.1537ZM14.5471 11.1537C14.5471 10.7395 14.8829 10.4037 15.2971 10.4037H15.3045C15.7187 10.4037 16.0545 10.7395 16.0545 11.1537C16.0545 11.5679 15.7187 11.9037 15.3045 11.9037H15.2971C14.8829 11.9037 14.5471 11.5679 14.5471 11.1537Z" fill="#138BE1"/>
</svg>
