<svg width="24" height="24" viewBox="0 0 24 24" fill="none" xmlns="http://www.w3.org/2000/svg">
<path d="M11.8741 2.49709C10.7629 2.71732 9.68179 3.44808 8.99107 4.45913C8.71077 4.85955 8.65071 4.88958 7.12912 5.3901C6.25821 5.68041 5.19711 6.09083 4.76666 6.32107C3.41525 7.0118 2.49429 8.03286 2.15393 9.18406C1.95372 9.88479 1.94371 11.4364 2.15393 12.2973C2.45425 13.5786 3.91577 17.9132 4.30618 18.704C5.24716 20.586 6.79878 21.607 8.70076 21.607C9.83194 21.607 12.9752 20.7261 14.3767 20.0154C14.7871 19.8152 15.1475 19.705 15.4278 19.705C16.7692 19.705 18.0705 19.2345 18.9014 18.4537C19.9925 17.4327 20.393 16.4817 21.2839 12.7478C21.8545 10.3853 21.9346 9.88479 21.9846 8.76362C22.0547 7.23202 21.8945 6.50126 21.3139 5.61033C20.5031 4.34902 19.1917 3.61825 16.609 2.99761C14.1164 2.38697 13.0353 2.27686 11.8741 2.49709ZM15.7781 4.4291C18.1306 4.97968 19.0215 5.37008 19.7022 6.1509C20.3429 6.87165 20.5631 7.82264 20.403 9.10398C20.3129 9.88479 19.3719 14.0191 19.0516 15.1002C18.7312 16.1713 18.1206 17.1424 17.4899 17.5528C17.2697 17.6929 16.7992 17.8831 16.4388 17.9732C15.8783 18.1134 15.648 18.1234 14.8171 18.0233C13.756 17.8931 11.4636 17.3426 10.5827 17.0022C9.42151 16.5618 8.56062 15.7409 8.30034 14.8199C8.12016 14.1593 8.18022 12.8479 8.46051 11.6066C9.11119 8.68354 9.63173 6.69146 9.90202 6.11085C10.893 3.97863 12.2344 3.59823 15.7781 4.4291ZM7.28929 9.54444C6.40837 13.2483 6.36833 14.6498 7.09909 16.1013C7.75978 17.4227 9.03111 18.2735 11.2234 18.8942L12.2144 19.1645L11.1834 19.4848C9.82193 19.9052 9.08116 20.0354 8.34039 19.9753C7.18919 19.8852 6.34831 19.2145 5.6676 17.8531C5.40733 17.3226 3.88574 12.6977 3.68553 11.8468C3.50534 11.016 3.53537 9.90481 3.77563 9.37426C4.0359 8.77363 4.68658 8.15299 5.44737 7.76258C6.18814 7.39219 7.83986 6.78155 7.87991 6.88166C7.88992 6.9217 7.62964 8.12295 7.28929 9.54444Z" fill="#138BE1"/>
<path d="M12.1343 8.14297C11.6839 8.46331 11.774 9.28417 12.2845 9.48437C12.775 9.67457 16.8693 10.6956 17.1496 10.6956C17.2997 10.6956 17.52 10.5855 17.6601 10.4454C18.1506 9.96488 17.8803 9.29418 17.1296 9.10398C15.0574 8.56341 12.7049 7.99282 12.5448 7.99282C12.4347 7.99282 12.2545 8.06289 12.1343 8.14297Z" fill="#138BE1"/>
<path d="M11.1133 11.8568C10.843 12.1972 10.843 12.5175 11.1333 12.8479C11.3135 13.0581 11.6138 13.1782 12.7049 13.4485C14.3867 13.879 14.717 13.889 14.9973 13.5386C15.2676 13.1982 15.2676 12.8679 14.9873 12.5576C14.8071 12.3574 14.4668 12.2272 13.3356 11.9469C11.6038 11.5165 11.3836 11.5065 11.1133 11.8568Z" fill="#138BE1"/>
</svg>
