<svg width="24" height="24" viewBox="0 0 24 24" fill="none" xmlns="http://www.w3.org/2000/svg">
<path d="M11.8741 2.49721C10.7629 2.71744 9.68179 3.4482 8.99107 4.45925C8.71077 4.85967 8.65071 4.8897 7.12912 5.39023C6.25821 5.68053 5.19711 6.09096 4.76666 6.3212C3.41525 7.01192 2.49429 8.03298 2.15393 9.18418C1.95372 9.88491 1.94371 11.4365 2.15393 12.2974C2.45425 13.5788 3.91577 17.9133 4.30618 18.7041C5.24716 20.5861 6.79878 21.6071 8.70076 21.6071C9.83194 21.6071 12.9752 20.7262 14.3767 20.0155C14.7871 19.8153 15.1475 19.7052 15.4278 19.7052C16.7692 19.7052 18.0705 19.2347 18.9014 18.4539C19.9925 17.4328 20.393 16.4818 21.2839 12.7479C21.8545 10.3854 21.9346 9.88491 21.9846 8.76374C22.0547 7.23215 21.8945 6.50138 21.3139 5.61045C20.5031 4.34914 19.1917 3.61838 16.609 2.99773C14.1164 2.38709 13.0353 2.27698 11.8741 2.49721ZM15.7781 4.42922C18.1306 4.9798 19.0215 5.3702 19.7022 6.15102C20.3429 6.87177 20.5631 7.82276 20.403 9.1041C20.3129 9.88491 19.3719 14.0192 19.0516 15.1004C18.7312 16.1715 18.1206 17.1425 17.4899 17.5529C17.2697 17.6931 16.7992 17.8833 16.4388 17.9734C15.8783 18.1135 15.648 18.1235 14.8171 18.0234C13.756 17.8933 11.4636 17.3427 10.5827 17.0023C9.42151 16.5619 8.56062 15.741 8.30034 14.8201C8.12016 14.1594 8.18022 12.848 8.46051 11.6067C9.11119 8.68366 9.63173 6.69158 9.90202 6.11098C10.893 3.97875 12.2344 3.59836 15.7781 4.42922ZM7.28929 9.54456C6.40837 13.2484 6.36833 14.6499 7.09909 16.1014C7.75978 17.4228 9.03111 18.2737 11.2234 18.8943L12.2144 19.1646L11.1834 19.4849C9.82193 19.9054 9.08116 20.0355 8.34039 19.9754C7.18919 19.8853 6.34831 19.2146 5.6676 17.8532C5.40733 17.3227 3.88574 12.6978 3.68553 11.847C3.50534 11.0161 3.53537 9.90493 3.77563 9.37438C4.0359 8.77375 4.68658 8.15311 5.44737 7.7627C6.18814 7.39231 7.83986 6.78168 7.87991 6.88178C7.88992 6.92182 7.62964 8.12308 7.28929 9.54456Z" fill="#138BE1"/>
<path d="M12.1343 8.1431C11.6839 8.46343 11.774 9.28429 12.2845 9.4845C12.775 9.6747 16.8693 10.6958 17.1496 10.6958C17.2997 10.6958 17.52 10.5856 17.6601 10.4455C18.1506 9.965 17.8803 9.2943 17.1296 9.1041C15.0574 8.56354 12.7049 7.99294 12.5448 7.99294C12.4347 7.99294 12.2545 8.06301 12.1343 8.1431Z" fill="#138BE1"/>
<path d="M11.1133 11.857C10.843 12.1973 10.843 12.5177 11.1333 12.848C11.3135 13.0582 11.6138 13.1783 12.7049 13.4486C14.3867 13.8791 14.717 13.8891 14.9973 13.5387C15.2676 13.1984 15.2676 12.868 14.9873 12.5577C14.8071 12.3575 14.4668 12.2274 13.3356 11.9471C11.6038 11.5166 11.3836 11.5066 11.1133 11.857Z" fill="#138BE1"/>
</svg>
