<svg width="24" height="24" viewBox="0 0 24 24" fill="none" xmlns="http://www.w3.org/2000/svg">
<path fill-rule="evenodd" clip-rule="evenodd" d="M4.93455 10.806C4.93158 10.7191 4.93039 10.633 4.93039 10.5476C4.93039 6.33178 8.5744 2.99951 12.9652 2.99951C17.356 2.99951 21 6.33178 21 10.5476C21 12.8827 19.874 14.9515 18.1355 16.3251L18.4041 18.5017C18.5598 19.7942 17.1668 20.7245 16.0366 20.0433C16.0355 20.0426 16.0345 20.042 16.0334 20.0414L12.7552 18.0933C12.5519 18.0887 12.3503 18.0775 12.1505 18.0596C11.2331 18.9979 9.93299 19.5893 8.50011 19.6427L6.52097 20.8181C5.6058 21.3738 4.49412 20.6026 4.6139 19.5845L4.6147 19.5777L4.76668 18.3804C3.68771 17.4779 3 16.1529 3 14.6644C3 13.0953 3.76098 11.7099 4.93455 10.806ZM6.4591 9.97947C7.0306 9.78027 7.64611 9.67383 8.28741 9.67383C11.1611 9.67383 13.5749 11.8602 13.5749 14.6643C13.5749 15.3584 13.4226 16.0194 13.149 16.6185C13.2188 16.6361 13.2859 16.6638 13.3483 16.7009L16.8105 18.7583C16.83 18.7701 16.8405 18.7702 16.8457 18.77C16.8541 18.7697 16.8672 18.7666 16.8814 18.7574C16.8956 18.7481 16.9048 18.7366 16.9097 18.7267C16.9132 18.7196 16.9179 18.707 16.9149 18.6816C16.9149 18.6815 16.915 18.6818 16.9149 18.6816L16.5934 16.0762C16.5594 15.801 16.6801 15.5294 16.9072 15.3702C18.4927 14.2589 19.5 12.5068 19.5 10.5476C19.5 7.25577 16.6265 4.49951 12.9652 4.49951C9.51671 4.49951 6.76706 6.9447 6.4591 9.97947ZM8.28741 11.1738C7.4747 11.1738 6.73439 11.4044 6.12288 11.8029L6.1172 11.8066C5.12511 12.4405 4.5 13.4909 4.5 14.6644C4.5 15.7838 5.07132 16.7914 5.99264 17.4308C6.22228 17.5902 6.34424 17.864 6.30904 18.1414L6.16384 19.2856L7.90458 18.2518C8.02046 18.183 8.15275 18.1467 8.28753 18.1467C9.52128 18.1467 10.6022 17.6071 11.2729 16.7941L11.2801 16.7854C11.7829 16.1942 12.0749 15.4565 12.0749 14.6643C12.0749 12.7825 10.4298 11.1738 8.28741 11.1738Z" fill="#138BE1"/>
</svg>
