<svg width="24" height="24" viewBox="0 0 24 24" fill="none" xmlns="http://www.w3.org/2000/svg">
<path fill-rule="evenodd" clip-rule="evenodd" d="M12 4.75C10.6067 4.75 9.47727 5.87946 9.47727 7.27273C9.47727 8.66599 10.6067 9.79545 12 9.79545C13.3933 9.79545 14.5227 8.66599 14.5227 7.27273C14.5227 5.87946 13.3933 4.75 12 4.75ZM7.97727 7.27273C7.97727 5.05104 9.77831 3.25 12 3.25C14.2217 3.25 16.0227 5.05104 16.0227 7.27273C16.0227 9.49442 14.2217 11.2955 12 11.2955C9.77831 11.2955 7.97727 9.49442 7.97727 7.27273ZM3.88636 7.68182C3.88636 6.0157 5.45493 4.88636 7.09091 4.88636C7.50512 4.88636 7.84091 5.22215 7.84091 5.63636C7.84091 6.05058 7.50512 6.38636 7.09091 6.38636C6.01567 6.38636 5.38636 7.08859 5.38636 7.68182C5.38636 8.27505 6.01567 8.97727 7.09091 8.97727C7.50512 8.97727 7.84091 9.31306 7.84091 9.72727C7.84091 10.1415 7.50512 10.4773 7.09091 10.4773C5.45493 10.4773 3.88636 9.34793 3.88636 7.68182ZM16.1591 5.63636C16.1591 5.22215 16.4949 4.88636 16.9091 4.88636C18.5451 4.88636 20.1136 6.0157 20.1136 7.68182C20.1136 9.34793 18.5451 10.4773 16.9091 10.4773C16.4949 10.4773 16.1591 10.1415 16.1591 9.72727C16.1591 9.31306 16.4949 8.97727 16.9091 8.97727C17.9843 8.97727 18.6136 8.27505 18.6136 7.68182C18.6136 7.08859 17.9843 6.38636 16.9091 6.38636C16.4949 6.38636 16.1591 6.05058 16.1591 5.63636ZM8.94477 14.5826C8.19049 15.0855 7.84091 15.6978 7.84091 16.2727C7.84091 16.8477 8.19049 17.46 8.94477 17.9629C9.69381 18.4622 10.7718 18.7955 12 18.7955C13.2282 18.7955 14.3062 18.4622 15.0552 17.9629C15.8095 17.46 16.1591 16.8477 16.1591 16.2727C16.1591 15.6978 15.8095 15.0855 15.0552 14.5826C14.3062 14.0832 13.2282 13.75 12 13.75C10.7718 13.75 9.69381 14.0832 8.94477 14.5826ZM8.11272 13.3345C9.14042 12.6494 10.517 12.25 12 12.25C13.483 12.25 14.8596 12.6494 15.8873 13.3345C16.9097 14.0162 17.6591 15.0402 17.6591 16.2727C17.6591 17.5053 16.9097 18.5293 15.8873 19.2109C14.8596 19.8961 13.483 20.2955 12 20.2955C10.517 20.2955 9.14042 19.8961 8.11272 19.2109C7.09026 18.5293 6.34091 17.5053 6.34091 16.2727C6.34091 15.0402 7.09026 14.0162 8.11272 13.3345ZM6.18714 13.6575C6.27586 14.0621 6.0198 14.462 5.6152 14.5508C4.98231 14.6896 4.48544 14.9263 4.164 15.1893C3.842 15.4528 3.75 15.6911 3.75 15.8636C3.75 16.0362 3.842 16.2745 4.164 16.538C4.48544 16.801 4.98231 17.0377 5.6152 17.1765C6.0198 17.2652 6.27586 17.6651 6.18714 18.0697C6.09841 18.4743 5.69849 18.7304 5.29389 18.6417C4.49149 18.4657 3.76109 18.1465 3.21407 17.6989C2.66762 17.2517 2.25 16.6247 2.25 15.8636C2.25 15.1026 2.66762 14.4756 3.21407 14.0284C3.76109 13.5808 4.49149 13.2616 5.29389 13.0856C5.69849 12.9969 6.09841 13.2529 6.18714 13.6575ZM17.8129 13.6575C17.9016 13.2529 18.3015 12.9969 18.7061 13.0856C19.5085 13.2616 20.2389 13.5808 20.7859 14.0284C21.3324 14.4756 21.75 15.1026 21.75 15.8636C21.75 16.6247 21.3324 17.2517 20.7859 17.6989C20.2389 18.1465 19.5085 18.4657 18.7061 18.6417C18.3015 18.7304 17.9016 18.4743 17.8129 18.0697C17.7241 17.6651 17.9802 17.2652 18.3848 17.1765C19.0177 17.0377 19.5146 16.801 19.836 16.538C20.158 16.2745 20.25 16.0362 20.25 15.8636C20.25 15.6911 20.158 15.4528 19.836 15.1893C19.5146 14.9263 19.0177 14.6896 18.3848 14.5508C17.9802 14.462 17.7241 14.0621 17.8129 13.6575Z" fill="#138BE1"/>
</svg>
