<svg width="18" height="15" viewBox="0 0 18 15" fill="none" xmlns="http://www.w3.org/2000/svg">
<path d="M10.9033 2.2997C9.29121 2.97024 6.06923 4.35808 1.23741 6.46323C0.452792 6.77525 0.0417773 7.08049 0.00436069 7.37895C-0.0588742 7.88336 0.57279 8.08199 1.43295 8.35246C1.54996 8.38925 1.67119 8.42737 1.79548 8.46777C2.64175 8.74286 3.78013 9.06469 4.37193 9.07748C4.90875 9.08907 5.5079 8.86776 6.16938 8.41354C10.6839 5.3661 13.0143 3.82578 13.1606 3.79257C13.2639 3.76915 13.4069 3.73969 13.5038 3.82583C13.6007 3.91197 13.5912 4.0751 13.5809 4.11887C13.5184 4.38563 11.0389 6.6908 9.75569 7.88374L9.75568 7.88375C9.35566 8.25565 9.07191 8.51945 9.01391 8.57969C8.88399 8.71463 8.75158 8.84227 8.62433 8.96495L8.62427 8.965C7.83806 9.72291 7.24848 10.2913 8.65691 11.2194C9.33373 11.6654 9.87532 12.0342 10.4156 12.4022L10.4157 12.4022C11.0058 12.8041 11.5943 13.2049 12.3558 13.7041C12.5498 13.8312 12.7351 13.9633 12.9156 14.092C13.6023 14.5816 14.2193 15.0214 14.9815 14.9512C15.4244 14.9105 15.8818 14.494 16.1142 13.252C16.6633 10.3166 17.7426 3.95651 17.992 1.33567C18.0139 1.10605 17.9864 0.812184 17.9643 0.683183C17.9422 0.554182 17.8961 0.370384 17.7284 0.234323C17.5298 0.0731858 17.2232 0.0392058 17.0861 0.041621C16.4627 0.0526027 15.5063 0.385175 10.9033 2.2997Z" fill="white"/>
<path d="M10.9033 2.2997C9.29121 2.97024 6.06923 4.35808 1.23741 6.46323C0.452792 6.77525 0.0417773 7.08049 0.00436069 7.37895C-0.0588742 7.88336 0.57279 8.08199 1.43295 8.35246C1.54996 8.38925 1.67119 8.42737 1.79548 8.46777C2.64175 8.74286 3.78013 9.06469 4.37193 9.07748C4.90875 9.08907 5.5079 8.86776 6.16938 8.41354C10.6839 5.3661 13.0143 3.82578 13.1606 3.79257C13.2639 3.76915 13.4069 3.73969 13.5038 3.82583C13.6007 3.91197 13.5912 4.0751 13.5809 4.11887C13.5184 4.38563 11.0389 6.6908 9.75569 7.88374L9.75568 7.88375C9.35566 8.25565 9.07191 8.51945 9.01391 8.57969C8.88399 8.71463 8.75158 8.84227 8.62433 8.96495L8.62427 8.965C7.83806 9.72291 7.24848 10.2913 8.65691 11.2194C9.33373 11.6654 9.87532 12.0342 10.4156 12.4022L10.4157 12.4022C11.0058 12.8041 11.5943 13.2049 12.3558 13.7041C12.5498 13.8312 12.7351 13.9633 12.9156 14.092C13.6023 14.5816 14.2193 15.0214 14.9815 14.9512C15.4244 14.9105 15.8818 14.494 16.1142 13.252C16.6633 10.3166 17.7426 3.95651 17.992 1.33567C18.0139 1.10605 17.9864 0.812184 17.9643 0.683183C17.9422 0.554182 17.8961 0.370384 17.7284 0.234323C17.5298 0.0731858 17.2232 0.0392058 17.0861 0.041621C16.4627 0.0526027 15.5063 0.385175 10.9033 2.2997Z" fill="white"/>
</svg>
