<svg width="25" height="24" viewBox="0 0 25 24" fill="none" xmlns="http://www.w3.org/2000/svg">
<path fill-rule="evenodd" clip-rule="evenodd" d="M11.6113 3.75C10.0618 3.75 8.80571 5.00609 8.80571 6.55556C8.80571 8.10502 10.0618 9.36111 11.6113 9.36111C13.1607 9.36111 14.4168 8.10502 14.4168 6.55556C14.4168 5.00609 13.1607 3.75 11.6113 3.75ZM7.30571 6.55556C7.30571 4.17766 9.23338 2.25 11.6113 2.25C13.9892 2.25 15.9168 4.17766 15.9168 6.55556C15.9168 8.93345 13.9892 10.8611 11.6113 10.8611C9.23338 10.8611 7.30571 8.93345 7.30571 6.55556ZM16.9446 12.6389C15.3951 12.6389 14.139 13.895 14.139 15.4444C14.139 16.9939 15.3951 18.25 16.9446 18.25C18.4941 18.25 19.7502 16.9939 19.7502 15.4444C19.7502 13.895 18.4941 12.6389 16.9446 12.6389ZM14.0523 12.255C14.8166 11.5615 15.8312 11.1389 16.9446 11.1389C19.3225 11.1389 21.2502 13.0666 21.2502 15.4444C21.2502 17.0304 20.3927 18.4161 19.1161 19.1631C18.7714 19.8936 18.1343 20.471 17.08 20.8634C15.9016 21.3022 14.1634 21.5278 11.6113 21.5278C9.80772 21.5278 8.41942 21.4147 7.35137 21.1985C6.28664 20.983 5.48937 20.6551 4.91546 20.1878C3.74727 19.2365 3.74886 17.903 3.75008 16.8756C3.75012 16.8426 3.75016 16.81 3.75016 16.7778C3.75016 15.2819 4.82015 14.0804 6.21526 13.2957C7.63388 12.4977 9.54318 12.0278 11.6113 12.0278C12.4621 12.0278 13.283 12.1072 14.0523 12.255ZM15.9682 19.6388C14.0607 19.1965 12.639 17.4865 12.639 15.4444C12.639 14.7901 12.785 14.1699 13.0461 13.6145C12.5854 13.5579 12.1052 13.5278 11.6113 13.5278C9.752 13.5278 8.10575 13.9533 6.95065 14.603C5.77204 15.266 5.25016 16.0645 5.25016 16.7778C5.25016 17.9475 5.29047 18.5587 5.86264 19.0246C6.17761 19.2811 6.71368 19.539 7.64895 19.7283C8.5809 19.917 9.85927 20.0278 11.6113 20.0278C13.6422 20.0278 15.0261 19.8784 15.9682 19.6388ZM18.652 14.1161C18.9492 14.4046 18.9563 14.8794 18.6679 15.1767L17.0384 16.8557C16.8903 17.0083 16.6843 17.0908 16.4718 17.0828C16.2593 17.0748 16.0602 16.9769 15.924 16.8135L15.1832 15.9246C14.9179 15.6065 14.9609 15.1335 15.2791 14.8683C15.5973 14.6031 16.0702 14.6461 16.3354 14.9643L16.5425 15.2128L17.5914 14.132C17.8799 13.8347 18.3547 13.8276 18.652 14.1161Z" fill="#138BE1"/>
</svg>
